<svg width="71" height="60" viewBox="0 0 71 60" fill="none" xmlns="http://www.w3.org/2000/svg">
<g filter="url(#filter0_d_255_4647)">
<path d="M66.7641 25.7935C66.7641 31.0631 65.6731 35.6394 63.468 39.5222C61.2629 43.4051 58.0829 46.3635 53.9513 48.3974C49.8196 50.4544 44.922 51.8643 39.2816 51.8643H30.438C31.32 51.8643 32.1324 51.4945 32.7127 50.9398C33.293 50.362 33.6412 49.553 33.6412 48.6748C33.6412 46.9182 32.2021 45.4853 30.438 45.4853L23.1728 45.3697C20.1553 45.4621 17.1378 45.3004 14.1203 45.3004C12.3562 45.3004 10.801 43.8443 10.8243 42.0646C10.8475 41.2095 11.1956 40.4236 11.7527 39.8458C12.333 39.268 13.1454 38.9213 14.0274 38.9213C17.1146 38.9213 20.2017 38.8751 23.3121 38.8289C24.8672 38.8058 28.4882 38.7133 30.0434 38.6902C31.2504 37.4884 30.0434 37.8813 31.5057 37.8582C32.3878 37.835 32.5038 36.3327 32.4342 35.3851C32.3181 33.6979 31.3433 32.3343 29.6488 32.3343C23.7299 32.3343 17.2771 32.3112 11.3581 32.3112C9.57083 32.3112 8.01566 30.8551 8.03887 29.0985C8.03887 28.2434 8.66558 27.7349 9.24587 27.1571C9.47798 26.926 9.5012 26.4175 9.82616 26.2788C10.2904 26.0477 10.801 25.9784 11.3117 25.9784H24.0316C25.7957 25.9784 27.2348 24.5454 27.2348 22.7888V22.3959C27.2348 20.6394 25.7957 19.2064 24.0316 19.2064H16.7432C16.4879 19.2064 16.2558 19.1602 16.0236 19.0677C14.8863 18.5824 14.0274 17.4499 14.0274 16.1556C14.0274 15.2773 14.3988 14.4684 14.9559 13.8906C15.5362 13.3128 16.3486 12.9661 17.2306 12.9661C22.0354 12.9661 26.8402 12.8505 31.645 12.8505C32.527 12.8505 33.3394 12.4807 33.9197 11.926C34.5464 11.302 34.9178 10.4006 34.8482 9.45298C34.7321 7.76577 33.2234 6.49459 31.5289 6.49459C24.8672 6.49459 18.2055 6.37903 11.5206 6.37903L7.22646 6.49459C5.53202 6.49459 4.55714 5.10785 4.44108 3.39753C4.37144 2.4268 4.74283 1.54853 5.36954 0.924497C5.94983 0.346686 6.34443 0.115562 7.22646 0.115562L39.3048 0C44.9452 0 49.8429 1.04006 53.9745 3.14329C58.1062 5.24652 61.2861 8.22802 63.4912 12.134C64.4197 13.775 65.1625 15.5547 65.6963 17.4499C63.2591 16.8952 60.5898 16.4329 57.7116 16.0862C57.9901 16.1787 61.8432 17.4268 66.2534 19.8998C66.6016 21.6563 66.7641 23.6671 66.7641 25.7935Z" fill="#1C0846"/>
<path d="M7.20319 6.40247C5.43912 6.40247 4 4.9695 4 3.21295C4 1.45641 5.43912 0.0234375 7.20319 0.0234375C8.96727 0.0234375 10.4064 1.45641 10.4064 3.21295C10.4064 4.9695 8.99048 6.40247 7.20319 6.40247Z" fill="#F42D60"/>
<path d="M31.6451 12.7794C29.881 12.7794 28.4419 11.3464 28.4419 9.58991C28.4419 7.83336 29.881 6.40039 31.6451 6.40039C33.4092 6.40039 34.8483 7.83336 34.8483 9.58991C34.8483 11.3464 33.4092 12.7794 31.6451 12.7794Z" fill="#FF5902"/>
<path d="M16.8128 19.1603C15.0487 19.1603 13.6096 17.7273 13.6096 15.9708C13.6096 14.2142 15.0487 12.7812 16.8128 12.7812C18.5769 12.7812 20.016 14.2142 20.016 15.9708C20.016 17.7273 18.6001 19.1603 16.8128 19.1603Z" fill="#FFCA01"/>
<path d="M24.2405 25.9318C22.3603 25.9318 20.8284 24.4064 20.8284 22.5342C20.8284 20.6621 22.3603 19.1367 24.2405 19.1367C26.1206 19.1367 27.6526 20.6621 27.6526 22.5342C27.6294 24.4064 26.0974 25.9318 24.2405 25.9318Z" fill="#3D77FD"/>
<path d="M11.2188 32.3107C9.45474 32.3107 8.01562 30.8777 8.01562 29.1212C8.01562 27.3646 9.45474 25.9316 11.2188 25.9316C12.9829 25.9316 14.422 27.3646 14.422 29.1212C14.422 30.8777 12.9829 32.3107 11.2188 32.3107Z" fill="#39D489"/>
<path d="M29.6256 38.6896C27.8615 38.6896 26.4224 37.2566 26.4224 35.5001C26.4224 33.7435 27.8615 32.3105 29.6256 32.3105C31.3896 32.3105 32.8287 33.7435 32.8287 35.5001C32.8287 37.2566 31.4128 38.6896 29.6256 38.6896Z" fill="#FF8700"/>
<path d="M13.8185 45.2775C12.0545 45.2775 10.6154 43.8445 10.6154 42.088C10.6154 40.3314 12.0545 38.8984 13.8185 38.8984C15.5826 38.8984 17.0217 40.3314 17.0217 42.088C17.0217 43.8445 15.5826 45.2775 13.8185 45.2775Z" fill="#3BD9EA"/>
<path d="M30.4381 51.84C28.674 51.84 27.2349 50.407 27.2349 48.6504C27.2349 46.8939 28.674 45.4609 30.4381 45.4609C32.2021 45.4609 33.6412 46.8939 33.6412 48.6504C33.6412 50.4301 32.2021 51.84 30.4381 51.84Z" fill="#D342D3"/>
</g>
<defs>
<filter id="filter0_d_255_4647" x="0" y="0" width="70.764" height="59.8652" filterUnits="userSpaceOnUse" color-interpolation-filters="sRGB">
<feFlood flood-opacity="0" result="BackgroundImageFix"/>
<feColorMatrix in="SourceAlpha" type="matrix" values="0 0 0 0 0 0 0 0 0 0 0 0 0 0 0 0 0 0 127 0" result="hardAlpha"/>
<feOffset dy="4"/>
<feGaussianBlur stdDeviation="2"/>
<feComposite in2="hardAlpha" operator="out"/>
<feColorMatrix type="matrix" values="0 0 0 0 0 0 0 0 0 0 0 0 0 0 0 0 0 0 0.25 0"/>
<feBlend mode="normal" in2="BackgroundImageFix" result="effect1_dropShadow_255_4647"/>
<feBlend mode="normal" in="SourceGraphic" in2="effect1_dropShadow_255_4647" result="shape"/>
</filter>
</defs>
</svg>
