<svg width="48" height="42" viewBox="0 0 48 42" fill="none" xmlns="http://www.w3.org/2000/svg">
<path d="M47.9999 21.0006C43.1733 26.7908 39.6339 29.3649 31.268 30.9738C31.9117 26.1473 30.6246 25.8255 26.4417 20.3555C22.9021 14.5638 10.3533 9.73728 23.8675 9.09375C37.0177 9.09375 44.4604 16.4943 47.9999 21.0006Z" fill="#006D6C"/>
<path d="M43.9073 24.953C43.4888 25.3251 43.0547 25.6816 42.6052 26.0227C42.1556 26.3637 41.7061 26.697 41.2565 27.0225L23.3753 9.14131C23.5148 9.14131 23.6466 9.13356 23.7706 9.11806C23.8946 9.10256 24.0341 9.09481 24.1892 9.09481C24.9022 9.09481 25.6076 9.12581 26.3051 9.18782C27.0027 9.24983 27.708 9.35059 28.4211 9.4901L43.9073 24.953ZM0.378567 21.0001C2.36278 18.7679 4.57177 16.7759 7.00554 15.0242C9.4393 13.2725 12.0668 11.8774 14.8881 10.8387L6.77301 2.70036L8.86574 0.607634L18.1202 9.86214L19.5852 9.55986L38.6987 28.6734L37.5826 29.3245L47.558 39.2999L45.4652 41.3926L34.7458 30.6732C33.0716 31.3862 31.3509 31.9365 29.5837 32.3241C27.8166 32.7116 26.0184 32.9054 24.1892 32.9054C21.8639 32.9054 19.6007 32.6031 17.3994 31.9986C15.1982 31.394 13.09 30.5646 11.0747 29.5105C9.05951 28.4564 7.1528 27.193 5.35461 25.7204C3.55641 24.2477 1.89773 22.6743 0.378567 21.0001ZM24.1892 29.9291C25.3828 29.9291 26.5222 29.7043 27.6073 29.2548C28.6924 28.8052 29.6613 28.1619 30.5139 27.3248L26.3051 23.1161C26.0261 23.3951 25.7083 23.6044 25.3518 23.7439C24.9952 23.8834 24.6077 23.9609 24.1892 23.9764C23.7706 23.9764 23.3831 23.8989 23.0265 23.7439C22.67 23.5889 22.3522 23.3796 22.0732 23.1161C21.7942 22.8526 21.5849 22.5425 21.4454 22.186C21.3058 21.8294 21.2283 21.4342 21.2128 21.0001C21.2128 20.5971 21.2826 20.2173 21.4221 19.8607C21.5616 19.5042 21.7786 19.1787 22.0732 18.8841L17.8645 14.6754C17.0274 15.5125 16.3841 16.4736 15.9345 17.5587C15.485 18.6438 15.2602 19.791 15.2602 21.0001C15.2602 22.2402 15.4927 23.4029 15.9578 24.488C16.4228 25.5731 17.0584 26.5187 17.8645 27.3248C18.6706 28.1309 19.6162 28.7665 20.7013 29.2315C21.7864 29.6966 22.949 29.9291 24.1892 29.9291ZM14.4463 14.2104C12.5861 15.032 10.8267 16.0163 9.16802 17.1634C7.50934 18.3106 5.95142 19.5895 4.49427 21.0001C5.95142 22.4108 7.50934 23.6896 9.16802 24.8368C10.8267 25.9839 12.5861 26.9683 14.4463 27.7898C13.7488 26.7977 13.2217 25.7204 12.8652 24.5577C12.5086 23.3951 12.3304 22.2092 12.3304 21.0001C12.3304 19.791 12.5086 18.6051 12.8652 17.4425C13.2217 16.2798 13.7488 15.2025 14.4463 14.2104ZM47.9998 21.0001C47.3952 21.6667 46.7674 22.3177 46.1163 22.9533L34.2343 11.0713C36.9005 12.1409 39.3808 13.5283 41.6751 15.2335C43.9693 16.9387 46.0775 18.8609 47.9998 21.0001Z" fill="black"/>
<circle cx="24.1892" cy="21" r="1.28706" fill="#D9D9D9"/>
</svg>
