<svg width="365" height="204" viewBox="0 0 365 204" fill="none" xmlns="http://www.w3.org/2000/svg">
<g filter="url(#filter0_d_438_373)">
<rect x="8" y="4" width="349" height="188" rx="5" fill="white"/>
</g>
<path d="M244.823 154.021L240.758 143.521H242.078L244.688 150.361C244.808 150.671 244.913 150.946 245.003 151.186C245.093 151.426 245.173 151.656 245.243 151.876C245.323 152.086 245.398 152.296 245.468 152.506C245.538 152.716 245.613 152.946 245.693 153.196L245.303 153.211C245.403 152.871 245.498 152.556 245.588 152.266C245.688 151.976 245.788 151.681 245.888 151.381C245.998 151.071 246.133 150.711 246.293 150.301L248.888 143.521H250.208L246.023 154.021H244.823ZM254.04 154.171C253.36 154.171 252.745 153.996 252.195 153.646C251.645 153.286 251.21 152.801 250.89 152.191C250.57 151.571 250.41 150.871 250.41 150.091C250.41 149.301 250.575 148.601 250.905 147.991C251.235 147.381 251.675 146.901 252.225 146.551C252.785 146.201 253.41 146.026 254.1 146.026C254.51 146.026 254.89 146.086 255.24 146.206C255.59 146.326 255.9 146.496 256.17 146.716C256.45 146.926 256.68 147.176 256.86 147.466C257.05 147.746 257.18 148.051 257.25 148.381L256.92 148.216L256.965 146.191H258.09V154.021H256.95V152.101L257.25 151.906C257.18 152.206 257.045 152.496 256.845 152.776C256.645 153.046 256.4 153.286 256.11 153.496C255.83 153.706 255.51 153.871 255.15 153.991C254.8 154.111 254.43 154.171 254.04 154.171ZM254.295 153.091C254.815 153.091 255.28 152.966 255.69 152.716C256.1 152.456 256.42 152.101 256.65 151.651C256.89 151.191 257.01 150.671 257.01 150.091C257.01 149.511 256.89 148.996 256.65 148.546C256.42 148.096 256.1 147.741 255.69 147.481C255.28 147.221 254.815 147.091 254.295 147.091C253.765 147.091 253.295 147.221 252.885 147.481C252.485 147.741 252.165 148.096 251.925 148.546C251.695 148.996 251.58 149.511 251.58 150.091C251.58 150.661 251.695 151.176 251.925 151.636C252.155 152.086 252.475 152.441 252.885 152.701C253.295 152.961 253.765 153.091 254.295 153.091ZM260.482 154.021V146.191H261.592L261.637 147.826L261.457 147.901C261.557 147.561 261.752 147.251 262.042 146.971C262.332 146.691 262.677 146.466 263.077 146.296C263.487 146.116 263.907 146.026 264.337 146.026C264.917 146.026 265.402 146.141 265.792 146.371C266.182 146.601 266.477 146.956 266.677 147.436C266.877 147.916 266.977 148.526 266.977 149.266V154.021H265.837V149.326C265.837 148.806 265.767 148.381 265.627 148.051C265.497 147.711 265.292 147.461 265.012 147.301C264.732 147.141 264.387 147.066 263.977 147.076C263.637 147.076 263.322 147.136 263.032 147.256C262.742 147.366 262.492 147.521 262.282 147.721C262.072 147.921 261.907 148.151 261.787 148.411C261.667 148.671 261.607 148.951 261.607 149.251V154.021H261.052C260.982 154.021 260.902 154.021 260.812 154.021C260.722 154.021 260.612 154.021 260.482 154.021ZM277.194 154.171C276.414 154.171 275.719 153.996 275.109 153.646C274.509 153.296 274.034 152.811 273.684 152.191C273.344 151.571 273.174 150.866 273.174 150.076C273.174 149.296 273.344 148.601 273.684 147.991C274.034 147.381 274.509 146.901 275.109 146.551C275.719 146.201 276.414 146.026 277.194 146.026C277.964 146.026 278.649 146.201 279.249 146.551C279.859 146.901 280.334 147.381 280.674 147.991C281.024 148.601 281.199 149.296 281.199 150.076C281.199 150.866 281.024 151.571 280.674 152.191C280.334 152.811 279.859 153.296 279.249 153.646C278.649 153.996 277.964 154.171 277.194 154.171ZM277.194 153.106C277.744 153.106 278.234 152.976 278.664 152.716C279.094 152.446 279.429 152.086 279.669 151.636C279.909 151.176 280.029 150.656 280.029 150.076C280.029 149.496 279.909 148.981 279.669 148.531C279.429 148.081 279.094 147.731 278.664 147.481C278.234 147.221 277.744 147.091 277.194 147.091C276.644 147.091 276.149 147.221 275.709 147.481C275.279 147.731 274.939 148.086 274.689 148.546C274.449 148.996 274.334 149.506 274.344 150.076C274.334 150.656 274.449 151.176 274.689 151.636C274.939 152.086 275.279 152.446 275.709 152.716C276.149 152.976 276.644 153.106 277.194 153.106ZM283.04 154.021V146.191H284.165L284.195 148.276L284.075 147.991C284.185 147.641 284.36 147.316 284.6 147.016C284.85 146.716 285.145 146.476 285.485 146.296C285.825 146.116 286.2 146.026 286.61 146.026C286.78 146.026 286.94 146.041 287.09 146.071C287.24 146.091 287.365 146.121 287.465 146.161L287.15 147.421C287.02 147.361 286.885 147.321 286.745 147.301C286.615 147.271 286.49 147.256 286.37 147.256C286.03 147.256 285.725 147.316 285.455 147.436C285.185 147.556 284.955 147.726 284.765 147.946C284.575 148.156 284.43 148.401 284.33 148.681C284.23 148.961 284.18 149.261 284.18 149.581V154.021H283.04ZM293.69 154.021V143.521H297.95C298.56 143.521 299.085 143.631 299.525 143.851C299.975 144.061 300.32 144.366 300.56 144.766C300.8 145.156 300.92 145.621 300.92 146.161C300.92 146.741 300.755 147.241 300.425 147.661C300.095 148.071 299.645 148.356 299.075 148.516L299.045 148.231C299.535 148.321 299.96 148.496 300.32 148.756C300.68 149.006 300.96 149.316 301.16 149.686C301.37 150.056 301.475 150.471 301.475 150.931C301.475 151.401 301.395 151.826 301.235 152.206C301.075 152.586 300.845 152.911 300.545 153.181C300.255 153.451 299.9 153.661 299.48 153.811C299.07 153.951 298.61 154.021 298.1 154.021H293.69ZM294.86 152.881H298.01C298.46 152.881 298.85 152.806 299.18 152.656C299.52 152.496 299.78 152.271 299.96 151.981C300.15 151.691 300.245 151.356 300.245 150.976C300.245 150.616 300.145 150.301 299.945 150.031C299.755 149.761 299.485 149.551 299.135 149.401C298.795 149.251 298.395 149.176 297.935 149.176H294.86V152.881ZM294.86 148.036H297.86C298.22 148.036 298.54 147.966 298.82 147.826C299.1 147.676 299.32 147.476 299.48 147.226C299.64 146.966 299.72 146.676 299.72 146.356C299.72 145.846 299.545 145.436 299.195 145.126C298.855 144.816 298.375 144.661 297.755 144.661H294.86V148.036ZM303.803 154.021V146.191H304.928V154.021H303.803ZM304.358 144.496C304.078 144.496 303.863 144.426 303.713 144.286C303.573 144.136 303.503 143.936 303.503 143.686C303.503 143.436 303.578 143.236 303.728 143.086C303.878 142.936 304.088 142.861 304.358 142.861C304.628 142.861 304.838 142.936 304.988 143.086C305.138 143.226 305.213 143.426 305.213 143.686C305.213 143.926 305.138 144.121 304.988 144.271C304.838 144.421 304.628 144.496 304.358 144.496ZM310.96 157.471C310.38 157.471 309.83 157.381 309.31 157.201C308.79 157.021 308.36 156.796 308.02 156.526L308.47 155.581C308.67 155.741 308.9 155.881 309.16 156.001C309.43 156.131 309.72 156.231 310.03 156.301C310.34 156.381 310.655 156.421 310.975 156.421C311.555 156.421 312.045 156.311 312.445 156.091C312.855 155.881 313.165 155.566 313.375 155.146C313.595 154.726 313.705 154.206 313.705 153.586V152.086L313.885 152.041C313.795 152.421 313.6 152.776 313.3 153.106C313 153.426 312.635 153.686 312.205 153.886C311.775 154.076 311.32 154.171 310.84 154.171C310.11 154.171 309.455 153.996 308.875 153.646C308.305 153.296 307.855 152.816 307.525 152.206C307.195 151.586 307.03 150.886 307.03 150.106C307.03 149.316 307.195 148.616 307.525 148.006C307.865 147.386 308.32 146.901 308.89 146.551C309.46 146.201 310.1 146.026 310.81 146.026C311.12 146.026 311.42 146.066 311.71 146.146C312 146.216 312.265 146.321 312.505 146.461C312.755 146.601 312.98 146.761 313.18 146.941C313.38 147.121 313.545 147.316 313.675 147.526C313.815 147.736 313.915 147.951 313.975 148.171L313.66 148.126L313.705 146.191H314.83V153.541C314.83 154.171 314.74 154.726 314.56 155.206C314.38 155.696 314.115 156.106 313.765 156.436C313.425 156.776 313.015 157.031 312.535 157.201C312.065 157.381 311.54 157.471 310.96 157.471ZM310.975 153.091C311.505 153.091 311.975 152.966 312.385 152.716C312.805 152.456 313.135 152.101 313.375 151.651C313.615 151.201 313.735 150.681 313.735 150.091C313.735 149.511 313.615 148.996 313.375 148.546C313.145 148.096 312.82 147.741 312.4 147.481C311.98 147.221 311.505 147.091 310.975 147.091C310.435 147.091 309.955 147.221 309.535 147.481C309.125 147.741 308.8 148.096 308.56 148.546C308.32 148.996 308.2 149.511 308.2 150.091C308.2 150.661 308.315 151.176 308.545 151.636C308.785 152.086 309.11 152.441 309.52 152.701C309.94 152.961 310.425 153.091 310.975 153.091ZM320.594 157.471C320.014 157.471 319.464 157.381 318.944 157.201C318.424 157.021 317.994 156.796 317.654 156.526L318.104 155.581C318.304 155.741 318.534 155.881 318.794 156.001C319.064 156.131 319.354 156.231 319.664 156.301C319.974 156.381 320.289 156.421 320.609 156.421C321.189 156.421 321.679 156.311 322.079 156.091C322.489 155.881 322.799 155.566 323.009 155.146C323.229 154.726 323.339 154.206 323.339 153.586V152.086L323.519 152.041C323.429 152.421 323.234 152.776 322.934 153.106C322.634 153.426 322.269 153.686 321.839 153.886C321.409 154.076 320.954 154.171 320.474 154.171C319.744 154.171 319.089 153.996 318.509 153.646C317.939 153.296 317.489 152.816 317.159 152.206C316.829 151.586 316.664 150.886 316.664 150.106C316.664 149.316 316.829 148.616 317.159 148.006C317.499 147.386 317.954 146.901 318.524 146.551C319.094 146.201 319.734 146.026 320.444 146.026C320.754 146.026 321.054 146.066 321.344 146.146C321.634 146.216 321.899 146.321 322.139 146.461C322.389 146.601 322.614 146.761 322.814 146.941C323.014 147.121 323.179 147.316 323.309 147.526C323.449 147.736 323.549 147.951 323.609 148.171L323.294 148.126L323.339 146.191H324.464V153.541C324.464 154.171 324.374 154.726 324.194 155.206C324.014 155.696 323.749 156.106 323.399 156.436C323.059 156.776 322.649 157.031 322.169 157.201C321.699 157.381 321.174 157.471 320.594 157.471ZM320.609 153.091C321.139 153.091 321.609 152.966 322.019 152.716C322.439 152.456 322.769 152.101 323.009 151.651C323.249 151.201 323.369 150.681 323.369 150.091C323.369 149.511 323.249 148.996 323.009 148.546C322.779 148.096 322.454 147.741 322.034 147.481C321.614 147.221 321.139 147.091 320.609 147.091C320.069 147.091 319.589 147.221 319.169 147.481C318.759 147.741 318.434 148.096 318.194 148.546C317.954 148.996 317.834 149.511 317.834 150.091C317.834 150.661 317.949 151.176 318.179 151.636C318.419 152.086 318.744 152.441 319.154 152.701C319.574 152.961 320.059 153.091 320.609 153.091ZM330.302 154.171C329.522 154.171 328.827 154.001 328.217 153.661C327.617 153.321 327.147 152.846 326.807 152.236C326.467 151.626 326.297 150.926 326.297 150.136C326.297 149.526 326.392 148.976 326.582 148.486C326.772 147.986 327.037 147.551 327.377 147.181C327.727 146.811 328.142 146.526 328.622 146.326C329.102 146.116 329.622 146.011 330.182 146.011C330.712 146.011 331.192 146.106 331.622 146.296C332.062 146.486 332.437 146.751 332.747 147.091C333.067 147.421 333.307 147.816 333.467 148.276C333.627 148.736 333.697 149.241 333.677 149.791L333.662 150.316H327.137L326.972 149.371H332.807L332.537 149.626V149.266C332.517 148.906 332.412 148.561 332.222 148.231C332.032 147.891 331.762 147.616 331.412 147.406C331.072 147.196 330.662 147.091 330.182 147.091C329.622 147.091 329.137 147.206 328.727 147.436C328.317 147.656 328.002 147.986 327.782 148.426C327.562 148.866 327.452 149.411 327.452 150.061C327.452 150.681 327.572 151.221 327.812 151.681C328.052 152.131 328.392 152.481 328.832 152.731C329.282 152.981 329.822 153.106 330.452 153.106C330.822 153.106 331.187 153.046 331.547 152.926C331.917 152.796 332.322 152.546 332.762 152.176L333.347 152.986C333.117 153.216 332.842 153.421 332.522 153.601C332.202 153.771 331.852 153.911 331.472 154.021C331.092 154.121 330.702 154.171 330.302 154.171ZM335.475 154.021V146.191H336.6L336.63 148.276L336.51 147.991C336.62 147.641 336.795 147.316 337.035 147.016C337.285 146.716 337.58 146.476 337.92 146.296C338.26 146.116 338.635 146.026 339.045 146.026C339.215 146.026 339.375 146.041 339.525 146.071C339.675 146.091 339.8 146.121 339.9 146.161L339.585 147.421C339.455 147.361 339.32 147.321 339.18 147.301C339.05 147.271 338.925 147.256 338.805 147.256C338.465 147.256 338.16 147.316 337.89 147.436C337.62 147.556 337.39 147.726 337.2 147.946C337.01 148.156 336.865 148.401 336.765 148.681C336.665 148.961 336.615 149.261 336.615 149.581V154.021H335.475Z" fill="#1E238E"/>
<path d="M40.1008 154.171C39.3608 154.171 38.6758 154.041 38.0458 153.781C37.4258 153.511 36.8808 153.136 36.4108 152.656C35.9508 152.176 35.5908 151.611 35.3308 150.961C35.0808 150.301 34.9558 149.581 34.9558 148.801C34.9558 148.021 35.0808 147.306 35.3308 146.656C35.5908 145.996 35.9508 145.426 36.4108 144.946C36.8808 144.456 37.4258 144.081 38.0458 143.821C38.6758 143.551 39.3608 143.416 40.1008 143.416C40.8508 143.416 41.5358 143.551 42.1558 143.821C42.7858 144.081 43.3308 144.456 43.7908 144.946C44.2608 145.426 44.6208 145.996 44.8708 146.656C45.1308 147.306 45.2608 148.021 45.2608 148.801C45.2608 149.571 45.1308 150.286 44.8708 150.946C44.6208 151.596 44.2608 152.166 43.7908 152.656C43.3308 153.136 42.7858 153.511 42.1558 153.781C41.5358 154.041 40.8508 154.171 40.1008 154.171ZM40.1008 153.016C40.6708 153.016 41.1958 152.916 41.6758 152.716C42.1658 152.506 42.5858 152.211 42.9358 151.831C43.2858 151.451 43.5558 151.006 43.7458 150.496C43.9458 149.976 44.0458 149.411 44.0458 148.801C44.0458 148.181 43.9458 147.616 43.7458 147.106C43.5558 146.586 43.2858 146.136 42.9358 145.756C42.5858 145.376 42.1658 145.081 41.6758 144.871C41.1958 144.661 40.6708 144.556 40.1008 144.556C39.5308 144.556 39.0008 144.661 38.5108 144.871C38.0308 145.081 37.6158 145.376 37.2658 145.756C36.9158 146.136 36.6458 146.586 36.4558 147.106C36.2658 147.616 36.1708 148.181 36.1708 148.801C36.1708 149.411 36.2658 149.976 36.4558 150.496C36.6458 151.006 36.9158 151.451 37.2658 151.831C37.6158 152.211 38.0308 152.506 38.5108 152.716C39.0008 152.916 39.5308 153.016 40.1008 153.016ZM47.2931 154.021V146.191H48.4031L48.4481 147.826L48.2681 147.901C48.3681 147.561 48.5631 147.251 48.8531 146.971C49.1431 146.691 49.4881 146.466 49.8881 146.296C50.2981 146.116 50.7181 146.026 51.1481 146.026C51.7281 146.026 52.2131 146.141 52.6031 146.371C52.9931 146.601 53.2881 146.956 53.4881 147.436C53.6881 147.916 53.7881 148.526 53.7881 149.266V154.021H52.6481V149.326C52.6481 148.806 52.5781 148.381 52.4381 148.051C52.3081 147.711 52.1031 147.461 51.8231 147.301C51.5431 147.141 51.1981 147.066 50.7881 147.076C50.4481 147.076 50.1331 147.136 49.8431 147.256C49.5531 147.366 49.3031 147.521 49.0931 147.721C48.8831 147.921 48.7181 148.151 48.5981 148.411C48.4781 148.671 48.4181 148.951 48.4181 149.251V154.021H47.8631C47.7931 154.021 47.7131 154.021 47.6231 154.021C47.5331 154.021 47.4231 154.021 47.2931 154.021ZM60.9898 154.021V143.521H62.1598V154.021H60.9898ZM61.5748 149.341V148.186H66.8848V149.341H61.5748ZM61.5748 144.661V143.521H67.5898V144.661H61.5748ZM72.8767 154.171C72.0967 154.171 71.4017 153.996 70.7917 153.646C70.1917 153.296 69.7167 152.811 69.3667 152.191C69.0267 151.571 68.8567 150.866 68.8567 150.076C68.8567 149.296 69.0267 148.601 69.3667 147.991C69.7167 147.381 70.1917 146.901 70.7917 146.551C71.4017 146.201 72.0967 146.026 72.8767 146.026C73.6467 146.026 74.3317 146.201 74.9317 146.551C75.5417 146.901 76.0167 147.381 76.3567 147.991C76.7067 148.601 76.8817 149.296 76.8817 150.076C76.8817 150.866 76.7067 151.571 76.3567 152.191C76.0167 152.811 75.5417 153.296 74.9317 153.646C74.3317 153.996 73.6467 154.171 72.8767 154.171ZM72.8767 153.106C73.4267 153.106 73.9167 152.976 74.3467 152.716C74.7767 152.446 75.1117 152.086 75.3517 151.636C75.5917 151.176 75.7117 150.656 75.7117 150.076C75.7117 149.496 75.5917 148.981 75.3517 148.531C75.1117 148.081 74.7767 147.731 74.3467 147.481C73.9167 147.221 73.4267 147.091 72.8767 147.091C72.3267 147.091 71.8317 147.221 71.3917 147.481C70.9617 147.731 70.6217 148.086 70.3717 148.546C70.1317 148.996 70.0167 149.506 70.0267 150.076C70.0167 150.656 70.1317 151.176 70.3717 151.636C70.6217 152.086 70.9617 152.446 71.3917 152.716C71.8317 152.976 72.3267 153.106 72.8767 153.106ZM82.188 154.171C81.408 154.171 80.713 153.996 80.103 153.646C79.503 153.296 79.028 152.811 78.678 152.191C78.338 151.571 78.168 150.866 78.168 150.076C78.168 149.296 78.338 148.601 78.678 147.991C79.028 147.381 79.503 146.901 80.103 146.551C80.713 146.201 81.408 146.026 82.188 146.026C82.958 146.026 83.643 146.201 84.243 146.551C84.853 146.901 85.328 147.381 85.668 147.991C86.018 148.601 86.193 149.296 86.193 150.076C86.193 150.866 86.018 151.571 85.668 152.191C85.328 152.811 84.853 153.296 84.243 153.646C83.643 153.996 82.958 154.171 82.188 154.171ZM82.188 153.106C82.738 153.106 83.228 152.976 83.658 152.716C84.088 152.446 84.423 152.086 84.663 151.636C84.903 151.176 85.023 150.656 85.023 150.076C85.023 149.496 84.903 148.981 84.663 148.531C84.423 148.081 84.088 147.731 83.658 147.481C83.228 147.221 82.738 147.091 82.188 147.091C81.638 147.091 81.143 147.221 80.703 147.481C80.273 147.731 79.933 148.086 79.683 148.546C79.443 148.996 79.328 149.506 79.338 150.076C79.328 150.656 79.443 151.176 79.683 151.636C79.933 152.086 80.273 152.446 80.703 152.716C81.143 152.976 81.638 153.106 82.188 153.106ZM89.1144 154.021V144.136H90.2394V154.021H89.1144ZM87.3444 147.271V146.191H92.2194V147.271H87.3444Z" fill="#1E238E"/>
<path d="M144.926 154.171C144.396 154.171 143.896 154.096 143.426 153.946C142.956 153.796 142.526 153.571 142.136 153.271C141.746 152.971 141.401 152.601 141.101 152.161L141.911 151.261C142.381 151.931 142.861 152.401 143.351 152.671C143.851 152.941 144.411 153.076 145.031 153.076C145.481 153.076 145.891 153.001 146.261 152.851C146.631 152.701 146.921 152.491 147.131 152.221C147.341 151.951 147.446 151.641 147.446 151.291C147.446 151.061 147.406 150.856 147.326 150.676C147.256 150.496 147.146 150.336 146.996 150.196C146.846 150.056 146.661 149.931 146.441 149.821C146.221 149.711 145.966 149.611 145.676 149.521C145.396 149.431 145.081 149.341 144.731 149.251C144.221 149.131 143.771 148.991 143.381 148.831C143.001 148.661 142.676 148.456 142.406 148.216C142.146 147.976 141.946 147.701 141.806 147.391C141.676 147.071 141.611 146.696 141.611 146.266C141.611 145.856 141.696 145.476 141.866 145.126C142.046 144.776 142.291 144.476 142.601 144.226C142.911 143.966 143.276 143.766 143.696 143.626C144.116 143.486 144.566 143.416 145.046 143.416C145.586 143.416 146.066 143.491 146.486 143.641C146.916 143.781 147.296 143.991 147.626 144.271C147.956 144.551 148.241 144.886 148.481 145.276L147.656 146.086C147.446 145.756 147.206 145.471 146.936 145.231C146.676 144.991 146.386 144.811 146.066 144.691C145.756 144.561 145.411 144.496 145.031 144.496C144.591 144.496 144.201 144.571 143.861 144.721C143.531 144.871 143.271 145.081 143.081 145.351C142.891 145.611 142.796 145.911 142.796 146.251C142.796 146.501 142.841 146.726 142.931 146.926C143.021 147.116 143.161 147.286 143.351 147.436C143.551 147.576 143.806 147.706 144.116 147.826C144.436 147.936 144.816 148.041 145.256 148.141C145.776 148.261 146.241 148.406 146.651 148.576C147.071 148.746 147.426 148.951 147.716 149.191C148.016 149.421 148.241 149.691 148.391 150.001C148.551 150.311 148.631 150.666 148.631 151.066C148.631 151.686 148.476 152.231 148.166 152.701C147.856 153.161 147.421 153.521 146.861 153.781C146.311 154.041 145.666 154.171 144.926 154.171ZM150.727 154.021V146.191H151.852L151.882 147.976L151.657 148.051C151.737 147.751 151.867 147.481 152.047 147.241C152.237 146.991 152.462 146.776 152.722 146.596C152.982 146.416 153.267 146.281 153.577 146.191C153.887 146.091 154.212 146.041 154.552 146.041C154.962 146.041 155.327 146.111 155.647 146.251C155.977 146.381 156.252 146.611 156.472 146.941C156.702 147.261 156.877 147.686 156.997 148.216L156.727 148.081L156.832 147.826C156.932 147.596 157.077 147.376 157.267 147.166C157.467 146.946 157.692 146.751 157.942 146.581C158.202 146.411 158.482 146.281 158.782 146.191C159.092 146.091 159.407 146.041 159.727 146.041C160.277 146.041 160.742 146.161 161.122 146.401C161.502 146.631 161.787 146.986 161.977 147.466C162.177 147.946 162.277 148.556 162.277 149.296V154.021H161.122V149.356C161.122 148.836 161.057 148.411 160.927 148.081C160.797 147.751 160.602 147.506 160.342 147.346C160.092 147.176 159.772 147.091 159.382 147.091C159.042 147.091 158.727 147.151 158.437 147.271C158.157 147.381 157.912 147.541 157.702 147.751C157.502 147.951 157.342 148.181 157.222 148.441C157.112 148.701 157.057 148.981 157.057 149.281V154.021H155.917V149.341C155.917 148.841 155.847 148.426 155.707 148.096C155.577 147.766 155.382 147.516 155.122 147.346C154.862 147.176 154.542 147.091 154.162 147.091C153.832 147.091 153.527 147.151 153.247 147.271C152.967 147.381 152.722 147.536 152.512 147.736C152.312 147.936 152.152 148.166 152.032 148.426C151.922 148.686 151.867 148.966 151.867 149.266V154.021H150.727ZM167.669 154.171C166.989 154.171 166.374 153.996 165.824 153.646C165.274 153.286 164.839 152.801 164.519 152.191C164.199 151.571 164.039 150.871 164.039 150.091C164.039 149.301 164.204 148.601 164.534 147.991C164.864 147.381 165.304 146.901 165.854 146.551C166.414 146.201 167.039 146.026 167.729 146.026C168.139 146.026 168.519 146.086 168.869 146.206C169.219 146.326 169.529 146.496 169.799 146.716C170.079 146.926 170.309 147.176 170.489 147.466C170.679 147.746 170.809 148.051 170.879 148.381L170.549 148.216L170.594 146.191H171.719V154.021H170.579V152.101L170.879 151.906C170.809 152.206 170.674 152.496 170.474 152.776C170.274 153.046 170.029 153.286 169.739 153.496C169.459 153.706 169.139 153.871 168.779 153.991C168.429 154.111 168.059 154.171 167.669 154.171ZM167.924 153.091C168.444 153.091 168.909 152.966 169.319 152.716C169.729 152.456 170.049 152.101 170.279 151.651C170.519 151.191 170.639 150.671 170.639 150.091C170.639 149.511 170.519 148.996 170.279 148.546C170.049 148.096 169.729 147.741 169.319 147.481C168.909 147.221 168.444 147.091 167.924 147.091C167.394 147.091 166.924 147.221 166.514 147.481C166.114 147.741 165.794 148.096 165.554 148.546C165.324 148.996 165.209 149.511 165.209 150.091C165.209 150.661 165.324 151.176 165.554 151.636C165.784 152.086 166.104 152.441 166.514 152.701C166.924 152.961 167.394 153.091 167.924 153.091ZM174.14 154.021V142.921H175.265V154.021H174.14ZM177.709 154.021V142.921H178.834V154.021H177.709ZM190.453 154.171C189.703 154.171 189.013 154.041 188.383 153.781C187.753 153.511 187.208 153.136 186.748 152.656C186.288 152.166 185.928 151.591 185.668 150.931C185.418 150.271 185.293 149.551 185.293 148.771C185.293 148.001 185.418 147.296 185.668 146.656C185.928 146.006 186.293 145.441 186.763 144.961C187.233 144.471 187.778 144.096 188.398 143.836C189.018 143.576 189.698 143.446 190.438 143.446C190.928 143.446 191.413 143.526 191.893 143.686C192.373 143.836 192.813 144.046 193.213 144.316C193.623 144.586 193.958 144.896 194.218 145.246L193.408 146.086C193.158 145.786 192.868 145.526 192.538 145.306C192.218 145.086 191.878 144.916 191.518 144.796C191.158 144.676 190.798 144.616 190.438 144.616C189.878 144.616 189.353 144.721 188.863 144.931C188.383 145.131 187.968 145.416 187.618 145.786C187.268 146.156 186.993 146.596 186.793 147.106C186.603 147.616 186.508 148.171 186.508 148.771C186.508 149.391 186.603 149.961 186.793 150.481C186.993 151.001 187.273 151.451 187.633 151.831C188.003 152.201 188.433 152.491 188.923 152.701C189.423 152.901 189.978 153.001 190.588 153.001C190.948 153.001 191.308 152.951 191.668 152.851C192.028 152.741 192.358 152.591 192.658 152.401C192.958 152.211 193.213 151.996 193.423 151.756L194.023 152.731C193.793 153.011 193.483 153.261 193.093 153.481C192.713 153.691 192.293 153.861 191.833 153.991C191.373 154.111 190.913 154.171 190.453 154.171ZM199.049 154.171C198.369 154.171 197.754 153.996 197.204 153.646C196.654 153.286 196.219 152.801 195.899 152.191C195.579 151.571 195.419 150.871 195.419 150.091C195.419 149.301 195.584 148.601 195.914 147.991C196.244 147.381 196.684 146.901 197.234 146.551C197.794 146.201 198.419 146.026 199.109 146.026C199.519 146.026 199.899 146.086 200.249 146.206C200.599 146.326 200.909 146.496 201.179 146.716C201.459 146.926 201.689 147.176 201.869 147.466C202.059 147.746 202.189 148.051 202.259 148.381L201.929 148.216L201.974 146.191H203.099V154.021H201.959V152.101L202.259 151.906C202.189 152.206 202.054 152.496 201.854 152.776C201.654 153.046 201.409 153.286 201.119 153.496C200.839 153.706 200.519 153.871 200.159 153.991C199.809 154.111 199.439 154.171 199.049 154.171ZM199.304 153.091C199.824 153.091 200.289 152.966 200.699 152.716C201.109 152.456 201.429 152.101 201.659 151.651C201.899 151.191 202.019 150.671 202.019 150.091C202.019 149.511 201.899 148.996 201.659 148.546C201.429 148.096 201.109 147.741 200.699 147.481C200.289 147.221 199.824 147.091 199.304 147.091C198.774 147.091 198.304 147.221 197.894 147.481C197.494 147.741 197.174 148.096 196.934 148.546C196.704 148.996 196.589 149.511 196.589 150.091C196.589 150.661 196.704 151.176 196.934 151.636C197.164 152.086 197.484 152.441 197.894 152.701C198.304 152.961 198.774 153.091 199.304 153.091ZM205.491 154.021V146.191H206.616L206.646 148.276L206.526 147.991C206.636 147.641 206.811 147.316 207.051 147.016C207.301 146.716 207.596 146.476 207.936 146.296C208.276 146.116 208.651 146.026 209.061 146.026C209.231 146.026 209.391 146.041 209.541 146.071C209.691 146.091 209.816 146.121 209.916 146.161L209.601 147.421C209.471 147.361 209.336 147.321 209.196 147.301C209.066 147.271 208.941 147.256 208.821 147.256C208.481 147.256 208.176 147.316 207.906 147.436C207.636 147.556 207.406 147.726 207.216 147.946C207.026 148.156 206.881 148.401 206.781 148.681C206.681 148.961 206.631 149.261 206.631 149.581V154.021H205.491Z" fill="#1E238E"/>
<path d="M24.47 42.5V32H28.745C29.315 32 29.83 32.145 30.29 32.435C30.76 32.715 31.135 33.1 31.415 33.59C31.695 34.08 31.835 34.625 31.835 35.225C31.835 35.825 31.695 36.37 31.415 36.86C31.135 37.35 30.76 37.745 30.29 38.045C29.83 38.335 29.315 38.48 28.745 38.48H26.09V42.5H24.47ZM26.09 36.92H28.715C28.985 36.92 29.23 36.845 29.45 36.695C29.67 36.535 29.845 36.33 29.975 36.08C30.115 35.82 30.185 35.535 30.185 35.225C30.185 34.915 30.115 34.635 29.975 34.385C29.845 34.135 29.67 33.935 29.45 33.785C29.23 33.635 28.985 33.56 28.715 33.56H26.09V36.92ZM34.0418 42.5V34.625H35.5868V42.5H34.0418ZM34.7918 32.885C34.4618 32.885 34.2068 32.8 34.0268 32.63C33.8468 32.46 33.7568 32.22 33.7568 31.91C33.7568 31.62 33.8468 31.385 34.0268 31.205C34.2168 31.025 34.4718 30.935 34.7918 30.935C35.1218 30.935 35.3768 31.02 35.5568 31.19C35.7368 31.36 35.8268 31.6 35.8268 31.91C35.8268 32.2 35.7318 32.435 35.5418 32.615C35.3618 32.795 35.1118 32.885 34.7918 32.885ZM41.5066 42.65C40.7766 42.65 40.1216 42.47 39.5416 42.11C38.9716 41.75 38.5166 41.26 38.1766 40.64C37.8466 40.02 37.6816 39.325 37.6816 38.555C37.6816 37.785 37.8466 37.09 38.1766 36.47C38.5166 35.85 38.9716 35.36 39.5416 35C40.1216 34.64 40.7766 34.46 41.5066 34.46C42.2066 34.46 42.8416 34.605 43.4116 34.895C43.9916 35.175 44.4316 35.56 44.7316 36.05L43.8766 37.1C43.7166 36.87 43.5116 36.66 43.2616 36.47C43.0116 36.28 42.7466 36.13 42.4666 36.02C42.1866 35.91 41.9166 35.855 41.6566 35.855C41.1766 35.855 40.7466 35.975 40.3666 36.215C39.9966 36.445 39.7016 36.765 39.4816 37.175C39.2616 37.585 39.1516 38.045 39.1516 38.555C39.1516 39.065 39.2666 39.525 39.4966 39.935C39.7266 40.335 40.0316 40.655 40.4116 40.895C40.7916 41.135 41.2116 41.255 41.6716 41.255C41.9416 41.255 42.2016 41.21 42.4516 41.12C42.7116 41.03 42.9616 40.895 43.2016 40.715C43.4416 40.535 43.6666 40.315 43.8766 40.055L44.7316 41.105C44.4116 41.555 43.9516 41.925 43.3516 42.215C42.7616 42.505 42.1466 42.65 41.5066 42.65ZM47.799 40.04L47.724 38.36L51.489 34.625H53.574L47.799 40.04ZM46.389 42.5V31.4H47.934V42.5H46.389ZM51.699 42.5L48.729 39.035L49.824 38.03L53.679 42.5H51.699ZM63.9885 42.59C63.1785 42.59 62.4535 42.415 61.8135 42.065C61.1735 41.705 60.6685 41.215 60.2985 40.595C59.9385 39.965 59.7585 39.255 59.7585 38.465V31.985H61.3785V38.33C61.3785 38.84 61.4985 39.3 61.7385 39.71C61.9785 40.11 62.2935 40.43 62.6835 40.67C63.0835 40.91 63.5185 41.03 63.9885 41.03C64.4885 41.03 64.9385 40.91 65.3385 40.67C65.7485 40.43 66.0735 40.11 66.3135 39.71C66.5535 39.3 66.6735 38.84 66.6735 38.33V31.985H68.2185V38.465C68.2185 39.255 68.0335 39.965 67.6635 40.595C67.3035 41.215 66.8035 41.705 66.1635 42.065C65.5235 42.415 64.7985 42.59 63.9885 42.59ZM70.822 45.8V34.625H72.382V36.425L72.142 36.29C72.202 35.99 72.372 35.705 72.652 35.435C72.932 35.155 73.272 34.93 73.672 34.76C74.082 34.58 74.502 34.49 74.932 34.49C75.642 34.49 76.272 34.665 76.822 35.015C77.372 35.365 77.807 35.845 78.127 36.455C78.447 37.065 78.607 37.765 78.607 38.555C78.607 39.335 78.447 40.035 78.127 40.655C77.817 41.265 77.387 41.75 76.837 42.11C76.287 42.46 75.667 42.635 74.977 42.635C74.517 42.635 74.072 42.545 73.642 42.365C73.212 42.175 72.847 41.935 72.547 41.645C72.247 41.355 72.062 41.055 71.992 40.745L72.382 40.535V45.8H70.822ZM74.722 41.21C75.182 41.21 75.592 41.095 75.952 40.865C76.312 40.635 76.597 40.32 76.807 39.92C77.017 39.52 77.122 39.065 77.122 38.555C77.122 38.045 77.017 37.595 76.807 37.205C76.607 36.805 76.327 36.49 75.967 36.26C75.607 36.03 75.192 35.915 74.722 35.915C74.252 35.915 73.837 36.03 73.477 36.26C73.117 36.48 72.832 36.79 72.622 37.19C72.412 37.59 72.307 38.045 72.307 38.555C72.307 39.065 72.412 39.52 72.622 39.92C72.832 40.32 73.117 40.635 73.477 40.865C73.837 41.095 74.252 41.21 74.722 41.21ZM85.279 42.5V32H86.734L93.154 40.595L92.914 40.73C92.874 40.48 92.839 40.21 92.809 39.92C92.779 39.62 92.749 39.305 92.719 38.975C92.699 38.635 92.679 38.28 92.659 37.91C92.649 37.53 92.639 37.135 92.629 36.725C92.619 36.315 92.614 35.89 92.614 35.45V32H94.234V42.5H92.749L86.434 34.22L86.599 34.01C86.649 34.62 86.689 35.14 86.719 35.57C86.759 35.99 86.789 36.35 86.809 36.65C86.839 36.94 86.859 37.18 86.869 37.37C86.879 37.55 86.884 37.7 86.884 37.82C86.894 37.94 86.899 38.045 86.899 38.135V42.5H85.279ZM100.659 42.65C99.8485 42.65 99.1285 42.48 98.4985 42.14C97.8785 41.79 97.3885 41.315 97.0285 40.715C96.6785 40.115 96.5035 39.425 96.5035 38.645C96.5035 38.025 96.6035 37.46 96.8035 36.95C97.0035 36.44 97.2785 36 97.6285 35.63C97.9885 35.25 98.4135 34.96 98.9035 34.76C99.4035 34.55 99.9435 34.445 100.524 34.445C101.034 34.445 101.509 34.545 101.949 34.745C102.389 34.935 102.769 35.2 103.089 35.54C103.419 35.88 103.669 36.285 103.839 36.755C104.019 37.215 104.104 37.72 104.094 38.27L104.079 38.93H97.6435L97.2985 37.7H102.744L102.519 37.955V37.595C102.489 37.265 102.379 36.97 102.189 36.71C101.999 36.45 101.759 36.245 101.469 36.095C101.179 35.945 100.864 35.87 100.524 35.87C99.9835 35.87 99.5285 35.975 99.1585 36.185C98.7885 36.385 98.5085 36.685 98.3185 37.085C98.1285 37.475 98.0335 37.96 98.0335 38.54C98.0335 39.09 98.1485 39.57 98.3785 39.98C98.6085 40.38 98.9335 40.69 99.3535 40.91C99.7735 41.13 100.259 41.24 100.809 41.24C101.199 41.24 101.559 41.175 101.889 41.045C102.229 40.915 102.594 40.68 102.984 40.34L103.764 41.435C103.524 41.675 103.229 41.885 102.879 42.065C102.539 42.245 102.174 42.39 101.784 42.5C101.404 42.6 101.029 42.65 100.659 42.65ZM109.648 42.65C108.838 42.65 108.118 42.48 107.488 42.14C106.868 41.79 106.378 41.315 106.018 40.715C105.668 40.115 105.493 39.425 105.493 38.645C105.493 38.025 105.593 37.46 105.793 36.95C105.993 36.44 106.268 36 106.618 35.63C106.978 35.25 107.403 34.96 107.893 34.76C108.393 34.55 108.933 34.445 109.513 34.445C110.023 34.445 110.498 34.545 110.938 34.745C111.378 34.935 111.758 35.2 112.078 35.54C112.408 35.88 112.658 36.285 112.828 36.755C113.008 37.215 113.093 37.72 113.083 38.27L113.068 38.93H106.633L106.288 37.7H111.733L111.508 37.955V37.595C111.478 37.265 111.368 36.97 111.178 36.71C110.988 36.45 110.748 36.245 110.458 36.095C110.168 35.945 109.853 35.87 109.513 35.87C108.973 35.87 108.518 35.975 108.148 36.185C107.778 36.385 107.498 36.685 107.308 37.085C107.118 37.475 107.023 37.96 107.023 38.54C107.023 39.09 107.138 39.57 107.368 39.98C107.598 40.38 107.923 40.69 108.343 40.91C108.763 41.13 109.248 41.24 109.798 41.24C110.188 41.24 110.548 41.175 110.878 41.045C111.218 40.915 111.583 40.68 111.973 40.34L112.753 41.435C112.513 41.675 112.218 41.885 111.868 42.065C111.528 42.245 111.163 42.39 110.773 42.5C110.393 42.6 110.018 42.65 109.648 42.65ZM118.247 42.65C117.527 42.65 116.882 42.475 116.312 42.125C115.752 41.765 115.307 41.28 114.977 40.67C114.647 40.05 114.482 39.345 114.482 38.555C114.482 37.765 114.642 37.065 114.962 36.455C115.292 35.835 115.737 35.35 116.297 35C116.857 34.64 117.492 34.46 118.202 34.46C118.592 34.46 118.967 34.525 119.327 34.655C119.697 34.775 120.027 34.945 120.317 35.165C120.607 35.375 120.832 35.61 120.992 35.87C121.162 36.12 121.247 36.375 121.247 36.635L120.797 36.665V31.4H122.342V42.5H120.797V40.625H121.097C121.097 40.865 121.017 41.105 120.857 41.345C120.697 41.575 120.482 41.79 120.212 41.99C119.952 42.19 119.647 42.35 119.297 42.47C118.957 42.59 118.607 42.65 118.247 42.65ZM118.457 41.315C118.927 41.315 119.342 41.195 119.702 40.955C120.062 40.715 120.342 40.39 120.542 39.98C120.752 39.56 120.857 39.085 120.857 38.555C120.857 38.025 120.752 37.555 120.542 37.145C120.342 36.725 120.062 36.395 119.702 36.155C119.342 35.915 118.927 35.795 118.457 35.795C117.987 35.795 117.572 35.915 117.212 36.155C116.852 36.395 116.567 36.725 116.357 37.145C116.157 37.555 116.057 38.025 116.057 38.555C116.057 39.085 116.157 39.56 116.357 39.98C116.567 40.39 116.852 40.715 117.212 40.955C117.572 41.195 117.987 41.315 118.457 41.315ZM127.293 42.65C126.633 42.65 126.038 42.535 125.508 42.305C124.978 42.075 124.538 41.735 124.188 41.285L125.238 40.385C125.538 40.735 125.863 40.99 126.213 41.15C126.573 41.3 126.978 41.375 127.428 41.375C127.608 41.375 127.773 41.355 127.923 41.315C128.083 41.265 128.218 41.195 128.328 41.105C128.448 41.015 128.538 40.91 128.598 40.79C128.658 40.66 128.688 40.52 128.688 40.37C128.688 40.11 128.593 39.9 128.403 39.74C128.303 39.67 128.143 39.595 127.923 39.515C127.713 39.425 127.438 39.335 127.098 39.245C126.518 39.095 126.043 38.925 125.673 38.735C125.303 38.545 125.018 38.33 124.818 38.09C124.668 37.9 124.558 37.695 124.488 37.475C124.418 37.245 124.383 36.995 124.383 36.725C124.383 36.395 124.453 36.095 124.593 35.825C124.743 35.545 124.943 35.305 125.193 35.105C125.453 34.895 125.753 34.735 126.093 34.625C126.443 34.515 126.813 34.46 127.203 34.46C127.573 34.46 127.938 34.51 128.298 34.61C128.668 34.71 129.008 34.855 129.318 35.045C129.628 35.235 129.888 35.46 130.098 35.72L129.213 36.695C129.023 36.505 128.813 36.34 128.583 36.2C128.363 36.05 128.138 35.935 127.908 35.855C127.678 35.775 127.468 35.735 127.278 35.735C127.068 35.735 126.878 35.755 126.708 35.795C126.538 35.835 126.393 35.895 126.273 35.975C126.163 36.055 126.078 36.155 126.018 36.275C125.958 36.395 125.928 36.53 125.928 36.68C125.938 36.81 125.968 36.935 126.018 37.055C126.078 37.165 126.158 37.26 126.258 37.34C126.368 37.42 126.533 37.505 126.753 37.595C126.973 37.685 127.253 37.77 127.593 37.85C128.093 37.98 128.503 38.125 128.823 38.285C129.153 38.435 129.413 38.61 129.603 38.81C129.803 39 129.943 39.22 130.023 39.47C130.103 39.72 130.143 40 130.143 40.31C130.143 40.76 130.013 41.165 129.753 41.525C129.503 41.875 129.163 42.15 128.733 42.35C128.303 42.55 127.823 42.65 127.293 42.65Z" fill="#1E238E"/>
<path d="M149.526 35.4961V42.2631M149.526 30.9849V32.4886" stroke="#1E238E" stroke-width="1.5" stroke-linecap="round" stroke-linejoin="round"/>
<path d="M149.526 47.5263C155.34 47.5263 160.053 42.8135 160.053 36.9999C160.053 31.1864 155.34 26.4736 149.526 26.4736C143.713 26.4736 139 31.1864 139 36.9999C139 42.8135 143.713 47.5263 149.526 47.5263Z" stroke="#1E238E" stroke-width="1.5" stroke-linecap="round" stroke-linejoin="round"/>
<g filter="url(#filter1_d_438_373)">
<rect x="39.6152" y="61.3359" width="54.9181" height="54.9181" rx="7.57909" fill="#FCFBF9"/>
<rect x="40.1152" y="61.8359" width="53.9181" height="53.9181" rx="7.07909" stroke="#1E238E"/>
</g>
<path d="M65.5728 87.3693H65.4937L65.4206 87.3994C65.3978 87.4088 65.395 87.4099 65.3808 87.4161L65.3805 87.4162C65.3711 87.4203 65.352 87.4286 65.2959 87.4524L64.674 87.6792L64.659 87.6846L64.6445 87.6913C63.7529 88.0994 63.4144 88.8086 63.1491 89.6223L63.1489 89.623L63.0324 89.9824C62.848 90.5512 62.262 90.8414 61.7278 90.6582C61.1902 90.4739 60.8869 89.869 61.0734 89.2936L61.1898 88.9345C61.1898 88.9344 61.1898 88.9344 61.1898 88.9344C61.6669 87.4669 62.7199 86.2748 64.0846 85.6497L64.4419 85.4889L64.4419 85.4889L64.4434 85.4883C65.3241 85.0876 66.276 84.879 67.2398 84.879C69.0704 84.879 70.7282 86.0105 71.4352 87.7581L71.4353 87.7585L72.1254 89.4589L72.1812 89.5964L72.3131 89.6642L73.2721 90.1573C73.7813 90.4192 73.9977 91.0655 73.7361 91.6037C73.4773 92.1359 72.859 92.3403 72.3563 92.0818L72.3552 92.0813L71.1568 91.4696C71.1564 91.4694 71.156 91.4692 71.1556 91.469C70.7792 91.2732 70.4834 90.9502 70.3222 90.5471L70.3214 90.5452L69.8913 89.4853L69.4554 88.4113L69.1361 89.5255L68.2712 92.544L68.2106 92.7558L68.3572 92.9203L70.5751 95.4086C70.7723 95.6302 70.9128 95.8984 70.9874 96.1968C70.9875 96.1971 70.9876 96.1975 70.9877 96.1979L72.0177 100.44L72.0179 100.44C72.1606 101.024 71.8128 101.605 71.2627 101.746C70.7175 101.886 70.1548 101.551 70.0124 100.965C70.0124 100.965 70.0124 100.965 70.0124 100.965L69.0266 96.9054L69.003 96.8082L68.9364 96.7336L65.7683 93.1806L65.768 93.1802C65.1993 92.544 64.9832 91.6532 65.1939 90.813L66.2421 87.905L66.4352 87.3693H65.8658H65.5728ZM63.2693 97.2051L63.326 97.1469L63.3555 97.0712L64.2267 94.8348L65.7788 96.5761L65.218 98.0159L65.2179 98.0161C65.1293 98.2439 64.9968 98.4515 64.829 98.6242L62.0641 101.467C61.6611 101.882 61.0108 101.882 60.6078 101.467C60.1986 101.047 60.1986 100.358 60.6078 99.9376L63.2693 97.2051ZM70.9758 80.797C70.9758 81.8079 70.181 82.6089 69.2249 82.6089C68.2688 82.6089 67.474 81.8079 67.474 80.797C67.474 79.786 68.2688 78.985 69.2249 78.985C70.181 78.985 70.9758 79.786 70.9758 80.797Z" stroke="#1E238E" stroke-width="0.8"/>
<g filter="url(#filter2_d_438_373)">
<rect x="149.818" y="61.3359" width="54.9181" height="54.9181" rx="7.57909" fill="#FCFBF9"/>
<rect x="150.197" y="61.7149" width="54.1602" height="54.1602" rx="7.20014" stroke="#1E238E" stroke-width="0.757909"/>
</g>
<path d="M171.328 80.7033C170.685 80.7029 170.057 80.901 169.534 81.2698C169.011 81.6387 168.62 82.1598 168.416 82.7596L167.136 86.5201L167.068 86.7185H167.278H173.386H173.536V86.5685V80.8533V80.7033H173.386H171.328ZM171.328 80.7033L171.328 80.8525V80.7033H171.328ZM166.63 88.4727V88.3235H166.632H166.855H184.446H184.465L184.484 88.3284L188.766 89.4466C189.419 89.6169 189.997 89.9939 190.409 90.5196C190.822 91.0454 191.045 91.6903 191.045 92.3541C191.045 92.3541 191.045 92.3542 191.045 92.3542V94.6647V94.665H190.895C190.896 94.8964 190.838 95.1235 190.729 95.3268L166.63 88.4727ZM166.63 88.4727L166.618 88.4679L166.589 88.3468L166.072 88.4725L166.071 88.4725L165.834 88.5296L165.834 88.5298C165.17 88.6923 164.581 89.0674 164.159 89.5963C163.738 90.1253 163.509 90.7775 163.509 91.4492L166.63 88.4727ZM183.124 86.7185H182.866H175.332H175.182V86.5685V80.8533V80.7033H175.332H177.908H177.908C178.454 80.7038 178.99 80.8473 179.461 81.1191C179.932 81.3908 180.321 81.7812 180.586 82.2499L183.124 86.7185ZM183.124 86.7185L182.997 86.4944L180.587 82.25L183.124 86.7185ZM190.789 97.5609L190.713 97.5948L190.702 97.677C190.551 98.7557 190.015 99.7479 189.188 100.478C188.361 101.207 187.297 101.627 186.183 101.662C185.069 101.697 183.979 101.345 183.106 100.669C182.233 99.9921 181.633 99.0354 181.412 97.9684L181.387 97.8488H181.265H173.289H173.167L173.142 97.9684C172.921 99.0354 172.321 99.9921 171.448 100.669C170.575 101.345 169.485 101.697 168.371 101.662C167.258 101.627 166.193 101.207 165.366 100.478C164.539 99.7479 164.003 98.7557 163.853 97.677L163.841 97.5948L163.765 97.5609C163.197 97.3069 162.717 96.8987 162.38 96.3852C162.043 95.8718 161.864 95.2747 161.864 94.665V91.4492C161.864 90.4694 162.183 89.5147 162.775 88.7238C163.366 87.9328 164.201 87.3466 165.157 87.0509L165.23 87.0283L165.255 86.9559L166.856 82.2523C166.856 82.2523 166.856 82.2523 166.856 82.2523C167.168 81.3344 167.768 80.5356 168.571 79.9693C169.373 79.403 170.338 79.0981 171.328 79.0982H171.328H177.906L177.906 79.0982C178.747 79.0981 179.573 79.3183 180.298 79.7359C181.023 80.1534 181.62 80.753 182.028 81.4722L185.028 86.7625L185.059 86.8176L185.12 86.8336L189.192 87.8966C190.196 88.1588 191.083 88.7384 191.716 89.5446C192.348 90.3507 192.691 91.3384 192.691 92.3541V94.665C192.691 95.2747 192.512 95.8718 192.175 96.3852C191.838 96.8987 191.357 97.3069 190.789 97.5609ZM168.523 94.0387C167.71 94.0387 166.93 94.3548 166.354 94.9185C165.779 95.4823 165.455 96.2476 165.455 97.0463C165.455 97.845 165.779 98.6103 166.354 99.1741C166.93 99.7377 167.71 100.054 168.523 100.054C169.336 100.054 170.116 99.7377 170.691 99.1741C171.267 98.6103 171.591 97.845 171.591 97.0463C171.591 96.2476 171.267 95.4823 170.691 94.9185C170.116 94.3548 169.336 94.0387 168.523 94.0387ZM186.032 94.0387C185.219 94.0387 184.439 94.3548 183.863 94.9185C183.287 95.4823 182.963 96.2476 182.963 97.0463C182.963 97.845 183.287 98.6103 183.863 99.1741C184.439 99.7377 185.219 100.054 186.032 100.054C186.844 100.054 187.624 99.7377 188.2 99.1741C188.776 98.6103 189.1 97.845 189.1 97.0463C189.1 96.2476 188.776 95.4823 188.2 94.9185C187.624 94.3548 186.844 94.0387 186.032 94.0387Z" fill="#1E238E" stroke="#FCFBF9" stroke-width="0.3"/>
<g filter="url(#filter3_d_438_373)">
<rect x="265.238" y="61.3359" width="54.9181" height="54.9181" rx="7.57909" fill="#FCFBF9"/>
<rect x="265.617" y="61.7149" width="54.1602" height="54.1602" rx="7.20014" stroke="#1E238E" stroke-width="0.757909"/>
</g>
<path d="M298.727 84.3204V84.4821L298.851 84.5869L304.719 89.5796L304.946 89.3131L304.728 89.5873C304.841 89.6767 304.935 89.7935 305.001 89.9297C305.066 90.0651 305.102 90.2154 305.106 90.3692V95.7631C305.106 96.0343 305.004 96.2907 304.828 96.4768C304.653 96.6622 304.419 96.7624 304.18 96.7624H303.925H303.435L303.594 97.226C303.786 97.7868 303.848 98.389 303.774 98.9812C303.7 99.5734 303.492 100.137 303.17 100.624C302.847 101.11 302.42 101.506 301.925 101.778C301.431 102.05 300.883 102.192 300.328 102.192C299.772 102.192 299.225 102.05 298.73 101.778C298.235 101.506 297.808 101.11 297.485 100.624C297.163 100.137 296.955 99.5734 296.881 98.9812C296.807 98.389 296.869 97.7868 297.061 97.226L297.22 96.7624H296.73H288.617H288.128L288.286 97.2251C288.478 97.7919 288.538 98.4005 288.459 98.9978C288.38 99.5952 288.164 100.162 287.833 100.649C287.502 101.136 287.065 101.529 286.561 101.795C286.058 102.061 285.502 102.192 284.942 102.18C284.381 102.167 283.831 102.01 283.338 101.722C282.846 101.433 282.425 101.021 282.113 100.518C281.802 100.016 281.61 99.4401 281.555 98.8397C281.5 98.2392 281.584 97.634 281.8 97.0767L281.918 96.7703L281.62 96.6327C281.221 96.4487 280.88 96.1418 280.642 95.7479C280.404 95.3539 280.282 94.892 280.292 94.4214L280.292 94.4214V94.4137V80.9199V80.9118L280.292 80.9037C280.265 80.3125 280.459 79.7367 280.828 79.3009C281.193 78.8685 281.7 78.6093 282.238 78.5712H296.759C297.301 78.6031 297.814 78.8599 298.184 79.2933C298.558 79.7297 298.755 80.3088 298.728 80.9039L298.727 80.9119V80.9199V84.3204ZM303.254 91.0133V90.8509L303.131 90.7461L299.304 87.5076L298.727 87.0201V87.7748V94.4137V94.7637H299.077H302.904H303.254V94.4137V91.0133ZM282.144 94.4137V94.7637H282.494H292.699H296.526H296.876V94.4137V80.9199V80.5699H296.526H282.494H282.144V80.9199V94.4137ZM286.402 99.3984C286.578 99.1196 286.671 98.7937 286.671 98.4618C286.671 98.0173 286.504 97.5872 286.201 97.2672C285.898 96.9465 285.483 96.7624 285.045 96.7624C284.719 96.7624 284.402 96.8648 284.134 97.054C283.867 97.2431 283.661 97.5096 283.541 97.8178C283.42 98.1259 283.389 98.4639 283.45 98.7898C283.511 99.1157 283.663 99.4176 283.889 99.6564C284.115 99.8954 284.405 100.061 284.724 100.128C285.043 100.195 285.374 100.16 285.674 100.029C285.973 99.898 286.225 99.6774 286.402 99.3984ZM301.71 99.3984C301.886 99.1196 301.979 98.7937 301.979 98.4618C301.979 98.0173 301.812 97.5872 301.509 97.2672C301.206 96.9465 300.791 96.7624 300.353 96.7624C300.027 96.7624 299.71 96.8648 299.442 97.054C299.175 97.2431 298.969 97.5096 298.849 97.8178C298.728 98.1259 298.697 98.4639 298.758 98.7898C298.819 99.1157 298.971 99.4176 299.197 99.6564C299.423 99.8954 299.713 100.061 300.032 100.128C300.352 100.195 300.682 100.16 300.982 100.029C301.281 99.898 301.533 99.6774 301.71 99.3984Z" fill="#1E238E" stroke="#FCFBF9" stroke-width="0.7"/>
<defs>
<filter id="filter0_d_438_373" x="0" y="0" width="365" height="204" filterUnits="userSpaceOnUse" color-interpolation-filters="sRGB">
<feFlood flood-opacity="0" result="BackgroundImageFix"/>
<feColorMatrix in="SourceAlpha" type="matrix" values="0 0 0 0 0 0 0 0 0 0 0 0 0 0 0 0 0 0 127 0" result="hardAlpha"/>
<feOffset dy="4"/>
<feGaussianBlur stdDeviation="4"/>
<feComposite in2="hardAlpha" operator="out"/>
<feColorMatrix type="matrix" values="0 0 0 0 0 0 0 0 0 0 0 0 0 0 0 0 0 0 0.05 0"/>
<feBlend mode="normal" in2="BackgroundImageFix" result="effect1_dropShadow_438_373"/>
<feBlend mode="normal" in="SourceGraphic" in2="effect1_dropShadow_438_373" result="shape"/>
</filter>
<filter id="filter1_d_438_373" x="36.5836" y="61.3359" width="60.9812" height="60.9812" filterUnits="userSpaceOnUse" color-interpolation-filters="sRGB">
<feFlood flood-opacity="0" result="BackgroundImageFix"/>
<feColorMatrix in="SourceAlpha" type="matrix" values="0 0 0 0 0 0 0 0 0 0 0 0 0 0 0 0 0 0 127 0" result="hardAlpha"/>
<feOffset dy="3.03164"/>
<feGaussianBlur stdDeviation="1.51582"/>
<feComposite in2="hardAlpha" operator="out"/>
<feColorMatrix type="matrix" values="0 0 0 0 0 0 0 0 0 0 0 0 0 0 0 0 0 0 0.05 0"/>
<feBlend mode="normal" in2="BackgroundImageFix" result="effect1_dropShadow_438_373"/>
<feBlend mode="normal" in="SourceGraphic" in2="effect1_dropShadow_438_373" result="shape"/>
</filter>
<filter id="filter2_d_438_373" x="146.787" y="61.3359" width="60.9812" height="60.9812" filterUnits="userSpaceOnUse" color-interpolation-filters="sRGB">
<feFlood flood-opacity="0" result="BackgroundImageFix"/>
<feColorMatrix in="SourceAlpha" type="matrix" values="0 0 0 0 0 0 0 0 0 0 0 0 0 0 0 0 0 0 127 0" result="hardAlpha"/>
<feOffset dy="3.03164"/>
<feGaussianBlur stdDeviation="1.51582"/>
<feComposite in2="hardAlpha" operator="out"/>
<feColorMatrix type="matrix" values="0 0 0 0 0 0 0 0 0 0 0 0 0 0 0 0 0 0 0.05 0"/>
<feBlend mode="normal" in2="BackgroundImageFix" result="effect1_dropShadow_438_373"/>
<feBlend mode="normal" in="SourceGraphic" in2="effect1_dropShadow_438_373" result="shape"/>
</filter>
<filter id="filter3_d_438_373" x="262.207" y="61.3359" width="60.9812" height="60.9812" filterUnits="userSpaceOnUse" color-interpolation-filters="sRGB">
<feFlood flood-opacity="0" result="BackgroundImageFix"/>
<feColorMatrix in="SourceAlpha" type="matrix" values="0 0 0 0 0 0 0 0 0 0 0 0 0 0 0 0 0 0 127 0" result="hardAlpha"/>
<feOffset dy="3.03164"/>
<feGaussianBlur stdDeviation="1.51582"/>
<feComposite in2="hardAlpha" operator="out"/>
<feColorMatrix type="matrix" values="0 0 0 0 0 0 0 0 0 0 0 0 0 0 0 0 0 0 0.05 0"/>
<feBlend mode="normal" in2="BackgroundImageFix" result="effect1_dropShadow_438_373"/>
<feBlend mode="normal" in="SourceGraphic" in2="effect1_dropShadow_438_373" result="shape"/>
</filter>
</defs>
</svg>
