<svg width="350" height="226" viewBox="0 0 350 226" fill="none" xmlns="http://www.w3.org/2000/svg">
<rect width="350" height="225.826" rx="5" fill="white"/>
<g filter="url(#filter0_d_438_378)">
<rect x="16.9727" y="60.7104" width="59" height="33" rx="10" fill="#FCFBF9" shape-rendering="crispEdges"/>
<rect x="17.4727" y="61.2104" width="58" height="32" rx="9.5" stroke="#1E238E" shape-rendering="crispEdges"/>
<path d="M31.5177 82.7104V72.2104H32.5827L39.4527 81.3004L39.2427 81.5704C39.2127 81.4104 39.1877 81.1704 39.1677 80.8504C39.1577 80.5304 39.1427 80.1704 39.1227 79.7704C39.1127 79.3604 39.1027 78.9354 39.0927 78.4954C39.0827 78.0554 39.0727 77.6254 39.0627 77.2054C39.0627 76.7854 39.0627 76.4054 39.0627 76.0654V72.2104H40.2327V82.7104H39.1377L32.2977 73.7404L32.4777 73.4254C32.5077 73.8254 32.5327 74.2204 32.5527 74.6104C32.5827 75.0004 32.6027 75.3754 32.6127 75.7354C32.6327 76.0954 32.6477 76.4254 32.6577 76.7254C32.6677 77.0254 32.6727 77.2804 32.6727 77.4904C32.6827 77.7004 32.6877 77.8504 32.6877 77.9404V82.7104H31.5177ZM46.5243 82.8604C45.7443 82.8604 45.0493 82.6904 44.4393 82.3504C43.8393 82.0104 43.3693 81.5354 43.0293 80.9254C42.6893 80.3154 42.5193 79.6154 42.5193 78.8254C42.5193 78.2154 42.6143 77.6654 42.8043 77.1754C42.9943 76.6754 43.2593 76.2404 43.5993 75.8704C43.9493 75.5004 44.3643 75.2154 44.8443 75.0154C45.3243 74.8054 45.8443 74.7004 46.4043 74.7004C46.9343 74.7004 47.4143 74.7954 47.8443 74.9854C48.2843 75.1754 48.6593 75.4404 48.9693 75.7804C49.2893 76.1104 49.5293 76.5054 49.6893 76.9654C49.8493 77.4254 49.9193 77.9304 49.8993 78.4804L49.8843 79.0054H43.3593L43.1943 78.0604H49.0293L48.7593 78.3154V77.9554C48.7393 77.5954 48.6343 77.2504 48.4443 76.9204C48.2543 76.5804 47.9843 76.3054 47.6343 76.0954C47.2943 75.8854 46.8843 75.7804 46.4043 75.7804C45.8443 75.7804 45.3593 75.8954 44.9493 76.1254C44.5393 76.3454 44.2243 76.6754 44.0043 77.1154C43.7843 77.5554 43.6743 78.1004 43.6743 78.7504C43.6743 79.3704 43.7943 79.9104 44.0343 80.3704C44.2743 80.8204 44.6143 81.1704 45.0543 81.4204C45.5043 81.6704 46.0443 81.7954 46.6743 81.7954C47.0443 81.7954 47.4093 81.7354 47.7693 81.6154C48.1393 81.4854 48.5443 81.2354 48.9843 80.8654L49.5693 81.6754C49.3393 81.9054 49.0643 82.1104 48.7443 82.2904C48.4243 82.4604 48.0743 82.6004 47.6943 82.7104C47.3143 82.8104 46.9243 82.8604 46.5243 82.8604ZM53.3957 82.7104L50.6807 74.8804L51.8807 74.8654L53.9957 81.2404L53.6207 81.2104L55.9157 76.0804H56.5907L58.9007 81.2104L58.4507 81.2404L60.6107 74.8804H61.7957L59.0807 82.7104H58.4207L55.9907 77.1304L56.4407 77.1604L54.0857 82.7104H53.3957Z" fill="#1E238E"/>
</g>
<g filter="url(#filter1_d_438_378)">
<rect x="16.9727" y="117.71" width="129" height="33" rx="10" fill="#FCFBF9" shape-rendering="crispEdges"/>
<rect x="17.4727" y="118.21" width="128" height="32" rx="9.5" stroke="#1E238E" shape-rendering="crispEdges"/>
<path d="M31.5177 139.71V129.21H32.6877V139.71H31.5177ZM32.1027 135.03V133.875H37.4127V135.03H32.1027ZM32.1027 130.35V129.21H38.1177V130.35H32.1027ZM42.9995 139.86C42.3195 139.86 41.7045 139.685 41.1545 139.335C40.6045 138.975 40.1695 138.49 39.8495 137.88C39.5295 137.26 39.3695 136.56 39.3695 135.78C39.3695 134.99 39.5345 134.29 39.8645 133.68C40.1945 133.07 40.6345 132.59 41.1845 132.24C41.7445 131.89 42.3695 131.715 43.0595 131.715C43.4695 131.715 43.8495 131.775 44.1995 131.895C44.5495 132.015 44.8595 132.185 45.1295 132.405C45.4095 132.615 45.6395 132.865 45.8195 133.155C46.0095 133.435 46.1395 133.74 46.2095 134.07L45.8795 133.905L45.9245 131.88H47.0495V139.71H45.9095V137.79L46.2095 137.595C46.1395 137.895 46.0045 138.185 45.8045 138.465C45.6045 138.735 45.3595 138.975 45.0695 139.185C44.7895 139.395 44.4695 139.56 44.1095 139.68C43.7595 139.8 43.3895 139.86 42.9995 139.86ZM43.2545 138.78C43.7745 138.78 44.2395 138.655 44.6495 138.405C45.0595 138.145 45.3795 137.79 45.6095 137.34C45.8495 136.88 45.9695 136.36 45.9695 135.78C45.9695 135.2 45.8495 134.685 45.6095 134.235C45.3795 133.785 45.0595 133.43 44.6495 133.17C44.2395 132.91 43.7745 132.78 43.2545 132.78C42.7245 132.78 42.2545 132.91 41.8445 133.17C41.4445 133.43 41.1245 133.785 40.8845 134.235C40.6545 134.685 40.5395 135.2 40.5395 135.78C40.5395 136.35 40.6545 136.865 40.8845 137.325C41.1145 137.775 41.4345 138.13 41.8445 138.39C42.2545 138.65 42.7245 138.78 43.2545 138.78ZM49.7413 139.71V131.88H50.8663V139.71H49.7413ZM50.2963 130.185C50.0163 130.185 49.8013 130.115 49.6513 129.975C49.5113 129.825 49.4413 129.625 49.4413 129.375C49.4413 129.125 49.5163 128.925 49.6663 128.775C49.8163 128.625 50.0263 128.55 50.2963 128.55C50.5663 128.55 50.7763 128.625 50.9263 128.775C51.0763 128.915 51.1513 129.115 51.1513 129.375C51.1513 129.615 51.0763 129.81 50.9263 129.96C50.7763 130.11 50.5663 130.185 50.2963 130.185ZM53.5231 139.71V131.88H54.6481L54.6781 133.965L54.5581 133.68C54.6681 133.33 54.8431 133.005 55.0831 132.705C55.3331 132.405 55.6281 132.165 55.9681 131.985C56.3081 131.805 56.6831 131.715 57.0931 131.715C57.2631 131.715 57.4231 131.73 57.5731 131.76C57.7231 131.78 57.8481 131.81 57.9481 131.85L57.6331 133.11C57.5031 133.05 57.3681 133.01 57.2281 132.99C57.0981 132.96 56.9731 132.945 56.8531 132.945C56.5131 132.945 56.2081 133.005 55.9381 133.125C55.6681 133.245 55.4381 133.415 55.2481 133.635C55.0581 133.845 54.9131 134.09 54.8131 134.37C54.7131 134.65 54.6631 134.95 54.6631 135.27V139.71H53.5231ZM68.5229 139.86C67.7729 139.86 67.0829 139.73 66.4529 139.47C65.8229 139.2 65.2779 138.825 64.8179 138.345C64.3579 137.855 63.9979 137.28 63.7379 136.62C63.4879 135.96 63.3629 135.24 63.3629 134.46C63.3629 133.69 63.4879 132.985 63.7379 132.345C63.9979 131.695 64.3629 131.13 64.8329 130.65C65.3029 130.16 65.8479 129.785 66.4679 129.525C67.0879 129.265 67.7679 129.135 68.5079 129.135C68.9979 129.135 69.4829 129.215 69.9629 129.375C70.4429 129.525 70.8829 129.735 71.2829 130.005C71.6929 130.275 72.0279 130.585 72.2879 130.935L71.4779 131.775C71.2279 131.475 70.9379 131.215 70.6079 130.995C70.2879 130.775 69.9479 130.605 69.5879 130.485C69.2279 130.365 68.8679 130.305 68.5079 130.305C67.9479 130.305 67.4229 130.41 66.9329 130.62C66.4529 130.82 66.0379 131.105 65.6879 131.475C65.3379 131.845 65.0629 132.285 64.8629 132.795C64.6729 133.305 64.5779 133.86 64.5779 134.46C64.5779 135.08 64.6729 135.65 64.8629 136.17C65.0629 136.69 65.3429 137.14 65.7029 137.52C66.0729 137.89 66.5029 138.18 66.9929 138.39C67.4929 138.59 68.0479 138.69 68.6579 138.69C69.0179 138.69 69.3779 138.64 69.7379 138.54C70.0979 138.43 70.4279 138.28 70.7279 138.09C71.0279 137.9 71.2829 137.685 71.4929 137.445L72.0929 138.42C71.8629 138.7 71.5529 138.95 71.1629 139.17C70.7829 139.38 70.3629 139.55 69.9029 139.68C69.4429 139.8 68.9829 139.86 68.5229 139.86ZM77.5246 139.86C76.7446 139.86 76.0496 139.685 75.4396 139.335C74.8396 138.985 74.3646 138.5 74.0146 137.88C73.6746 137.26 73.5046 136.555 73.5046 135.765C73.5046 134.985 73.6746 134.29 74.0146 133.68C74.3646 133.07 74.8396 132.59 75.4396 132.24C76.0496 131.89 76.7446 131.715 77.5246 131.715C78.2946 131.715 78.9796 131.89 79.5796 132.24C80.1896 132.59 80.6646 133.07 81.0046 133.68C81.3546 134.29 81.5296 134.985 81.5296 135.765C81.5296 136.555 81.3546 137.26 81.0046 137.88C80.6646 138.5 80.1896 138.985 79.5796 139.335C78.9796 139.685 78.2946 139.86 77.5246 139.86ZM77.5246 138.795C78.0746 138.795 78.5646 138.665 78.9946 138.405C79.4246 138.135 79.7596 137.775 79.9996 137.325C80.2396 136.865 80.3596 136.345 80.3596 135.765C80.3596 135.185 80.2396 134.67 79.9996 134.22C79.7596 133.77 79.4246 133.42 78.9946 133.17C78.5646 132.91 78.0746 132.78 77.5246 132.78C76.9746 132.78 76.4796 132.91 76.0396 133.17C75.6096 133.42 75.2696 133.775 75.0196 134.235C74.7796 134.685 74.6646 135.195 74.6746 135.765C74.6646 136.345 74.7796 136.865 75.0196 137.325C75.2696 137.775 75.6096 138.135 76.0396 138.405C76.4796 138.665 76.9746 138.795 77.5246 138.795ZM83.371 139.71V131.88H84.481L84.526 133.515L84.346 133.59C84.446 133.25 84.641 132.94 84.931 132.66C85.221 132.38 85.566 132.155 85.966 131.985C86.376 131.805 86.796 131.715 87.226 131.715C87.806 131.715 88.291 131.83 88.681 132.06C89.071 132.29 89.366 132.645 89.566 133.125C89.766 133.605 89.866 134.215 89.866 134.955V139.71H88.726V135.015C88.726 134.495 88.656 134.07 88.516 133.74C88.386 133.4 88.181 133.15 87.901 132.99C87.621 132.83 87.276 132.755 86.866 132.765C86.526 132.765 86.211 132.825 85.921 132.945C85.631 133.055 85.381 133.21 85.171 133.41C84.961 133.61 84.796 133.84 84.676 134.1C84.556 134.36 84.496 134.64 84.496 134.94V139.71H83.941C83.871 139.71 83.791 139.71 83.701 139.71C83.611 139.71 83.501 139.71 83.371 139.71ZM95.3936 139.86C94.6836 139.86 94.0436 139.685 93.4736 139.335C92.9136 138.985 92.4686 138.505 92.1386 137.895C91.8186 137.275 91.6586 136.575 91.6586 135.795C91.6586 135.005 91.8236 134.305 92.1536 133.695C92.4836 133.075 92.9286 132.59 93.4886 132.24C94.0486 131.89 94.6786 131.715 95.3786 131.715C95.7686 131.715 96.1436 131.775 96.5036 131.895C96.8736 132.015 97.2036 132.185 97.4936 132.405C97.7836 132.615 98.0236 132.86 98.2136 133.14C98.4036 133.41 98.5186 133.695 98.5586 133.995L98.2136 133.875V128.61H99.3386V139.71H98.2286L98.1986 137.76L98.4836 137.655C98.4436 137.935 98.3286 138.21 98.1386 138.48C97.9586 138.74 97.7286 138.975 97.4486 139.185C97.1686 139.395 96.8486 139.56 96.4886 139.68C96.1386 139.8 95.7736 139.86 95.3936 139.86ZM95.5586 138.825C96.0786 138.825 96.5436 138.695 96.9536 138.435C97.3636 138.175 97.6836 137.815 97.9136 137.355C98.1536 136.895 98.2736 136.37 98.2736 135.78C98.2736 135.19 98.1536 134.67 97.9136 134.22C97.6836 133.76 97.3636 133.4 96.9536 133.14C96.5436 132.87 96.0786 132.735 95.5586 132.735C95.0186 132.735 94.5436 132.87 94.1336 133.14C93.7336 133.4 93.4136 133.76 93.1736 134.22C92.9436 134.67 92.8286 135.19 92.8286 135.78C92.8286 136.36 92.9436 136.88 93.1736 137.34C93.4036 137.8 93.7236 138.165 94.1336 138.435C94.5436 138.695 95.0186 138.825 95.5586 138.825ZM102.03 139.71V131.88H103.155V139.71H102.03ZM102.585 130.185C102.305 130.185 102.09 130.115 101.94 129.975C101.8 129.825 101.73 129.625 101.73 129.375C101.73 129.125 101.805 128.925 101.955 128.775C102.105 128.625 102.315 128.55 102.585 128.55C102.855 128.55 103.065 128.625 103.215 128.775C103.365 128.915 103.44 129.115 103.44 129.375C103.44 129.615 103.365 129.81 103.215 129.96C103.065 130.11 102.855 130.185 102.585 130.185ZM106.892 139.71V129.825H108.017V139.71H106.892ZM105.122 132.96V131.88H109.997V132.96H105.122ZM111.878 139.71V131.88H113.003V139.71H111.878ZM112.433 130.185C112.153 130.185 111.938 130.115 111.788 129.975C111.648 129.825 111.578 129.625 111.578 129.375C111.578 129.125 111.653 128.925 111.803 128.775C111.953 128.625 112.163 128.55 112.433 128.55C112.703 128.55 112.913 128.625 113.063 128.775C113.213 128.915 113.288 129.115 113.288 129.375C113.288 129.615 113.213 129.81 113.063 129.96C112.913 130.11 112.703 130.185 112.433 130.185ZM119.125 139.86C118.345 139.86 117.65 139.685 117.04 139.335C116.44 138.985 115.965 138.5 115.615 137.88C115.275 137.26 115.105 136.555 115.105 135.765C115.105 134.985 115.275 134.29 115.615 133.68C115.965 133.07 116.44 132.59 117.04 132.24C117.65 131.89 118.345 131.715 119.125 131.715C119.895 131.715 120.58 131.89 121.18 132.24C121.79 132.59 122.265 133.07 122.605 133.68C122.955 134.29 123.13 134.985 123.13 135.765C123.13 136.555 122.955 137.26 122.605 137.88C122.265 138.5 121.79 138.985 121.18 139.335C120.58 139.685 119.895 139.86 119.125 139.86ZM119.125 138.795C119.675 138.795 120.165 138.665 120.595 138.405C121.025 138.135 121.36 137.775 121.6 137.325C121.84 136.865 121.96 136.345 121.96 135.765C121.96 135.185 121.84 134.67 121.6 134.22C121.36 133.77 121.025 133.42 120.595 133.17C120.165 132.91 119.675 132.78 119.125 132.78C118.575 132.78 118.08 132.91 117.64 133.17C117.21 133.42 116.87 133.775 116.62 134.235C116.38 134.685 116.265 135.195 116.275 135.765C116.265 136.345 116.38 136.865 116.62 137.325C116.87 137.775 117.21 138.135 117.64 138.405C118.08 138.665 118.575 138.795 119.125 138.795ZM124.971 139.71V131.88H126.081L126.126 133.515L125.946 133.59C126.046 133.25 126.241 132.94 126.531 132.66C126.821 132.38 127.166 132.155 127.566 131.985C127.976 131.805 128.396 131.715 128.826 131.715C129.406 131.715 129.891 131.83 130.281 132.06C130.671 132.29 130.966 132.645 131.166 133.125C131.366 133.605 131.466 134.215 131.466 134.955V139.71H130.326V135.015C130.326 134.495 130.256 134.07 130.116 133.74C129.986 133.4 129.781 133.15 129.501 132.99C129.221 132.83 128.876 132.755 128.466 132.765C128.126 132.765 127.811 132.825 127.521 132.945C127.231 133.055 126.981 133.21 126.771 133.41C126.561 133.61 126.396 133.84 126.276 134.1C126.156 134.36 126.096 134.64 126.096 134.94V139.71H125.541C125.471 139.71 125.391 139.71 125.301 139.71C125.211 139.71 125.101 139.71 124.971 139.71Z" fill="#1E238E"/>
</g>
<g filter="url(#filter2_d_438_378)">
<rect x="261.973" y="117.71" width="63" height="33" rx="10" fill="#FCFBF9" shape-rendering="crispEdges"/>
<rect x="262.473" y="118.21" width="62" height="32" rx="9.5" stroke="#1E238E" shape-rendering="crispEdges"/>
<path d="M280.553 139.815C279.763 139.815 279.058 139.64 278.438 139.29C277.818 138.93 277.328 138.44 276.968 137.82C276.618 137.19 276.443 136.48 276.443 135.69V129.21H277.613V135.555C277.613 136.145 277.743 136.675 278.003 137.145C278.263 137.615 278.613 137.985 279.053 138.255C279.503 138.525 280.003 138.66 280.553 138.66C281.133 138.66 281.648 138.525 282.098 138.255C282.558 137.985 282.918 137.615 283.178 137.145C283.438 136.675 283.568 136.145 283.568 135.555V129.21H284.693V135.69C284.693 136.48 284.513 137.19 284.153 137.82C283.803 138.44 283.313 138.93 282.683 139.29C282.063 139.64 281.353 139.815 280.553 139.815ZM290.039 139.86C289.369 139.86 288.769 139.735 288.239 139.485C287.709 139.235 287.289 138.905 286.979 138.495L287.774 137.805C288.064 138.155 288.404 138.42 288.794 138.6C289.194 138.78 289.639 138.87 290.129 138.87C290.379 138.87 290.604 138.845 290.804 138.795C291.004 138.735 291.179 138.65 291.329 138.54C291.479 138.43 291.594 138.3 291.674 138.15C291.754 138 291.794 137.835 291.794 137.655C291.794 137.325 291.649 137.05 291.359 136.83C291.229 136.74 291.044 136.65 290.804 136.56C290.564 136.46 290.274 136.365 289.934 136.275C289.374 136.115 288.909 135.955 288.539 135.795C288.169 135.625 287.879 135.43 287.669 135.21C287.519 135.03 287.404 134.835 287.324 134.625C287.254 134.415 287.219 134.185 287.219 133.935C287.219 133.615 287.284 133.32 287.414 133.05C287.554 132.78 287.744 132.545 287.984 132.345C288.234 132.135 288.524 131.98 288.854 131.88C289.194 131.77 289.559 131.715 289.949 131.715C290.319 131.715 290.684 131.765 291.044 131.865C291.404 131.965 291.739 132.11 292.049 132.3C292.359 132.49 292.624 132.715 292.844 132.975L292.154 133.725C291.964 133.525 291.754 133.345 291.524 133.185C291.294 133.025 291.049 132.9 290.789 132.81C290.539 132.72 290.279 132.675 290.009 132.675C289.769 132.675 289.544 132.705 289.334 132.765C289.134 132.825 288.959 132.91 288.809 133.02C288.669 133.12 288.559 133.245 288.479 133.395C288.409 133.545 288.374 133.71 288.374 133.89C288.374 134.04 288.404 134.175 288.464 134.295C288.524 134.415 288.609 134.52 288.719 134.61C288.859 134.72 289.054 134.825 289.304 134.925C289.564 135.015 289.884 135.11 290.264 135.21C290.704 135.33 291.074 135.455 291.374 135.585C291.684 135.705 291.939 135.85 292.139 136.02C292.409 136.22 292.599 136.45 292.709 136.71C292.829 136.97 292.889 137.265 292.889 137.595C292.889 138.035 292.764 138.425 292.514 138.765C292.274 139.105 291.939 139.375 291.509 139.575C291.079 139.765 290.589 139.86 290.039 139.86ZM298.301 139.86C297.521 139.86 296.826 139.69 296.216 139.35C295.616 139.01 295.146 138.535 294.806 137.925C294.466 137.315 294.296 136.615 294.296 135.825C294.296 135.215 294.391 134.665 294.581 134.175C294.771 133.675 295.036 133.24 295.376 132.87C295.726 132.5 296.141 132.215 296.621 132.015C297.101 131.805 297.621 131.7 298.181 131.7C298.711 131.7 299.191 131.795 299.621 131.985C300.061 132.175 300.436 132.44 300.746 132.78C301.066 133.11 301.306 133.505 301.466 133.965C301.626 134.425 301.696 134.93 301.676 135.48L301.661 136.005H295.136L294.971 135.06H300.806L300.536 135.315V134.955C300.516 134.595 300.411 134.25 300.221 133.92C300.031 133.58 299.761 133.305 299.411 133.095C299.071 132.885 298.661 132.78 298.181 132.78C297.621 132.78 297.136 132.895 296.726 133.125C296.316 133.345 296.001 133.675 295.781 134.115C295.561 134.555 295.451 135.1 295.451 135.75C295.451 136.37 295.571 136.91 295.811 137.37C296.051 137.82 296.391 138.17 296.831 138.42C297.281 138.67 297.821 138.795 298.451 138.795C298.821 138.795 299.186 138.735 299.546 138.615C299.916 138.485 300.321 138.235 300.761 137.865L301.346 138.675C301.116 138.905 300.841 139.11 300.521 139.29C300.201 139.46 299.851 139.6 299.471 139.71C299.091 139.81 298.701 139.86 298.301 139.86ZM306.654 139.86C305.944 139.86 305.304 139.685 304.734 139.335C304.174 138.985 303.729 138.505 303.399 137.895C303.079 137.275 302.919 136.575 302.919 135.795C302.919 135.005 303.084 134.305 303.414 133.695C303.744 133.075 304.189 132.59 304.749 132.24C305.309 131.89 305.939 131.715 306.639 131.715C307.029 131.715 307.404 131.775 307.764 131.895C308.134 132.015 308.464 132.185 308.754 132.405C309.044 132.615 309.284 132.86 309.474 133.14C309.664 133.41 309.779 133.695 309.819 133.995L309.474 133.875V128.61H310.599V139.71H309.489L309.459 137.76L309.744 137.655C309.704 137.935 309.589 138.21 309.399 138.48C309.219 138.74 308.989 138.975 308.709 139.185C308.429 139.395 308.109 139.56 307.749 139.68C307.399 139.8 307.034 139.86 306.654 139.86ZM306.819 138.825C307.339 138.825 307.804 138.695 308.214 138.435C308.624 138.175 308.944 137.815 309.174 137.355C309.414 136.895 309.534 136.37 309.534 135.78C309.534 135.19 309.414 134.67 309.174 134.22C308.944 133.76 308.624 133.4 308.214 133.14C307.804 132.87 307.339 132.735 306.819 132.735C306.279 132.735 305.804 132.87 305.394 133.14C304.994 133.4 304.674 133.76 304.434 134.22C304.204 134.67 304.089 135.19 304.089 135.78C304.089 136.36 304.204 136.88 304.434 137.34C304.664 137.8 304.984 138.165 305.394 138.435C305.804 138.695 306.279 138.825 306.819 138.825Z" fill="#1E238E"/>
</g>
<g filter="url(#filter3_d_438_378)">
<rect x="162.973" y="117.71" width="83" height="33" rx="10" fill="#FCFBF9" shape-rendering="crispEdges"/>
<rect x="163.473" y="118.21" width="82" height="32" rx="9.5" stroke="#1E238E" shape-rendering="crispEdges"/>
<path d="M180.413 139.71L176.348 129.21H177.668L180.278 136.05C180.398 136.36 180.503 136.635 180.593 136.875C180.683 137.115 180.763 137.345 180.833 137.565C180.913 137.775 180.988 137.985 181.058 138.195C181.128 138.405 181.203 138.635 181.283 138.885L180.893 138.9C180.993 138.56 181.088 138.245 181.178 137.955C181.278 137.665 181.378 137.37 181.478 137.07C181.588 136.76 181.723 136.4 181.883 135.99L184.478 129.21H185.798L181.613 139.71H180.413ZM187.763 139.71V131.88H188.888V139.71H187.763ZM188.318 130.185C188.038 130.185 187.823 130.115 187.673 129.975C187.533 129.825 187.463 129.625 187.463 129.375C187.463 129.125 187.538 128.925 187.688 128.775C187.838 128.625 188.048 128.55 188.318 128.55C188.588 128.55 188.798 128.625 188.948 128.775C189.098 128.915 189.173 129.115 189.173 129.375C189.173 129.615 189.098 129.81 188.948 129.96C188.798 130.11 188.588 130.185 188.318 130.185ZM191.545 139.71V131.88H192.655L192.7 133.515L192.52 133.59C192.62 133.25 192.815 132.94 193.105 132.66C193.395 132.38 193.74 132.155 194.14 131.985C194.55 131.805 194.97 131.715 195.4 131.715C195.98 131.715 196.465 131.83 196.855 132.06C197.245 132.29 197.54 132.645 197.74 133.125C197.94 133.605 198.04 134.215 198.04 134.955V139.71H196.9V135.015C196.9 134.495 196.83 134.07 196.69 133.74C196.56 133.4 196.355 133.15 196.075 132.99C195.795 132.83 195.45 132.755 195.04 132.765C194.7 132.765 194.385 132.825 194.095 132.945C193.805 133.055 193.555 133.21 193.345 133.41C193.135 133.61 192.97 133.84 192.85 134.1C192.73 134.36 192.67 134.64 192.67 134.94V139.71H192.115C192.045 139.71 191.965 139.71 191.875 139.71C191.785 139.71 191.675 139.71 191.545 139.71ZM201.467 139.71V129.825H202.592V139.71H201.467ZM199.697 132.96V131.88H204.572V132.96H199.697ZM209.141 139.86C208.461 139.86 207.846 139.685 207.296 139.335C206.746 138.975 206.311 138.49 205.991 137.88C205.671 137.26 205.511 136.56 205.511 135.78C205.511 134.99 205.676 134.29 206.006 133.68C206.336 133.07 206.776 132.59 207.326 132.24C207.886 131.89 208.511 131.715 209.201 131.715C209.611 131.715 209.991 131.775 210.341 131.895C210.691 132.015 211.001 132.185 211.271 132.405C211.551 132.615 211.781 132.865 211.961 133.155C212.151 133.435 212.281 133.74 212.351 134.07L212.021 133.905L212.066 131.88H213.191V139.71H212.051V137.79L212.351 137.595C212.281 137.895 212.146 138.185 211.946 138.465C211.746 138.735 211.501 138.975 211.211 139.185C210.931 139.395 210.611 139.56 210.251 139.68C209.901 139.8 209.531 139.86 209.141 139.86ZM209.396 138.78C209.916 138.78 210.381 138.655 210.791 138.405C211.201 138.145 211.521 137.79 211.751 137.34C211.991 136.88 212.111 136.36 212.111 135.78C212.111 135.2 211.991 134.685 211.751 134.235C211.521 133.785 211.201 133.43 210.791 133.17C210.381 132.91 209.916 132.78 209.396 132.78C208.866 132.78 208.396 132.91 207.986 133.17C207.586 133.43 207.266 133.785 207.026 134.235C206.796 134.685 206.681 135.2 206.681 135.78C206.681 136.35 206.796 136.865 207.026 137.325C207.256 137.775 207.576 138.13 207.986 138.39C208.396 138.65 208.866 138.78 209.396 138.78ZM218.957 143.16C218.377 143.16 217.827 143.07 217.307 142.89C216.787 142.71 216.357 142.485 216.017 142.215L216.467 141.27C216.667 141.43 216.897 141.57 217.157 141.69C217.427 141.82 217.717 141.92 218.027 141.99C218.337 142.07 218.652 142.11 218.972 142.11C219.552 142.11 220.042 142 220.442 141.78C220.852 141.57 221.162 141.255 221.372 140.835C221.592 140.415 221.702 139.895 221.702 139.275V137.775L221.882 137.73C221.792 138.11 221.597 138.465 221.297 138.795C220.997 139.115 220.632 139.375 220.202 139.575C219.772 139.765 219.317 139.86 218.837 139.86C218.107 139.86 217.452 139.685 216.872 139.335C216.302 138.985 215.852 138.505 215.522 137.895C215.192 137.275 215.027 136.575 215.027 135.795C215.027 135.005 215.192 134.305 215.522 133.695C215.862 133.075 216.317 132.59 216.887 132.24C217.457 131.89 218.097 131.715 218.807 131.715C219.117 131.715 219.417 131.755 219.707 131.835C219.997 131.905 220.262 132.01 220.502 132.15C220.752 132.29 220.977 132.45 221.177 132.63C221.377 132.81 221.542 133.005 221.672 133.215C221.812 133.425 221.912 133.64 221.972 133.86L221.657 133.815L221.702 131.88H222.827V139.23C222.827 139.86 222.737 140.415 222.557 140.895C222.377 141.385 222.112 141.795 221.762 142.125C221.422 142.465 221.012 142.72 220.532 142.89C220.062 143.07 219.537 143.16 218.957 143.16ZM218.972 138.78C219.502 138.78 219.972 138.655 220.382 138.405C220.802 138.145 221.132 137.79 221.372 137.34C221.612 136.89 221.732 136.37 221.732 135.78C221.732 135.2 221.612 134.685 221.372 134.235C221.142 133.785 220.817 133.43 220.397 133.17C219.977 132.91 219.502 132.78 218.972 132.78C218.432 132.78 217.952 132.91 217.532 133.17C217.122 133.43 216.797 133.785 216.557 134.235C216.317 134.685 216.197 135.2 216.197 135.78C216.197 136.35 216.312 136.865 216.542 137.325C216.782 137.775 217.107 138.13 217.517 138.39C217.937 138.65 218.422 138.78 218.972 138.78ZM228.666 139.86C227.886 139.86 227.191 139.69 226.581 139.35C225.981 139.01 225.511 138.535 225.171 137.925C224.831 137.315 224.661 136.615 224.661 135.825C224.661 135.215 224.756 134.665 224.946 134.175C225.136 133.675 225.401 133.24 225.741 132.87C226.091 132.5 226.506 132.215 226.986 132.015C227.466 131.805 227.986 131.7 228.546 131.7C229.076 131.7 229.556 131.795 229.986 131.985C230.426 132.175 230.801 132.44 231.111 132.78C231.431 133.11 231.671 133.505 231.831 133.965C231.991 134.425 232.061 134.93 232.041 135.48L232.026 136.005H225.501L225.336 135.06H231.171L230.901 135.315V134.955C230.881 134.595 230.776 134.25 230.586 133.92C230.396 133.58 230.126 133.305 229.776 133.095C229.436 132.885 229.026 132.78 228.546 132.78C227.986 132.78 227.501 132.895 227.091 133.125C226.681 133.345 226.366 133.675 226.146 134.115C225.926 134.555 225.816 135.1 225.816 135.75C225.816 136.37 225.936 136.91 226.176 137.37C226.416 137.82 226.756 138.17 227.196 138.42C227.646 138.67 228.186 138.795 228.816 138.795C229.186 138.795 229.551 138.735 229.911 138.615C230.281 138.485 230.686 138.235 231.126 137.865L231.711 138.675C231.481 138.905 231.206 139.11 230.886 139.29C230.566 139.46 230.216 139.6 229.836 139.71C229.456 139.81 229.066 139.86 228.666 139.86Z" fill="#1E238E"/>
</g>
<g filter="url(#filter4_d_438_378)">
<rect x="16.6367" y="167.705" width="159" height="33" rx="10" fill="#FCFBF9" shape-rendering="crispEdges"/>
<rect x="17.1367" y="168.205" width="158" height="32" rx="9.5" stroke="#1E238E" shape-rendering="crispEdges"/>
<path d="M34.2417 189.855C33.7117 189.855 33.2117 189.78 32.7417 189.63C32.2717 189.48 31.8417 189.255 31.4517 188.955C31.0617 188.655 30.7167 188.285 30.4167 187.845L31.2267 186.945C31.6967 187.615 32.1767 188.085 32.6667 188.355C33.1667 188.625 33.7267 188.76 34.3467 188.76C34.7967 188.76 35.2067 188.685 35.5767 188.535C35.9467 188.385 36.2367 188.175 36.4467 187.905C36.6567 187.635 36.7617 187.325 36.7617 186.975C36.7617 186.745 36.7217 186.54 36.6417 186.36C36.5717 186.18 36.4617 186.02 36.3117 185.88C36.1617 185.74 35.9767 185.615 35.7567 185.505C35.5367 185.395 35.2817 185.295 34.9917 185.205C34.7117 185.115 34.3967 185.025 34.0467 184.935C33.5367 184.815 33.0867 184.675 32.6967 184.515C32.3167 184.345 31.9917 184.14 31.7217 183.9C31.4617 183.66 31.2617 183.385 31.1217 183.075C30.9917 182.755 30.9267 182.38 30.9267 181.95C30.9267 181.54 31.0117 181.16 31.1817 180.81C31.3617 180.46 31.6067 180.16 31.9167 179.91C32.2267 179.65 32.5917 179.45 33.0117 179.31C33.4317 179.17 33.8817 179.1 34.3617 179.1C34.9017 179.1 35.3817 179.175 35.8017 179.325C36.2317 179.465 36.6117 179.675 36.9417 179.955C37.2717 180.235 37.5567 180.57 37.7967 180.96L36.9717 181.77C36.7617 181.44 36.5217 181.155 36.2517 180.915C35.9917 180.675 35.7017 180.495 35.3817 180.375C35.0717 180.245 34.7267 180.18 34.3467 180.18C33.9067 180.18 33.5167 180.255 33.1767 180.405C32.8467 180.555 32.5867 180.765 32.3967 181.035C32.2067 181.295 32.1117 181.595 32.1117 181.935C32.1117 182.185 32.1567 182.41 32.2467 182.61C32.3367 182.8 32.4767 182.97 32.6667 183.12C32.8667 183.26 33.1217 183.39 33.4317 183.51C33.7517 183.62 34.1317 183.725 34.5717 183.825C35.0917 183.945 35.5567 184.09 35.9667 184.26C36.3867 184.43 36.7417 184.635 37.0317 184.875C37.3317 185.105 37.5567 185.375 37.7067 185.685C37.8667 185.995 37.9467 186.35 37.9467 186.75C37.9467 187.37 37.7917 187.915 37.4817 188.385C37.1717 188.845 36.7367 189.205 36.1767 189.465C35.6267 189.725 34.9817 189.855 34.2417 189.855ZM40.0427 189.705V181.875H41.1677L41.1977 183.66L40.9727 183.735C41.0527 183.435 41.1827 183.165 41.3627 182.925C41.5527 182.675 41.7777 182.46 42.0377 182.28C42.2977 182.1 42.5827 181.965 42.8927 181.875C43.2027 181.775 43.5277 181.725 43.8677 181.725C44.2777 181.725 44.6427 181.795 44.9627 181.935C45.2927 182.065 45.5677 182.295 45.7877 182.625C46.0177 182.945 46.1927 183.37 46.3127 183.9L46.0427 183.765L46.1477 183.51C46.2477 183.28 46.3927 183.06 46.5827 182.85C46.7827 182.63 47.0077 182.435 47.2577 182.265C47.5177 182.095 47.7977 181.965 48.0977 181.875C48.4077 181.775 48.7227 181.725 49.0427 181.725C49.5927 181.725 50.0577 181.845 50.4377 182.085C50.8177 182.315 51.1027 182.67 51.2927 183.15C51.4927 183.63 51.5927 184.24 51.5927 184.98V189.705H50.4377V185.04C50.4377 184.52 50.3727 184.095 50.2427 183.765C50.1127 183.435 49.9177 183.19 49.6577 183.03C49.4077 182.86 49.0877 182.775 48.6977 182.775C48.3577 182.775 48.0427 182.835 47.7527 182.955C47.4727 183.065 47.2277 183.225 47.0177 183.435C46.8177 183.635 46.6577 183.865 46.5377 184.125C46.4277 184.385 46.3727 184.665 46.3727 184.965V189.705H45.2327V185.025C45.2327 184.525 45.1627 184.11 45.0227 183.78C44.8927 183.45 44.6977 183.2 44.4377 183.03C44.1777 182.86 43.8577 182.775 43.4777 182.775C43.1477 182.775 42.8427 182.835 42.5627 182.955C42.2827 183.065 42.0377 183.22 41.8277 183.42C41.6277 183.62 41.4677 183.85 41.3477 184.11C41.2377 184.37 41.1827 184.65 41.1827 184.95V189.705H40.0427ZM57.3897 189.855C56.6097 189.855 55.9147 189.68 55.3047 189.33C54.7047 188.98 54.2297 188.495 53.8797 187.875C53.5397 187.255 53.3697 186.55 53.3697 185.76C53.3697 184.98 53.5397 184.285 53.8797 183.675C54.2297 183.065 54.7047 182.585 55.3047 182.235C55.9147 181.885 56.6097 181.71 57.3897 181.71C58.1597 181.71 58.8447 181.885 59.4447 182.235C60.0547 182.585 60.5297 183.065 60.8697 183.675C61.2197 184.285 61.3947 184.98 61.3947 185.76C61.3947 186.55 61.2197 187.255 60.8697 187.875C60.5297 188.495 60.0547 188.98 59.4447 189.33C58.8447 189.68 58.1597 189.855 57.3897 189.855ZM57.3897 188.79C57.9397 188.79 58.4297 188.66 58.8597 188.4C59.2897 188.13 59.6247 187.77 59.8647 187.32C60.1047 186.86 60.2247 186.34 60.2247 185.76C60.2247 185.18 60.1047 184.665 59.8647 184.215C59.6247 183.765 59.2897 183.415 58.8597 183.165C58.4297 182.905 57.9397 182.775 57.3897 182.775C56.8397 182.775 56.3447 182.905 55.9047 183.165C55.4747 183.415 55.1347 183.77 54.8847 184.23C54.6447 184.68 54.5297 185.19 54.5397 185.76C54.5297 186.34 54.6447 186.86 54.8847 187.32C55.1347 187.77 55.4747 188.13 55.9047 188.4C56.3447 188.66 56.8397 188.79 57.3897 188.79ZM64.241 187.185L64.196 185.88L68.291 181.875H69.806L64.241 187.185ZM63.236 189.705V178.605H64.361V189.705H63.236ZM68.606 189.705L65.306 185.88L66.101 185.1L70.076 189.705H68.606ZM74.6204 189.855C73.8404 189.855 73.1454 189.685 72.5354 189.345C71.9354 189.005 71.4654 188.53 71.1254 187.92C70.7854 187.31 70.6154 186.61 70.6154 185.82C70.6154 185.21 70.7104 184.66 70.9004 184.17C71.0904 183.67 71.3554 183.235 71.6954 182.865C72.0454 182.495 72.4604 182.21 72.9404 182.01C73.4204 181.8 73.9404 181.695 74.5004 181.695C75.0304 181.695 75.5104 181.79 75.9404 181.98C76.3804 182.17 76.7554 182.435 77.0654 182.775C77.3854 183.105 77.6254 183.5 77.7854 183.96C77.9454 184.42 78.0154 184.925 77.9954 185.475L77.9804 186H71.4554L71.2904 185.055H77.1254L76.8554 185.31V184.95C76.8354 184.59 76.7304 184.245 76.5404 183.915C76.3504 183.575 76.0804 183.3 75.7304 183.09C75.3904 182.88 74.9804 182.775 74.5004 182.775C73.9404 182.775 73.4554 182.89 73.0454 183.12C72.6354 183.34 72.3204 183.67 72.1004 184.11C71.8804 184.55 71.7704 185.095 71.7704 185.745C71.7704 186.365 71.8904 186.905 72.1304 187.365C72.3704 187.815 72.7104 188.165 73.1504 188.415C73.6004 188.665 74.1404 188.79 74.7704 188.79C75.1404 188.79 75.5054 188.73 75.8654 188.61C76.2354 188.48 76.6404 188.23 77.0804 187.86L77.6654 188.67C77.4354 188.9 77.1604 189.105 76.8404 189.285C76.5204 189.455 76.1704 189.595 75.7904 189.705C75.4104 189.805 75.0204 189.855 74.6204 189.855ZM84.6473 189.705V179.205H85.8173V189.705H84.6473ZM85.2323 185.025V183.87H90.5423V185.025H85.2323ZM85.2323 180.345V179.205H91.2473V180.345H85.2323ZM93.1571 189.705V181.875H94.2821L94.3121 183.96L94.1921 183.675C94.3021 183.325 94.4771 183 94.7171 182.7C94.9671 182.4 95.2621 182.16 95.6021 181.98C95.9421 181.8 96.3171 181.71 96.7271 181.71C96.8971 181.71 97.0571 181.725 97.2071 181.755C97.3571 181.775 97.4821 181.805 97.5821 181.845L97.2671 183.105C97.1371 183.045 97.0021 183.005 96.8621 182.985C96.7321 182.955 96.6071 182.94 96.4871 182.94C96.1471 182.94 95.8421 183 95.5721 183.12C95.3021 183.24 95.0721 183.41 94.8821 183.63C94.6921 183.84 94.5471 184.085 94.4471 184.365C94.3471 184.645 94.2971 184.945 94.2971 185.265V189.705H93.1571ZM102.066 189.855C101.286 189.855 100.591 189.685 99.9809 189.345C99.3809 189.005 98.9109 188.53 98.5709 187.92C98.2309 187.31 98.0609 186.61 98.0609 185.82C98.0609 185.21 98.1559 184.66 98.3459 184.17C98.5359 183.67 98.8009 183.235 99.1409 182.865C99.4909 182.495 99.9059 182.21 100.386 182.01C100.866 181.8 101.386 181.695 101.946 181.695C102.476 181.695 102.956 181.79 103.386 181.98C103.826 182.17 104.201 182.435 104.511 182.775C104.831 183.105 105.071 183.5 105.231 183.96C105.391 184.42 105.461 184.925 105.441 185.475L105.426 186H98.9009L98.7359 185.055H104.571L104.301 185.31V184.95C104.281 184.59 104.176 184.245 103.986 183.915C103.796 183.575 103.526 183.3 103.176 183.09C102.836 182.88 102.426 182.775 101.946 182.775C101.386 182.775 100.901 182.89 100.491 183.12C100.081 183.34 99.7659 183.67 99.5459 184.11C99.3259 184.55 99.2159 185.095 99.2159 185.745C99.2159 186.365 99.3359 186.905 99.5759 187.365C99.8159 187.815 100.156 188.165 100.596 188.415C101.046 188.665 101.586 188.79 102.216 188.79C102.586 188.79 102.951 188.73 103.311 188.61C103.681 188.48 104.086 188.23 104.526 187.86L105.111 188.67C104.881 188.9 104.606 189.105 104.286 189.285C103.966 189.455 103.616 189.595 103.236 189.705C102.856 189.805 102.466 189.855 102.066 189.855ZM110.689 189.855C109.909 189.855 109.214 189.685 108.604 189.345C108.004 189.005 107.534 188.53 107.194 187.92C106.854 187.31 106.684 186.61 106.684 185.82C106.684 185.21 106.779 184.66 106.969 184.17C107.159 183.67 107.424 183.235 107.764 182.865C108.114 182.495 108.529 182.21 109.009 182.01C109.489 181.8 110.009 181.695 110.569 181.695C111.099 181.695 111.579 181.79 112.009 181.98C112.449 182.17 112.824 182.435 113.134 182.775C113.454 183.105 113.694 183.5 113.854 183.96C114.014 184.42 114.084 184.925 114.064 185.475L114.049 186H107.524L107.359 185.055H113.194L112.924 185.31V184.95C112.904 184.59 112.799 184.245 112.609 183.915C112.419 183.575 112.149 183.3 111.799 183.09C111.459 182.88 111.049 182.775 110.569 182.775C110.009 182.775 109.524 182.89 109.114 183.12C108.704 183.34 108.389 183.67 108.169 184.11C107.949 184.55 107.839 185.095 107.839 185.745C107.839 186.365 107.959 186.905 108.199 187.365C108.439 187.815 108.779 188.165 109.219 188.415C109.669 188.665 110.209 188.79 110.839 188.79C111.209 188.79 111.574 188.73 111.934 188.61C112.304 188.48 112.709 188.23 113.149 187.86L113.734 188.67C113.504 188.9 113.229 189.105 112.909 189.285C112.589 189.455 112.239 189.595 111.859 189.705C111.479 189.805 111.089 189.855 110.689 189.855ZM127.736 189.705V179.205H128.906V189.705H127.736ZM120.716 189.705V179.205H121.886V189.705H120.716ZM121.286 185.04V183.9H128.231V185.04H121.286ZM135.21 189.855C134.43 189.855 133.735 189.68 133.125 189.33C132.525 188.98 132.05 188.495 131.7 187.875C131.36 187.255 131.19 186.55 131.19 185.76C131.19 184.98 131.36 184.285 131.7 183.675C132.05 183.065 132.525 182.585 133.125 182.235C133.735 181.885 134.43 181.71 135.21 181.71C135.98 181.71 136.665 181.885 137.265 182.235C137.875 182.585 138.35 183.065 138.69 183.675C139.04 184.285 139.215 184.98 139.215 185.76C139.215 186.55 139.04 187.255 138.69 187.875C138.35 188.495 137.875 188.98 137.265 189.33C136.665 189.68 135.98 189.855 135.21 189.855ZM135.21 188.79C135.76 188.79 136.25 188.66 136.68 188.4C137.11 188.13 137.445 187.77 137.685 187.32C137.925 186.86 138.045 186.34 138.045 185.76C138.045 185.18 137.925 184.665 137.685 184.215C137.445 183.765 137.11 183.415 136.68 183.165C136.25 182.905 135.76 182.775 135.21 182.775C134.66 182.775 134.165 182.905 133.725 183.165C133.295 183.415 132.955 183.77 132.705 184.23C132.465 184.68 132.35 185.19 132.36 185.76C132.35 186.34 132.465 186.86 132.705 187.32C132.955 187.77 133.295 188.13 133.725 188.4C134.165 188.66 134.66 188.79 135.21 188.79ZM141.041 189.705V181.875H142.166L142.196 183.66L141.971 183.735C142.051 183.435 142.181 183.165 142.361 182.925C142.551 182.675 142.776 182.46 143.036 182.28C143.296 182.1 143.581 181.965 143.891 181.875C144.201 181.775 144.526 181.725 144.866 181.725C145.276 181.725 145.641 181.795 145.961 181.935C146.291 182.065 146.566 182.295 146.786 182.625C147.016 182.945 147.191 183.37 147.311 183.9L147.041 183.765L147.146 183.51C147.246 183.28 147.391 183.06 147.581 182.85C147.781 182.63 148.006 182.435 148.256 182.265C148.516 182.095 148.796 181.965 149.096 181.875C149.406 181.775 149.721 181.725 150.041 181.725C150.591 181.725 151.056 181.845 151.436 182.085C151.816 182.315 152.101 182.67 152.291 183.15C152.491 183.63 152.591 184.24 152.591 184.98V189.705H151.436V185.04C151.436 184.52 151.371 184.095 151.241 183.765C151.111 183.435 150.916 183.19 150.656 183.03C150.406 182.86 150.086 182.775 149.696 182.775C149.356 182.775 149.041 182.835 148.751 182.955C148.471 183.065 148.226 183.225 148.016 183.435C147.816 183.635 147.656 183.865 147.536 184.125C147.426 184.385 147.371 184.665 147.371 184.965V189.705H146.231V185.025C146.231 184.525 146.161 184.11 146.021 183.78C145.891 183.45 145.696 183.2 145.436 183.03C145.176 182.86 144.856 182.775 144.476 182.775C144.146 182.775 143.841 182.835 143.561 182.955C143.281 183.065 143.036 183.22 142.826 183.42C142.626 183.62 142.466 183.85 142.346 184.11C142.236 184.37 142.181 184.65 142.181 184.95V189.705H141.041ZM158.373 189.855C157.593 189.855 156.898 189.685 156.288 189.345C155.688 189.005 155.218 188.53 154.878 187.92C154.538 187.31 154.368 186.61 154.368 185.82C154.368 185.21 154.463 184.66 154.653 184.17C154.843 183.67 155.108 183.235 155.448 182.865C155.798 182.495 156.213 182.21 156.693 182.01C157.173 181.8 157.693 181.695 158.253 181.695C158.783 181.695 159.263 181.79 159.693 181.98C160.133 182.17 160.508 182.435 160.818 182.775C161.138 183.105 161.378 183.5 161.538 183.96C161.698 184.42 161.768 184.925 161.748 185.475L161.733 186H155.208L155.043 185.055H160.878L160.608 185.31V184.95C160.588 184.59 160.483 184.245 160.293 183.915C160.103 183.575 159.833 183.3 159.483 183.09C159.143 182.88 158.733 182.775 158.253 182.775C157.693 182.775 157.208 182.89 156.798 183.12C156.388 183.34 156.073 183.67 155.853 184.11C155.633 184.55 155.523 185.095 155.523 185.745C155.523 186.365 155.643 186.905 155.883 187.365C156.123 187.815 156.463 188.165 156.903 188.415C157.353 188.665 157.893 188.79 158.523 188.79C158.893 188.79 159.258 188.73 159.618 188.61C159.988 188.48 160.393 188.23 160.833 187.86L161.418 188.67C161.188 188.9 160.913 189.105 160.593 189.285C160.273 189.455 159.923 189.595 159.543 189.705C159.163 189.805 158.773 189.855 158.373 189.855Z" fill="#1E238E"/>
</g>
<g filter="url(#filter5_d_438_378)">
<rect x="208.637" y="167.705" width="89" height="33" rx="10" fill="#FCFBF9" shape-rendering="crispEdges"/>
<rect x="209.137" y="168.205" width="88" height="32" rx="9.5" stroke="#1E238E" shape-rendering="crispEdges"/>
<path d="M223.182 189.705V179.205H224.352V188.565H229.392V189.705H223.182ZM231.728 189.705V181.875H232.853V189.705H231.728ZM232.283 180.18C232.003 180.18 231.788 180.11 231.638 179.97C231.498 179.82 231.428 179.62 231.428 179.37C231.428 179.12 231.503 178.92 231.653 178.77C231.803 178.62 232.013 178.545 232.283 178.545C232.553 178.545 232.763 178.62 232.913 178.77C233.063 178.91 233.138 179.11 233.138 179.37C233.138 179.61 233.063 179.805 232.913 179.955C232.763 180.105 232.553 180.18 232.283 180.18ZM236.515 187.185L236.47 185.88L240.565 181.875H242.08L236.515 187.185ZM235.51 189.705V178.605H236.635V189.705H235.51ZM240.88 189.705L237.58 185.88L238.375 185.1L242.35 189.705H240.88ZM246.894 189.855C246.114 189.855 245.419 189.685 244.809 189.345C244.209 189.005 243.739 188.53 243.399 187.92C243.059 187.31 242.889 186.61 242.889 185.82C242.889 185.21 242.984 184.66 243.174 184.17C243.364 183.67 243.629 183.235 243.969 182.865C244.319 182.495 244.734 182.21 245.214 182.01C245.694 181.8 246.214 181.695 246.774 181.695C247.304 181.695 247.784 181.79 248.214 181.98C248.654 182.17 249.029 182.435 249.339 182.775C249.659 183.105 249.899 183.5 250.059 183.96C250.219 184.42 250.289 184.925 250.269 185.475L250.254 186H243.729L243.564 185.055H249.399L249.129 185.31V184.95C249.109 184.59 249.004 184.245 248.814 183.915C248.624 183.575 248.354 183.3 248.004 183.09C247.664 182.88 247.254 182.775 246.774 182.775C246.214 182.775 245.729 182.89 245.319 183.12C244.909 183.34 244.594 183.67 244.374 184.11C244.154 184.55 244.044 185.095 244.044 185.745C244.044 186.365 244.164 186.905 244.404 187.365C244.644 187.815 244.984 188.165 245.424 188.415C245.874 188.665 246.414 188.79 247.044 188.79C247.414 188.79 247.779 188.73 248.139 188.61C248.509 188.48 248.914 188.23 249.354 187.86L249.939 188.67C249.709 188.9 249.434 189.105 249.114 189.285C248.794 189.455 248.444 189.595 248.064 189.705C247.684 189.805 247.294 189.855 246.894 189.855ZM256.471 189.705V181.875H257.581L257.626 183.51L257.446 183.585C257.546 183.245 257.741 182.935 258.031 182.655C258.321 182.375 258.666 182.15 259.066 181.98C259.476 181.8 259.896 181.71 260.326 181.71C260.906 181.71 261.391 181.825 261.781 182.055C262.171 182.285 262.466 182.64 262.666 183.12C262.866 183.6 262.966 184.21 262.966 184.95V189.705H261.826V185.01C261.826 184.49 261.756 184.065 261.616 183.735C261.486 183.395 261.281 183.145 261.001 182.985C260.721 182.825 260.376 182.75 259.966 182.76C259.626 182.76 259.311 182.82 259.021 182.94C258.731 183.05 258.481 183.205 258.271 183.405C258.061 183.605 257.896 183.835 257.776 184.095C257.656 184.355 257.596 184.635 257.596 184.935V189.705H257.041C256.971 189.705 256.891 189.705 256.801 189.705C256.711 189.705 256.601 189.705 256.471 189.705ZM268.764 189.855C267.984 189.855 267.289 189.685 266.679 189.345C266.079 189.005 265.609 188.53 265.269 187.92C264.929 187.31 264.759 186.61 264.759 185.82C264.759 185.21 264.854 184.66 265.044 184.17C265.234 183.67 265.499 183.235 265.839 182.865C266.189 182.495 266.604 182.21 267.084 182.01C267.564 181.8 268.084 181.695 268.644 181.695C269.174 181.695 269.654 181.79 270.084 181.98C270.524 182.17 270.899 182.435 271.209 182.775C271.529 183.105 271.769 183.5 271.929 183.96C272.089 184.42 272.159 184.925 272.139 185.475L272.124 186H265.599L265.434 185.055H271.269L270.999 185.31V184.95C270.979 184.59 270.874 184.245 270.684 183.915C270.494 183.575 270.224 183.3 269.874 183.09C269.534 182.88 269.124 182.775 268.644 182.775C268.084 182.775 267.599 182.89 267.189 183.12C266.779 183.34 266.464 183.67 266.244 184.11C266.024 184.55 265.914 185.095 265.914 185.745C265.914 186.365 266.034 186.905 266.274 187.365C266.514 187.815 266.854 188.165 267.294 188.415C267.744 188.665 268.284 188.79 268.914 188.79C269.284 188.79 269.649 188.73 270.009 188.61C270.379 188.48 270.784 188.23 271.224 187.86L271.809 188.67C271.579 188.9 271.304 189.105 270.984 189.285C270.664 189.455 270.314 189.595 269.934 189.705C269.554 189.805 269.164 189.855 268.764 189.855ZM275.635 189.705L272.92 181.875L274.12 181.86L276.235 188.235L275.86 188.205L278.155 183.075H278.83L281.14 188.205L280.69 188.235L282.85 181.875H284.035L281.32 189.705H280.66L278.23 184.125L278.68 184.155L276.325 189.705H275.635Z" fill="#1E238E"/>
</g>
<g filter="url(#filter6_d_438_378)">
<rect x="88.6367" y="60.7051" width="134" height="33" rx="10" fill="#FCFBF9" shape-rendering="crispEdges"/>
<rect x="89.1367" y="61.2051" width="133" height="32" rx="9.5" stroke="#1E238E" shape-rendering="crispEdges"/>
<path d="M103.182 82.7051V72.2051H107.337C107.887 72.2051 108.382 72.3401 108.822 72.6101C109.262 72.8801 109.612 73.2551 109.872 73.7351C110.132 74.2051 110.262 74.7351 110.262 75.3251C110.262 75.9451 110.132 76.5001 109.872 76.9901C109.612 77.4701 109.262 77.8551 108.822 78.1451C108.382 78.4251 107.887 78.5651 107.337 78.5651H104.352V82.7051H103.182ZM104.352 77.4251H107.397C107.707 77.4251 107.982 77.3351 108.222 77.1551C108.472 76.9651 108.672 76.7151 108.822 76.4051C108.972 76.0851 109.047 75.7201 109.047 75.3101C109.047 74.9401 108.972 74.6101 108.822 74.3201C108.672 74.0201 108.472 73.7851 108.222 73.6151C107.982 73.4351 107.707 73.3451 107.397 73.3451H104.352V77.4251ZM115.566 82.8551C114.786 82.8551 114.091 82.6851 113.481 82.3451C112.881 82.0051 112.411 81.5301 112.071 80.9201C111.731 80.3101 111.561 79.6101 111.561 78.8201C111.561 78.2101 111.656 77.6601 111.846 77.1701C112.036 76.6701 112.301 76.2351 112.641 75.8651C112.991 75.4951 113.406 75.2101 113.886 75.0101C114.366 74.8001 114.886 74.6951 115.446 74.6951C115.976 74.6951 116.456 74.7901 116.886 74.9801C117.326 75.1701 117.701 75.4351 118.011 75.7751C118.331 76.1051 118.571 76.5001 118.731 76.9601C118.891 77.4201 118.961 77.9251 118.941 78.4751L118.926 79.0001H112.401L112.236 78.0551H118.071L117.801 78.3101V77.9501C117.781 77.5901 117.676 77.2451 117.486 76.9151C117.296 76.5751 117.026 76.3001 116.676 76.0901C116.336 75.8801 115.926 75.7751 115.446 75.7751C114.886 75.7751 114.401 75.8901 113.991 76.1201C113.581 76.3401 113.266 76.6701 113.046 77.1101C112.826 77.5501 112.716 78.0951 112.716 78.7451C112.716 79.3651 112.836 79.9051 113.076 80.3651C113.316 80.8151 113.656 81.1651 114.096 81.4151C114.546 81.6651 115.086 81.7901 115.716 81.7901C116.086 81.7901 116.451 81.7301 116.811 81.6101C117.181 81.4801 117.586 81.2301 118.026 80.8601L118.611 81.6701C118.381 81.9001 118.106 82.1051 117.786 82.2851C117.466 82.4551 117.116 82.5951 116.736 82.7051C116.356 82.8051 115.966 82.8551 115.566 82.8551ZM121.819 82.7051V72.8201H122.944V82.7051H121.819ZM120.049 75.9551V74.8751H124.924V75.9551H120.049ZM131.36 82.7051V72.2051H132.53V82.7051H131.36ZM131.945 78.0251V76.8701H137.255V78.0251H131.945ZM131.945 73.3451V72.2051H137.96V73.3451H131.945ZM139.869 82.7051V74.8751H140.994L141.024 76.9601L140.904 76.6751C141.014 76.3251 141.189 76.0001 141.429 75.7001C141.679 75.4001 141.974 75.1601 142.314 74.9801C142.654 74.8001 143.029 74.7101 143.439 74.7101C143.609 74.7101 143.769 74.7251 143.919 74.7551C144.069 74.7751 144.194 74.8051 144.294 74.8451L143.979 76.1051C143.849 76.0451 143.714 76.0051 143.574 75.9851C143.444 75.9551 143.319 75.9401 143.199 75.9401C142.859 75.9401 142.554 76.0001 142.284 76.1201C142.014 76.2401 141.784 76.4101 141.594 76.6301C141.404 76.8401 141.259 77.0851 141.159 77.3651C141.059 77.6451 141.009 77.9451 141.009 78.2651V82.7051H139.869ZM148.778 82.8551C147.998 82.8551 147.303 82.6851 146.693 82.3451C146.093 82.0051 145.623 81.5301 145.283 80.9201C144.943 80.3101 144.773 79.6101 144.773 78.8201C144.773 78.2101 144.868 77.6601 145.058 77.1701C145.248 76.6701 145.513 76.2351 145.853 75.8651C146.203 75.4951 146.618 75.2101 147.098 75.0101C147.578 74.8001 148.098 74.6951 148.658 74.6951C149.188 74.6951 149.668 74.7901 150.098 74.9801C150.538 75.1701 150.913 75.4351 151.223 75.7751C151.543 76.1051 151.783 76.5001 151.943 76.9601C152.103 77.4201 152.173 77.9251 152.153 78.4751L152.138 79.0001H145.613L145.448 78.0551H151.283L151.013 78.3101V77.9501C150.993 77.5901 150.888 77.2451 150.698 76.9151C150.508 76.5751 150.238 76.3001 149.888 76.0901C149.548 75.8801 149.138 75.7751 148.658 75.7751C148.098 75.7751 147.613 75.8901 147.203 76.1201C146.793 76.3401 146.478 76.6701 146.258 77.1101C146.038 77.5501 145.928 78.0951 145.928 78.7451C145.928 79.3651 146.048 79.9051 146.288 80.3651C146.528 80.8151 146.868 81.1651 147.308 81.4151C147.758 81.6651 148.298 81.7901 148.928 81.7901C149.298 81.7901 149.663 81.7301 150.023 81.6101C150.393 81.4801 150.798 81.2301 151.238 80.8601L151.823 81.6701C151.593 81.9001 151.318 82.1051 150.998 82.2851C150.678 82.4551 150.328 82.5951 149.948 82.7051C149.568 82.8051 149.178 82.8551 148.778 82.8551ZM157.401 82.8551C156.621 82.8551 155.926 82.6851 155.316 82.3451C154.716 82.0051 154.246 81.5301 153.906 80.9201C153.566 80.3101 153.396 79.6101 153.396 78.8201C153.396 78.2101 153.491 77.6601 153.681 77.1701C153.871 76.6701 154.136 76.2351 154.476 75.8651C154.826 75.4951 155.241 75.2101 155.721 75.0101C156.201 74.8001 156.721 74.6951 157.281 74.6951C157.811 74.6951 158.291 74.7901 158.721 74.9801C159.161 75.1701 159.536 75.4351 159.846 75.7751C160.166 76.1051 160.406 76.5001 160.566 76.9601C160.726 77.4201 160.796 77.9251 160.776 78.4751L160.761 79.0001H154.236L154.071 78.0551H159.906L159.636 78.3101V77.9501C159.616 77.5901 159.511 77.2451 159.321 76.9151C159.131 76.5751 158.861 76.3001 158.511 76.0901C158.171 75.8801 157.761 75.7751 157.281 75.7751C156.721 75.7751 156.236 75.8901 155.826 76.1201C155.416 76.3401 155.101 76.6701 154.881 77.1101C154.661 77.5501 154.551 78.0951 154.551 78.7451C154.551 79.3651 154.671 79.9051 154.911 80.3651C155.151 80.8151 155.491 81.1651 155.931 81.4151C156.381 81.6651 156.921 81.7901 157.551 81.7901C157.921 81.7901 158.286 81.7301 158.646 81.6101C159.016 81.4801 159.421 81.2301 159.861 80.8601L160.446 81.6701C160.216 81.9001 159.941 82.1051 159.621 82.2851C159.301 82.4551 158.951 82.5951 158.571 82.7051C158.191 82.8051 157.801 82.8551 157.401 82.8551ZM174.448 82.7051V72.2051H175.618V82.7051H174.448ZM167.428 82.7051V72.2051H168.598V82.7051H167.428ZM167.998 78.0401V76.9001H174.943V78.0401H167.998ZM181.922 82.8551C181.142 82.8551 180.447 82.6801 179.837 82.3301C179.237 81.9801 178.762 81.4951 178.412 80.8751C178.072 80.2551 177.902 79.5501 177.902 78.7601C177.902 77.9801 178.072 77.2851 178.412 76.6751C178.762 76.0651 179.237 75.5851 179.837 75.2351C180.447 74.8851 181.142 74.7101 181.922 74.7101C182.692 74.7101 183.377 74.8851 183.977 75.2351C184.587 75.5851 185.062 76.0651 185.402 76.6751C185.752 77.2851 185.927 77.9801 185.927 78.7601C185.927 79.5501 185.752 80.2551 185.402 80.8751C185.062 81.4951 184.587 81.9801 183.977 82.3301C183.377 82.6801 182.692 82.8551 181.922 82.8551ZM181.922 81.7901C182.472 81.7901 182.962 81.6601 183.392 81.4001C183.822 81.1301 184.157 80.7701 184.397 80.3201C184.637 79.8601 184.757 79.3401 184.757 78.7601C184.757 78.1801 184.637 77.6651 184.397 77.2151C184.157 76.7651 183.822 76.4151 183.392 76.1651C182.962 75.9051 182.472 75.7751 181.922 75.7751C181.372 75.7751 180.877 75.9051 180.437 76.1651C180.007 76.4151 179.667 76.7701 179.417 77.2301C179.177 77.6801 179.062 78.1901 179.072 78.7601C179.062 79.3401 179.177 79.8601 179.417 80.3201C179.667 80.7701 180.007 81.1301 180.437 81.4001C180.877 81.6601 181.372 81.7901 181.922 81.7901ZM187.754 82.7051V74.8751H188.879L188.909 76.6601L188.684 76.7351C188.764 76.4351 188.894 76.1651 189.074 75.9251C189.264 75.6751 189.489 75.4601 189.749 75.2801C190.009 75.1001 190.294 74.9651 190.604 74.8751C190.914 74.7751 191.239 74.7251 191.579 74.7251C191.989 74.7251 192.354 74.7951 192.674 74.9351C193.004 75.0651 193.279 75.2951 193.499 75.6251C193.729 75.9451 193.904 76.3701 194.024 76.9001L193.754 76.7651L193.859 76.5101C193.959 76.2801 194.104 76.0601 194.294 75.8501C194.494 75.6301 194.719 75.4351 194.969 75.2651C195.229 75.0951 195.509 74.9651 195.809 74.8751C196.119 74.7751 196.434 74.7251 196.754 74.7251C197.304 74.7251 197.769 74.8451 198.149 75.0851C198.529 75.3151 198.814 75.6701 199.004 76.1501C199.204 76.6301 199.304 77.2401 199.304 77.9801V82.7051H198.149V78.0401C198.149 77.5201 198.084 77.0951 197.954 76.7651C197.824 76.4351 197.629 76.1901 197.369 76.0301C197.119 75.8601 196.799 75.7751 196.409 75.7751C196.069 75.7751 195.754 75.8351 195.464 75.9551C195.184 76.0651 194.939 76.2251 194.729 76.4351C194.529 76.6351 194.369 76.8651 194.249 77.1251C194.139 77.3851 194.084 77.6651 194.084 77.9651V82.7051H192.944V78.0251C192.944 77.5251 192.874 77.1101 192.734 76.7801C192.604 76.4501 192.409 76.2001 192.149 76.0301C191.889 75.8601 191.569 75.7751 191.189 75.7751C190.859 75.7751 190.554 75.8351 190.274 75.9551C189.994 76.0651 189.749 76.2201 189.539 76.4201C189.339 76.6201 189.179 76.8501 189.059 77.1101C188.949 77.3701 188.894 77.6501 188.894 77.9501V82.7051H187.754ZM205.086 82.8551C204.306 82.8551 203.611 82.6851 203.001 82.3451C202.401 82.0051 201.931 81.5301 201.591 80.9201C201.251 80.3101 201.081 79.6101 201.081 78.8201C201.081 78.2101 201.176 77.6601 201.366 77.1701C201.556 76.6701 201.821 76.2351 202.161 75.8651C202.511 75.4951 202.926 75.2101 203.406 75.0101C203.886 74.8001 204.406 74.6951 204.966 74.6951C205.496 74.6951 205.976 74.7901 206.406 74.9801C206.846 75.1701 207.221 75.4351 207.531 75.7751C207.851 76.1051 208.091 76.5001 208.251 76.9601C208.411 77.4201 208.481 77.9251 208.461 78.4751L208.446 79.0001H201.921L201.756 78.0551H207.591L207.321 78.3101V77.9501C207.301 77.5901 207.196 77.2451 207.006 76.9151C206.816 76.5751 206.546 76.3001 206.196 76.0901C205.856 75.8801 205.446 75.7751 204.966 75.7751C204.406 75.7751 203.921 75.8901 203.511 76.1201C203.101 76.3401 202.786 76.6701 202.566 77.1101C202.346 77.5501 202.236 78.0951 202.236 78.7451C202.236 79.3651 202.356 79.9051 202.596 80.3651C202.836 80.8151 203.176 81.1651 203.616 81.4151C204.066 81.6651 204.606 81.7901 205.236 81.7901C205.606 81.7901 205.971 81.7301 206.331 81.6101C206.701 81.4801 207.106 81.2301 207.546 80.8601L208.131 81.6701C207.901 81.9001 207.626 82.1051 207.306 82.2851C206.986 82.4551 206.636 82.5951 206.256 82.7051C205.876 82.8051 205.486 82.8551 205.086 82.8551Z" fill="#1E238E"/>
</g>
<path d="M22.7027 38.15C21.9727 38.15 21.3027 38.02 20.6927 37.76C20.0827 37.5 19.5527 37.13 19.1027 36.65C18.6527 36.16 18.3027 35.585 18.0527 34.925C17.8127 34.265 17.6927 33.54 17.6927 32.75C17.6927 32 17.8227 31.305 18.0827 30.665C18.3527 30.015 18.7227 29.445 19.1927 28.955C19.6627 28.465 20.2077 28.085 20.8277 27.815C21.4477 27.545 22.1177 27.41 22.8377 27.41C23.3477 27.41 23.8427 27.49 24.3227 27.65C24.8127 27.8 25.2527 28.015 25.6427 28.295C26.0427 28.565 26.3677 28.875 26.6177 29.225L25.5377 30.35C25.2477 30.06 24.9527 29.82 24.6527 29.63C24.3627 29.43 24.0627 29.28 23.7527 29.18C23.4527 29.08 23.1477 29.03 22.8377 29.03C22.3477 29.03 21.8877 29.125 21.4577 29.315C21.0377 29.495 20.6677 29.75 20.3477 30.08C20.0377 30.41 19.7927 30.805 19.6127 31.265C19.4327 31.715 19.3427 32.21 19.3427 32.75C19.3427 33.32 19.4277 33.84 19.5977 34.31C19.7777 34.77 20.0277 35.165 20.3477 35.495C20.6677 35.825 21.0477 36.08 21.4877 36.26C21.9377 36.43 22.4327 36.515 22.9727 36.515C23.3027 36.515 23.6277 36.47 23.9477 36.38C24.2677 36.29 24.5677 36.16 24.8477 35.99C25.1277 35.82 25.3827 35.62 25.6127 35.39L26.4227 36.71C26.1927 36.98 25.8777 37.225 25.4777 37.445C25.0877 37.665 24.6477 37.84 24.1577 37.97C23.6777 38.09 23.1927 38.15 22.7027 38.15ZM31.9733 38.15C31.2033 38.15 30.5133 37.975 29.9033 37.625C29.3033 37.265 28.8283 36.78 28.4783 36.17C28.1283 35.55 27.9533 34.845 27.9533 34.055C27.9533 33.265 28.1283 32.565 28.4783 31.955C28.8283 31.335 29.3033 30.85 29.9033 30.5C30.5133 30.14 31.2033 29.96 31.9733 29.96C32.7333 29.96 33.4133 30.14 34.0133 30.5C34.6233 30.85 35.1033 31.335 35.4533 31.955C35.8033 32.565 35.9783 33.265 35.9783 34.055C35.9783 34.845 35.8033 35.55 35.4533 36.17C35.1033 36.78 34.6233 37.265 34.0133 37.625C33.4133 37.975 32.7333 38.15 31.9733 38.15ZM31.9733 36.74C32.4433 36.74 32.8633 36.625 33.2333 36.395C33.6033 36.155 33.8933 35.835 34.1033 35.435C34.3133 35.025 34.4133 34.565 34.4033 34.055C34.4133 33.535 34.3133 33.075 34.1033 32.675C33.8933 32.265 33.6033 31.945 33.2333 31.715C32.8633 31.485 32.4433 31.37 31.9733 31.37C31.5033 31.37 31.0783 31.49 30.6983 31.73C30.3283 31.96 30.0383 32.28 29.8283 32.69C29.6183 33.09 29.5183 33.545 29.5283 34.055C29.5183 34.565 29.6183 35.025 29.8283 35.435C30.0383 35.835 30.3283 36.155 30.6983 36.395C31.0783 36.625 31.5033 36.74 31.9733 36.74ZM37.8618 38V30.125H39.4068V31.745L39.1368 31.925C39.2368 31.575 39.4318 31.255 39.7218 30.965C40.0118 30.665 40.3568 30.425 40.7568 30.245C41.1568 30.055 41.5668 29.96 41.9868 29.96C42.5868 29.96 43.0868 30.08 43.4868 30.32C43.8868 30.55 44.1868 30.905 44.3868 31.385C44.5868 31.865 44.6868 32.47 44.6868 33.2V38H43.1418V33.305C43.1418 32.855 43.0818 32.485 42.9618 32.195C42.8418 31.895 42.6568 31.68 42.4068 31.55C42.1568 31.41 41.8468 31.35 41.4768 31.37C41.1768 31.37 40.9018 31.42 40.6518 31.52C40.4018 31.61 40.1818 31.74 39.9918 31.91C39.8118 32.08 39.6668 32.28 39.5568 32.51C39.4568 32.73 39.4068 32.97 39.4068 33.23V38H38.6418C38.5118 38 38.3818 38 38.2518 38C38.1218 38 37.9918 38 37.8618 38ZM50.2677 38.15C49.5477 38.15 48.9027 37.975 48.3327 37.625C47.7727 37.265 47.3277 36.78 46.9977 36.17C46.6677 35.55 46.5027 34.845 46.5027 34.055C46.5027 33.265 46.6627 32.565 46.9827 31.955C47.3127 31.335 47.7577 30.85 48.3177 30.5C48.8777 30.14 49.5127 29.96 50.2227 29.96C50.6127 29.96 50.9877 30.025 51.3477 30.155C51.7177 30.275 52.0477 30.445 52.3377 30.665C52.6277 30.875 52.8527 31.11 53.0127 31.37C53.1827 31.62 53.2677 31.875 53.2677 32.135L52.8177 32.165V26.9H54.3627V38H52.8177V36.125H53.1177C53.1177 36.365 53.0377 36.605 52.8777 36.845C52.7177 37.075 52.5027 37.29 52.2327 37.49C51.9727 37.69 51.6677 37.85 51.3177 37.97C50.9777 38.09 50.6277 38.15 50.2677 38.15ZM50.4777 36.815C50.9477 36.815 51.3627 36.695 51.7227 36.455C52.0827 36.215 52.3627 35.89 52.5627 35.48C52.7727 35.06 52.8777 34.585 52.8777 34.055C52.8777 33.525 52.7727 33.055 52.5627 32.645C52.3627 32.225 52.0827 31.895 51.7227 31.655C51.3627 31.415 50.9477 31.295 50.4777 31.295C50.0077 31.295 49.5927 31.415 49.2327 31.655C48.8727 31.895 48.5877 32.225 48.3777 32.645C48.1777 33.055 48.0777 33.525 48.0777 34.055C48.0777 34.585 48.1777 35.06 48.3777 35.48C48.5877 35.89 48.8727 36.215 49.2327 36.455C49.5927 36.695 50.0077 36.815 50.4777 36.815ZM56.9446 38V30.125H58.4896V38H56.9446ZM57.6946 28.385C57.3646 28.385 57.1096 28.3 56.9296 28.13C56.7496 27.96 56.6596 27.72 56.6596 27.41C56.6596 27.12 56.7496 26.885 56.9296 26.705C57.1196 26.525 57.3746 26.435 57.6946 26.435C58.0246 26.435 58.2796 26.52 58.4596 26.69C58.6396 26.86 58.7296 27.1 58.7296 27.41C58.7296 27.7 58.6346 27.935 58.4446 28.115C58.2646 28.295 58.0146 28.385 57.6946 28.385ZM62.0394 38V28.115H63.5844V38H62.0394ZM60.4044 31.625V30.125H65.4144V31.625H60.4044ZM67.2762 38V30.125H68.8212V38H67.2762ZM68.0262 28.385C67.6962 28.385 67.4412 28.3 67.2612 28.13C67.0812 27.96 66.9912 27.72 66.9912 27.41C66.9912 27.12 67.0812 26.885 67.2612 26.705C67.4512 26.525 67.7062 26.435 68.0262 26.435C68.3562 26.435 68.6112 26.52 68.7912 26.69C68.9712 26.86 69.0612 27.1 69.0612 27.41C69.0612 27.7 68.9662 27.935 68.7762 28.115C68.5962 28.295 68.3462 28.385 68.0262 28.385ZM74.936 38.15C74.166 38.15 73.476 37.975 72.866 37.625C72.266 37.265 71.791 36.78 71.441 36.17C71.091 35.55 70.916 34.845 70.916 34.055C70.916 33.265 71.091 32.565 71.441 31.955C71.791 31.335 72.266 30.85 72.866 30.5C73.476 30.14 74.166 29.96 74.936 29.96C75.696 29.96 76.376 30.14 76.976 30.5C77.586 30.85 78.066 31.335 78.416 31.955C78.766 32.565 78.941 33.265 78.941 34.055C78.941 34.845 78.766 35.55 78.416 36.17C78.066 36.78 77.586 37.265 76.976 37.625C76.376 37.975 75.696 38.15 74.936 38.15ZM74.936 36.74C75.406 36.74 75.826 36.625 76.196 36.395C76.566 36.155 76.856 35.835 77.066 35.435C77.276 35.025 77.376 34.565 77.366 34.055C77.376 33.535 77.276 33.075 77.066 32.675C76.856 32.265 76.566 31.945 76.196 31.715C75.826 31.485 75.406 31.37 74.936 31.37C74.466 31.37 74.041 31.49 73.661 31.73C73.291 31.96 73.001 32.28 72.791 32.69C72.581 33.09 72.481 33.545 72.491 34.055C72.481 34.565 72.581 35.025 72.791 35.435C73.001 35.835 73.291 36.155 73.661 36.395C74.041 36.625 74.466 36.74 74.936 36.74ZM80.8245 38V30.125H82.3695V31.745L82.0995 31.925C82.1995 31.575 82.3945 31.255 82.6845 30.965C82.9745 30.665 83.3195 30.425 83.7195 30.245C84.1195 30.055 84.5295 29.96 84.9495 29.96C85.5495 29.96 86.0495 30.08 86.4495 30.32C86.8495 30.55 87.1495 30.905 87.3495 31.385C87.5495 31.865 87.6495 32.47 87.6495 33.2V38H86.1045V33.305C86.1045 32.855 86.0445 32.485 85.9245 32.195C85.8045 31.895 85.6195 31.68 85.3695 31.55C85.1195 31.41 84.8095 31.35 84.4395 31.37C84.1395 31.37 83.8645 31.42 83.6145 31.52C83.3645 31.61 83.1445 31.74 82.9545 31.91C82.7745 32.08 82.6295 32.28 82.5195 32.51C82.4195 32.73 82.3695 32.97 82.3695 33.23V38H81.6045C81.4745 38 81.3445 38 81.2145 38C81.0845 38 80.9545 38 80.8245 38Z" fill="#1E238E"/>
<path d="M107.499 30.9961V37.7631M107.499 26.4849V27.9886" stroke="#1E238E" stroke-width="1.5" stroke-linecap="round" stroke-linejoin="round"/>
<path d="M107.499 43.0263C113.312 43.0263 118.025 38.3135 118.025 32.4999C118.025 26.6864 113.312 21.9736 107.499 21.9736C101.685 21.9736 96.9727 26.6864 96.9727 32.4999C96.9727 38.3135 101.685 43.0263 107.499 43.0263Z" stroke="#1E238E" stroke-width="1.5" stroke-linecap="round" stroke-linejoin="round"/>
<defs>
<filter id="filter0_d_438_378" x="12.9727" y="60.7104" width="67" height="41" filterUnits="userSpaceOnUse" color-interpolation-filters="sRGB">
<feFlood flood-opacity="0" result="BackgroundImageFix"/>
<feColorMatrix in="SourceAlpha" type="matrix" values="0 0 0 0 0 0 0 0 0 0 0 0 0 0 0 0 0 0 127 0" result="hardAlpha"/>
<feOffset dy="4"/>
<feGaussianBlur stdDeviation="2"/>
<feComposite in2="hardAlpha" operator="out"/>
<feColorMatrix type="matrix" values="0 0 0 0 0 0 0 0 0 0 0 0 0 0 0 0 0 0 0.05 0"/>
<feBlend mode="normal" in2="BackgroundImageFix" result="effect1_dropShadow_438_378"/>
<feBlend mode="normal" in="SourceGraphic" in2="effect1_dropShadow_438_378" result="shape"/>
</filter>
<filter id="filter1_d_438_378" x="12.9727" y="117.71" width="137" height="41" filterUnits="userSpaceOnUse" color-interpolation-filters="sRGB">
<feFlood flood-opacity="0" result="BackgroundImageFix"/>
<feColorMatrix in="SourceAlpha" type="matrix" values="0 0 0 0 0 0 0 0 0 0 0 0 0 0 0 0 0 0 127 0" result="hardAlpha"/>
<feOffset dy="4"/>
<feGaussianBlur stdDeviation="2"/>
<feComposite in2="hardAlpha" operator="out"/>
<feColorMatrix type="matrix" values="0 0 0 0 0 0 0 0 0 0 0 0 0 0 0 0 0 0 0.05 0"/>
<feBlend mode="normal" in2="BackgroundImageFix" result="effect1_dropShadow_438_378"/>
<feBlend mode="normal" in="SourceGraphic" in2="effect1_dropShadow_438_378" result="shape"/>
</filter>
<filter id="filter2_d_438_378" x="257.973" y="117.71" width="71" height="41" filterUnits="userSpaceOnUse" color-interpolation-filters="sRGB">
<feFlood flood-opacity="0" result="BackgroundImageFix"/>
<feColorMatrix in="SourceAlpha" type="matrix" values="0 0 0 0 0 0 0 0 0 0 0 0 0 0 0 0 0 0 127 0" result="hardAlpha"/>
<feOffset dy="4"/>
<feGaussianBlur stdDeviation="2"/>
<feComposite in2="hardAlpha" operator="out"/>
<feColorMatrix type="matrix" values="0 0 0 0 0 0 0 0 0 0 0 0 0 0 0 0 0 0 0.05 0"/>
<feBlend mode="normal" in2="BackgroundImageFix" result="effect1_dropShadow_438_378"/>
<feBlend mode="normal" in="SourceGraphic" in2="effect1_dropShadow_438_378" result="shape"/>
</filter>
<filter id="filter3_d_438_378" x="158.973" y="117.71" width="91" height="41" filterUnits="userSpaceOnUse" color-interpolation-filters="sRGB">
<feFlood flood-opacity="0" result="BackgroundImageFix"/>
<feColorMatrix in="SourceAlpha" type="matrix" values="0 0 0 0 0 0 0 0 0 0 0 0 0 0 0 0 0 0 127 0" result="hardAlpha"/>
<feOffset dy="4"/>
<feGaussianBlur stdDeviation="2"/>
<feComposite in2="hardAlpha" operator="out"/>
<feColorMatrix type="matrix" values="0 0 0 0 0 0 0 0 0 0 0 0 0 0 0 0 0 0 0.05 0"/>
<feBlend mode="normal" in2="BackgroundImageFix" result="effect1_dropShadow_438_378"/>
<feBlend mode="normal" in="SourceGraphic" in2="effect1_dropShadow_438_378" result="shape"/>
</filter>
<filter id="filter4_d_438_378" x="12.6367" y="167.705" width="167" height="41" filterUnits="userSpaceOnUse" color-interpolation-filters="sRGB">
<feFlood flood-opacity="0" result="BackgroundImageFix"/>
<feColorMatrix in="SourceAlpha" type="matrix" values="0 0 0 0 0 0 0 0 0 0 0 0 0 0 0 0 0 0 127 0" result="hardAlpha"/>
<feOffset dy="4"/>
<feGaussianBlur stdDeviation="2"/>
<feComposite in2="hardAlpha" operator="out"/>
<feColorMatrix type="matrix" values="0 0 0 0 0 0 0 0 0 0 0 0 0 0 0 0 0 0 0.05 0"/>
<feBlend mode="normal" in2="BackgroundImageFix" result="effect1_dropShadow_438_378"/>
<feBlend mode="normal" in="SourceGraphic" in2="effect1_dropShadow_438_378" result="shape"/>
</filter>
<filter id="filter5_d_438_378" x="204.637" y="167.705" width="97" height="41" filterUnits="userSpaceOnUse" color-interpolation-filters="sRGB">
<feFlood flood-opacity="0" result="BackgroundImageFix"/>
<feColorMatrix in="SourceAlpha" type="matrix" values="0 0 0 0 0 0 0 0 0 0 0 0 0 0 0 0 0 0 127 0" result="hardAlpha"/>
<feOffset dy="4"/>
<feGaussianBlur stdDeviation="2"/>
<feComposite in2="hardAlpha" operator="out"/>
<feColorMatrix type="matrix" values="0 0 0 0 0 0 0 0 0 0 0 0 0 0 0 0 0 0 0.05 0"/>
<feBlend mode="normal" in2="BackgroundImageFix" result="effect1_dropShadow_438_378"/>
<feBlend mode="normal" in="SourceGraphic" in2="effect1_dropShadow_438_378" result="shape"/>
</filter>
<filter id="filter6_d_438_378" x="84.6367" y="60.7051" width="142" height="41" filterUnits="userSpaceOnUse" color-interpolation-filters="sRGB">
<feFlood flood-opacity="0" result="BackgroundImageFix"/>
<feColorMatrix in="SourceAlpha" type="matrix" values="0 0 0 0 0 0 0 0 0 0 0 0 0 0 0 0 0 0 127 0" result="hardAlpha"/>
<feOffset dy="4"/>
<feGaussianBlur stdDeviation="2"/>
<feComposite in2="hardAlpha" operator="out"/>
<feColorMatrix type="matrix" values="0 0 0 0 0 0 0 0 0 0 0 0 0 0 0 0 0 0 0.05 0"/>
<feBlend mode="normal" in2="BackgroundImageFix" result="effect1_dropShadow_438_378"/>
<feBlend mode="normal" in="SourceGraphic" in2="effect1_dropShadow_438_378" result="shape"/>
</filter>
</defs>
</svg>
