<svg width="350" height="226" viewBox="0 0 350 226" fill="none" xmlns="http://www.w3.org/2000/svg">
<rect width="350" height="225.826" rx="5" fill="white"/>
<g filter="url(#filter0_d_437_372)">
<rect x="16.9727" y="60.7109" width="59" height="33" rx="10" fill="#FCFBF9" shape-rendering="crispEdges"/>
<rect x="17.4727" y="61.2109" width="58" height="32" rx="9.5" stroke="#1E238E" shape-rendering="crispEdges"/>
<path d="M31.5177 82.7109V72.2109H32.5827L39.4527 81.3009L39.2427 81.5709C39.2127 81.4109 39.1877 81.1709 39.1677 80.8509C39.1577 80.5309 39.1427 80.1709 39.1227 79.7709C39.1127 79.3609 39.1027 78.9359 39.0927 78.4959C39.0827 78.0559 39.0727 77.6259 39.0627 77.2059C39.0627 76.7859 39.0627 76.4059 39.0627 76.0659V72.2109H40.2327V82.7109H39.1377L32.2977 73.7409L32.4777 73.4259C32.5077 73.8259 32.5327 74.2209 32.5527 74.6109C32.5827 75.0009 32.6027 75.3759 32.6127 75.7359C32.6327 76.0959 32.6477 76.4259 32.6577 76.7259C32.6677 77.0259 32.6727 77.2809 32.6727 77.4909C32.6827 77.7009 32.6877 77.8509 32.6877 77.9409V82.7109H31.5177ZM46.5243 82.8609C45.7443 82.8609 45.0493 82.6909 44.4393 82.3509C43.8393 82.0109 43.3693 81.5359 43.0293 80.9259C42.6893 80.3159 42.5193 79.6159 42.5193 78.8259C42.5193 78.2159 42.6143 77.6659 42.8043 77.1759C42.9943 76.6759 43.2593 76.2409 43.5993 75.8709C43.9493 75.5009 44.3643 75.2159 44.8443 75.0159C45.3243 74.8059 45.8443 74.7009 46.4043 74.7009C46.9343 74.7009 47.4143 74.7959 47.8443 74.9859C48.2843 75.1759 48.6593 75.4409 48.9693 75.7809C49.2893 76.1109 49.5293 76.5059 49.6893 76.9659C49.8493 77.4259 49.9193 77.9309 49.8993 78.4809L49.8843 79.0059H43.3593L43.1943 78.0609H49.0293L48.7593 78.3159V77.9559C48.7393 77.5959 48.6343 77.2509 48.4443 76.9209C48.2543 76.5809 47.9843 76.3059 47.6343 76.0959C47.2943 75.8859 46.8843 75.7809 46.4043 75.7809C45.8443 75.7809 45.3593 75.8959 44.9493 76.1259C44.5393 76.3459 44.2243 76.6759 44.0043 77.1159C43.7843 77.5559 43.6743 78.1009 43.6743 78.7509C43.6743 79.3709 43.7943 79.9109 44.0343 80.3709C44.2743 80.8209 44.6143 81.1709 45.0543 81.4209C45.5043 81.6709 46.0443 81.7959 46.6743 81.7959C47.0443 81.7959 47.4093 81.7359 47.7693 81.6159C48.1393 81.4859 48.5443 81.2359 48.9843 80.8659L49.5693 81.6759C49.3393 81.9059 49.0643 82.1109 48.7443 82.2909C48.4243 82.4609 48.0743 82.6009 47.6943 82.7109C47.3143 82.8109 46.9243 82.8609 46.5243 82.8609ZM53.3957 82.7109L50.6807 74.8809L51.8807 74.8659L53.9957 81.2409L53.6207 81.2109L55.9157 76.0809H56.5907L58.9007 81.2109L58.4507 81.2409L60.6107 74.8809H61.7957L59.0807 82.7109H58.4207L55.9907 77.1309L56.4407 77.1609L54.0857 82.7109H53.3957Z" fill="#1E238E"/>
</g>
<g filter="url(#filter1_d_437_372)">
<rect x="16.9727" y="117.711" width="129" height="33" rx="10" fill="#FCFBF9" shape-rendering="crispEdges"/>
<rect x="17.4727" y="118.211" width="128" height="32" rx="9.5" stroke="#1E238E" shape-rendering="crispEdges"/>
<path d="M31.5177 139.711V129.211H32.6877V139.711H31.5177ZM32.1027 135.031V133.876H37.4127V135.031H32.1027ZM32.1027 130.351V129.211H38.1177V130.351H32.1027ZM42.9995 139.861C42.3195 139.861 41.7045 139.686 41.1545 139.336C40.6045 138.976 40.1695 138.491 39.8495 137.881C39.5295 137.261 39.3695 136.561 39.3695 135.781C39.3695 134.991 39.5345 134.291 39.8645 133.681C40.1945 133.071 40.6345 132.591 41.1845 132.241C41.7445 131.891 42.3695 131.716 43.0595 131.716C43.4695 131.716 43.8495 131.776 44.1995 131.896C44.5495 132.016 44.8595 132.186 45.1295 132.406C45.4095 132.616 45.6395 132.866 45.8195 133.156C46.0095 133.436 46.1395 133.741 46.2095 134.071L45.8795 133.906L45.9245 131.881H47.0495V139.711H45.9095V137.791L46.2095 137.596C46.1395 137.896 46.0045 138.186 45.8045 138.466C45.6045 138.736 45.3595 138.976 45.0695 139.186C44.7895 139.396 44.4695 139.561 44.1095 139.681C43.7595 139.801 43.3895 139.861 42.9995 139.861ZM43.2545 138.781C43.7745 138.781 44.2395 138.656 44.6495 138.406C45.0595 138.146 45.3795 137.791 45.6095 137.341C45.8495 136.881 45.9695 136.361 45.9695 135.781C45.9695 135.201 45.8495 134.686 45.6095 134.236C45.3795 133.786 45.0595 133.431 44.6495 133.171C44.2395 132.911 43.7745 132.781 43.2545 132.781C42.7245 132.781 42.2545 132.911 41.8445 133.171C41.4445 133.431 41.1245 133.786 40.8845 134.236C40.6545 134.686 40.5395 135.201 40.5395 135.781C40.5395 136.351 40.6545 136.866 40.8845 137.326C41.1145 137.776 41.4345 138.131 41.8445 138.391C42.2545 138.651 42.7245 138.781 43.2545 138.781ZM49.7413 139.711V131.881H50.8663V139.711H49.7413ZM50.2963 130.186C50.0163 130.186 49.8013 130.116 49.6513 129.976C49.5113 129.826 49.4413 129.626 49.4413 129.376C49.4413 129.126 49.5163 128.926 49.6663 128.776C49.8163 128.626 50.0263 128.551 50.2963 128.551C50.5663 128.551 50.7763 128.626 50.9263 128.776C51.0763 128.916 51.1513 129.116 51.1513 129.376C51.1513 129.616 51.0763 129.811 50.9263 129.961C50.7763 130.111 50.5663 130.186 50.2963 130.186ZM53.5231 139.711V131.881H54.6481L54.6781 133.966L54.5581 133.681C54.6681 133.331 54.8431 133.006 55.0831 132.706C55.3331 132.406 55.6281 132.166 55.9681 131.986C56.3081 131.806 56.6831 131.716 57.0931 131.716C57.2631 131.716 57.4231 131.731 57.5731 131.761C57.7231 131.781 57.8481 131.811 57.9481 131.851L57.6331 133.111C57.5031 133.051 57.3681 133.011 57.2281 132.991C57.0981 132.961 56.9731 132.946 56.8531 132.946C56.5131 132.946 56.2081 133.006 55.9381 133.126C55.6681 133.246 55.4381 133.416 55.2481 133.636C55.0581 133.846 54.9131 134.091 54.8131 134.371C54.7131 134.651 54.6631 134.951 54.6631 135.271V139.711H53.5231ZM68.5229 139.861C67.7729 139.861 67.0829 139.731 66.4529 139.471C65.8229 139.201 65.2779 138.826 64.8179 138.346C64.3579 137.856 63.9979 137.281 63.7379 136.621C63.4879 135.961 63.3629 135.241 63.3629 134.461C63.3629 133.691 63.4879 132.986 63.7379 132.346C63.9979 131.696 64.3629 131.131 64.8329 130.651C65.3029 130.161 65.8479 129.786 66.4679 129.526C67.0879 129.266 67.7679 129.136 68.5079 129.136C68.9979 129.136 69.4829 129.216 69.9629 129.376C70.4429 129.526 70.8829 129.736 71.2829 130.006C71.6929 130.276 72.0279 130.586 72.2879 130.936L71.4779 131.776C71.2279 131.476 70.9379 131.216 70.6079 130.996C70.2879 130.776 69.9479 130.606 69.5879 130.486C69.2279 130.366 68.8679 130.306 68.5079 130.306C67.9479 130.306 67.4229 130.411 66.9329 130.621C66.4529 130.821 66.0379 131.106 65.6879 131.476C65.3379 131.846 65.0629 132.286 64.8629 132.796C64.6729 133.306 64.5779 133.861 64.5779 134.461C64.5779 135.081 64.6729 135.651 64.8629 136.171C65.0629 136.691 65.3429 137.141 65.7029 137.521C66.0729 137.891 66.5029 138.181 66.9929 138.391C67.4929 138.591 68.0479 138.691 68.6579 138.691C69.0179 138.691 69.3779 138.641 69.7379 138.541C70.0979 138.431 70.4279 138.281 70.7279 138.091C71.0279 137.901 71.2829 137.686 71.4929 137.446L72.0929 138.421C71.8629 138.701 71.5529 138.951 71.1629 139.171C70.7829 139.381 70.3629 139.551 69.9029 139.681C69.4429 139.801 68.9829 139.861 68.5229 139.861ZM77.5246 139.861C76.7446 139.861 76.0496 139.686 75.4396 139.336C74.8396 138.986 74.3646 138.501 74.0146 137.881C73.6746 137.261 73.5046 136.556 73.5046 135.766C73.5046 134.986 73.6746 134.291 74.0146 133.681C74.3646 133.071 74.8396 132.591 75.4396 132.241C76.0496 131.891 76.7446 131.716 77.5246 131.716C78.2946 131.716 78.9796 131.891 79.5796 132.241C80.1896 132.591 80.6646 133.071 81.0046 133.681C81.3546 134.291 81.5296 134.986 81.5296 135.766C81.5296 136.556 81.3546 137.261 81.0046 137.881C80.6646 138.501 80.1896 138.986 79.5796 139.336C78.9796 139.686 78.2946 139.861 77.5246 139.861ZM77.5246 138.796C78.0746 138.796 78.5646 138.666 78.9946 138.406C79.4246 138.136 79.7596 137.776 79.9996 137.326C80.2396 136.866 80.3596 136.346 80.3596 135.766C80.3596 135.186 80.2396 134.671 79.9996 134.221C79.7596 133.771 79.4246 133.421 78.9946 133.171C78.5646 132.911 78.0746 132.781 77.5246 132.781C76.9746 132.781 76.4796 132.911 76.0396 133.171C75.6096 133.421 75.2696 133.776 75.0196 134.236C74.7796 134.686 74.6646 135.196 74.6746 135.766C74.6646 136.346 74.7796 136.866 75.0196 137.326C75.2696 137.776 75.6096 138.136 76.0396 138.406C76.4796 138.666 76.9746 138.796 77.5246 138.796ZM83.371 139.711V131.881H84.481L84.526 133.516L84.346 133.591C84.446 133.251 84.641 132.941 84.931 132.661C85.221 132.381 85.566 132.156 85.966 131.986C86.376 131.806 86.796 131.716 87.226 131.716C87.806 131.716 88.291 131.831 88.681 132.061C89.071 132.291 89.366 132.646 89.566 133.126C89.766 133.606 89.866 134.216 89.866 134.956V139.711H88.726V135.016C88.726 134.496 88.656 134.071 88.516 133.741C88.386 133.401 88.181 133.151 87.901 132.991C87.621 132.831 87.276 132.756 86.866 132.766C86.526 132.766 86.211 132.826 85.921 132.946C85.631 133.056 85.381 133.211 85.171 133.411C84.961 133.611 84.796 133.841 84.676 134.101C84.556 134.361 84.496 134.641 84.496 134.941V139.711H83.941C83.871 139.711 83.791 139.711 83.701 139.711C83.611 139.711 83.501 139.711 83.371 139.711ZM95.3936 139.861C94.6836 139.861 94.0436 139.686 93.4736 139.336C92.9136 138.986 92.4686 138.506 92.1386 137.896C91.8186 137.276 91.6586 136.576 91.6586 135.796C91.6586 135.006 91.8236 134.306 92.1536 133.696C92.4836 133.076 92.9286 132.591 93.4886 132.241C94.0486 131.891 94.6786 131.716 95.3786 131.716C95.7686 131.716 96.1436 131.776 96.5036 131.896C96.8736 132.016 97.2036 132.186 97.4936 132.406C97.7836 132.616 98.0236 132.861 98.2136 133.141C98.4036 133.411 98.5186 133.696 98.5586 133.996L98.2136 133.876V128.611H99.3386V139.711H98.2286L98.1986 137.761L98.4836 137.656C98.4436 137.936 98.3286 138.211 98.1386 138.481C97.9586 138.741 97.7286 138.976 97.4486 139.186C97.1686 139.396 96.8486 139.561 96.4886 139.681C96.1386 139.801 95.7736 139.861 95.3936 139.861ZM95.5586 138.826C96.0786 138.826 96.5436 138.696 96.9536 138.436C97.3636 138.176 97.6836 137.816 97.9136 137.356C98.1536 136.896 98.2736 136.371 98.2736 135.781C98.2736 135.191 98.1536 134.671 97.9136 134.221C97.6836 133.761 97.3636 133.401 96.9536 133.141C96.5436 132.871 96.0786 132.736 95.5586 132.736C95.0186 132.736 94.5436 132.871 94.1336 133.141C93.7336 133.401 93.4136 133.761 93.1736 134.221C92.9436 134.671 92.8286 135.191 92.8286 135.781C92.8286 136.361 92.9436 136.881 93.1736 137.341C93.4036 137.801 93.7236 138.166 94.1336 138.436C94.5436 138.696 95.0186 138.826 95.5586 138.826ZM102.03 139.711V131.881H103.155V139.711H102.03ZM102.585 130.186C102.305 130.186 102.09 130.116 101.94 129.976C101.8 129.826 101.73 129.626 101.73 129.376C101.73 129.126 101.805 128.926 101.955 128.776C102.105 128.626 102.315 128.551 102.585 128.551C102.855 128.551 103.065 128.626 103.215 128.776C103.365 128.916 103.44 129.116 103.44 129.376C103.44 129.616 103.365 129.811 103.215 129.961C103.065 130.111 102.855 130.186 102.585 130.186ZM106.892 139.711V129.826H108.017V139.711H106.892ZM105.122 132.961V131.881H109.997V132.961H105.122ZM111.878 139.711V131.881H113.003V139.711H111.878ZM112.433 130.186C112.153 130.186 111.938 130.116 111.788 129.976C111.648 129.826 111.578 129.626 111.578 129.376C111.578 129.126 111.653 128.926 111.803 128.776C111.953 128.626 112.163 128.551 112.433 128.551C112.703 128.551 112.913 128.626 113.063 128.776C113.213 128.916 113.288 129.116 113.288 129.376C113.288 129.616 113.213 129.811 113.063 129.961C112.913 130.111 112.703 130.186 112.433 130.186ZM119.125 139.861C118.345 139.861 117.65 139.686 117.04 139.336C116.44 138.986 115.965 138.501 115.615 137.881C115.275 137.261 115.105 136.556 115.105 135.766C115.105 134.986 115.275 134.291 115.615 133.681C115.965 133.071 116.44 132.591 117.04 132.241C117.65 131.891 118.345 131.716 119.125 131.716C119.895 131.716 120.58 131.891 121.18 132.241C121.79 132.591 122.265 133.071 122.605 133.681C122.955 134.291 123.13 134.986 123.13 135.766C123.13 136.556 122.955 137.261 122.605 137.881C122.265 138.501 121.79 138.986 121.18 139.336C120.58 139.686 119.895 139.861 119.125 139.861ZM119.125 138.796C119.675 138.796 120.165 138.666 120.595 138.406C121.025 138.136 121.36 137.776 121.6 137.326C121.84 136.866 121.96 136.346 121.96 135.766C121.96 135.186 121.84 134.671 121.6 134.221C121.36 133.771 121.025 133.421 120.595 133.171C120.165 132.911 119.675 132.781 119.125 132.781C118.575 132.781 118.08 132.911 117.64 133.171C117.21 133.421 116.87 133.776 116.62 134.236C116.38 134.686 116.265 135.196 116.275 135.766C116.265 136.346 116.38 136.866 116.62 137.326C116.87 137.776 117.21 138.136 117.64 138.406C118.08 138.666 118.575 138.796 119.125 138.796ZM124.971 139.711V131.881H126.081L126.126 133.516L125.946 133.591C126.046 133.251 126.241 132.941 126.531 132.661C126.821 132.381 127.166 132.156 127.566 131.986C127.976 131.806 128.396 131.716 128.826 131.716C129.406 131.716 129.891 131.831 130.281 132.061C130.671 132.291 130.966 132.646 131.166 133.126C131.366 133.606 131.466 134.216 131.466 134.956V139.711H130.326V135.016C130.326 134.496 130.256 134.071 130.116 133.741C129.986 133.401 129.781 133.151 129.501 132.991C129.221 132.831 128.876 132.756 128.466 132.766C128.126 132.766 127.811 132.826 127.521 132.946C127.231 133.056 126.981 133.211 126.771 133.411C126.561 133.611 126.396 133.841 126.276 134.101C126.156 134.361 126.096 134.641 126.096 134.941V139.711H125.541C125.471 139.711 125.391 139.711 125.301 139.711C125.211 139.711 125.101 139.711 124.971 139.711Z" fill="#1E238E"/>
</g>
<g filter="url(#filter2_d_437_372)">
<rect x="261.973" y="117.711" width="63" height="33" rx="10" fill="#FCFBF9" shape-rendering="crispEdges"/>
<rect x="262.473" y="118.211" width="62" height="32" rx="9.5" stroke="#1E238E" shape-rendering="crispEdges"/>
<path d="M280.553 139.816C279.763 139.816 279.058 139.641 278.438 139.291C277.818 138.931 277.328 138.441 276.968 137.821C276.618 137.191 276.443 136.481 276.443 135.691V129.211H277.613V135.556C277.613 136.146 277.743 136.676 278.003 137.146C278.263 137.616 278.613 137.986 279.053 138.256C279.503 138.526 280.003 138.661 280.553 138.661C281.133 138.661 281.648 138.526 282.098 138.256C282.558 137.986 282.918 137.616 283.178 137.146C283.438 136.676 283.568 136.146 283.568 135.556V129.211H284.693V135.691C284.693 136.481 284.513 137.191 284.153 137.821C283.803 138.441 283.313 138.931 282.683 139.291C282.063 139.641 281.353 139.816 280.553 139.816ZM290.039 139.861C289.369 139.861 288.769 139.736 288.239 139.486C287.709 139.236 287.289 138.906 286.979 138.496L287.774 137.806C288.064 138.156 288.404 138.421 288.794 138.601C289.194 138.781 289.639 138.871 290.129 138.871C290.379 138.871 290.604 138.846 290.804 138.796C291.004 138.736 291.179 138.651 291.329 138.541C291.479 138.431 291.594 138.301 291.674 138.151C291.754 138.001 291.794 137.836 291.794 137.656C291.794 137.326 291.649 137.051 291.359 136.831C291.229 136.741 291.044 136.651 290.804 136.561C290.564 136.461 290.274 136.366 289.934 136.276C289.374 136.116 288.909 135.956 288.539 135.796C288.169 135.626 287.879 135.431 287.669 135.211C287.519 135.031 287.404 134.836 287.324 134.626C287.254 134.416 287.219 134.186 287.219 133.936C287.219 133.616 287.284 133.321 287.414 133.051C287.554 132.781 287.744 132.546 287.984 132.346C288.234 132.136 288.524 131.981 288.854 131.881C289.194 131.771 289.559 131.716 289.949 131.716C290.319 131.716 290.684 131.766 291.044 131.866C291.404 131.966 291.739 132.111 292.049 132.301C292.359 132.491 292.624 132.716 292.844 132.976L292.154 133.726C291.964 133.526 291.754 133.346 291.524 133.186C291.294 133.026 291.049 132.901 290.789 132.811C290.539 132.721 290.279 132.676 290.009 132.676C289.769 132.676 289.544 132.706 289.334 132.766C289.134 132.826 288.959 132.911 288.809 133.021C288.669 133.121 288.559 133.246 288.479 133.396C288.409 133.546 288.374 133.711 288.374 133.891C288.374 134.041 288.404 134.176 288.464 134.296C288.524 134.416 288.609 134.521 288.719 134.611C288.859 134.721 289.054 134.826 289.304 134.926C289.564 135.016 289.884 135.111 290.264 135.211C290.704 135.331 291.074 135.456 291.374 135.586C291.684 135.706 291.939 135.851 292.139 136.021C292.409 136.221 292.599 136.451 292.709 136.711C292.829 136.971 292.889 137.266 292.889 137.596C292.889 138.036 292.764 138.426 292.514 138.766C292.274 139.106 291.939 139.376 291.509 139.576C291.079 139.766 290.589 139.861 290.039 139.861ZM298.301 139.861C297.521 139.861 296.826 139.691 296.216 139.351C295.616 139.011 295.146 138.536 294.806 137.926C294.466 137.316 294.296 136.616 294.296 135.826C294.296 135.216 294.391 134.666 294.581 134.176C294.771 133.676 295.036 133.241 295.376 132.871C295.726 132.501 296.141 132.216 296.621 132.016C297.101 131.806 297.621 131.701 298.181 131.701C298.711 131.701 299.191 131.796 299.621 131.986C300.061 132.176 300.436 132.441 300.746 132.781C301.066 133.111 301.306 133.506 301.466 133.966C301.626 134.426 301.696 134.931 301.676 135.481L301.661 136.006H295.136L294.971 135.061H300.806L300.536 135.316V134.956C300.516 134.596 300.411 134.251 300.221 133.921C300.031 133.581 299.761 133.306 299.411 133.096C299.071 132.886 298.661 132.781 298.181 132.781C297.621 132.781 297.136 132.896 296.726 133.126C296.316 133.346 296.001 133.676 295.781 134.116C295.561 134.556 295.451 135.101 295.451 135.751C295.451 136.371 295.571 136.911 295.811 137.371C296.051 137.821 296.391 138.171 296.831 138.421C297.281 138.671 297.821 138.796 298.451 138.796C298.821 138.796 299.186 138.736 299.546 138.616C299.916 138.486 300.321 138.236 300.761 137.866L301.346 138.676C301.116 138.906 300.841 139.111 300.521 139.291C300.201 139.461 299.851 139.601 299.471 139.711C299.091 139.811 298.701 139.861 298.301 139.861ZM306.654 139.861C305.944 139.861 305.304 139.686 304.734 139.336C304.174 138.986 303.729 138.506 303.399 137.896C303.079 137.276 302.919 136.576 302.919 135.796C302.919 135.006 303.084 134.306 303.414 133.696C303.744 133.076 304.189 132.591 304.749 132.241C305.309 131.891 305.939 131.716 306.639 131.716C307.029 131.716 307.404 131.776 307.764 131.896C308.134 132.016 308.464 132.186 308.754 132.406C309.044 132.616 309.284 132.861 309.474 133.141C309.664 133.411 309.779 133.696 309.819 133.996L309.474 133.876V128.611H310.599V139.711H309.489L309.459 137.761L309.744 137.656C309.704 137.936 309.589 138.211 309.399 138.481C309.219 138.741 308.989 138.976 308.709 139.186C308.429 139.396 308.109 139.561 307.749 139.681C307.399 139.801 307.034 139.861 306.654 139.861ZM306.819 138.826C307.339 138.826 307.804 138.696 308.214 138.436C308.624 138.176 308.944 137.816 309.174 137.356C309.414 136.896 309.534 136.371 309.534 135.781C309.534 135.191 309.414 134.671 309.174 134.221C308.944 133.761 308.624 133.401 308.214 133.141C307.804 132.871 307.339 132.736 306.819 132.736C306.279 132.736 305.804 132.871 305.394 133.141C304.994 133.401 304.674 133.761 304.434 134.221C304.204 134.671 304.089 135.191 304.089 135.781C304.089 136.361 304.204 136.881 304.434 137.341C304.664 137.801 304.984 138.166 305.394 138.436C305.804 138.696 306.279 138.826 306.819 138.826Z" fill="#1E238E"/>
</g>
<g filter="url(#filter3_d_437_372)">
<rect x="162.973" y="117.711" width="83" height="33" rx="10" fill="#FCFBF9" shape-rendering="crispEdges"/>
<rect x="163.473" y="118.211" width="82" height="32" rx="9.5" stroke="#1E238E" shape-rendering="crispEdges"/>
<path d="M180.413 139.711L176.348 129.211H177.668L180.278 136.051C180.398 136.361 180.503 136.636 180.593 136.876C180.683 137.116 180.763 137.346 180.833 137.566C180.913 137.776 180.988 137.986 181.058 138.196C181.128 138.406 181.203 138.636 181.283 138.886L180.893 138.901C180.993 138.561 181.088 138.246 181.178 137.956C181.278 137.666 181.378 137.371 181.478 137.071C181.588 136.761 181.723 136.401 181.883 135.991L184.478 129.211H185.798L181.613 139.711H180.413ZM187.763 139.711V131.881H188.888V139.711H187.763ZM188.318 130.186C188.038 130.186 187.823 130.116 187.673 129.976C187.533 129.826 187.463 129.626 187.463 129.376C187.463 129.126 187.538 128.926 187.688 128.776C187.838 128.626 188.048 128.551 188.318 128.551C188.588 128.551 188.798 128.626 188.948 128.776C189.098 128.916 189.173 129.116 189.173 129.376C189.173 129.616 189.098 129.811 188.948 129.961C188.798 130.111 188.588 130.186 188.318 130.186ZM191.545 139.711V131.881H192.655L192.7 133.516L192.52 133.591C192.62 133.251 192.815 132.941 193.105 132.661C193.395 132.381 193.74 132.156 194.14 131.986C194.55 131.806 194.97 131.716 195.4 131.716C195.98 131.716 196.465 131.831 196.855 132.061C197.245 132.291 197.54 132.646 197.74 133.126C197.94 133.606 198.04 134.216 198.04 134.956V139.711H196.9V135.016C196.9 134.496 196.83 134.071 196.69 133.741C196.56 133.401 196.355 133.151 196.075 132.991C195.795 132.831 195.45 132.756 195.04 132.766C194.7 132.766 194.385 132.826 194.095 132.946C193.805 133.056 193.555 133.211 193.345 133.411C193.135 133.611 192.97 133.841 192.85 134.101C192.73 134.361 192.67 134.641 192.67 134.941V139.711H192.115C192.045 139.711 191.965 139.711 191.875 139.711C191.785 139.711 191.675 139.711 191.545 139.711ZM201.467 139.711V129.826H202.592V139.711H201.467ZM199.697 132.961V131.881H204.572V132.961H199.697ZM209.141 139.861C208.461 139.861 207.846 139.686 207.296 139.336C206.746 138.976 206.311 138.491 205.991 137.881C205.671 137.261 205.511 136.561 205.511 135.781C205.511 134.991 205.676 134.291 206.006 133.681C206.336 133.071 206.776 132.591 207.326 132.241C207.886 131.891 208.511 131.716 209.201 131.716C209.611 131.716 209.991 131.776 210.341 131.896C210.691 132.016 211.001 132.186 211.271 132.406C211.551 132.616 211.781 132.866 211.961 133.156C212.151 133.436 212.281 133.741 212.351 134.071L212.021 133.906L212.066 131.881H213.191V139.711H212.051V137.791L212.351 137.596C212.281 137.896 212.146 138.186 211.946 138.466C211.746 138.736 211.501 138.976 211.211 139.186C210.931 139.396 210.611 139.561 210.251 139.681C209.901 139.801 209.531 139.861 209.141 139.861ZM209.396 138.781C209.916 138.781 210.381 138.656 210.791 138.406C211.201 138.146 211.521 137.791 211.751 137.341C211.991 136.881 212.111 136.361 212.111 135.781C212.111 135.201 211.991 134.686 211.751 134.236C211.521 133.786 211.201 133.431 210.791 133.171C210.381 132.911 209.916 132.781 209.396 132.781C208.866 132.781 208.396 132.911 207.986 133.171C207.586 133.431 207.266 133.786 207.026 134.236C206.796 134.686 206.681 135.201 206.681 135.781C206.681 136.351 206.796 136.866 207.026 137.326C207.256 137.776 207.576 138.131 207.986 138.391C208.396 138.651 208.866 138.781 209.396 138.781ZM218.957 143.161C218.377 143.161 217.827 143.071 217.307 142.891C216.787 142.711 216.357 142.486 216.017 142.216L216.467 141.271C216.667 141.431 216.897 141.571 217.157 141.691C217.427 141.821 217.717 141.921 218.027 141.991C218.337 142.071 218.652 142.111 218.972 142.111C219.552 142.111 220.042 142.001 220.442 141.781C220.852 141.571 221.162 141.256 221.372 140.836C221.592 140.416 221.702 139.896 221.702 139.276V137.776L221.882 137.731C221.792 138.111 221.597 138.466 221.297 138.796C220.997 139.116 220.632 139.376 220.202 139.576C219.772 139.766 219.317 139.861 218.837 139.861C218.107 139.861 217.452 139.686 216.872 139.336C216.302 138.986 215.852 138.506 215.522 137.896C215.192 137.276 215.027 136.576 215.027 135.796C215.027 135.006 215.192 134.306 215.522 133.696C215.862 133.076 216.317 132.591 216.887 132.241C217.457 131.891 218.097 131.716 218.807 131.716C219.117 131.716 219.417 131.756 219.707 131.836C219.997 131.906 220.262 132.011 220.502 132.151C220.752 132.291 220.977 132.451 221.177 132.631C221.377 132.811 221.542 133.006 221.672 133.216C221.812 133.426 221.912 133.641 221.972 133.861L221.657 133.816L221.702 131.881H222.827V139.231C222.827 139.861 222.737 140.416 222.557 140.896C222.377 141.386 222.112 141.796 221.762 142.126C221.422 142.466 221.012 142.721 220.532 142.891C220.062 143.071 219.537 143.161 218.957 143.161ZM218.972 138.781C219.502 138.781 219.972 138.656 220.382 138.406C220.802 138.146 221.132 137.791 221.372 137.341C221.612 136.891 221.732 136.371 221.732 135.781C221.732 135.201 221.612 134.686 221.372 134.236C221.142 133.786 220.817 133.431 220.397 133.171C219.977 132.911 219.502 132.781 218.972 132.781C218.432 132.781 217.952 132.911 217.532 133.171C217.122 133.431 216.797 133.786 216.557 134.236C216.317 134.686 216.197 135.201 216.197 135.781C216.197 136.351 216.312 136.866 216.542 137.326C216.782 137.776 217.107 138.131 217.517 138.391C217.937 138.651 218.422 138.781 218.972 138.781ZM228.666 139.861C227.886 139.861 227.191 139.691 226.581 139.351C225.981 139.011 225.511 138.536 225.171 137.926C224.831 137.316 224.661 136.616 224.661 135.826C224.661 135.216 224.756 134.666 224.946 134.176C225.136 133.676 225.401 133.241 225.741 132.871C226.091 132.501 226.506 132.216 226.986 132.016C227.466 131.806 227.986 131.701 228.546 131.701C229.076 131.701 229.556 131.796 229.986 131.986C230.426 132.176 230.801 132.441 231.111 132.781C231.431 133.111 231.671 133.506 231.831 133.966C231.991 134.426 232.061 134.931 232.041 135.481L232.026 136.006H225.501L225.336 135.061H231.171L230.901 135.316V134.956C230.881 134.596 230.776 134.251 230.586 133.921C230.396 133.581 230.126 133.306 229.776 133.096C229.436 132.886 229.026 132.781 228.546 132.781C227.986 132.781 227.501 132.896 227.091 133.126C226.681 133.346 226.366 133.676 226.146 134.116C225.926 134.556 225.816 135.101 225.816 135.751C225.816 136.371 225.936 136.911 226.176 137.371C226.416 137.821 226.756 138.171 227.196 138.421C227.646 138.671 228.186 138.796 228.816 138.796C229.186 138.796 229.551 138.736 229.911 138.616C230.281 138.486 230.686 138.236 231.126 137.866L231.711 138.676C231.481 138.906 231.206 139.111 230.886 139.291C230.566 139.461 230.216 139.601 229.836 139.711C229.456 139.811 229.066 139.861 228.666 139.861Z" fill="#1E238E"/>
</g>
<g filter="url(#filter4_d_437_372)">
<rect x="16.6367" y="167.706" width="159" height="33" rx="10" fill="#FCFBF9" shape-rendering="crispEdges"/>
<rect x="17.1367" y="168.206" width="158" height="32" rx="9.5" stroke="#1E238E" shape-rendering="crispEdges"/>
<path d="M34.2417 189.856C33.7117 189.856 33.2117 189.781 32.7417 189.631C32.2717 189.481 31.8417 189.256 31.4517 188.956C31.0617 188.656 30.7167 188.286 30.4167 187.846L31.2267 186.946C31.6967 187.616 32.1767 188.086 32.6667 188.356C33.1667 188.626 33.7267 188.761 34.3467 188.761C34.7967 188.761 35.2067 188.686 35.5767 188.536C35.9467 188.386 36.2367 188.176 36.4467 187.906C36.6567 187.636 36.7617 187.326 36.7617 186.976C36.7617 186.746 36.7217 186.541 36.6417 186.361C36.5717 186.181 36.4617 186.021 36.3117 185.881C36.1617 185.741 35.9767 185.616 35.7567 185.506C35.5367 185.396 35.2817 185.296 34.9917 185.206C34.7117 185.116 34.3967 185.026 34.0467 184.936C33.5367 184.816 33.0867 184.676 32.6967 184.516C32.3167 184.346 31.9917 184.141 31.7217 183.901C31.4617 183.661 31.2617 183.386 31.1217 183.076C30.9917 182.756 30.9267 182.381 30.9267 181.951C30.9267 181.541 31.0117 181.161 31.1817 180.811C31.3617 180.461 31.6067 180.161 31.9167 179.911C32.2267 179.651 32.5917 179.451 33.0117 179.311C33.4317 179.171 33.8817 179.101 34.3617 179.101C34.9017 179.101 35.3817 179.176 35.8017 179.326C36.2317 179.466 36.6117 179.676 36.9417 179.956C37.2717 180.236 37.5567 180.571 37.7967 180.961L36.9717 181.771C36.7617 181.441 36.5217 181.156 36.2517 180.916C35.9917 180.676 35.7017 180.496 35.3817 180.376C35.0717 180.246 34.7267 180.181 34.3467 180.181C33.9067 180.181 33.5167 180.256 33.1767 180.406C32.8467 180.556 32.5867 180.766 32.3967 181.036C32.2067 181.296 32.1117 181.596 32.1117 181.936C32.1117 182.186 32.1567 182.411 32.2467 182.611C32.3367 182.801 32.4767 182.971 32.6667 183.121C32.8667 183.261 33.1217 183.391 33.4317 183.511C33.7517 183.621 34.1317 183.726 34.5717 183.826C35.0917 183.946 35.5567 184.091 35.9667 184.261C36.3867 184.431 36.7417 184.636 37.0317 184.876C37.3317 185.106 37.5567 185.376 37.7067 185.686C37.8667 185.996 37.9467 186.351 37.9467 186.751C37.9467 187.371 37.7917 187.916 37.4817 188.386C37.1717 188.846 36.7367 189.206 36.1767 189.466C35.6267 189.726 34.9817 189.856 34.2417 189.856ZM40.0427 189.706V181.876H41.1677L41.1977 183.661L40.9727 183.736C41.0527 183.436 41.1827 183.166 41.3627 182.926C41.5527 182.676 41.7777 182.461 42.0377 182.281C42.2977 182.101 42.5827 181.966 42.8927 181.876C43.2027 181.776 43.5277 181.726 43.8677 181.726C44.2777 181.726 44.6427 181.796 44.9627 181.936C45.2927 182.066 45.5677 182.296 45.7877 182.626C46.0177 182.946 46.1927 183.371 46.3127 183.901L46.0427 183.766L46.1477 183.511C46.2477 183.281 46.3927 183.061 46.5827 182.851C46.7827 182.631 47.0077 182.436 47.2577 182.266C47.5177 182.096 47.7977 181.966 48.0977 181.876C48.4077 181.776 48.7227 181.726 49.0427 181.726C49.5927 181.726 50.0577 181.846 50.4377 182.086C50.8177 182.316 51.1027 182.671 51.2927 183.151C51.4927 183.631 51.5927 184.241 51.5927 184.981V189.706H50.4377V185.041C50.4377 184.521 50.3727 184.096 50.2427 183.766C50.1127 183.436 49.9177 183.191 49.6577 183.031C49.4077 182.861 49.0877 182.776 48.6977 182.776C48.3577 182.776 48.0427 182.836 47.7527 182.956C47.4727 183.066 47.2277 183.226 47.0177 183.436C46.8177 183.636 46.6577 183.866 46.5377 184.126C46.4277 184.386 46.3727 184.666 46.3727 184.966V189.706H45.2327V185.026C45.2327 184.526 45.1627 184.111 45.0227 183.781C44.8927 183.451 44.6977 183.201 44.4377 183.031C44.1777 182.861 43.8577 182.776 43.4777 182.776C43.1477 182.776 42.8427 182.836 42.5627 182.956C42.2827 183.066 42.0377 183.221 41.8277 183.421C41.6277 183.621 41.4677 183.851 41.3477 184.111C41.2377 184.371 41.1827 184.651 41.1827 184.951V189.706H40.0427ZM57.3897 189.856C56.6097 189.856 55.9147 189.681 55.3047 189.331C54.7047 188.981 54.2297 188.496 53.8797 187.876C53.5397 187.256 53.3697 186.551 53.3697 185.761C53.3697 184.981 53.5397 184.286 53.8797 183.676C54.2297 183.066 54.7047 182.586 55.3047 182.236C55.9147 181.886 56.6097 181.711 57.3897 181.711C58.1597 181.711 58.8447 181.886 59.4447 182.236C60.0547 182.586 60.5297 183.066 60.8697 183.676C61.2197 184.286 61.3947 184.981 61.3947 185.761C61.3947 186.551 61.2197 187.256 60.8697 187.876C60.5297 188.496 60.0547 188.981 59.4447 189.331C58.8447 189.681 58.1597 189.856 57.3897 189.856ZM57.3897 188.791C57.9397 188.791 58.4297 188.661 58.8597 188.401C59.2897 188.131 59.6247 187.771 59.8647 187.321C60.1047 186.861 60.2247 186.341 60.2247 185.761C60.2247 185.181 60.1047 184.666 59.8647 184.216C59.6247 183.766 59.2897 183.416 58.8597 183.166C58.4297 182.906 57.9397 182.776 57.3897 182.776C56.8397 182.776 56.3447 182.906 55.9047 183.166C55.4747 183.416 55.1347 183.771 54.8847 184.231C54.6447 184.681 54.5297 185.191 54.5397 185.761C54.5297 186.341 54.6447 186.861 54.8847 187.321C55.1347 187.771 55.4747 188.131 55.9047 188.401C56.3447 188.661 56.8397 188.791 57.3897 188.791ZM64.241 187.186L64.196 185.881L68.291 181.876H69.806L64.241 187.186ZM63.236 189.706V178.606H64.361V189.706H63.236ZM68.606 189.706L65.306 185.881L66.101 185.101L70.076 189.706H68.606ZM74.6204 189.856C73.8404 189.856 73.1454 189.686 72.5354 189.346C71.9354 189.006 71.4654 188.531 71.1254 187.921C70.7854 187.311 70.6154 186.611 70.6154 185.821C70.6154 185.211 70.7104 184.661 70.9004 184.171C71.0904 183.671 71.3554 183.236 71.6954 182.866C72.0454 182.496 72.4604 182.211 72.9404 182.011C73.4204 181.801 73.9404 181.696 74.5004 181.696C75.0304 181.696 75.5104 181.791 75.9404 181.981C76.3804 182.171 76.7554 182.436 77.0654 182.776C77.3854 183.106 77.6254 183.501 77.7854 183.961C77.9454 184.421 78.0154 184.926 77.9954 185.476L77.9804 186.001H71.4554L71.2904 185.056H77.1254L76.8554 185.311V184.951C76.8354 184.591 76.7304 184.246 76.5404 183.916C76.3504 183.576 76.0804 183.301 75.7304 183.091C75.3904 182.881 74.9804 182.776 74.5004 182.776C73.9404 182.776 73.4554 182.891 73.0454 183.121C72.6354 183.341 72.3204 183.671 72.1004 184.111C71.8804 184.551 71.7704 185.096 71.7704 185.746C71.7704 186.366 71.8904 186.906 72.1304 187.366C72.3704 187.816 72.7104 188.166 73.1504 188.416C73.6004 188.666 74.1404 188.791 74.7704 188.791C75.1404 188.791 75.5054 188.731 75.8654 188.611C76.2354 188.481 76.6404 188.231 77.0804 187.861L77.6654 188.671C77.4354 188.901 77.1604 189.106 76.8404 189.286C76.5204 189.456 76.1704 189.596 75.7904 189.706C75.4104 189.806 75.0204 189.856 74.6204 189.856ZM84.6473 189.706V179.206H85.8173V189.706H84.6473ZM85.2323 185.026V183.871H90.5423V185.026H85.2323ZM85.2323 180.346V179.206H91.2473V180.346H85.2323ZM93.1571 189.706V181.876H94.2821L94.3121 183.961L94.1921 183.676C94.3021 183.326 94.4771 183.001 94.7171 182.701C94.9671 182.401 95.2621 182.161 95.6021 181.981C95.9421 181.801 96.3171 181.711 96.7271 181.711C96.8971 181.711 97.0571 181.726 97.2071 181.756C97.3571 181.776 97.4821 181.806 97.5821 181.846L97.2671 183.106C97.1371 183.046 97.0021 183.006 96.8621 182.986C96.7321 182.956 96.6071 182.941 96.4871 182.941C96.1471 182.941 95.8421 183.001 95.5721 183.121C95.3021 183.241 95.0721 183.411 94.8821 183.631C94.6921 183.841 94.5471 184.086 94.4471 184.366C94.3471 184.646 94.2971 184.946 94.2971 185.266V189.706H93.1571ZM102.066 189.856C101.286 189.856 100.591 189.686 99.9809 189.346C99.3809 189.006 98.9109 188.531 98.5709 187.921C98.2309 187.311 98.0609 186.611 98.0609 185.821C98.0609 185.211 98.1559 184.661 98.3459 184.171C98.5359 183.671 98.8009 183.236 99.1409 182.866C99.4909 182.496 99.9059 182.211 100.386 182.011C100.866 181.801 101.386 181.696 101.946 181.696C102.476 181.696 102.956 181.791 103.386 181.981C103.826 182.171 104.201 182.436 104.511 182.776C104.831 183.106 105.071 183.501 105.231 183.961C105.391 184.421 105.461 184.926 105.441 185.476L105.426 186.001H98.9009L98.7359 185.056H104.571L104.301 185.311V184.951C104.281 184.591 104.176 184.246 103.986 183.916C103.796 183.576 103.526 183.301 103.176 183.091C102.836 182.881 102.426 182.776 101.946 182.776C101.386 182.776 100.901 182.891 100.491 183.121C100.081 183.341 99.7659 183.671 99.5459 184.111C99.3259 184.551 99.2159 185.096 99.2159 185.746C99.2159 186.366 99.3359 186.906 99.5759 187.366C99.8159 187.816 100.156 188.166 100.596 188.416C101.046 188.666 101.586 188.791 102.216 188.791C102.586 188.791 102.951 188.731 103.311 188.611C103.681 188.481 104.086 188.231 104.526 187.861L105.111 188.671C104.881 188.901 104.606 189.106 104.286 189.286C103.966 189.456 103.616 189.596 103.236 189.706C102.856 189.806 102.466 189.856 102.066 189.856ZM110.689 189.856C109.909 189.856 109.214 189.686 108.604 189.346C108.004 189.006 107.534 188.531 107.194 187.921C106.854 187.311 106.684 186.611 106.684 185.821C106.684 185.211 106.779 184.661 106.969 184.171C107.159 183.671 107.424 183.236 107.764 182.866C108.114 182.496 108.529 182.211 109.009 182.011C109.489 181.801 110.009 181.696 110.569 181.696C111.099 181.696 111.579 181.791 112.009 181.981C112.449 182.171 112.824 182.436 113.134 182.776C113.454 183.106 113.694 183.501 113.854 183.961C114.014 184.421 114.084 184.926 114.064 185.476L114.049 186.001H107.524L107.359 185.056H113.194L112.924 185.311V184.951C112.904 184.591 112.799 184.246 112.609 183.916C112.419 183.576 112.149 183.301 111.799 183.091C111.459 182.881 111.049 182.776 110.569 182.776C110.009 182.776 109.524 182.891 109.114 183.121C108.704 183.341 108.389 183.671 108.169 184.111C107.949 184.551 107.839 185.096 107.839 185.746C107.839 186.366 107.959 186.906 108.199 187.366C108.439 187.816 108.779 188.166 109.219 188.416C109.669 188.666 110.209 188.791 110.839 188.791C111.209 188.791 111.574 188.731 111.934 188.611C112.304 188.481 112.709 188.231 113.149 187.861L113.734 188.671C113.504 188.901 113.229 189.106 112.909 189.286C112.589 189.456 112.239 189.596 111.859 189.706C111.479 189.806 111.089 189.856 110.689 189.856ZM127.736 189.706V179.206H128.906V189.706H127.736ZM120.716 189.706V179.206H121.886V189.706H120.716ZM121.286 185.041V183.901H128.231V185.041H121.286ZM135.21 189.856C134.43 189.856 133.735 189.681 133.125 189.331C132.525 188.981 132.05 188.496 131.7 187.876C131.36 187.256 131.19 186.551 131.19 185.761C131.19 184.981 131.36 184.286 131.7 183.676C132.05 183.066 132.525 182.586 133.125 182.236C133.735 181.886 134.43 181.711 135.21 181.711C135.98 181.711 136.665 181.886 137.265 182.236C137.875 182.586 138.35 183.066 138.69 183.676C139.04 184.286 139.215 184.981 139.215 185.761C139.215 186.551 139.04 187.256 138.69 187.876C138.35 188.496 137.875 188.981 137.265 189.331C136.665 189.681 135.98 189.856 135.21 189.856ZM135.21 188.791C135.76 188.791 136.25 188.661 136.68 188.401C137.11 188.131 137.445 187.771 137.685 187.321C137.925 186.861 138.045 186.341 138.045 185.761C138.045 185.181 137.925 184.666 137.685 184.216C137.445 183.766 137.11 183.416 136.68 183.166C136.25 182.906 135.76 182.776 135.21 182.776C134.66 182.776 134.165 182.906 133.725 183.166C133.295 183.416 132.955 183.771 132.705 184.231C132.465 184.681 132.35 185.191 132.36 185.761C132.35 186.341 132.465 186.861 132.705 187.321C132.955 187.771 133.295 188.131 133.725 188.401C134.165 188.661 134.66 188.791 135.21 188.791ZM141.041 189.706V181.876H142.166L142.196 183.661L141.971 183.736C142.051 183.436 142.181 183.166 142.361 182.926C142.551 182.676 142.776 182.461 143.036 182.281C143.296 182.101 143.581 181.966 143.891 181.876C144.201 181.776 144.526 181.726 144.866 181.726C145.276 181.726 145.641 181.796 145.961 181.936C146.291 182.066 146.566 182.296 146.786 182.626C147.016 182.946 147.191 183.371 147.311 183.901L147.041 183.766L147.146 183.511C147.246 183.281 147.391 183.061 147.581 182.851C147.781 182.631 148.006 182.436 148.256 182.266C148.516 182.096 148.796 181.966 149.096 181.876C149.406 181.776 149.721 181.726 150.041 181.726C150.591 181.726 151.056 181.846 151.436 182.086C151.816 182.316 152.101 182.671 152.291 183.151C152.491 183.631 152.591 184.241 152.591 184.981V189.706H151.436V185.041C151.436 184.521 151.371 184.096 151.241 183.766C151.111 183.436 150.916 183.191 150.656 183.031C150.406 182.861 150.086 182.776 149.696 182.776C149.356 182.776 149.041 182.836 148.751 182.956C148.471 183.066 148.226 183.226 148.016 183.436C147.816 183.636 147.656 183.866 147.536 184.126C147.426 184.386 147.371 184.666 147.371 184.966V189.706H146.231V185.026C146.231 184.526 146.161 184.111 146.021 183.781C145.891 183.451 145.696 183.201 145.436 183.031C145.176 182.861 144.856 182.776 144.476 182.776C144.146 182.776 143.841 182.836 143.561 182.956C143.281 183.066 143.036 183.221 142.826 183.421C142.626 183.621 142.466 183.851 142.346 184.111C142.236 184.371 142.181 184.651 142.181 184.951V189.706H141.041ZM158.373 189.856C157.593 189.856 156.898 189.686 156.288 189.346C155.688 189.006 155.218 188.531 154.878 187.921C154.538 187.311 154.368 186.611 154.368 185.821C154.368 185.211 154.463 184.661 154.653 184.171C154.843 183.671 155.108 183.236 155.448 182.866C155.798 182.496 156.213 182.211 156.693 182.011C157.173 181.801 157.693 181.696 158.253 181.696C158.783 181.696 159.263 181.791 159.693 181.981C160.133 182.171 160.508 182.436 160.818 182.776C161.138 183.106 161.378 183.501 161.538 183.961C161.698 184.421 161.768 184.926 161.748 185.476L161.733 186.001H155.208L155.043 185.056H160.878L160.608 185.311V184.951C160.588 184.591 160.483 184.246 160.293 183.916C160.103 183.576 159.833 183.301 159.483 183.091C159.143 182.881 158.733 182.776 158.253 182.776C157.693 182.776 157.208 182.891 156.798 183.121C156.388 183.341 156.073 183.671 155.853 184.111C155.633 184.551 155.523 185.096 155.523 185.746C155.523 186.366 155.643 186.906 155.883 187.366C156.123 187.816 156.463 188.166 156.903 188.416C157.353 188.666 157.893 188.791 158.523 188.791C158.893 188.791 159.258 188.731 159.618 188.611C159.988 188.481 160.393 188.231 160.833 187.861L161.418 188.671C161.188 188.901 160.913 189.106 160.593 189.286C160.273 189.456 159.923 189.596 159.543 189.706C159.163 189.806 158.773 189.856 158.373 189.856Z" fill="#1E238E"/>
</g>
<g filter="url(#filter5_d_437_372)">
<rect x="208.637" y="167.706" width="89" height="33" rx="10" fill="#FCFBF9" shape-rendering="crispEdges"/>
<rect x="209.137" y="168.206" width="88" height="32" rx="9.5" stroke="#1E238E" shape-rendering="crispEdges"/>
<path d="M223.182 189.706V179.206H224.352V188.566H229.392V189.706H223.182ZM231.728 189.706V181.876H232.853V189.706H231.728ZM232.283 180.181C232.003 180.181 231.788 180.111 231.638 179.971C231.498 179.821 231.428 179.621 231.428 179.371C231.428 179.121 231.503 178.921 231.653 178.771C231.803 178.621 232.013 178.546 232.283 178.546C232.553 178.546 232.763 178.621 232.913 178.771C233.063 178.911 233.138 179.111 233.138 179.371C233.138 179.611 233.063 179.806 232.913 179.956C232.763 180.106 232.553 180.181 232.283 180.181ZM236.515 187.186L236.47 185.881L240.565 181.876H242.08L236.515 187.186ZM235.51 189.706V178.606H236.635V189.706H235.51ZM240.88 189.706L237.58 185.881L238.375 185.101L242.35 189.706H240.88ZM246.894 189.856C246.114 189.856 245.419 189.686 244.809 189.346C244.209 189.006 243.739 188.531 243.399 187.921C243.059 187.311 242.889 186.611 242.889 185.821C242.889 185.211 242.984 184.661 243.174 184.171C243.364 183.671 243.629 183.236 243.969 182.866C244.319 182.496 244.734 182.211 245.214 182.011C245.694 181.801 246.214 181.696 246.774 181.696C247.304 181.696 247.784 181.791 248.214 181.981C248.654 182.171 249.029 182.436 249.339 182.776C249.659 183.106 249.899 183.501 250.059 183.961C250.219 184.421 250.289 184.926 250.269 185.476L250.254 186.001H243.729L243.564 185.056H249.399L249.129 185.311V184.951C249.109 184.591 249.004 184.246 248.814 183.916C248.624 183.576 248.354 183.301 248.004 183.091C247.664 182.881 247.254 182.776 246.774 182.776C246.214 182.776 245.729 182.891 245.319 183.121C244.909 183.341 244.594 183.671 244.374 184.111C244.154 184.551 244.044 185.096 244.044 185.746C244.044 186.366 244.164 186.906 244.404 187.366C244.644 187.816 244.984 188.166 245.424 188.416C245.874 188.666 246.414 188.791 247.044 188.791C247.414 188.791 247.779 188.731 248.139 188.611C248.509 188.481 248.914 188.231 249.354 187.861L249.939 188.671C249.709 188.901 249.434 189.106 249.114 189.286C248.794 189.456 248.444 189.596 248.064 189.706C247.684 189.806 247.294 189.856 246.894 189.856ZM256.471 189.706V181.876H257.581L257.626 183.511L257.446 183.586C257.546 183.246 257.741 182.936 258.031 182.656C258.321 182.376 258.666 182.151 259.066 181.981C259.476 181.801 259.896 181.711 260.326 181.711C260.906 181.711 261.391 181.826 261.781 182.056C262.171 182.286 262.466 182.641 262.666 183.121C262.866 183.601 262.966 184.211 262.966 184.951V189.706H261.826V185.011C261.826 184.491 261.756 184.066 261.616 183.736C261.486 183.396 261.281 183.146 261.001 182.986C260.721 182.826 260.376 182.751 259.966 182.761C259.626 182.761 259.311 182.821 259.021 182.941C258.731 183.051 258.481 183.206 258.271 183.406C258.061 183.606 257.896 183.836 257.776 184.096C257.656 184.356 257.596 184.636 257.596 184.936V189.706H257.041C256.971 189.706 256.891 189.706 256.801 189.706C256.711 189.706 256.601 189.706 256.471 189.706ZM268.764 189.856C267.984 189.856 267.289 189.686 266.679 189.346C266.079 189.006 265.609 188.531 265.269 187.921C264.929 187.311 264.759 186.611 264.759 185.821C264.759 185.211 264.854 184.661 265.044 184.171C265.234 183.671 265.499 183.236 265.839 182.866C266.189 182.496 266.604 182.211 267.084 182.011C267.564 181.801 268.084 181.696 268.644 181.696C269.174 181.696 269.654 181.791 270.084 181.981C270.524 182.171 270.899 182.436 271.209 182.776C271.529 183.106 271.769 183.501 271.929 183.961C272.089 184.421 272.159 184.926 272.139 185.476L272.124 186.001H265.599L265.434 185.056H271.269L270.999 185.311V184.951C270.979 184.591 270.874 184.246 270.684 183.916C270.494 183.576 270.224 183.301 269.874 183.091C269.534 182.881 269.124 182.776 268.644 182.776C268.084 182.776 267.599 182.891 267.189 183.121C266.779 183.341 266.464 183.671 266.244 184.111C266.024 184.551 265.914 185.096 265.914 185.746C265.914 186.366 266.034 186.906 266.274 187.366C266.514 187.816 266.854 188.166 267.294 188.416C267.744 188.666 268.284 188.791 268.914 188.791C269.284 188.791 269.649 188.731 270.009 188.611C270.379 188.481 270.784 188.231 271.224 187.861L271.809 188.671C271.579 188.901 271.304 189.106 270.984 189.286C270.664 189.456 270.314 189.596 269.934 189.706C269.554 189.806 269.164 189.856 268.764 189.856ZM275.635 189.706L272.92 181.876L274.12 181.861L276.235 188.236L275.86 188.206L278.155 183.076H278.83L281.14 188.206L280.69 188.236L282.85 181.876H284.035L281.32 189.706H280.66L278.23 184.126L278.68 184.156L276.325 189.706H275.635Z" fill="#1E238E"/>
</g>
<g filter="url(#filter6_d_437_372)">
<rect x="88.6367" y="60.7061" width="134" height="33" rx="10" fill="#FCFBF9" shape-rendering="crispEdges"/>
<rect x="89.1367" y="61.2061" width="133" height="32" rx="9.5" stroke="#1E238E" shape-rendering="crispEdges"/>
<path d="M103.182 82.7061V72.2061H107.337C107.887 72.2061 108.382 72.3411 108.822 72.6111C109.262 72.8811 109.612 73.2561 109.872 73.7361C110.132 74.2061 110.262 74.7361 110.262 75.3261C110.262 75.9461 110.132 76.5011 109.872 76.9911C109.612 77.4711 109.262 77.8561 108.822 78.1461C108.382 78.4261 107.887 78.5661 107.337 78.5661H104.352V82.7061H103.182ZM104.352 77.4261H107.397C107.707 77.4261 107.982 77.3361 108.222 77.1561C108.472 76.9661 108.672 76.7161 108.822 76.4061C108.972 76.0861 109.047 75.7211 109.047 75.3111C109.047 74.9411 108.972 74.6111 108.822 74.3211C108.672 74.0211 108.472 73.7861 108.222 73.6161C107.982 73.4361 107.707 73.3461 107.397 73.3461H104.352V77.4261ZM115.566 82.8561C114.786 82.8561 114.091 82.6861 113.481 82.3461C112.881 82.0061 112.411 81.5311 112.071 80.9211C111.731 80.3111 111.561 79.6111 111.561 78.8211C111.561 78.2111 111.656 77.6611 111.846 77.1711C112.036 76.6711 112.301 76.2361 112.641 75.8661C112.991 75.4961 113.406 75.2111 113.886 75.0111C114.366 74.8011 114.886 74.6961 115.446 74.6961C115.976 74.6961 116.456 74.7911 116.886 74.9811C117.326 75.1711 117.701 75.4361 118.011 75.7761C118.331 76.1061 118.571 76.5011 118.731 76.9611C118.891 77.4211 118.961 77.9261 118.941 78.4761L118.926 79.0011H112.401L112.236 78.0561H118.071L117.801 78.3111V77.9511C117.781 77.5911 117.676 77.2461 117.486 76.9161C117.296 76.5761 117.026 76.3011 116.676 76.0911C116.336 75.8811 115.926 75.7761 115.446 75.7761C114.886 75.7761 114.401 75.8911 113.991 76.1211C113.581 76.3411 113.266 76.6711 113.046 77.1111C112.826 77.5511 112.716 78.0961 112.716 78.7461C112.716 79.3661 112.836 79.9061 113.076 80.3661C113.316 80.8161 113.656 81.1661 114.096 81.4161C114.546 81.6661 115.086 81.7911 115.716 81.7911C116.086 81.7911 116.451 81.7311 116.811 81.6111C117.181 81.4811 117.586 81.2311 118.026 80.8611L118.611 81.6711C118.381 81.9011 118.106 82.1061 117.786 82.2861C117.466 82.4561 117.116 82.5961 116.736 82.7061C116.356 82.8061 115.966 82.8561 115.566 82.8561ZM121.819 82.7061V72.8211H122.944V82.7061H121.819ZM120.049 75.9561V74.8761H124.924V75.9561H120.049ZM131.36 82.7061V72.2061H132.53V82.7061H131.36ZM131.945 78.0261V76.8711H137.255V78.0261H131.945ZM131.945 73.3461V72.2061H137.96V73.3461H131.945ZM139.869 82.7061V74.8761H140.994L141.024 76.9611L140.904 76.6761C141.014 76.3261 141.189 76.0011 141.429 75.7011C141.679 75.4011 141.974 75.1611 142.314 74.9811C142.654 74.8011 143.029 74.7111 143.439 74.7111C143.609 74.7111 143.769 74.7261 143.919 74.7561C144.069 74.7761 144.194 74.8061 144.294 74.8461L143.979 76.1061C143.849 76.0461 143.714 76.0061 143.574 75.9861C143.444 75.9561 143.319 75.9411 143.199 75.9411C142.859 75.9411 142.554 76.0011 142.284 76.1211C142.014 76.2411 141.784 76.4111 141.594 76.6311C141.404 76.8411 141.259 77.0861 141.159 77.3661C141.059 77.6461 141.009 77.9461 141.009 78.2661V82.7061H139.869ZM148.778 82.8561C147.998 82.8561 147.303 82.6861 146.693 82.3461C146.093 82.0061 145.623 81.5311 145.283 80.9211C144.943 80.3111 144.773 79.6111 144.773 78.8211C144.773 78.2111 144.868 77.6611 145.058 77.1711C145.248 76.6711 145.513 76.2361 145.853 75.8661C146.203 75.4961 146.618 75.2111 147.098 75.0111C147.578 74.8011 148.098 74.6961 148.658 74.6961C149.188 74.6961 149.668 74.7911 150.098 74.9811C150.538 75.1711 150.913 75.4361 151.223 75.7761C151.543 76.1061 151.783 76.5011 151.943 76.9611C152.103 77.4211 152.173 77.9261 152.153 78.4761L152.138 79.0011H145.613L145.448 78.0561H151.283L151.013 78.3111V77.9511C150.993 77.5911 150.888 77.2461 150.698 76.9161C150.508 76.5761 150.238 76.3011 149.888 76.0911C149.548 75.8811 149.138 75.7761 148.658 75.7761C148.098 75.7761 147.613 75.8911 147.203 76.1211C146.793 76.3411 146.478 76.6711 146.258 77.1111C146.038 77.5511 145.928 78.0961 145.928 78.7461C145.928 79.3661 146.048 79.9061 146.288 80.3661C146.528 80.8161 146.868 81.1661 147.308 81.4161C147.758 81.6661 148.298 81.7911 148.928 81.7911C149.298 81.7911 149.663 81.7311 150.023 81.6111C150.393 81.4811 150.798 81.2311 151.238 80.8611L151.823 81.6711C151.593 81.9011 151.318 82.1061 150.998 82.2861C150.678 82.4561 150.328 82.5961 149.948 82.7061C149.568 82.8061 149.178 82.8561 148.778 82.8561ZM157.401 82.8561C156.621 82.8561 155.926 82.6861 155.316 82.3461C154.716 82.0061 154.246 81.5311 153.906 80.9211C153.566 80.3111 153.396 79.6111 153.396 78.8211C153.396 78.2111 153.491 77.6611 153.681 77.1711C153.871 76.6711 154.136 76.2361 154.476 75.8661C154.826 75.4961 155.241 75.2111 155.721 75.0111C156.201 74.8011 156.721 74.6961 157.281 74.6961C157.811 74.6961 158.291 74.7911 158.721 74.9811C159.161 75.1711 159.536 75.4361 159.846 75.7761C160.166 76.1061 160.406 76.5011 160.566 76.9611C160.726 77.4211 160.796 77.9261 160.776 78.4761L160.761 79.0011H154.236L154.071 78.0561H159.906L159.636 78.3111V77.9511C159.616 77.5911 159.511 77.2461 159.321 76.9161C159.131 76.5761 158.861 76.3011 158.511 76.0911C158.171 75.8811 157.761 75.7761 157.281 75.7761C156.721 75.7761 156.236 75.8911 155.826 76.1211C155.416 76.3411 155.101 76.6711 154.881 77.1111C154.661 77.5511 154.551 78.0961 154.551 78.7461C154.551 79.3661 154.671 79.9061 154.911 80.3661C155.151 80.8161 155.491 81.1661 155.931 81.4161C156.381 81.6661 156.921 81.7911 157.551 81.7911C157.921 81.7911 158.286 81.7311 158.646 81.6111C159.016 81.4811 159.421 81.2311 159.861 80.8611L160.446 81.6711C160.216 81.9011 159.941 82.1061 159.621 82.2861C159.301 82.4561 158.951 82.5961 158.571 82.7061C158.191 82.8061 157.801 82.8561 157.401 82.8561ZM174.448 82.7061V72.2061H175.618V82.7061H174.448ZM167.428 82.7061V72.2061H168.598V82.7061H167.428ZM167.998 78.0411V76.9011H174.943V78.0411H167.998ZM181.922 82.8561C181.142 82.8561 180.447 82.6811 179.837 82.3311C179.237 81.9811 178.762 81.4961 178.412 80.8761C178.072 80.2561 177.902 79.5511 177.902 78.7611C177.902 77.9811 178.072 77.2861 178.412 76.6761C178.762 76.0661 179.237 75.5861 179.837 75.2361C180.447 74.8861 181.142 74.7111 181.922 74.7111C182.692 74.7111 183.377 74.8861 183.977 75.2361C184.587 75.5861 185.062 76.0661 185.402 76.6761C185.752 77.2861 185.927 77.9811 185.927 78.7611C185.927 79.5511 185.752 80.2561 185.402 80.8761C185.062 81.4961 184.587 81.9811 183.977 82.3311C183.377 82.6811 182.692 82.8561 181.922 82.8561ZM181.922 81.7911C182.472 81.7911 182.962 81.6611 183.392 81.4011C183.822 81.1311 184.157 80.7711 184.397 80.3211C184.637 79.8611 184.757 79.3411 184.757 78.7611C184.757 78.1811 184.637 77.6661 184.397 77.2161C184.157 76.7661 183.822 76.4161 183.392 76.1661C182.962 75.9061 182.472 75.7761 181.922 75.7761C181.372 75.7761 180.877 75.9061 180.437 76.1661C180.007 76.4161 179.667 76.7711 179.417 77.2311C179.177 77.6811 179.062 78.1911 179.072 78.7611C179.062 79.3411 179.177 79.8611 179.417 80.3211C179.667 80.7711 180.007 81.1311 180.437 81.4011C180.877 81.6611 181.372 81.7911 181.922 81.7911ZM187.754 82.7061V74.8761H188.879L188.909 76.6611L188.684 76.7361C188.764 76.4361 188.894 76.1661 189.074 75.9261C189.264 75.6761 189.489 75.4611 189.749 75.2811C190.009 75.1011 190.294 74.9661 190.604 74.8761C190.914 74.7761 191.239 74.7261 191.579 74.7261C191.989 74.7261 192.354 74.7961 192.674 74.9361C193.004 75.0661 193.279 75.2961 193.499 75.6261C193.729 75.9461 193.904 76.3711 194.024 76.9011L193.754 76.7661L193.859 76.5111C193.959 76.2811 194.104 76.0611 194.294 75.8511C194.494 75.6311 194.719 75.4361 194.969 75.2661C195.229 75.0961 195.509 74.9661 195.809 74.8761C196.119 74.7761 196.434 74.7261 196.754 74.7261C197.304 74.7261 197.769 74.8461 198.149 75.0861C198.529 75.3161 198.814 75.6711 199.004 76.1511C199.204 76.6311 199.304 77.2411 199.304 77.9811V82.7061H198.149V78.0411C198.149 77.5211 198.084 77.0961 197.954 76.7661C197.824 76.4361 197.629 76.1911 197.369 76.0311C197.119 75.8611 196.799 75.7761 196.409 75.7761C196.069 75.7761 195.754 75.8361 195.464 75.9561C195.184 76.0661 194.939 76.2261 194.729 76.4361C194.529 76.6361 194.369 76.8661 194.249 77.1261C194.139 77.3861 194.084 77.6661 194.084 77.9661V82.7061H192.944V78.0261C192.944 77.5261 192.874 77.1111 192.734 76.7811C192.604 76.4511 192.409 76.2011 192.149 76.0311C191.889 75.8611 191.569 75.7761 191.189 75.7761C190.859 75.7761 190.554 75.8361 190.274 75.9561C189.994 76.0661 189.749 76.2211 189.539 76.4211C189.339 76.6211 189.179 76.8511 189.059 77.1111C188.949 77.3711 188.894 77.6511 188.894 77.9511V82.7061H187.754ZM205.086 82.8561C204.306 82.8561 203.611 82.6861 203.001 82.3461C202.401 82.0061 201.931 81.5311 201.591 80.9211C201.251 80.3111 201.081 79.6111 201.081 78.8211C201.081 78.2111 201.176 77.6611 201.366 77.1711C201.556 76.6711 201.821 76.2361 202.161 75.8661C202.511 75.4961 202.926 75.2111 203.406 75.0111C203.886 74.8011 204.406 74.6961 204.966 74.6961C205.496 74.6961 205.976 74.7911 206.406 74.9811C206.846 75.1711 207.221 75.4361 207.531 75.7761C207.851 76.1061 208.091 76.5011 208.251 76.9611C208.411 77.4211 208.481 77.9261 208.461 78.4761L208.446 79.0011H201.921L201.756 78.0561H207.591L207.321 78.3111V77.9511C207.301 77.5911 207.196 77.2461 207.006 76.9161C206.816 76.5761 206.546 76.3011 206.196 76.0911C205.856 75.8811 205.446 75.7761 204.966 75.7761C204.406 75.7761 203.921 75.8911 203.511 76.1211C203.101 76.3411 202.786 76.6711 202.566 77.1111C202.346 77.5511 202.236 78.0961 202.236 78.7461C202.236 79.3661 202.356 79.9061 202.596 80.3661C202.836 80.8161 203.176 81.1661 203.616 81.4161C204.066 81.6661 204.606 81.7911 205.236 81.7911C205.606 81.7911 205.971 81.7311 206.331 81.6111C206.701 81.4811 207.106 81.2311 207.546 80.8611L208.131 81.6711C207.901 81.9011 207.626 82.1061 207.306 82.2861C206.986 82.4561 206.636 82.5961 206.256 82.7061C205.876 82.8061 205.486 82.8561 205.086 82.8561Z" fill="#1E238E"/>
</g>
<path d="M22.7027 38.15C21.9727 38.15 21.3027 38.02 20.6927 37.76C20.0827 37.5 19.5527 37.13 19.1027 36.65C18.6527 36.16 18.3027 35.585 18.0527 34.925C17.8127 34.265 17.6927 33.54 17.6927 32.75C17.6927 32 17.8227 31.305 18.0827 30.665C18.3527 30.015 18.7227 29.445 19.1927 28.955C19.6627 28.465 20.2077 28.085 20.8277 27.815C21.4477 27.545 22.1177 27.41 22.8377 27.41C23.3477 27.41 23.8427 27.49 24.3227 27.65C24.8127 27.8 25.2527 28.015 25.6427 28.295C26.0427 28.565 26.3677 28.875 26.6177 29.225L25.5377 30.35C25.2477 30.06 24.9527 29.82 24.6527 29.63C24.3627 29.43 24.0627 29.28 23.7527 29.18C23.4527 29.08 23.1477 29.03 22.8377 29.03C22.3477 29.03 21.8877 29.125 21.4577 29.315C21.0377 29.495 20.6677 29.75 20.3477 30.08C20.0377 30.41 19.7927 30.805 19.6127 31.265C19.4327 31.715 19.3427 32.21 19.3427 32.75C19.3427 33.32 19.4277 33.84 19.5977 34.31C19.7777 34.77 20.0277 35.165 20.3477 35.495C20.6677 35.825 21.0477 36.08 21.4877 36.26C21.9377 36.43 22.4327 36.515 22.9727 36.515C23.3027 36.515 23.6277 36.47 23.9477 36.38C24.2677 36.29 24.5677 36.16 24.8477 35.99C25.1277 35.82 25.3827 35.62 25.6127 35.39L26.4227 36.71C26.1927 36.98 25.8777 37.225 25.4777 37.445C25.0877 37.665 24.6477 37.84 24.1577 37.97C23.6777 38.09 23.1927 38.15 22.7027 38.15ZM31.9733 38.15C31.2033 38.15 30.5133 37.975 29.9033 37.625C29.3033 37.265 28.8283 36.78 28.4783 36.17C28.1283 35.55 27.9533 34.845 27.9533 34.055C27.9533 33.265 28.1283 32.565 28.4783 31.955C28.8283 31.335 29.3033 30.85 29.9033 30.5C30.5133 30.14 31.2033 29.96 31.9733 29.96C32.7333 29.96 33.4133 30.14 34.0133 30.5C34.6233 30.85 35.1033 31.335 35.4533 31.955C35.8033 32.565 35.9783 33.265 35.9783 34.055C35.9783 34.845 35.8033 35.55 35.4533 36.17C35.1033 36.78 34.6233 37.265 34.0133 37.625C33.4133 37.975 32.7333 38.15 31.9733 38.15ZM31.9733 36.74C32.4433 36.74 32.8633 36.625 33.2333 36.395C33.6033 36.155 33.8933 35.835 34.1033 35.435C34.3133 35.025 34.4133 34.565 34.4033 34.055C34.4133 33.535 34.3133 33.075 34.1033 32.675C33.8933 32.265 33.6033 31.945 33.2333 31.715C32.8633 31.485 32.4433 31.37 31.9733 31.37C31.5033 31.37 31.0783 31.49 30.6983 31.73C30.3283 31.96 30.0383 32.28 29.8283 32.69C29.6183 33.09 29.5183 33.545 29.5283 34.055C29.5183 34.565 29.6183 35.025 29.8283 35.435C30.0383 35.835 30.3283 36.155 30.6983 36.395C31.0783 36.625 31.5033 36.74 31.9733 36.74ZM37.8618 38V30.125H39.4068V31.745L39.1368 31.925C39.2368 31.575 39.4318 31.255 39.7218 30.965C40.0118 30.665 40.3568 30.425 40.7568 30.245C41.1568 30.055 41.5668 29.96 41.9868 29.96C42.5868 29.96 43.0868 30.08 43.4868 30.32C43.8868 30.55 44.1868 30.905 44.3868 31.385C44.5868 31.865 44.6868 32.47 44.6868 33.2V38H43.1418V33.305C43.1418 32.855 43.0818 32.485 42.9618 32.195C42.8418 31.895 42.6568 31.68 42.4068 31.55C42.1568 31.41 41.8468 31.35 41.4768 31.37C41.1768 31.37 40.9018 31.42 40.6518 31.52C40.4018 31.61 40.1818 31.74 39.9918 31.91C39.8118 32.08 39.6668 32.28 39.5568 32.51C39.4568 32.73 39.4068 32.97 39.4068 33.23V38H38.6418C38.5118 38 38.3818 38 38.2518 38C38.1218 38 37.9918 38 37.8618 38ZM50.2677 38.15C49.5477 38.15 48.9027 37.975 48.3327 37.625C47.7727 37.265 47.3277 36.78 46.9977 36.17C46.6677 35.55 46.5027 34.845 46.5027 34.055C46.5027 33.265 46.6627 32.565 46.9827 31.955C47.3127 31.335 47.7577 30.85 48.3177 30.5C48.8777 30.14 49.5127 29.96 50.2227 29.96C50.6127 29.96 50.9877 30.025 51.3477 30.155C51.7177 30.275 52.0477 30.445 52.3377 30.665C52.6277 30.875 52.8527 31.11 53.0127 31.37C53.1827 31.62 53.2677 31.875 53.2677 32.135L52.8177 32.165V26.9H54.3627V38H52.8177V36.125H53.1177C53.1177 36.365 53.0377 36.605 52.8777 36.845C52.7177 37.075 52.5027 37.29 52.2327 37.49C51.9727 37.69 51.6677 37.85 51.3177 37.97C50.9777 38.09 50.6277 38.15 50.2677 38.15ZM50.4777 36.815C50.9477 36.815 51.3627 36.695 51.7227 36.455C52.0827 36.215 52.3627 35.89 52.5627 35.48C52.7727 35.06 52.8777 34.585 52.8777 34.055C52.8777 33.525 52.7727 33.055 52.5627 32.645C52.3627 32.225 52.0827 31.895 51.7227 31.655C51.3627 31.415 50.9477 31.295 50.4777 31.295C50.0077 31.295 49.5927 31.415 49.2327 31.655C48.8727 31.895 48.5877 32.225 48.3777 32.645C48.1777 33.055 48.0777 33.525 48.0777 34.055C48.0777 34.585 48.1777 35.06 48.3777 35.48C48.5877 35.89 48.8727 36.215 49.2327 36.455C49.5927 36.695 50.0077 36.815 50.4777 36.815ZM56.9446 38V30.125H58.4896V38H56.9446ZM57.6946 28.385C57.3646 28.385 57.1096 28.3 56.9296 28.13C56.7496 27.96 56.6596 27.72 56.6596 27.41C56.6596 27.12 56.7496 26.885 56.9296 26.705C57.1196 26.525 57.3746 26.435 57.6946 26.435C58.0246 26.435 58.2796 26.52 58.4596 26.69C58.6396 26.86 58.7296 27.1 58.7296 27.41C58.7296 27.7 58.6346 27.935 58.4446 28.115C58.2646 28.295 58.0146 28.385 57.6946 28.385ZM62.0394 38V28.115H63.5844V38H62.0394ZM60.4044 31.625V30.125H65.4144V31.625H60.4044ZM67.2762 38V30.125H68.8212V38H67.2762ZM68.0262 28.385C67.6962 28.385 67.4412 28.3 67.2612 28.13C67.0812 27.96 66.9912 27.72 66.9912 27.41C66.9912 27.12 67.0812 26.885 67.2612 26.705C67.4512 26.525 67.7062 26.435 68.0262 26.435C68.3562 26.435 68.6112 26.52 68.7912 26.69C68.9712 26.86 69.0612 27.1 69.0612 27.41C69.0612 27.7 68.9662 27.935 68.7762 28.115C68.5962 28.295 68.3462 28.385 68.0262 28.385ZM74.936 38.15C74.166 38.15 73.476 37.975 72.866 37.625C72.266 37.265 71.791 36.78 71.441 36.17C71.091 35.55 70.916 34.845 70.916 34.055C70.916 33.265 71.091 32.565 71.441 31.955C71.791 31.335 72.266 30.85 72.866 30.5C73.476 30.14 74.166 29.96 74.936 29.96C75.696 29.96 76.376 30.14 76.976 30.5C77.586 30.85 78.066 31.335 78.416 31.955C78.766 32.565 78.941 33.265 78.941 34.055C78.941 34.845 78.766 35.55 78.416 36.17C78.066 36.78 77.586 37.265 76.976 37.625C76.376 37.975 75.696 38.15 74.936 38.15ZM74.936 36.74C75.406 36.74 75.826 36.625 76.196 36.395C76.566 36.155 76.856 35.835 77.066 35.435C77.276 35.025 77.376 34.565 77.366 34.055C77.376 33.535 77.276 33.075 77.066 32.675C76.856 32.265 76.566 31.945 76.196 31.715C75.826 31.485 75.406 31.37 74.936 31.37C74.466 31.37 74.041 31.49 73.661 31.73C73.291 31.96 73.001 32.28 72.791 32.69C72.581 33.09 72.481 33.545 72.491 34.055C72.481 34.565 72.581 35.025 72.791 35.435C73.001 35.835 73.291 36.155 73.661 36.395C74.041 36.625 74.466 36.74 74.936 36.74ZM80.8245 38V30.125H82.3695V31.745L82.0995 31.925C82.1995 31.575 82.3945 31.255 82.6845 30.965C82.9745 30.665 83.3195 30.425 83.7195 30.245C84.1195 30.055 84.5295 29.96 84.9495 29.96C85.5495 29.96 86.0495 30.08 86.4495 30.32C86.8495 30.55 87.1495 30.905 87.3495 31.385C87.5495 31.865 87.6495 32.47 87.6495 33.2V38H86.1045V33.305C86.1045 32.855 86.0445 32.485 85.9245 32.195C85.8045 31.895 85.6195 31.68 85.3695 31.55C85.1195 31.41 84.8095 31.35 84.4395 31.37C84.1395 31.37 83.8645 31.42 83.6145 31.52C83.3645 31.61 83.1445 31.74 82.9545 31.91C82.7745 32.08 82.6295 32.28 82.5195 32.51C82.4195 32.73 82.3695 32.97 82.3695 33.23V38H81.6045C81.4745 38 81.3445 38 81.2145 38C81.0845 38 80.9545 38 80.8245 38Z" fill="#1E238E"/>
<path d="M107.499 30.9966V37.7635M107.499 26.4854V27.9891" stroke="#1E238E" stroke-width="1.5" stroke-linecap="round" stroke-linejoin="round"/>
<path d="M107.499 43.0263C113.312 43.0263 118.025 38.3135 118.025 32.4999C118.025 26.6864 113.312 21.9736 107.499 21.9736C101.685 21.9736 96.9727 26.6864 96.9727 32.4999C96.9727 38.3135 101.685 43.0263 107.499 43.0263Z" stroke="#1E238E" stroke-width="1.5" stroke-linecap="round" stroke-linejoin="round"/>
<defs>
<filter id="filter0_d_437_372" x="12.9727" y="60.7109" width="67" height="41" filterUnits="userSpaceOnUse" color-interpolation-filters="sRGB">
<feFlood flood-opacity="0" result="BackgroundImageFix"/>
<feColorMatrix in="SourceAlpha" type="matrix" values="0 0 0 0 0 0 0 0 0 0 0 0 0 0 0 0 0 0 127 0" result="hardAlpha"/>
<feOffset dy="4"/>
<feGaussianBlur stdDeviation="2"/>
<feComposite in2="hardAlpha" operator="out"/>
<feColorMatrix type="matrix" values="0 0 0 0 0 0 0 0 0 0 0 0 0 0 0 0 0 0 0.05 0"/>
<feBlend mode="normal" in2="BackgroundImageFix" result="effect1_dropShadow_437_372"/>
<feBlend mode="normal" in="SourceGraphic" in2="effect1_dropShadow_437_372" result="shape"/>
</filter>
<filter id="filter1_d_437_372" x="12.9727" y="117.711" width="137" height="41" filterUnits="userSpaceOnUse" color-interpolation-filters="sRGB">
<feFlood flood-opacity="0" result="BackgroundImageFix"/>
<feColorMatrix in="SourceAlpha" type="matrix" values="0 0 0 0 0 0 0 0 0 0 0 0 0 0 0 0 0 0 127 0" result="hardAlpha"/>
<feOffset dy="4"/>
<feGaussianBlur stdDeviation="2"/>
<feComposite in2="hardAlpha" operator="out"/>
<feColorMatrix type="matrix" values="0 0 0 0 0 0 0 0 0 0 0 0 0 0 0 0 0 0 0.05 0"/>
<feBlend mode="normal" in2="BackgroundImageFix" result="effect1_dropShadow_437_372"/>
<feBlend mode="normal" in="SourceGraphic" in2="effect1_dropShadow_437_372" result="shape"/>
</filter>
<filter id="filter2_d_437_372" x="257.973" y="117.711" width="71" height="41" filterUnits="userSpaceOnUse" color-interpolation-filters="sRGB">
<feFlood flood-opacity="0" result="BackgroundImageFix"/>
<feColorMatrix in="SourceAlpha" type="matrix" values="0 0 0 0 0 0 0 0 0 0 0 0 0 0 0 0 0 0 127 0" result="hardAlpha"/>
<feOffset dy="4"/>
<feGaussianBlur stdDeviation="2"/>
<feComposite in2="hardAlpha" operator="out"/>
<feColorMatrix type="matrix" values="0 0 0 0 0 0 0 0 0 0 0 0 0 0 0 0 0 0 0.05 0"/>
<feBlend mode="normal" in2="BackgroundImageFix" result="effect1_dropShadow_437_372"/>
<feBlend mode="normal" in="SourceGraphic" in2="effect1_dropShadow_437_372" result="shape"/>
</filter>
<filter id="filter3_d_437_372" x="158.973" y="117.711" width="91" height="41" filterUnits="userSpaceOnUse" color-interpolation-filters="sRGB">
<feFlood flood-opacity="0" result="BackgroundImageFix"/>
<feColorMatrix in="SourceAlpha" type="matrix" values="0 0 0 0 0 0 0 0 0 0 0 0 0 0 0 0 0 0 127 0" result="hardAlpha"/>
<feOffset dy="4"/>
<feGaussianBlur stdDeviation="2"/>
<feComposite in2="hardAlpha" operator="out"/>
<feColorMatrix type="matrix" values="0 0 0 0 0 0 0 0 0 0 0 0 0 0 0 0 0 0 0.05 0"/>
<feBlend mode="normal" in2="BackgroundImageFix" result="effect1_dropShadow_437_372"/>
<feBlend mode="normal" in="SourceGraphic" in2="effect1_dropShadow_437_372" result="shape"/>
</filter>
<filter id="filter4_d_437_372" x="12.6367" y="167.706" width="167" height="41" filterUnits="userSpaceOnUse" color-interpolation-filters="sRGB">
<feFlood flood-opacity="0" result="BackgroundImageFix"/>
<feColorMatrix in="SourceAlpha" type="matrix" values="0 0 0 0 0 0 0 0 0 0 0 0 0 0 0 0 0 0 127 0" result="hardAlpha"/>
<feOffset dy="4"/>
<feGaussianBlur stdDeviation="2"/>
<feComposite in2="hardAlpha" operator="out"/>
<feColorMatrix type="matrix" values="0 0 0 0 0 0 0 0 0 0 0 0 0 0 0 0 0 0 0.05 0"/>
<feBlend mode="normal" in2="BackgroundImageFix" result="effect1_dropShadow_437_372"/>
<feBlend mode="normal" in="SourceGraphic" in2="effect1_dropShadow_437_372" result="shape"/>
</filter>
<filter id="filter5_d_437_372" x="204.637" y="167.706" width="97" height="41" filterUnits="userSpaceOnUse" color-interpolation-filters="sRGB">
<feFlood flood-opacity="0" result="BackgroundImageFix"/>
<feColorMatrix in="SourceAlpha" type="matrix" values="0 0 0 0 0 0 0 0 0 0 0 0 0 0 0 0 0 0 127 0" result="hardAlpha"/>
<feOffset dy="4"/>
<feGaussianBlur stdDeviation="2"/>
<feComposite in2="hardAlpha" operator="out"/>
<feColorMatrix type="matrix" values="0 0 0 0 0 0 0 0 0 0 0 0 0 0 0 0 0 0 0.05 0"/>
<feBlend mode="normal" in2="BackgroundImageFix" result="effect1_dropShadow_437_372"/>
<feBlend mode="normal" in="SourceGraphic" in2="effect1_dropShadow_437_372" result="shape"/>
</filter>
<filter id="filter6_d_437_372" x="84.6367" y="60.7061" width="142" height="41" filterUnits="userSpaceOnUse" color-interpolation-filters="sRGB">
<feFlood flood-opacity="0" result="BackgroundImageFix"/>
<feColorMatrix in="SourceAlpha" type="matrix" values="0 0 0 0 0 0 0 0 0 0 0 0 0 0 0 0 0 0 127 0" result="hardAlpha"/>
<feOffset dy="4"/>
<feGaussianBlur stdDeviation="2"/>
<feComposite in2="hardAlpha" operator="out"/>
<feColorMatrix type="matrix" values="0 0 0 0 0 0 0 0 0 0 0 0 0 0 0 0 0 0 0.05 0"/>
<feBlend mode="normal" in2="BackgroundImageFix" result="effect1_dropShadow_437_372"/>
<feBlend mode="normal" in="SourceGraphic" in2="effect1_dropShadow_437_372" result="shape"/>
</filter>
</defs>
</svg>
