<svg width="390" height="311" viewBox="0 0 390 311" fill="none" xmlns="http://www.w3.org/2000/svg">
<g filter="url(#filter0_d_438_377)">
<rect x="21" width="350" height="201.247" rx="5" fill="white"/>
</g>
<path d="M45.47 40V29.5H49.58C50.33 29.5 51.005 29.625 51.605 29.875C52.215 30.125 52.735 30.485 53.165 30.955C53.595 31.425 53.925 31.98 54.155 32.62C54.385 33.26 54.5 33.97 54.5 34.75C54.5 35.53 54.385 36.245 54.155 36.895C53.925 37.535 53.595 38.09 53.165 38.56C52.745 39.02 52.23 39.375 51.62 39.625C51.01 39.875 50.33 40 49.58 40H45.47ZM47.09 38.605L47.045 38.44H49.505C50.035 38.44 50.505 38.355 50.915 38.185C51.335 38.015 51.685 37.775 51.965 37.465C52.255 37.145 52.475 36.755 52.625 36.295C52.775 35.835 52.85 35.32 52.85 34.75C52.85 34.18 52.775 33.67 52.625 33.22C52.475 32.76 52.255 32.37 51.965 32.05C51.675 31.73 51.325 31.485 50.915 31.315C50.505 31.145 50.035 31.06 49.505 31.06H47L47.09 30.925V38.605ZM60.1757 40.15C59.3657 40.15 58.6457 39.98 58.0157 39.64C57.3957 39.29 56.9057 38.815 56.5457 38.215C56.1957 37.615 56.0207 36.925 56.0207 36.145C56.0207 35.525 56.1207 34.96 56.3207 34.45C56.5207 33.94 56.7957 33.5 57.1457 33.13C57.5057 32.75 57.9307 32.46 58.4207 32.26C58.9207 32.05 59.4607 31.945 60.0407 31.945C60.5507 31.945 61.0257 32.045 61.4657 32.245C61.9057 32.435 62.2857 32.7 62.6057 33.04C62.9357 33.38 63.1857 33.785 63.3557 34.255C63.5357 34.715 63.6207 35.22 63.6107 35.77L63.5957 36.43H57.1607L56.8157 35.2H62.2607L62.0357 35.455V35.095C62.0057 34.765 61.8957 34.47 61.7057 34.21C61.5157 33.95 61.2757 33.745 60.9857 33.595C60.6957 33.445 60.3807 33.37 60.0407 33.37C59.5007 33.37 59.0457 33.475 58.6757 33.685C58.3057 33.885 58.0257 34.185 57.8357 34.585C57.6457 34.975 57.5507 35.46 57.5507 36.04C57.5507 36.59 57.6657 37.07 57.8957 37.48C58.1257 37.88 58.4507 38.19 58.8707 38.41C59.2907 38.63 59.7757 38.74 60.3257 38.74C60.7157 38.74 61.0757 38.675 61.4057 38.545C61.7457 38.415 62.1107 38.18 62.5007 37.84L63.2807 38.935C63.0407 39.175 62.7457 39.385 62.3957 39.565C62.0557 39.745 61.6907 39.89 61.3007 40C60.9207 40.1 60.5457 40.15 60.1757 40.15ZM65.5198 40V28.9H67.0648V40H65.5198ZM69.7094 40V32.125H71.2544V40H69.7094ZM70.4594 30.385C70.1294 30.385 69.8744 30.3 69.6944 30.13C69.5144 29.96 69.4244 29.72 69.4244 29.41C69.4244 29.12 69.5144 28.885 69.6944 28.705C69.8844 28.525 70.1394 28.435 70.4594 28.435C70.7894 28.435 71.0444 28.52 71.2244 28.69C71.4044 28.86 71.4944 29.1 71.4944 29.41C71.4944 29.7 71.3994 29.935 71.2094 30.115C71.0294 30.295 70.7794 30.385 70.4594 30.385ZM76.4092 40L73.0792 32.125H74.7442L77.1442 38.02L76.8592 38.155L79.4242 32.125H81.0142L77.5192 40H76.4092ZM86.0831 40.15C85.2731 40.15 84.5531 39.98 83.9231 39.64C83.3031 39.29 82.8131 38.815 82.4531 38.215C82.1031 37.615 81.9281 36.925 81.9281 36.145C81.9281 35.525 82.0281 34.96 82.2281 34.45C82.4281 33.94 82.7031 33.5 83.0531 33.13C83.4131 32.75 83.8381 32.46 84.3281 32.26C84.8281 32.05 85.3681 31.945 85.9481 31.945C86.4581 31.945 86.9331 32.045 87.3731 32.245C87.8131 32.435 88.1931 32.7 88.5131 33.04C88.8431 33.38 89.0931 33.785 89.2631 34.255C89.4431 34.715 89.5281 35.22 89.5181 35.77L89.5031 36.43H83.0681L82.7231 35.2H88.1681L87.9431 35.455V35.095C87.9131 34.765 87.8031 34.47 87.6131 34.21C87.4231 33.95 87.1831 33.745 86.8931 33.595C86.6031 33.445 86.2881 33.37 85.9481 33.37C85.4081 33.37 84.9531 33.475 84.5831 33.685C84.2131 33.885 83.9331 34.185 83.7431 34.585C83.5531 34.975 83.4581 35.46 83.4581 36.04C83.4581 36.59 83.5731 37.07 83.8031 37.48C84.0331 37.88 84.3581 38.19 84.7781 38.41C85.1981 38.63 85.6831 38.74 86.2331 38.74C86.6231 38.74 86.9831 38.675 87.3131 38.545C87.6531 38.415 88.0181 38.18 88.4081 37.84L89.1881 38.935C88.9481 39.175 88.6531 39.385 88.3031 39.565C87.9631 39.745 87.5981 39.89 87.2081 40C86.8281 40.1 86.4531 40.15 86.0831 40.15ZM91.3972 40V32.125H92.9572V34.6L92.8072 34C92.9172 33.62 93.1022 33.275 93.3622 32.965C93.6322 32.655 93.9372 32.41 94.2772 32.23C94.6272 32.05 94.9872 31.96 95.3572 31.96C95.5272 31.96 95.6872 31.975 95.8372 32.005C95.9972 32.035 96.1222 32.07 96.2122 32.11L95.8072 33.79C95.6872 33.74 95.5522 33.7 95.4022 33.67C95.2622 33.63 95.1222 33.61 94.9822 33.61C94.7122 33.61 94.4522 33.665 94.2022 33.775C93.9622 33.875 93.7472 34.02 93.5572 34.21C93.3772 34.39 93.2322 34.605 93.1222 34.855C93.0122 35.095 92.9572 35.36 92.9572 35.65V40H91.3972ZM98.967 43.45L100.557 39.775L100.572 41.005L96.642 32.125H98.442L100.902 37.915C100.952 38.015 101.012 38.17 101.082 38.38C101.152 38.58 101.212 38.78 101.262 38.98L100.872 39.07C100.952 38.86 101.027 38.65 101.097 38.44C101.177 38.23 101.252 38.02 101.322 37.81L103.377 32.125H105.207L101.967 40L100.632 43.45H98.967Z" fill="#1E238E"/>
<path d="M131.088 31.585V38.3519M131.088 27.0737V28.5775" stroke="#1E238E" stroke-width="1.5" stroke-linecap="round" stroke-linejoin="round"/>
<path d="M131.062 43.5625C136.861 43.5625 141.562 38.8615 141.562 33.0625C141.562 27.2635 136.861 22.5625 131.062 22.5625C125.264 22.5625 120.562 27.2635 120.562 33.0625C120.562 38.8615 125.264 43.5625 131.062 43.5625Z" stroke="#1E238E" stroke-width="1.5" stroke-linecap="round" stroke-linejoin="round"/>
<path d="M45.545 86V75.5H49.505C50.225 75.5 50.88 75.63 51.47 75.89C52.07 76.14 52.59 76.5 53.03 76.97C53.47 77.44 53.81 77.995 54.05 78.635C54.29 79.275 54.41 79.98 54.41 80.75C54.41 81.52 54.29 82.23 54.05 82.88C53.81 83.52 53.47 84.075 53.03 84.545C52.6 85.005 52.085 85.365 51.485 85.625C50.885 85.875 50.225 86 49.505 86H45.545ZM46.715 85.07L46.58 84.86H49.43C49.98 84.86 50.485 84.765 50.945 84.575C51.415 84.375 51.815 84.095 52.145 83.735C52.485 83.365 52.745 82.93 52.925 82.43C53.115 81.93 53.21 81.37 53.21 80.75C53.21 80.13 53.115 79.57 52.925 79.07C52.745 78.57 52.485 78.14 52.145 77.78C51.805 77.41 51.405 77.13 50.945 76.94C50.485 76.74 49.98 76.64 49.43 76.64H46.535L46.715 76.46V85.07ZM59.8925 86.15C59.1125 86.15 58.4175 85.98 57.8075 85.64C57.2075 85.3 56.7375 84.825 56.3975 84.215C56.0575 83.605 55.8875 82.905 55.8875 82.115C55.8875 81.505 55.9825 80.955 56.1725 80.465C56.3625 79.965 56.6275 79.53 56.9675 79.16C57.3175 78.79 57.7325 78.505 58.2125 78.305C58.6925 78.095 59.2125 77.99 59.7725 77.99C60.3025 77.99 60.7825 78.085 61.2125 78.275C61.6525 78.465 62.0275 78.73 62.3375 79.07C62.6575 79.4 62.8975 79.795 63.0575 80.255C63.2175 80.715 63.2875 81.22 63.2675 81.77L63.2525 82.295H56.7275L56.5625 81.35H62.3975L62.1275 81.605V81.245C62.1075 80.885 62.0025 80.54 61.8125 80.21C61.6225 79.87 61.3525 79.595 61.0025 79.385C60.6625 79.175 60.2525 79.07 59.7725 79.07C59.2125 79.07 58.7275 79.185 58.3175 79.415C57.9075 79.635 57.5925 79.965 57.3725 80.405C57.1525 80.845 57.0425 81.39 57.0425 82.04C57.0425 82.66 57.1625 83.2 57.4025 83.66C57.6425 84.11 57.9825 84.46 58.4225 84.71C58.8725 84.96 59.4125 85.085 60.0425 85.085C60.4125 85.085 60.7775 85.025 61.1375 84.905C61.5075 84.775 61.9125 84.525 62.3525 84.155L62.9375 84.965C62.7075 85.195 62.4325 85.4 62.1125 85.58C61.7925 85.75 61.4425 85.89 61.0625 86C60.6825 86.1 60.2925 86.15 59.8925 86.15ZM65.0953 86V74.9H66.2203V86H65.0953ZM68.9345 86V78.17H70.0595V86H68.9345ZM69.4895 76.475C69.2095 76.475 68.9945 76.405 68.8445 76.265C68.7045 76.115 68.6345 75.915 68.6345 75.665C68.6345 75.415 68.7095 75.215 68.8595 75.065C69.0095 74.915 69.2195 74.84 69.4895 74.84C69.7595 74.84 69.9695 74.915 70.1195 75.065C70.2695 75.205 70.3445 75.405 70.3445 75.665C70.3445 75.905 70.2695 76.1 70.1195 76.25C69.9695 76.4 69.7595 76.475 69.4895 76.475ZM75.1463 86L71.8463 78.17H73.0913L75.7013 84.575L75.4013 84.74L78.2663 78.17H79.4663L75.9563 86H75.1463ZM84.2179 86.15C83.4379 86.15 82.7429 85.98 82.1329 85.64C81.5329 85.3 81.0629 84.825 80.7229 84.215C80.3829 83.605 80.2129 82.905 80.2129 82.115C80.2129 81.505 80.3079 80.955 80.4979 80.465C80.6879 79.965 80.9529 79.53 81.2929 79.16C81.6429 78.79 82.0579 78.505 82.5379 78.305C83.0179 78.095 83.5379 77.99 84.0979 77.99C84.6279 77.99 85.1079 78.085 85.5379 78.275C85.9779 78.465 86.3529 78.73 86.6629 79.07C86.9829 79.4 87.2229 79.795 87.3829 80.255C87.5429 80.715 87.6129 81.22 87.5929 81.77L87.5779 82.295H81.0529L80.8879 81.35H86.7229L86.4529 81.605V81.245C86.4329 80.885 86.3279 80.54 86.1379 80.21C85.9479 79.87 85.6779 79.595 85.3279 79.385C84.9879 79.175 84.5779 79.07 84.0979 79.07C83.5379 79.07 83.0529 79.185 82.6429 79.415C82.2329 79.635 81.9179 79.965 81.6979 80.405C81.4779 80.845 81.3679 81.39 81.3679 82.04C81.3679 82.66 81.4879 83.2 81.7279 83.66C81.9679 84.11 82.3079 84.46 82.7479 84.71C83.1979 84.96 83.7379 85.085 84.3679 85.085C84.7379 85.085 85.1029 85.025 85.4629 84.905C85.8329 84.775 86.2379 84.525 86.6779 84.155L87.2629 84.965C87.0329 85.195 86.7579 85.4 86.4379 85.58C86.1179 85.75 85.7679 85.89 85.3879 86C85.0079 86.1 84.6179 86.15 84.2179 86.15ZM89.3907 86V78.17H90.5157L90.5457 80.255L90.4257 79.97C90.5357 79.62 90.7107 79.295 90.9507 78.995C91.2007 78.695 91.4957 78.455 91.8357 78.275C92.1757 78.095 92.5507 78.005 92.9607 78.005C93.1307 78.005 93.2907 78.02 93.4407 78.05C93.5907 78.07 93.7157 78.1 93.8157 78.14L93.5007 79.4C93.3707 79.34 93.2357 79.3 93.0957 79.28C92.9657 79.25 92.8407 79.235 92.7207 79.235C92.3807 79.235 92.0757 79.295 91.8057 79.415C91.5357 79.535 91.3057 79.705 91.1157 79.925C90.9257 80.135 90.7807 80.38 90.6807 80.66C90.5807 80.94 90.5307 81.24 90.5307 81.56V86H89.3907ZM96.5064 89.45L98.0214 85.76L98.1264 86.825L94.1964 78.17H95.4714L98.1564 84.17C98.2364 84.33 98.3164 84.52 98.3964 84.74C98.4764 84.95 98.5514 85.16 98.6214 85.37L98.2014 85.325C98.2714 85.155 98.3364 84.98 98.3964 84.8C98.4664 84.62 98.5314 84.445 98.5914 84.275L100.946 78.17H102.236L99.0714 86L97.7214 89.45H96.5064ZM111.488 86.15C110.708 86.15 110.013 85.975 109.403 85.625C108.803 85.275 108.328 84.79 107.978 84.17C107.638 83.55 107.468 82.845 107.468 82.055C107.468 81.275 107.638 80.58 107.978 79.97C108.328 79.36 108.803 78.88 109.403 78.53C110.013 78.18 110.708 78.005 111.488 78.005C112.258 78.005 112.943 78.18 113.543 78.53C114.153 78.88 114.628 79.36 114.968 79.97C115.318 80.58 115.493 81.275 115.493 82.055C115.493 82.845 115.318 83.55 114.968 84.17C114.628 84.79 114.153 85.275 113.543 85.625C112.943 85.975 112.258 86.15 111.488 86.15ZM111.488 85.085C112.038 85.085 112.528 84.955 112.958 84.695C113.388 84.425 113.723 84.065 113.963 83.615C114.203 83.155 114.323 82.635 114.323 82.055C114.323 81.475 114.203 80.96 113.963 80.51C113.723 80.06 113.388 79.71 112.958 79.46C112.528 79.2 112.038 79.07 111.488 79.07C110.938 79.07 110.443 79.2 110.003 79.46C109.573 79.71 109.233 80.065 108.983 80.525C108.743 80.975 108.628 81.485 108.638 82.055C108.628 82.635 108.743 83.155 108.983 83.615C109.233 84.065 109.573 84.425 110.003 84.695C110.443 84.955 110.938 85.085 111.488 85.085ZM117.941 86V76.955C117.941 76.565 118.026 76.22 118.196 75.92C118.366 75.62 118.606 75.385 118.916 75.215C119.236 75.035 119.606 74.945 120.026 74.945C120.346 74.945 120.631 75.005 120.881 75.125C121.141 75.235 121.356 75.39 121.526 75.59L121.136 76.475C120.976 76.305 120.801 76.185 120.611 76.115C120.431 76.035 120.256 75.995 120.086 75.995C119.866 75.995 119.681 76.035 119.531 76.115C119.381 76.185 119.266 76.295 119.186 76.445C119.116 76.585 119.081 76.755 119.081 76.955V86H118.556C118.446 86 118.341 86 118.241 86C118.141 86 118.041 86 117.941 86ZM116.546 79.28V78.23H121.076V79.28H116.546ZM123.611 86V76.955C123.611 76.565 123.696 76.22 123.866 75.92C124.036 75.62 124.276 75.385 124.586 75.215C124.906 75.035 125.276 74.945 125.696 74.945C126.016 74.945 126.301 75.005 126.551 75.125C126.811 75.235 127.026 75.39 127.196 75.59L126.806 76.475C126.646 76.305 126.471 76.185 126.281 76.115C126.101 76.035 125.926 75.995 125.756 75.995C125.536 75.995 125.351 76.035 125.201 76.115C125.051 76.185 124.936 76.295 124.856 76.445C124.786 76.585 124.751 76.755 124.751 76.955V86H124.226C124.116 86 124.011 86 123.911 86C123.811 86 123.711 86 123.611 86ZM122.216 79.28V78.23H126.746V79.28H122.216ZM131.736 86.15C130.956 86.15 130.261 85.98 129.651 85.64C129.051 85.3 128.581 84.825 128.241 84.215C127.901 83.605 127.731 82.905 127.731 82.115C127.731 81.505 127.826 80.955 128.016 80.465C128.206 79.965 128.471 79.53 128.811 79.16C129.161 78.79 129.576 78.505 130.056 78.305C130.536 78.095 131.056 77.99 131.616 77.99C132.146 77.99 132.626 78.085 133.056 78.275C133.496 78.465 133.871 78.73 134.181 79.07C134.501 79.4 134.741 79.795 134.901 80.255C135.061 80.715 135.131 81.22 135.111 81.77L135.096 82.295H128.571L128.406 81.35H134.241L133.971 81.605V81.245C133.951 80.885 133.846 80.54 133.656 80.21C133.466 79.87 133.196 79.595 132.846 79.385C132.506 79.175 132.096 79.07 131.616 79.07C131.056 79.07 130.571 79.185 130.161 79.415C129.751 79.635 129.436 79.965 129.216 80.405C128.996 80.845 128.886 81.39 128.886 82.04C128.886 82.66 129.006 83.2 129.246 83.66C129.486 84.11 129.826 84.46 130.266 84.71C130.716 84.96 131.256 85.085 131.886 85.085C132.256 85.085 132.621 85.025 132.981 84.905C133.351 84.775 133.756 84.525 134.196 84.155L134.781 84.965C134.551 85.195 134.276 85.4 133.956 85.58C133.636 85.75 133.286 85.89 132.906 86C132.526 86.1 132.136 86.15 131.736 86.15ZM136.909 86V78.17H138.034L138.064 80.255L137.944 79.97C138.054 79.62 138.229 79.295 138.469 78.995C138.719 78.695 139.014 78.455 139.354 78.275C139.694 78.095 140.069 78.005 140.479 78.005C140.649 78.005 140.809 78.02 140.959 78.05C141.109 78.07 141.234 78.1 141.334 78.14L141.019 79.4C140.889 79.34 140.754 79.3 140.614 79.28C140.484 79.25 140.359 79.235 140.239 79.235C139.899 79.235 139.594 79.295 139.324 79.415C139.054 79.535 138.824 79.705 138.634 79.925C138.444 80.135 138.299 80.38 138.199 80.66C138.099 80.94 138.049 81.24 138.049 81.56V86H136.909ZM145.818 86.15C145.038 86.15 144.343 85.98 143.733 85.64C143.133 85.3 142.663 84.825 142.323 84.215C141.983 83.605 141.813 82.905 141.813 82.115C141.813 81.505 141.908 80.955 142.098 80.465C142.288 79.965 142.553 79.53 142.893 79.16C143.243 78.79 143.658 78.505 144.138 78.305C144.618 78.095 145.138 77.99 145.698 77.99C146.228 77.99 146.708 78.085 147.138 78.275C147.578 78.465 147.953 78.73 148.263 79.07C148.583 79.4 148.823 79.795 148.983 80.255C149.143 80.715 149.213 81.22 149.193 81.77L149.178 82.295H142.653L142.488 81.35H148.323L148.053 81.605V81.245C148.033 80.885 147.928 80.54 147.738 80.21C147.548 79.87 147.278 79.595 146.928 79.385C146.588 79.175 146.178 79.07 145.698 79.07C145.138 79.07 144.653 79.185 144.243 79.415C143.833 79.635 143.518 79.965 143.298 80.405C143.078 80.845 142.968 81.39 142.968 82.04C142.968 82.66 143.088 83.2 143.328 83.66C143.568 84.11 143.908 84.46 144.348 84.71C144.798 84.96 145.338 85.085 145.968 85.085C146.338 85.085 146.703 85.025 147.063 84.905C147.433 84.775 147.838 84.525 148.278 84.155L148.863 84.965C148.633 85.195 148.358 85.4 148.038 85.58C147.718 85.75 147.368 85.89 146.988 86C146.608 86.1 146.218 86.15 145.818 86.15ZM154.171 86.15C153.461 86.15 152.821 85.975 152.251 85.625C151.691 85.275 151.246 84.795 150.916 84.185C150.596 83.565 150.436 82.865 150.436 82.085C150.436 81.295 150.601 80.595 150.931 79.985C151.261 79.365 151.706 78.88 152.266 78.53C152.826 78.18 153.456 78.005 154.156 78.005C154.546 78.005 154.921 78.065 155.281 78.185C155.651 78.305 155.981 78.475 156.271 78.695C156.561 78.905 156.801 79.15 156.991 79.43C157.181 79.7 157.296 79.985 157.336 80.285L156.991 80.165V74.9H158.116V86H157.006L156.976 84.05L157.261 83.945C157.221 84.225 157.106 84.5 156.916 84.77C156.736 85.03 156.506 85.265 156.226 85.475C155.946 85.685 155.626 85.85 155.266 85.97C154.916 86.09 154.551 86.15 154.171 86.15ZM154.336 85.115C154.856 85.115 155.321 84.985 155.731 84.725C156.141 84.465 156.461 84.105 156.691 83.645C156.931 83.185 157.051 82.66 157.051 82.07C157.051 81.48 156.931 80.96 156.691 80.51C156.461 80.05 156.141 79.69 155.731 79.43C155.321 79.16 154.856 79.025 154.336 79.025C153.796 79.025 153.321 79.16 152.911 79.43C152.511 79.69 152.191 80.05 151.951 80.51C151.721 80.96 151.606 81.48 151.606 82.07C151.606 82.65 151.721 83.17 151.951 83.63C152.181 84.09 152.501 84.455 152.911 84.725C153.321 84.985 153.796 85.115 154.336 85.115ZM168.886 86.15C168.516 86.15 168.156 86.095 167.806 85.985C167.456 85.865 167.136 85.705 166.846 85.505C166.566 85.305 166.326 85.075 166.126 84.815C165.936 84.555 165.806 84.285 165.736 84.005L166.066 84.02L166.021 85.985H164.911V74.9H166.036V80.045L165.811 80.105C165.881 79.825 166.006 79.56 166.186 79.31C166.376 79.05 166.611 78.825 166.891 78.635C167.171 78.435 167.476 78.28 167.806 78.17C168.146 78.06 168.496 78.005 168.856 78.005C169.556 78.005 170.181 78.18 170.731 78.53C171.291 78.88 171.736 79.36 172.066 79.97C172.396 80.58 172.561 81.28 172.561 82.07C172.561 82.86 172.401 83.565 172.081 84.185C171.761 84.795 171.321 85.275 170.761 85.625C170.211 85.975 169.586 86.15 168.886 86.15ZM168.706 85.085C169.236 85.085 169.706 84.955 170.116 84.695C170.526 84.425 170.846 84.065 171.076 83.615C171.316 83.155 171.436 82.64 171.436 82.07C171.436 81.49 171.316 80.975 171.076 80.525C170.846 80.075 170.526 79.72 170.116 79.46C169.706 79.2 169.236 79.07 168.706 79.07C168.176 79.07 167.706 79.2 167.296 79.46C166.886 79.72 166.561 80.075 166.321 80.525C166.091 80.975 165.976 81.49 165.976 82.07C165.976 82.65 166.091 83.17 166.321 83.63C166.561 84.08 166.886 84.435 167.296 84.695C167.706 84.955 168.176 85.085 168.706 85.085ZM175.425 89.45L176.94 85.76L177.045 86.825L173.115 78.17H174.39L177.075 84.17C177.155 84.33 177.235 84.52 177.315 84.74C177.395 84.95 177.47 85.16 177.54 85.37L177.12 85.325C177.19 85.155 177.255 84.98 177.315 84.8C177.385 84.62 177.45 84.445 177.51 84.275L179.865 78.17H181.155L177.99 86L176.64 89.45H175.425ZM190.407 86.15C189.627 86.15 188.932 85.975 188.322 85.625C187.722 85.275 187.247 84.79 186.897 84.17C186.557 83.55 186.387 82.845 186.387 82.055C186.387 81.275 186.557 80.58 186.897 79.97C187.247 79.36 187.722 78.88 188.322 78.53C188.932 78.18 189.627 78.005 190.407 78.005C191.177 78.005 191.862 78.18 192.462 78.53C193.072 78.88 193.547 79.36 193.887 79.97C194.237 80.58 194.412 81.275 194.412 82.055C194.412 82.845 194.237 83.55 193.887 84.17C193.547 84.79 193.072 85.275 192.462 85.625C191.862 85.975 191.177 86.15 190.407 86.15ZM190.407 85.085C190.957 85.085 191.447 84.955 191.877 84.695C192.307 84.425 192.642 84.065 192.882 83.615C193.122 83.155 193.242 82.635 193.242 82.055C193.242 81.475 193.122 80.96 192.882 80.51C192.642 80.06 192.307 79.71 191.877 79.46C191.447 79.2 190.957 79.07 190.407 79.07C189.857 79.07 189.362 79.2 188.922 79.46C188.492 79.71 188.152 80.065 187.902 80.525C187.662 80.975 187.547 81.485 187.557 82.055C187.547 82.635 187.662 83.155 187.902 83.615C188.152 84.065 188.492 84.425 188.922 84.695C189.362 84.955 189.857 85.085 190.407 85.085ZM197.805 86L195.09 78.17L196.29 78.155L198.405 84.53L198.03 84.5L200.325 79.37H201L203.31 84.5L202.86 84.53L205.02 78.17H206.205L203.49 86H202.83L200.4 80.42L200.85 80.45L198.495 86H197.805ZM207.732 86V78.17H208.842L208.887 79.805L208.707 79.88C208.807 79.54 209.002 79.23 209.292 78.95C209.582 78.67 209.927 78.445 210.327 78.275C210.737 78.095 211.157 78.005 211.587 78.005C212.167 78.005 212.652 78.12 213.042 78.35C213.432 78.58 213.727 78.935 213.927 79.415C214.127 79.895 214.227 80.505 214.227 81.245V86H213.087V81.305C213.087 80.785 213.017 80.36 212.877 80.03C212.747 79.69 212.542 79.44 212.262 79.28C211.982 79.12 211.637 79.045 211.227 79.055C210.887 79.055 210.572 79.115 210.282 79.235C209.992 79.345 209.742 79.5 209.532 79.7C209.322 79.9 209.157 80.13 209.037 80.39C208.917 80.65 208.857 80.93 208.857 81.23V86H208.302C208.232 86 208.152 86 208.062 86C207.972 86 207.862 86 207.732 86ZM220.025 86.15C219.245 86.15 218.55 85.98 217.94 85.64C217.34 85.3 216.87 84.825 216.53 84.215C216.19 83.605 216.02 82.905 216.02 82.115C216.02 81.505 216.115 80.955 216.305 80.465C216.495 79.965 216.76 79.53 217.1 79.16C217.45 78.79 217.865 78.505 218.345 78.305C218.825 78.095 219.345 77.99 219.905 77.99C220.435 77.99 220.915 78.085 221.345 78.275C221.785 78.465 222.16 78.73 222.47 79.07C222.79 79.4 223.03 79.795 223.19 80.255C223.35 80.715 223.42 81.22 223.4 81.77L223.385 82.295H216.86L216.695 81.35H222.53L222.26 81.605V81.245C222.24 80.885 222.135 80.54 221.945 80.21C221.755 79.87 221.485 79.595 221.135 79.385C220.795 79.175 220.385 79.07 219.905 79.07C219.345 79.07 218.86 79.185 218.45 79.415C218.04 79.635 217.725 79.965 217.505 80.405C217.285 80.845 217.175 81.39 217.175 82.04C217.175 82.66 217.295 83.2 217.535 83.66C217.775 84.11 218.115 84.46 218.555 84.71C219.005 84.96 219.545 85.085 220.175 85.085C220.545 85.085 220.91 85.025 221.27 84.905C221.64 84.775 222.045 84.525 222.485 84.155L223.07 84.965C222.84 85.195 222.565 85.4 222.245 85.58C221.925 85.75 221.575 85.89 221.195 86C220.815 86.1 220.425 86.15 220.025 86.15ZM225.198 86V78.17H226.323L226.353 80.255L226.233 79.97C226.343 79.62 226.518 79.295 226.758 78.995C227.008 78.695 227.303 78.455 227.643 78.275C227.983 78.095 228.358 78.005 228.768 78.005C228.938 78.005 229.098 78.02 229.248 78.05C229.398 78.07 229.523 78.1 229.623 78.14L229.308 79.4C229.178 79.34 229.043 79.3 228.903 79.28C228.773 79.25 228.648 79.235 228.528 79.235C228.188 79.235 227.883 79.295 227.613 79.415C227.343 79.535 227.113 79.705 226.923 79.925C226.733 80.135 226.588 80.38 226.488 80.66C226.388 80.94 226.338 81.24 226.338 81.56V86H225.198Z" fill="#1E238E"/>
<path d="M45.545 127V116.5H49.505C50.225 116.5 50.88 116.63 51.47 116.89C52.07 117.14 52.59 117.5 53.03 117.97C53.47 118.44 53.81 118.995 54.05 119.635C54.29 120.275 54.41 120.98 54.41 121.75C54.41 122.52 54.29 123.23 54.05 123.88C53.81 124.52 53.47 125.075 53.03 125.545C52.6 126.005 52.085 126.365 51.485 126.625C50.885 126.875 50.225 127 49.505 127H45.545ZM46.715 126.07L46.58 125.86H49.43C49.98 125.86 50.485 125.765 50.945 125.575C51.415 125.375 51.815 125.095 52.145 124.735C52.485 124.365 52.745 123.93 52.925 123.43C53.115 122.93 53.21 122.37 53.21 121.75C53.21 121.13 53.115 120.57 52.925 120.07C52.745 119.57 52.485 119.14 52.145 118.78C51.805 118.41 51.405 118.13 50.945 117.94C50.485 117.74 49.98 117.64 49.43 117.64H46.535L46.715 117.46V126.07ZM59.8925 127.15C59.1125 127.15 58.4175 126.98 57.8075 126.64C57.2075 126.3 56.7375 125.825 56.3975 125.215C56.0575 124.605 55.8875 123.905 55.8875 123.115C55.8875 122.505 55.9825 121.955 56.1725 121.465C56.3625 120.965 56.6275 120.53 56.9675 120.16C57.3175 119.79 57.7325 119.505 58.2125 119.305C58.6925 119.095 59.2125 118.99 59.7725 118.99C60.3025 118.99 60.7825 119.085 61.2125 119.275C61.6525 119.465 62.0275 119.73 62.3375 120.07C62.6575 120.4 62.8975 120.795 63.0575 121.255C63.2175 121.715 63.2875 122.22 63.2675 122.77L63.2525 123.295H56.7275L56.5625 122.35H62.3975L62.1275 122.605V122.245C62.1075 121.885 62.0025 121.54 61.8125 121.21C61.6225 120.87 61.3525 120.595 61.0025 120.385C60.6625 120.175 60.2525 120.07 59.7725 120.07C59.2125 120.07 58.7275 120.185 58.3175 120.415C57.9075 120.635 57.5925 120.965 57.3725 121.405C57.1525 121.845 57.0425 122.39 57.0425 123.04C57.0425 123.66 57.1625 124.2 57.4025 124.66C57.6425 125.11 57.9825 125.46 58.4225 125.71C58.8725 125.96 59.4125 126.085 60.0425 126.085C60.4125 126.085 60.7775 126.025 61.1375 125.905C61.5075 125.775 61.9125 125.525 62.3525 125.155L62.9375 125.965C62.7075 126.195 62.4325 126.4 62.1125 126.58C61.7925 126.75 61.4425 126.89 61.0625 127C60.6825 127.1 60.2925 127.15 59.8925 127.15ZM65.0953 127V115.9H66.2203V127H65.0953ZM68.9345 127V119.17H70.0595V127H68.9345ZM69.4895 117.475C69.2095 117.475 68.9945 117.405 68.8445 117.265C68.7045 117.115 68.6345 116.915 68.6345 116.665C68.6345 116.415 68.7095 116.215 68.8595 116.065C69.0095 115.915 69.2195 115.84 69.4895 115.84C69.7595 115.84 69.9695 115.915 70.1195 116.065C70.2695 116.205 70.3445 116.405 70.3445 116.665C70.3445 116.905 70.2695 117.1 70.1195 117.25C69.9695 117.4 69.7595 117.475 69.4895 117.475ZM75.1463 127L71.8463 119.17H73.0913L75.7013 125.575L75.4013 125.74L78.2663 119.17H79.4663L75.9563 127H75.1463ZM84.2179 127.15C83.4379 127.15 82.7429 126.98 82.1329 126.64C81.5329 126.3 81.0629 125.825 80.7229 125.215C80.3829 124.605 80.2129 123.905 80.2129 123.115C80.2129 122.505 80.3079 121.955 80.4979 121.465C80.6879 120.965 80.9529 120.53 81.2929 120.16C81.6429 119.79 82.0579 119.505 82.5379 119.305C83.0179 119.095 83.5379 118.99 84.0979 118.99C84.6279 118.99 85.1079 119.085 85.5379 119.275C85.9779 119.465 86.3529 119.73 86.6629 120.07C86.9829 120.4 87.2229 120.795 87.3829 121.255C87.5429 121.715 87.6129 122.22 87.5929 122.77L87.5779 123.295H81.0529L80.8879 122.35H86.7229L86.4529 122.605V122.245C86.4329 121.885 86.3279 121.54 86.1379 121.21C85.9479 120.87 85.6779 120.595 85.3279 120.385C84.9879 120.175 84.5779 120.07 84.0979 120.07C83.5379 120.07 83.0529 120.185 82.6429 120.415C82.2329 120.635 81.9179 120.965 81.6979 121.405C81.4779 121.845 81.3679 122.39 81.3679 123.04C81.3679 123.66 81.4879 124.2 81.7279 124.66C81.9679 125.11 82.3079 125.46 82.7479 125.71C83.1979 125.96 83.7379 126.085 84.3679 126.085C84.7379 126.085 85.1029 126.025 85.4629 125.905C85.8329 125.775 86.2379 125.525 86.6779 125.155L87.2629 125.965C87.0329 126.195 86.7579 126.4 86.4379 126.58C86.1179 126.75 85.7679 126.89 85.3879 127C85.0079 127.1 84.6179 127.15 84.2179 127.15ZM89.3907 127V119.17H90.5157L90.5457 121.255L90.4257 120.97C90.5357 120.62 90.7107 120.295 90.9507 119.995C91.2007 119.695 91.4957 119.455 91.8357 119.275C92.1757 119.095 92.5507 119.005 92.9607 119.005C93.1307 119.005 93.2907 119.02 93.4407 119.05C93.5907 119.07 93.7157 119.1 93.8157 119.14L93.5007 120.4C93.3707 120.34 93.2357 120.3 93.0957 120.28C92.9657 120.25 92.8407 120.235 92.7207 120.235C92.3807 120.235 92.0757 120.295 91.8057 120.415C91.5357 120.535 91.3057 120.705 91.1157 120.925C90.9257 121.135 90.7807 121.38 90.6807 121.66C90.5807 121.94 90.5307 122.24 90.5307 122.56V127H89.3907ZM96.5064 130.45L98.0214 126.76L98.1264 127.825L94.1964 119.17H95.4714L98.1564 125.17C98.2364 125.33 98.3164 125.52 98.3964 125.74C98.4764 125.95 98.5514 126.16 98.6214 126.37L98.2014 126.325C98.2714 126.155 98.3364 125.98 98.3964 125.8C98.4664 125.62 98.5314 125.445 98.5914 125.275L100.946 119.17H102.236L99.0714 127L97.7214 130.45H96.5064ZM110.588 127.15C109.918 127.15 109.318 127.025 108.788 126.775C108.258 126.525 107.838 126.195 107.528 125.785L108.323 125.095C108.613 125.445 108.953 125.71 109.343 125.89C109.743 126.07 110.188 126.16 110.678 126.16C110.928 126.16 111.153 126.135 111.353 126.085C111.553 126.025 111.728 125.94 111.878 125.83C112.028 125.72 112.143 125.59 112.223 125.44C112.303 125.29 112.343 125.125 112.343 124.945C112.343 124.615 112.198 124.34 111.908 124.12C111.778 124.03 111.593 123.94 111.353 123.85C111.113 123.75 110.823 123.655 110.483 123.565C109.923 123.405 109.458 123.245 109.088 123.085C108.718 122.915 108.428 122.72 108.218 122.5C108.068 122.32 107.953 122.125 107.873 121.915C107.803 121.705 107.768 121.475 107.768 121.225C107.768 120.905 107.833 120.61 107.963 120.34C108.103 120.07 108.293 119.835 108.533 119.635C108.783 119.425 109.073 119.27 109.403 119.17C109.743 119.06 110.108 119.005 110.498 119.005C110.868 119.005 111.233 119.055 111.593 119.155C111.953 119.255 112.288 119.4 112.598 119.59C112.908 119.78 113.173 120.005 113.393 120.265L112.703 121.015C112.513 120.815 112.303 120.635 112.073 120.475C111.843 120.315 111.598 120.19 111.338 120.1C111.088 120.01 110.828 119.965 110.558 119.965C110.318 119.965 110.093 119.995 109.883 120.055C109.683 120.115 109.508 120.2 109.358 120.31C109.218 120.41 109.108 120.535 109.028 120.685C108.958 120.835 108.923 121 108.923 121.18C108.923 121.33 108.953 121.465 109.013 121.585C109.073 121.705 109.158 121.81 109.268 121.9C109.408 122.01 109.603 122.115 109.853 122.215C110.113 122.305 110.433 122.4 110.813 122.5C111.253 122.62 111.623 122.745 111.923 122.875C112.233 122.995 112.488 123.14 112.688 123.31C112.958 123.51 113.148 123.74 113.258 124C113.378 124.26 113.438 124.555 113.438 124.885C113.438 125.325 113.313 125.715 113.063 126.055C112.823 126.395 112.488 126.665 112.058 126.865C111.628 127.055 111.138 127.15 110.588 127.15ZM118.176 127.15C117.576 127.15 117.066 127.03 116.646 126.79C116.236 126.54 115.921 126.18 115.701 125.71C115.491 125.24 115.386 124.655 115.386 123.955V119.17H116.526V123.73C116.526 124.26 116.596 124.705 116.736 125.065C116.886 125.415 117.106 125.68 117.396 125.86C117.696 126.04 118.061 126.13 118.491 126.13C118.821 126.13 119.126 126.075 119.406 125.965C119.686 125.845 119.931 125.685 120.141 125.485C120.351 125.285 120.516 125.05 120.636 124.78C120.756 124.51 120.816 124.225 120.816 123.925V119.17H121.941V127H120.831L120.786 125.35L120.966 125.26C120.846 125.61 120.646 125.93 120.366 126.22C120.086 126.5 119.751 126.725 119.361 126.895C118.981 127.065 118.586 127.15 118.176 127.15ZM127.56 130.45C126.98 130.45 126.43 130.36 125.91 130.18C125.39 130 124.96 129.775 124.62 129.505L125.07 128.56C125.27 128.72 125.5 128.86 125.76 128.98C126.03 129.11 126.32 129.21 126.63 129.28C126.94 129.36 127.255 129.4 127.575 129.4C128.155 129.4 128.645 129.29 129.045 129.07C129.455 128.86 129.765 128.545 129.975 128.125C130.195 127.705 130.305 127.185 130.305 126.565V125.065L130.485 125.02C130.395 125.4 130.2 125.755 129.9 126.085C129.6 126.405 129.235 126.665 128.805 126.865C128.375 127.055 127.92 127.15 127.44 127.15C126.71 127.15 126.055 126.975 125.475 126.625C124.905 126.275 124.455 125.795 124.125 125.185C123.795 124.565 123.63 123.865 123.63 123.085C123.63 122.295 123.795 121.595 124.125 120.985C124.465 120.365 124.92 119.88 125.49 119.53C126.06 119.18 126.7 119.005 127.41 119.005C127.72 119.005 128.02 119.045 128.31 119.125C128.6 119.195 128.865 119.3 129.105 119.44C129.355 119.58 129.58 119.74 129.78 119.92C129.98 120.1 130.145 120.295 130.275 120.505C130.415 120.715 130.515 120.93 130.575 121.15L130.26 121.105L130.305 119.17H131.43V126.52C131.43 127.15 131.34 127.705 131.16 128.185C130.98 128.675 130.715 129.085 130.365 129.415C130.025 129.755 129.615 130.01 129.135 130.18C128.665 130.36 128.14 130.45 127.56 130.45ZM127.575 126.07C128.105 126.07 128.575 125.945 128.985 125.695C129.405 125.435 129.735 125.08 129.975 124.63C130.215 124.18 130.335 123.66 130.335 123.07C130.335 122.49 130.215 121.975 129.975 121.525C129.745 121.075 129.42 120.72 129 120.46C128.58 120.2 128.105 120.07 127.575 120.07C127.035 120.07 126.555 120.2 126.135 120.46C125.725 120.72 125.4 121.075 125.16 121.525C124.92 121.975 124.8 122.49 124.8 123.07C124.8 123.64 124.915 124.155 125.145 124.615C125.385 125.065 125.71 125.42 126.12 125.68C126.54 125.94 127.025 126.07 127.575 126.07ZM137.193 130.45C136.613 130.45 136.063 130.36 135.543 130.18C135.023 130 134.593 129.775 134.253 129.505L134.703 128.56C134.903 128.72 135.133 128.86 135.393 128.98C135.663 129.11 135.953 129.21 136.263 129.28C136.573 129.36 136.888 129.4 137.208 129.4C137.788 129.4 138.278 129.29 138.678 129.07C139.088 128.86 139.398 128.545 139.608 128.125C139.828 127.705 139.938 127.185 139.938 126.565V125.065L140.118 125.02C140.028 125.4 139.833 125.755 139.533 126.085C139.233 126.405 138.868 126.665 138.438 126.865C138.008 127.055 137.553 127.15 137.073 127.15C136.343 127.15 135.688 126.975 135.108 126.625C134.538 126.275 134.088 125.795 133.758 125.185C133.428 124.565 133.263 123.865 133.263 123.085C133.263 122.295 133.428 121.595 133.758 120.985C134.098 120.365 134.553 119.88 135.123 119.53C135.693 119.18 136.333 119.005 137.043 119.005C137.353 119.005 137.653 119.045 137.943 119.125C138.233 119.195 138.498 119.3 138.738 119.44C138.988 119.58 139.213 119.74 139.413 119.92C139.613 120.1 139.778 120.295 139.908 120.505C140.048 120.715 140.148 120.93 140.208 121.15L139.893 121.105L139.938 119.17H141.063V126.52C141.063 127.15 140.973 127.705 140.793 128.185C140.613 128.675 140.348 129.085 139.998 129.415C139.658 129.755 139.248 130.01 138.768 130.18C138.298 130.36 137.773 130.45 137.193 130.45ZM137.208 126.07C137.738 126.07 138.208 125.945 138.618 125.695C139.038 125.435 139.368 125.08 139.608 124.63C139.848 124.18 139.968 123.66 139.968 123.07C139.968 122.49 139.848 121.975 139.608 121.525C139.378 121.075 139.053 120.72 138.633 120.46C138.213 120.2 137.738 120.07 137.208 120.07C136.668 120.07 136.188 120.2 135.768 120.46C135.358 120.72 135.033 121.075 134.793 121.525C134.553 121.975 134.433 122.49 134.433 123.07C134.433 123.64 134.548 124.155 134.778 124.615C135.018 125.065 135.343 125.42 135.753 125.68C136.173 125.94 136.658 126.07 137.208 126.07ZM146.902 127.15C146.122 127.15 145.427 126.98 144.817 126.64C144.217 126.3 143.747 125.825 143.407 125.215C143.067 124.605 142.897 123.905 142.897 123.115C142.897 122.505 142.992 121.955 143.182 121.465C143.372 120.965 143.637 120.53 143.977 120.16C144.327 119.79 144.742 119.505 145.222 119.305C145.702 119.095 146.222 118.99 146.782 118.99C147.312 118.99 147.792 119.085 148.222 119.275C148.662 119.465 149.037 119.73 149.347 120.07C149.667 120.4 149.907 120.795 150.067 121.255C150.227 121.715 150.297 122.22 150.277 122.77L150.262 123.295H143.737L143.572 122.35H149.407L149.137 122.605V122.245C149.117 121.885 149.012 121.54 148.822 121.21C148.632 120.87 148.362 120.595 148.012 120.385C147.672 120.175 147.262 120.07 146.782 120.07C146.222 120.07 145.737 120.185 145.327 120.415C144.917 120.635 144.602 120.965 144.382 121.405C144.162 121.845 144.052 122.39 144.052 123.04C144.052 123.66 144.172 124.2 144.412 124.66C144.652 125.11 144.992 125.46 145.432 125.71C145.882 125.96 146.422 126.085 147.052 126.085C147.422 126.085 147.787 126.025 148.147 125.905C148.517 125.775 148.922 125.525 149.362 125.155L149.947 125.965C149.717 126.195 149.442 126.4 149.122 126.58C148.802 126.75 148.452 126.89 148.072 127C147.692 127.1 147.302 127.15 146.902 127.15ZM154.64 127.15C153.97 127.15 153.37 127.025 152.84 126.775C152.31 126.525 151.89 126.195 151.58 125.785L152.375 125.095C152.665 125.445 153.005 125.71 153.395 125.89C153.795 126.07 154.24 126.16 154.73 126.16C154.98 126.16 155.205 126.135 155.405 126.085C155.605 126.025 155.78 125.94 155.93 125.83C156.08 125.72 156.195 125.59 156.275 125.44C156.355 125.29 156.395 125.125 156.395 124.945C156.395 124.615 156.25 124.34 155.96 124.12C155.83 124.03 155.645 123.94 155.405 123.85C155.165 123.75 154.875 123.655 154.535 123.565C153.975 123.405 153.51 123.245 153.14 123.085C152.77 122.915 152.48 122.72 152.27 122.5C152.12 122.32 152.005 122.125 151.925 121.915C151.855 121.705 151.82 121.475 151.82 121.225C151.82 120.905 151.885 120.61 152.015 120.34C152.155 120.07 152.345 119.835 152.585 119.635C152.835 119.425 153.125 119.27 153.455 119.17C153.795 119.06 154.16 119.005 154.55 119.005C154.92 119.005 155.285 119.055 155.645 119.155C156.005 119.255 156.34 119.4 156.65 119.59C156.96 119.78 157.225 120.005 157.445 120.265L156.755 121.015C156.565 120.815 156.355 120.635 156.125 120.475C155.895 120.315 155.65 120.19 155.39 120.1C155.14 120.01 154.88 119.965 154.61 119.965C154.37 119.965 154.145 119.995 153.935 120.055C153.735 120.115 153.56 120.2 153.41 120.31C153.27 120.41 153.16 120.535 153.08 120.685C153.01 120.835 152.975 121 152.975 121.18C152.975 121.33 153.005 121.465 153.065 121.585C153.125 121.705 153.21 121.81 153.32 121.9C153.46 122.01 153.655 122.115 153.905 122.215C154.165 122.305 154.485 122.4 154.865 122.5C155.305 122.62 155.675 122.745 155.975 122.875C156.285 122.995 156.54 123.14 156.74 123.31C157.01 123.51 157.2 123.74 157.31 124C157.43 124.26 157.49 124.555 157.49 124.885C157.49 125.325 157.365 125.715 157.115 126.055C156.875 126.395 156.54 126.665 156.11 126.865C155.68 127.055 155.19 127.15 154.64 127.15ZM160.532 127V117.115H161.657V127H160.532ZM158.762 120.25V119.17H163.637V120.25H158.762ZM165.519 127V119.17H166.644V127H165.519ZM166.074 117.475C165.794 117.475 165.579 117.405 165.429 117.265C165.289 117.115 165.219 116.915 165.219 116.665C165.219 116.415 165.294 116.215 165.444 116.065C165.594 115.915 165.804 115.84 166.074 115.84C166.344 115.84 166.554 115.915 166.704 116.065C166.854 116.205 166.929 116.405 166.929 116.665C166.929 116.905 166.854 117.1 166.704 117.25C166.554 117.4 166.344 117.475 166.074 117.475ZM172.766 127.15C171.986 127.15 171.291 126.975 170.681 126.625C170.081 126.275 169.606 125.79 169.256 125.17C168.916 124.55 168.746 123.845 168.746 123.055C168.746 122.275 168.916 121.58 169.256 120.97C169.606 120.36 170.081 119.88 170.681 119.53C171.291 119.18 171.986 119.005 172.766 119.005C173.536 119.005 174.221 119.18 174.821 119.53C175.431 119.88 175.906 120.36 176.246 120.97C176.596 121.58 176.771 122.275 176.771 123.055C176.771 123.845 176.596 124.55 176.246 125.17C175.906 125.79 175.431 126.275 174.821 126.625C174.221 126.975 173.536 127.15 172.766 127.15ZM172.766 126.085C173.316 126.085 173.806 125.955 174.236 125.695C174.666 125.425 175.001 125.065 175.241 124.615C175.481 124.155 175.601 123.635 175.601 123.055C175.601 122.475 175.481 121.96 175.241 121.51C175.001 121.06 174.666 120.71 174.236 120.46C173.806 120.2 173.316 120.07 172.766 120.07C172.216 120.07 171.721 120.2 171.281 120.46C170.851 120.71 170.511 121.065 170.261 121.525C170.021 121.975 169.906 122.485 169.916 123.055C169.906 123.635 170.021 124.155 170.261 124.615C170.511 125.065 170.851 125.425 171.281 125.695C171.721 125.955 172.216 126.085 172.766 126.085ZM178.612 127V119.17H179.722L179.767 120.805L179.587 120.88C179.687 120.54 179.882 120.23 180.172 119.95C180.462 119.67 180.807 119.445 181.207 119.275C181.617 119.095 182.037 119.005 182.467 119.005C183.047 119.005 183.532 119.12 183.922 119.35C184.312 119.58 184.607 119.935 184.807 120.415C185.007 120.895 185.107 121.505 185.107 122.245V127H183.967V122.305C183.967 121.785 183.897 121.36 183.757 121.03C183.627 120.69 183.422 120.44 183.142 120.28C182.862 120.12 182.517 120.045 182.107 120.055C181.767 120.055 181.452 120.115 181.162 120.235C180.872 120.345 180.622 120.5 180.412 120.7C180.202 120.9 180.037 121.13 179.917 121.39C179.797 121.65 179.737 121.93 179.737 122.23V127H179.182C179.112 127 179.032 127 178.942 127C178.852 127 178.742 127 178.612 127ZM190.02 127.15C189.35 127.15 188.75 127.025 188.22 126.775C187.69 126.525 187.27 126.195 186.96 125.785L187.755 125.095C188.045 125.445 188.385 125.71 188.775 125.89C189.175 126.07 189.62 126.16 190.11 126.16C190.36 126.16 190.585 126.135 190.785 126.085C190.985 126.025 191.16 125.94 191.31 125.83C191.46 125.72 191.575 125.59 191.655 125.44C191.735 125.29 191.775 125.125 191.775 124.945C191.775 124.615 191.63 124.34 191.34 124.12C191.21 124.03 191.025 123.94 190.785 123.85C190.545 123.75 190.255 123.655 189.915 123.565C189.355 123.405 188.89 123.245 188.52 123.085C188.15 122.915 187.86 122.72 187.65 122.5C187.5 122.32 187.385 122.125 187.305 121.915C187.235 121.705 187.2 121.475 187.2 121.225C187.2 120.905 187.265 120.61 187.395 120.34C187.535 120.07 187.725 119.835 187.965 119.635C188.215 119.425 188.505 119.27 188.835 119.17C189.175 119.06 189.54 119.005 189.93 119.005C190.3 119.005 190.665 119.055 191.025 119.155C191.385 119.255 191.72 119.4 192.03 119.59C192.34 119.78 192.605 120.005 192.825 120.265L192.135 121.015C191.945 120.815 191.735 120.635 191.505 120.475C191.275 120.315 191.03 120.19 190.77 120.1C190.52 120.01 190.26 119.965 189.99 119.965C189.75 119.965 189.525 119.995 189.315 120.055C189.115 120.115 188.94 120.2 188.79 120.31C188.65 120.41 188.54 120.535 188.46 120.685C188.39 120.835 188.355 121 188.355 121.18C188.355 121.33 188.385 121.465 188.445 121.585C188.505 121.705 188.59 121.81 188.7 121.9C188.84 122.01 189.035 122.115 189.285 122.215C189.545 122.305 189.865 122.4 190.245 122.5C190.685 122.62 191.055 122.745 191.355 122.875C191.665 122.995 191.92 123.14 192.12 123.31C192.39 123.51 192.58 123.74 192.69 124C192.81 124.26 192.87 124.555 192.87 124.885C192.87 125.325 192.745 125.715 192.495 126.055C192.255 126.395 191.92 126.665 191.49 126.865C191.06 127.055 190.57 127.15 190.02 127.15Z" fill="#1E238E"/>
<path d="M45.545 168V157.5H49.7C50.25 157.5 50.745 157.635 51.185 157.905C51.625 158.175 51.975 158.55 52.235 159.03C52.495 159.5 52.625 160.03 52.625 160.62C52.625 161.24 52.495 161.795 52.235 162.285C51.975 162.765 51.625 163.15 51.185 163.44C50.745 163.72 50.25 163.86 49.7 163.86H46.715V168H45.545ZM46.715 162.72H49.76C50.07 162.72 50.345 162.63 50.585 162.45C50.835 162.26 51.035 162.01 51.185 161.7C51.335 161.38 51.41 161.015 51.41 160.605C51.41 160.235 51.335 159.905 51.185 159.615C51.035 159.315 50.835 159.08 50.585 158.91C50.345 158.73 50.07 158.64 49.76 158.64H46.715V162.72ZM54.9261 168V160.17H56.0511V168H54.9261ZM55.4811 158.475C55.2011 158.475 54.9861 158.405 54.8361 158.265C54.6961 158.115 54.6261 157.915 54.6261 157.665C54.6261 157.415 54.7011 157.215 54.8511 157.065C55.0011 156.915 55.2111 156.84 55.4811 156.84C55.7511 156.84 55.9611 156.915 56.1111 157.065C56.2611 157.205 56.3361 157.405 56.3361 157.665C56.3361 157.905 56.2611 158.1 56.1111 158.25C55.9611 158.4 55.7511 158.475 55.4811 158.475ZM62.0079 168.15C61.2679 168.15 60.6079 167.975 60.0279 167.625C59.4479 167.265 58.9879 166.78 58.6479 166.17C58.3179 165.55 58.1529 164.85 58.1529 164.07C58.1529 163.29 58.3179 162.595 58.6479 161.985C58.9879 161.365 59.4479 160.88 60.0279 160.53C60.6079 160.18 61.2729 160.005 62.0229 160.005C62.6929 160.005 63.3029 160.14 63.8529 160.41C64.4029 160.67 64.8429 161.035 65.1729 161.505L64.5129 162.315C64.3229 162.065 64.0929 161.845 63.8229 161.655C63.5629 161.465 63.2779 161.32 62.9679 161.22C62.6679 161.11 62.3679 161.055 62.0679 161.055C61.5379 161.055 61.0629 161.19 60.6429 161.46C60.2229 161.72 59.8879 162.075 59.6379 162.525C59.3979 162.975 59.2779 163.49 59.2779 164.07C59.2779 164.65 59.3979 165.17 59.6379 165.63C59.8879 166.08 60.2229 166.435 60.6429 166.695C61.0629 166.955 61.5329 167.085 62.0529 167.085C62.3529 167.085 62.6479 167.04 62.9379 166.95C63.2279 166.85 63.5029 166.71 63.7629 166.53C64.0229 166.35 64.2629 166.125 64.4829 165.855L65.1429 166.665C64.8029 167.115 64.3479 167.475 63.7779 167.745C63.2079 168.015 62.6179 168.15 62.0079 168.15ZM67.8084 165.48L67.7634 164.175L71.8584 160.17H73.3734L67.8084 165.48ZM66.8034 168V156.9H67.9284V168H66.8034ZM72.1734 168L68.8734 164.175L69.6684 163.395L73.6434 168H72.1734ZM82.2538 168.15C81.6538 168.15 81.1438 168.03 80.7238 167.79C80.3138 167.54 79.9988 167.18 79.7788 166.71C79.5688 166.24 79.4638 165.655 79.4638 164.955V160.17H80.6038V164.73C80.6038 165.26 80.6738 165.705 80.8138 166.065C80.9638 166.415 81.1838 166.68 81.4738 166.86C81.7738 167.04 82.1388 167.13 82.5688 167.13C82.8988 167.13 83.2038 167.075 83.4838 166.965C83.7638 166.845 84.0088 166.685 84.2188 166.485C84.4288 166.285 84.5938 166.05 84.7138 165.78C84.8338 165.51 84.8938 165.225 84.8938 164.925V160.17H86.0188V168H84.9088L84.8638 166.35L85.0438 166.26C84.9238 166.61 84.7238 166.93 84.4438 167.22C84.1638 167.5 83.8288 167.725 83.4388 167.895C83.0588 168.065 82.6638 168.15 82.2538 168.15ZM88.4093 171.3V160.17H89.5343L89.5643 162.075L89.3543 162.105C89.4443 161.725 89.6393 161.38 89.9393 161.07C90.2393 160.75 90.6043 160.495 91.0343 160.305C91.4643 160.115 91.9193 160.02 92.3993 160.02C93.0993 160.02 93.7243 160.195 94.2743 160.545C94.8343 160.895 95.2793 161.375 95.6093 161.985C95.9393 162.595 96.1043 163.295 96.1043 164.085C96.1043 164.865 95.9443 165.56 95.6243 166.17C95.3043 166.78 94.8643 167.265 94.3043 167.625C93.7443 167.975 93.1143 168.15 92.4143 168.15C91.9243 168.15 91.4593 168.05 91.0193 167.85C90.5793 167.65 90.2043 167.39 89.8943 167.07C89.5843 166.74 89.3793 166.385 89.2793 166.005H89.5493V171.3H88.4093ZM92.2343 167.07C92.7643 167.07 93.2343 166.94 93.6443 166.68C94.0543 166.42 94.3793 166.065 94.6193 165.615C94.8593 165.165 94.9793 164.655 94.9793 164.085C94.9793 163.505 94.8593 162.99 94.6193 162.54C94.3793 162.09 94.0543 161.735 93.6443 161.475C93.2343 161.215 92.7643 161.085 92.2343 161.085C91.7043 161.085 91.2293 161.215 90.8093 161.475C90.3993 161.725 90.0743 162.075 89.8343 162.525C89.5943 162.975 89.4743 163.49 89.4743 164.07C89.4743 164.65 89.5943 165.165 89.8343 165.615C90.0743 166.065 90.3993 166.42 90.8093 166.68C91.2293 166.94 91.7043 167.07 92.2343 167.07ZM102.644 168V160.17H103.769V168H102.644ZM103.199 158.475C102.919 158.475 102.704 158.405 102.554 158.265C102.414 158.115 102.344 157.915 102.344 157.665C102.344 157.415 102.419 157.215 102.569 157.065C102.719 156.915 102.929 156.84 103.199 156.84C103.469 156.84 103.679 156.915 103.829 157.065C103.979 157.205 104.054 157.405 104.054 157.665C104.054 157.905 103.979 158.1 103.829 158.25C103.679 158.4 103.469 158.475 103.199 158.475ZM107.506 168V158.115H108.631V168H107.506ZM105.736 161.25V160.17H110.611V161.25H105.736ZM115.569 168.15C114.789 168.15 114.094 167.98 113.484 167.64C112.884 167.3 112.414 166.825 112.074 166.215C111.734 165.605 111.564 164.905 111.564 164.115C111.564 163.505 111.659 162.955 111.849 162.465C112.039 161.965 112.304 161.53 112.644 161.16C112.994 160.79 113.409 160.505 113.889 160.305C114.369 160.095 114.889 159.99 115.449 159.99C115.979 159.99 116.459 160.085 116.889 160.275C117.329 160.465 117.704 160.73 118.014 161.07C118.334 161.4 118.574 161.795 118.734 162.255C118.894 162.715 118.964 163.22 118.944 163.77L118.929 164.295H112.404L112.239 163.35H118.074L117.804 163.605V163.245C117.784 162.885 117.679 162.54 117.489 162.21C117.299 161.87 117.029 161.595 116.679 161.385C116.339 161.175 115.929 161.07 115.449 161.07C114.889 161.07 114.404 161.185 113.994 161.415C113.584 161.635 113.269 161.965 113.049 162.405C112.829 162.845 112.719 163.39 112.719 164.04C112.719 164.66 112.839 165.2 113.079 165.66C113.319 166.11 113.659 166.46 114.099 166.71C114.549 166.96 115.089 167.085 115.719 167.085C116.089 167.085 116.454 167.025 116.814 166.905C117.184 166.775 117.589 166.525 118.029 166.155L118.614 166.965C118.384 167.195 118.109 167.4 117.789 167.58C117.469 167.75 117.119 167.89 116.739 168C116.359 168.1 115.969 168.15 115.569 168.15ZM120.727 168V160.17H121.852L121.882 161.955L121.657 162.03C121.737 161.73 121.867 161.46 122.047 161.22C122.237 160.97 122.462 160.755 122.722 160.575C122.982 160.395 123.267 160.26 123.577 160.17C123.887 160.07 124.212 160.02 124.552 160.02C124.962 160.02 125.327 160.09 125.647 160.23C125.977 160.36 126.252 160.59 126.472 160.92C126.702 161.24 126.877 161.665 126.997 162.195L126.727 162.06L126.832 161.805C126.932 161.575 127.077 161.355 127.267 161.145C127.467 160.925 127.692 160.73 127.942 160.56C128.202 160.39 128.482 160.26 128.782 160.17C129.092 160.07 129.407 160.02 129.727 160.02C130.277 160.02 130.742 160.14 131.122 160.38C131.502 160.61 131.787 160.965 131.977 161.445C132.177 161.925 132.277 162.535 132.277 163.275V168H131.122V163.335C131.122 162.815 131.057 162.39 130.927 162.06C130.797 161.73 130.602 161.485 130.342 161.325C130.092 161.155 129.772 161.07 129.382 161.07C129.042 161.07 128.727 161.13 128.437 161.25C128.157 161.36 127.912 161.52 127.702 161.73C127.502 161.93 127.342 162.16 127.222 162.42C127.112 162.68 127.057 162.96 127.057 163.26V168H125.917V163.32C125.917 162.82 125.847 162.405 125.707 162.075C125.577 161.745 125.382 161.495 125.122 161.325C124.862 161.155 124.542 161.07 124.162 161.07C123.832 161.07 123.527 161.13 123.247 161.25C122.967 161.36 122.722 161.515 122.512 161.715C122.312 161.915 122.152 162.145 122.032 162.405C121.922 162.665 121.867 162.945 121.867 163.245V168H120.727Z" fill="#1E238E"/>
<rect x="316.256" y="139.817" width="19" height="19" rx="2.5" fill="#FCFBF9" stroke="#1E238E" stroke-linejoin="round"/>
<rect x="316.256" y="98.0947" width="19" height="19" rx="2.5" fill="#FCFBF9" stroke="#1E238E" stroke-linejoin="round"/>
<rect x="316.256" y="55.8926" width="19" height="19" rx="2.5" fill="#FCFBF9" stroke="#1E238E" stroke-linejoin="round"/>
<rect x="0.0234375" y="219" width="389.102" height="91.5631" fill="#FCFBF9"/>
<path d="M53.5425 263.616C52.8125 263.616 52.1425 263.486 51.5325 263.226C50.9225 262.966 50.3925 262.596 49.9425 262.116C49.4925 261.626 49.1425 261.051 48.8925 260.391C48.6525 259.731 48.5325 259.006 48.5325 258.216C48.5325 257.466 48.6625 256.771 48.9225 256.131C49.1925 255.481 49.5625 254.911 50.0325 254.421C50.5025 253.931 51.0475 253.551 51.6675 253.281C52.2875 253.011 52.9575 252.876 53.6775 252.876C54.1875 252.876 54.6825 252.956 55.1625 253.116C55.6525 253.266 56.0925 253.481 56.4825 253.761C56.8825 254.031 57.2075 254.341 57.4575 254.691L56.3775 255.816C56.0875 255.526 55.7925 255.286 55.4925 255.096C55.2025 254.896 54.9025 254.746 54.5925 254.646C54.2925 254.546 53.9875 254.496 53.6775 254.496C53.1875 254.496 52.7275 254.591 52.2975 254.781C51.8775 254.961 51.5075 255.216 51.1875 255.546C50.8775 255.876 50.6325 256.271 50.4525 256.731C50.2725 257.181 50.1825 257.676 50.1825 258.216C50.1825 258.786 50.2675 259.306 50.4375 259.776C50.6175 260.236 50.8675 260.631 51.1875 260.961C51.5075 261.291 51.8875 261.546 52.3275 261.726C52.7775 261.896 53.2725 261.981 53.8125 261.981C54.1425 261.981 54.4675 261.936 54.7875 261.846C55.1075 261.756 55.4075 261.626 55.6875 261.456C55.9675 261.286 56.2225 261.086 56.4525 260.856L57.2625 262.176C57.0325 262.446 56.7175 262.691 56.3175 262.911C55.9275 263.131 55.4875 263.306 54.9975 263.436C54.5175 263.556 54.0325 263.616 53.5425 263.616ZM59.3032 263.466V252.366H60.8482V263.466H59.3032ZM66.7663 263.616C65.9563 263.616 65.2363 263.446 64.6063 263.106C63.9863 262.756 63.4963 262.281 63.1363 261.681C62.7863 261.081 62.6113 260.391 62.6113 259.611C62.6113 258.991 62.7113 258.426 62.9113 257.916C63.1113 257.406 63.3863 256.966 63.7363 256.596C64.0963 256.216 64.5213 255.926 65.0113 255.726C65.5113 255.516 66.0513 255.411 66.6313 255.411C67.1413 255.411 67.6163 255.511 68.0563 255.711C68.4963 255.901 68.8763 256.166 69.1963 256.506C69.5263 256.846 69.7763 257.251 69.9463 257.721C70.1263 258.181 70.2113 258.686 70.2013 259.236L70.1863 259.896H63.7513L63.4063 258.666H68.8513L68.6263 258.921V258.561C68.5963 258.231 68.4863 257.936 68.2963 257.676C68.1063 257.416 67.8663 257.211 67.5763 257.061C67.2863 256.911 66.9713 256.836 66.6313 256.836C66.0913 256.836 65.6363 256.941 65.2663 257.151C64.8963 257.351 64.6163 257.651 64.4263 258.051C64.2363 258.441 64.1413 258.926 64.1413 259.506C64.1413 260.056 64.2563 260.536 64.4863 260.946C64.7163 261.346 65.0413 261.656 65.4613 261.876C65.8813 262.096 66.3663 262.206 66.9163 262.206C67.3063 262.206 67.6663 262.141 67.9963 262.011C68.3363 261.881 68.7013 261.646 69.0913 261.306L69.8713 262.401C69.6313 262.641 69.3363 262.851 68.9863 263.031C68.6463 263.211 68.2813 263.356 67.8913 263.466C67.5113 263.566 67.1363 263.616 66.7663 263.616ZM75.1104 263.616C74.4604 263.616 73.8654 263.436 73.3254 263.076C72.7954 262.716 72.3704 262.226 72.0504 261.606C71.7304 260.986 71.5704 260.286 71.5704 259.506C71.5704 258.716 71.7304 258.016 72.0504 257.406C72.3804 256.786 72.8204 256.301 73.3704 255.951C73.9304 255.601 74.5554 255.426 75.2454 255.426C75.6554 255.426 76.0304 255.486 76.3704 255.606C76.7104 255.726 77.0054 255.896 77.2554 256.116C77.5154 256.326 77.7254 256.571 77.8854 256.851C78.0554 257.131 78.1604 257.431 78.2004 257.751L77.8554 257.631V255.591H79.4154V263.466H77.8554V261.591L78.2154 261.486C78.1554 261.756 78.0304 262.021 77.8404 262.281C77.6604 262.531 77.4254 262.756 77.1354 262.956C76.8554 263.156 76.5404 263.316 76.1904 263.436C75.8504 263.556 75.4904 263.616 75.1104 263.616ZM75.5154 262.191C75.9854 262.191 76.4004 262.076 76.7604 261.846C77.1204 261.616 77.4004 261.301 77.6004 260.901C77.8104 260.491 77.9154 260.026 77.9154 259.506C77.9154 258.996 77.8104 258.541 77.6004 258.141C77.4004 257.741 77.1204 257.426 76.7604 257.196C76.4004 256.966 75.9854 256.851 75.5154 256.851C75.0554 256.851 74.6454 256.966 74.2854 257.196C73.9354 257.426 73.6554 257.741 73.4454 258.141C73.2454 258.541 73.1454 258.996 73.1454 259.506C73.1454 260.026 73.2454 260.491 73.4454 260.901C73.6554 261.301 73.9354 261.616 74.2854 261.846C74.6454 262.076 75.0554 262.191 75.5154 262.191ZM81.7726 263.466V255.591H83.3326V258.066L83.1826 257.466C83.2926 257.086 83.4776 256.741 83.7376 256.431C84.0076 256.121 84.3126 255.876 84.6526 255.696C85.0026 255.516 85.3626 255.426 85.7326 255.426C85.9026 255.426 86.0626 255.441 86.2126 255.471C86.3726 255.501 86.4976 255.536 86.5876 255.576L86.1826 257.256C86.0626 257.206 85.9276 257.166 85.7776 257.136C85.6376 257.096 85.4976 257.076 85.3576 257.076C85.0876 257.076 84.8276 257.131 84.5776 257.241C84.3376 257.341 84.1226 257.486 83.9326 257.676C83.7526 257.856 83.6076 258.071 83.4976 258.321C83.3876 258.561 83.3326 258.826 83.3326 259.116V263.466H81.7726ZM91.7215 263.466L95.7865 252.966H97.4365L101.471 263.466H99.7465L97.3465 257.136C97.3165 257.066 97.2565 256.896 97.1665 256.626C97.0865 256.356 96.9915 256.056 96.8815 255.726C96.7715 255.396 96.6715 255.096 96.5815 254.826C96.4915 254.546 96.4315 254.366 96.4015 254.286L96.7465 254.271C96.6865 254.441 96.6115 254.656 96.5215 254.916C96.4415 255.176 96.3515 255.451 96.2515 255.741C96.1615 256.031 96.0715 256.306 95.9815 256.566C95.8915 256.816 95.8165 257.026 95.7565 257.196L93.3715 263.466H91.7215ZM93.5215 260.856L94.1215 259.296H98.8915L99.5815 260.856H93.5215ZM103.159 263.466V252.366H104.704V263.466H103.159ZM107.124 263.466V252.366H108.669V263.466H107.124Z" fill="#1E238E"/>
<path d="M47.8125 265.341H109.779V266.091H47.8125V265.341Z" fill="#1E238E"/>
<rect x="199.746" y="235" width="147" height="47" rx="5" fill="#1E238E"/>
<path d="M223.934 264.15C223.364 264.15 222.834 264.075 222.344 263.925C221.864 263.775 221.424 263.55 221.024 263.25C220.634 262.94 220.284 262.56 219.974 262.11L221.084 260.835C221.574 261.535 222.044 262.02 222.494 262.29C222.944 262.56 223.479 262.695 224.099 262.695C224.479 262.695 224.824 262.635 225.134 262.515C225.444 262.395 225.689 262.23 225.869 262.02C226.049 261.81 226.139 261.57 226.139 261.3C226.139 261.12 226.109 260.95 226.049 260.79C225.989 260.63 225.894 260.485 225.764 260.355C225.644 260.225 225.484 260.105 225.284 259.995C225.094 259.885 224.869 259.79 224.609 259.71C224.349 259.62 224.049 259.545 223.709 259.485C223.169 259.375 222.699 259.23 222.299 259.05C221.899 258.87 221.564 258.645 221.294 258.375C221.024 258.105 220.824 257.8 220.694 257.46C220.564 257.11 220.499 256.72 220.499 256.29C220.499 255.87 220.589 255.48 220.769 255.12C220.959 254.76 221.214 254.45 221.534 254.19C221.864 253.92 222.249 253.715 222.689 253.575C223.129 253.425 223.604 253.35 224.114 253.35C224.654 253.35 225.149 253.42 225.599 253.56C226.049 253.7 226.449 253.91 226.799 254.19C227.149 254.46 227.439 254.795 227.669 255.195L226.529 256.32C226.329 255.99 226.104 255.715 225.854 255.495C225.604 255.265 225.329 255.095 225.029 254.985C224.729 254.865 224.409 254.805 224.069 254.805C223.679 254.805 223.339 254.865 223.049 254.985C222.759 255.105 222.529 255.275 222.359 255.495C222.199 255.705 222.119 255.955 222.119 256.245C222.119 256.455 222.159 256.65 222.239 256.83C222.319 257 222.439 257.155 222.599 257.295C222.769 257.425 222.994 257.545 223.274 257.655C223.554 257.755 223.889 257.845 224.279 257.925C224.829 258.045 225.319 258.2 225.749 258.39C226.179 258.57 226.544 258.785 226.844 259.035C227.144 259.285 227.369 259.565 227.519 259.875C227.679 260.185 227.759 260.52 227.759 260.88C227.759 261.55 227.604 262.13 227.294 262.62C226.984 263.11 226.544 263.49 225.974 263.76C225.404 264.02 224.724 264.15 223.934 264.15ZM232.894 264.15C232.244 264.15 231.649 263.97 231.109 263.61C230.579 263.25 230.154 262.76 229.834 262.14C229.514 261.52 229.354 260.82 229.354 260.04C229.354 259.25 229.514 258.55 229.834 257.94C230.164 257.32 230.604 256.835 231.154 256.485C231.714 256.135 232.339 255.96 233.029 255.96C233.439 255.96 233.814 256.02 234.154 256.14C234.494 256.26 234.789 256.43 235.039 256.65C235.299 256.86 235.509 257.105 235.669 257.385C235.839 257.665 235.944 257.965 235.984 258.285L235.639 258.165V256.125H237.199V264H235.639V262.125L235.999 262.02C235.939 262.29 235.814 262.555 235.624 262.815C235.444 263.065 235.209 263.29 234.919 263.49C234.639 263.69 234.324 263.85 233.974 263.97C233.634 264.09 233.274 264.15 232.894 264.15ZM233.299 262.725C233.769 262.725 234.184 262.61 234.544 262.38C234.904 262.15 235.184 261.835 235.384 261.435C235.594 261.025 235.699 260.56 235.699 260.04C235.699 259.53 235.594 259.075 235.384 258.675C235.184 258.275 234.904 257.96 234.544 257.73C234.184 257.5 233.769 257.385 233.299 257.385C232.839 257.385 232.429 257.5 232.069 257.73C231.719 257.96 231.439 258.275 231.229 258.675C231.029 259.075 230.929 259.53 230.929 260.04C230.929 260.56 231.029 261.025 231.229 261.435C231.439 261.835 231.719 262.15 232.069 262.38C232.429 262.61 232.839 262.725 233.299 262.725ZM241.961 264L238.631 256.125H240.296L242.696 262.02L242.411 262.155L244.976 256.125H246.566L243.071 264H241.961ZM251.634 264.15C250.824 264.15 250.104 263.98 249.474 263.64C248.854 263.29 248.364 262.815 248.004 262.215C247.654 261.615 247.479 260.925 247.479 260.145C247.479 259.525 247.579 258.96 247.779 258.45C247.979 257.94 248.254 257.5 248.604 257.13C248.964 256.75 249.389 256.46 249.879 256.26C250.379 256.05 250.919 255.945 251.499 255.945C252.009 255.945 252.484 256.045 252.924 256.245C253.364 256.435 253.744 256.7 254.064 257.04C254.394 257.38 254.644 257.785 254.814 258.255C254.994 258.715 255.079 259.22 255.069 259.77L255.054 260.43H248.619L248.274 259.2H253.719L253.494 259.455V259.095C253.464 258.765 253.354 258.47 253.164 258.21C252.974 257.95 252.734 257.745 252.444 257.595C252.154 257.445 251.839 257.37 251.499 257.37C250.959 257.37 250.504 257.475 250.134 257.685C249.764 257.885 249.484 258.185 249.294 258.585C249.104 258.975 249.009 259.46 249.009 260.04C249.009 260.59 249.124 261.07 249.354 261.48C249.584 261.88 249.909 262.19 250.329 262.41C250.749 262.63 251.234 262.74 251.784 262.74C252.174 262.74 252.534 262.675 252.864 262.545C253.204 262.415 253.569 262.18 253.959 261.84L254.739 262.935C254.499 263.175 254.204 263.385 253.854 263.565C253.514 263.745 253.149 263.89 252.759 264C252.379 264.1 252.004 264.15 251.634 264.15ZM268.898 264L267.533 262.545L267.293 262.275L264.698 259.38C264.448 259.1 264.208 258.815 263.978 258.525C263.748 258.225 263.543 257.93 263.363 257.64C263.193 257.35 263.053 257.07 262.943 256.8C262.843 256.52 262.793 256.26 262.793 256.02C262.793 255.51 262.923 255.055 263.183 254.655C263.453 254.245 263.818 253.925 264.278 253.695C264.748 253.465 265.288 253.35 265.898 253.35C266.348 253.35 266.768 253.435 267.158 253.605C267.548 253.765 267.883 253.995 268.163 254.295C268.453 254.585 268.663 254.925 268.793 255.315L267.623 256.065C267.433 255.605 267.198 255.27 266.918 255.06C266.648 254.85 266.308 254.745 265.898 254.745C265.588 254.745 265.328 254.795 265.118 254.895C264.908 254.985 264.748 255.12 264.638 255.3C264.528 255.48 264.473 255.705 264.473 255.975C264.473 256.195 264.533 256.44 264.653 256.71C264.783 256.97 264.943 257.235 265.133 257.505C265.323 257.775 265.518 258.025 265.718 258.255C265.918 258.485 266.093 258.685 266.243 258.855L268.328 261.18L268.763 261.66L270.908 264H268.898ZM264.863 264.15C264.153 264.15 263.508 264 262.928 263.7C262.348 263.39 261.883 262.985 261.533 262.485C261.193 261.975 261.023 261.42 261.023 260.82C261.023 260.03 261.238 259.345 261.668 258.765C262.108 258.185 262.748 257.74 263.588 257.43L264.548 258.585C263.908 258.725 263.433 258.96 263.123 259.29C262.813 259.61 262.658 260.045 262.658 260.595C262.658 261.015 262.758 261.385 262.958 261.705C263.158 262.025 263.443 262.275 263.813 262.455C264.193 262.635 264.643 262.725 265.163 262.725C265.613 262.725 266.023 262.64 266.393 262.47C266.773 262.29 267.113 262.04 267.413 261.72C267.713 261.4 267.958 261.015 268.148 260.565C268.348 260.115 268.493 259.615 268.583 259.065H269.963C269.883 259.675 269.738 260.24 269.528 260.76C269.328 261.28 269.073 261.75 268.763 262.17C268.463 262.59 268.113 262.95 267.713 263.25C267.323 263.54 266.888 263.765 266.408 263.925C265.928 264.075 265.413 264.15 264.863 264.15ZM280.676 264.15C280.106 264.15 279.576 264.075 279.086 263.925C278.606 263.775 278.166 263.55 277.766 263.25C277.376 262.94 277.026 262.56 276.716 262.11L277.826 260.835C278.316 261.535 278.786 262.02 279.236 262.29C279.686 262.56 280.221 262.695 280.841 262.695C281.221 262.695 281.566 262.635 281.876 262.515C282.186 262.395 282.431 262.23 282.611 262.02C282.791 261.81 282.881 261.57 282.881 261.3C282.881 261.12 282.851 260.95 282.791 260.79C282.731 260.63 282.636 260.485 282.506 260.355C282.386 260.225 282.226 260.105 282.026 259.995C281.836 259.885 281.611 259.79 281.351 259.71C281.091 259.62 280.791 259.545 280.451 259.485C279.911 259.375 279.441 259.23 279.041 259.05C278.641 258.87 278.306 258.645 278.036 258.375C277.766 258.105 277.566 257.8 277.436 257.46C277.306 257.11 277.241 256.72 277.241 256.29C277.241 255.87 277.331 255.48 277.511 255.12C277.701 254.76 277.956 254.45 278.276 254.19C278.606 253.92 278.991 253.715 279.431 253.575C279.871 253.425 280.346 253.35 280.856 253.35C281.396 253.35 281.891 253.42 282.341 253.56C282.791 253.7 283.191 253.91 283.541 254.19C283.891 254.46 284.181 254.795 284.411 255.195L283.271 256.32C283.071 255.99 282.846 255.715 282.596 255.495C282.346 255.265 282.071 255.095 281.771 254.985C281.471 254.865 281.151 254.805 280.811 254.805C280.421 254.805 280.081 254.865 279.791 254.985C279.501 255.105 279.271 255.275 279.101 255.495C278.941 255.705 278.861 255.955 278.861 256.245C278.861 256.455 278.901 256.65 278.981 256.83C279.061 257 279.181 257.155 279.341 257.295C279.511 257.425 279.736 257.545 280.016 257.655C280.296 257.755 280.631 257.845 281.021 257.925C281.571 258.045 282.061 258.2 282.491 258.39C282.921 258.57 283.286 258.785 283.586 259.035C283.886 259.285 284.111 259.565 284.261 259.875C284.421 260.185 284.501 260.52 284.501 260.88C284.501 261.55 284.346 262.13 284.036 262.62C283.726 263.11 283.286 263.49 282.716 263.76C282.146 264.02 281.466 264.15 280.676 264.15ZM290.281 264.15C289.471 264.15 288.751 263.98 288.121 263.64C287.501 263.29 287.011 262.815 286.651 262.215C286.301 261.615 286.126 260.925 286.126 260.145C286.126 259.525 286.226 258.96 286.426 258.45C286.626 257.94 286.901 257.5 287.251 257.13C287.611 256.75 288.036 256.46 288.526 256.26C289.026 256.05 289.566 255.945 290.146 255.945C290.656 255.945 291.131 256.045 291.571 256.245C292.011 256.435 292.391 256.7 292.711 257.04C293.041 257.38 293.291 257.785 293.461 258.255C293.641 258.715 293.726 259.22 293.716 259.77L293.701 260.43H287.266L286.921 259.2H292.366L292.141 259.455V259.095C292.111 258.765 292.001 258.47 291.811 258.21C291.621 257.95 291.381 257.745 291.091 257.595C290.801 257.445 290.486 257.37 290.146 257.37C289.606 257.37 289.151 257.475 288.781 257.685C288.411 257.885 288.131 258.185 287.941 258.585C287.751 258.975 287.656 259.46 287.656 260.04C287.656 260.59 287.771 261.07 288.001 261.48C288.231 261.88 288.556 262.19 288.976 262.41C289.396 262.63 289.881 262.74 290.431 262.74C290.821 262.74 291.181 262.675 291.511 262.545C291.851 262.415 292.216 262.18 292.606 261.84L293.386 262.935C293.146 263.175 292.851 263.385 292.501 263.565C292.161 263.745 291.796 263.89 291.406 264C291.026 264.1 290.651 264.15 290.281 264.15ZM298.625 264.15C297.975 264.15 297.38 263.97 296.84 263.61C296.31 263.25 295.885 262.76 295.565 262.14C295.245 261.52 295.085 260.82 295.085 260.04C295.085 259.25 295.245 258.55 295.565 257.94C295.895 257.32 296.335 256.835 296.885 256.485C297.445 256.135 298.07 255.96 298.76 255.96C299.17 255.96 299.545 256.02 299.885 256.14C300.225 256.26 300.52 256.43 300.77 256.65C301.03 256.86 301.24 257.105 301.4 257.385C301.57 257.665 301.675 257.965 301.715 258.285L301.37 258.165V256.125H302.93V264H301.37V262.125L301.73 262.02C301.67 262.29 301.545 262.555 301.355 262.815C301.175 263.065 300.94 263.29 300.65 263.49C300.37 263.69 300.055 263.85 299.705 263.97C299.365 264.09 299.005 264.15 298.625 264.15ZM299.03 262.725C299.5 262.725 299.915 262.61 300.275 262.38C300.635 262.15 300.915 261.835 301.115 261.435C301.325 261.025 301.43 260.56 301.43 260.04C301.43 259.53 301.325 259.075 301.115 258.675C300.915 258.275 300.635 257.96 300.275 257.73C299.915 257.5 299.5 257.385 299.03 257.385C298.57 257.385 298.16 257.5 297.8 257.73C297.45 257.96 297.17 258.275 296.96 258.675C296.76 259.075 296.66 259.53 296.66 260.04C296.66 260.56 296.76 261.025 296.96 261.435C297.17 261.835 297.45 262.15 297.8 262.38C298.16 262.61 298.57 262.725 299.03 262.725ZM305.287 264V256.125H306.847V258.6L306.697 258C306.807 257.62 306.992 257.275 307.252 256.965C307.522 256.655 307.827 256.41 308.167 256.23C308.517 256.05 308.877 255.96 309.247 255.96C309.417 255.96 309.577 255.975 309.727 256.005C309.887 256.035 310.012 256.07 310.102 256.11L309.697 257.79C309.577 257.74 309.442 257.7 309.292 257.67C309.152 257.63 309.012 257.61 308.872 257.61C308.602 257.61 308.342 257.665 308.092 257.775C307.852 257.875 307.637 258.02 307.447 258.21C307.267 258.39 307.122 258.605 307.012 258.855C306.902 259.095 306.847 259.36 306.847 259.65V264H305.287ZM314.545 264.15C313.815 264.15 313.16 263.97 312.58 263.61C312.01 263.25 311.555 262.76 311.215 262.14C310.885 261.52 310.72 260.825 310.72 260.055C310.72 259.285 310.885 258.59 311.215 257.97C311.555 257.35 312.01 256.86 312.58 256.5C313.16 256.14 313.815 255.96 314.545 255.96C315.245 255.96 315.88 256.105 316.45 256.395C317.03 256.675 317.47 257.06 317.77 257.55L316.915 258.6C316.755 258.37 316.55 258.16 316.3 257.97C316.05 257.78 315.785 257.63 315.505 257.52C315.225 257.41 314.955 257.355 314.695 257.355C314.215 257.355 313.785 257.475 313.405 257.715C313.035 257.945 312.74 258.265 312.52 258.675C312.3 259.085 312.19 259.545 312.19 260.055C312.19 260.565 312.305 261.025 312.535 261.435C312.765 261.835 313.07 262.155 313.45 262.395C313.83 262.635 314.25 262.755 314.71 262.755C314.98 262.755 315.24 262.71 315.49 262.62C315.75 262.53 316 262.395 316.24 262.215C316.48 262.035 316.705 261.815 316.915 261.555L317.77 262.605C317.45 263.055 316.99 263.425 316.39 263.715C315.8 264.005 315.185 264.15 314.545 264.15ZM319.427 264V252.9H320.972V257.745L320.702 257.925C320.802 257.575 320.997 257.255 321.287 256.965C321.577 256.665 321.922 256.425 322.322 256.245C322.722 256.055 323.132 255.96 323.552 255.96C324.152 255.96 324.652 256.08 325.052 256.32C325.452 256.55 325.752 256.905 325.952 257.385C326.152 257.865 326.252 258.47 326.252 259.2V264H324.707V259.305C324.707 258.855 324.647 258.485 324.527 258.195C324.407 257.895 324.222 257.68 323.972 257.55C323.722 257.41 323.412 257.35 323.042 257.37C322.742 257.37 322.467 257.42 322.217 257.52C321.967 257.61 321.747 257.74 321.557 257.91C321.377 258.08 321.232 258.28 321.122 258.51C321.022 258.73 320.972 258.97 320.972 259.23V264H320.207C320.077 264 319.947 264 319.817 264C319.687 264 319.557 264 319.427 264Z" fill="#FCFBF9"/>
<defs>
<filter id="filter0_d_438_377" x="17" y="0" width="358" height="209.247" filterUnits="userSpaceOnUse" color-interpolation-filters="sRGB">
<feFlood flood-opacity="0" result="BackgroundImageFix"/>
<feColorMatrix in="SourceAlpha" type="matrix" values="0 0 0 0 0 0 0 0 0 0 0 0 0 0 0 0 0 0 127 0" result="hardAlpha"/>
<feOffset dy="4"/>
<feGaussianBlur stdDeviation="2"/>
<feComposite in2="hardAlpha" operator="out"/>
<feColorMatrix type="matrix" values="0 0 0 0 0 0 0 0 0 0 0 0 0 0 0 0 0 0 0.05 0"/>
<feBlend mode="normal" in2="BackgroundImageFix" result="effect1_dropShadow_438_377"/>
<feBlend mode="normal" in="SourceGraphic" in2="effect1_dropShadow_438_377" result="shape"/>
</filter>
</defs>
</svg>
