<svg width="391" height="353" viewBox="0 0 391 353" fill="none" xmlns="http://www.w3.org/2000/svg">
<g filter="url(#filter0_d_438_374)">
<rect x="21.5918" y="75.2949" width="349" height="123.774" rx="5" fill="white"/>
</g>
<path d="M38.4446 107.068V96.5684H42.5546C43.3046 96.5684 43.9796 96.6934 44.5796 96.9434C45.1896 97.1934 45.7096 97.5534 46.1396 98.0234C46.5696 98.4934 46.8996 99.0484 47.1296 99.6884C47.3596 100.328 47.4746 101.038 47.4746 101.818C47.4746 102.598 47.3596 103.313 47.1296 103.963C46.8996 104.603 46.5696 105.158 46.1396 105.628C45.7196 106.088 45.2046 106.443 44.5946 106.693C43.9846 106.943 43.3046 107.068 42.5546 107.068H38.4446ZM40.0646 105.673L40.0196 105.508H42.4796C43.0096 105.508 43.4796 105.423 43.8896 105.253C44.3096 105.083 44.6596 104.843 44.9396 104.533C45.2296 104.213 45.4496 103.823 45.5996 103.363C45.7496 102.903 45.8246 102.388 45.8246 101.818C45.8246 101.248 45.7496 100.738 45.5996 100.288C45.4496 99.8284 45.2296 99.4384 44.9396 99.1184C44.6496 98.7984 44.2996 98.5534 43.8896 98.3834C43.4796 98.2134 43.0096 98.1284 42.4796 98.1284H39.9746L40.0646 97.9934V105.673ZM49.7303 107.068V99.1934H51.2753V107.068H49.7303ZM50.4803 97.4534C50.1503 97.4534 49.8953 97.3684 49.7153 97.1984C49.5353 97.0284 49.4453 96.7884 49.4453 96.4784C49.4453 96.1884 49.5353 95.9534 49.7153 95.7734C49.9053 95.5934 50.1603 95.5034 50.4803 95.5034C50.8103 95.5034 51.0653 95.5884 51.2453 95.7584C51.4253 95.9284 51.5153 96.1684 51.5153 96.4784C51.5153 96.7684 51.4203 97.0034 51.2303 97.1834C51.0503 97.3634 50.8003 97.4534 50.4803 97.4534ZM56.4751 107.218C55.8151 107.218 55.2201 107.103 54.6901 106.873C54.1601 106.643 53.7201 106.303 53.3701 105.853L54.4201 104.953C54.7201 105.303 55.0451 105.558 55.3951 105.718C55.7551 105.868 56.1601 105.943 56.6101 105.943C56.7901 105.943 56.9551 105.923 57.1051 105.883C57.2651 105.833 57.4001 105.763 57.5101 105.673C57.6301 105.583 57.7201 105.478 57.7801 105.358C57.8401 105.228 57.8701 105.088 57.8701 104.938C57.8701 104.678 57.7751 104.468 57.5851 104.308C57.4851 104.238 57.3251 104.163 57.1051 104.083C56.8951 103.993 56.6201 103.903 56.2801 103.813C55.7001 103.663 55.2251 103.493 54.8551 103.303C54.4851 103.113 54.2001 102.898 54.0001 102.658C53.8501 102.468 53.7401 102.263 53.6701 102.043C53.6001 101.813 53.5651 101.563 53.5651 101.293C53.5651 100.963 53.6351 100.663 53.7751 100.393C53.9251 100.113 54.1251 99.8734 54.3751 99.6734C54.6351 99.4634 54.9351 99.3034 55.2751 99.1934C55.6251 99.0834 55.9951 99.0284 56.3851 99.0284C56.7551 99.0284 57.1201 99.0784 57.4801 99.1784C57.8501 99.2784 58.1901 99.4234 58.5001 99.6134C58.8101 99.8034 59.0701 100.028 59.2801 100.288L58.3951 101.263C58.2051 101.073 57.9951 100.908 57.7651 100.768C57.5451 100.618 57.3201 100.503 57.0901 100.423C56.8601 100.343 56.6501 100.303 56.4601 100.303C56.2501 100.303 56.0601 100.323 55.8901 100.363C55.7201 100.403 55.5751 100.463 55.4551 100.543C55.3451 100.623 55.2601 100.723 55.2001 100.843C55.1401 100.963 55.1101 101.098 55.1101 101.248C55.1201 101.378 55.1501 101.503 55.2001 101.623C55.2601 101.733 55.3401 101.828 55.4401 101.908C55.5501 101.988 55.7151 102.073 55.9351 102.163C56.1551 102.253 56.4351 102.338 56.7751 102.418C57.2751 102.548 57.6851 102.693 58.0051 102.853C58.3351 103.003 58.5951 103.178 58.7851 103.378C58.9851 103.568 59.1251 103.788 59.2051 104.038C59.2851 104.288 59.3251 104.568 59.3251 104.878C59.3251 105.328 59.1951 105.733 58.9351 106.093C58.6851 106.443 58.3451 106.718 57.9151 106.918C57.4851 107.118 57.0051 107.218 56.4751 107.218ZM62.2029 107.068V97.1834H63.7479V107.068H62.2029ZM60.5679 100.693V99.1934H65.5779V100.693H60.5679ZM70.1414 107.218C69.4914 107.218 68.8964 107.038 68.3564 106.678C67.8264 106.318 67.4014 105.828 67.0814 105.208C66.7614 104.588 66.6014 103.888 66.6014 103.108C66.6014 102.318 66.7614 101.618 67.0814 101.008C67.4114 100.388 67.8514 99.9034 68.4014 99.5534C68.9614 99.2034 69.5864 99.0284 70.2764 99.0284C70.6864 99.0284 71.0614 99.0884 71.4014 99.2084C71.7414 99.3284 72.0364 99.4984 72.2864 99.7184C72.5464 99.9284 72.7564 100.173 72.9164 100.453C73.0864 100.733 73.1914 101.033 73.2314 101.353L72.8864 101.233V99.1934H74.4464V107.068H72.8864V105.193L73.2464 105.088C73.1864 105.358 73.0614 105.623 72.8714 105.883C72.6914 106.133 72.4564 106.358 72.1664 106.558C71.8864 106.758 71.5714 106.918 71.2214 107.038C70.8814 107.158 70.5214 107.218 70.1414 107.218ZM70.5464 105.793C71.0164 105.793 71.4314 105.678 71.7914 105.448C72.1514 105.218 72.4314 104.903 72.6314 104.503C72.8414 104.093 72.9464 103.628 72.9464 103.108C72.9464 102.598 72.8414 102.143 72.6314 101.743C72.4314 101.343 72.1514 101.028 71.7914 100.798C71.4314 100.568 71.0164 100.453 70.5464 100.453C70.0864 100.453 69.6764 100.568 69.3164 100.798C68.9664 101.028 68.6864 101.343 68.4764 101.743C68.2764 102.143 68.1764 102.598 68.1764 103.108C68.1764 103.628 68.2764 104.093 68.4764 104.503C68.6864 104.903 68.9664 105.218 69.3164 105.448C69.6764 105.678 70.0864 105.793 70.5464 105.793ZM76.8036 107.068V99.1934H78.3486V100.813L78.0786 100.993C78.1786 100.643 78.3736 100.323 78.6636 100.033C78.9536 99.7334 79.2986 99.4934 79.6986 99.3134C80.0986 99.1234 80.5086 99.0284 80.9286 99.0284C81.5286 99.0284 82.0286 99.1484 82.4286 99.3884C82.8286 99.6184 83.1286 99.9734 83.3286 100.453C83.5286 100.933 83.6286 101.538 83.6286 102.268V107.068H82.0836V102.373C82.0836 101.923 82.0236 101.553 81.9036 101.263C81.7836 100.963 81.5986 100.748 81.3486 100.618C81.0986 100.478 80.7886 100.418 80.4186 100.438C80.1186 100.438 79.8436 100.488 79.5936 100.588C79.3436 100.678 79.1236 100.808 78.9336 100.978C78.7536 101.148 78.6086 101.348 78.4986 101.578C78.3986 101.798 78.3486 102.038 78.3486 102.298V107.068H77.5836C77.4536 107.068 77.3236 107.068 77.1936 107.068C77.0636 107.068 76.9336 107.068 76.8036 107.068ZM89.2695 107.218C88.5395 107.218 87.8845 107.038 87.3045 106.678C86.7345 106.318 86.2795 105.828 85.9395 105.208C85.6095 104.588 85.4445 103.893 85.4445 103.123C85.4445 102.353 85.6095 101.658 85.9395 101.038C86.2795 100.418 86.7345 99.9284 87.3045 99.5684C87.8845 99.2084 88.5395 99.0284 89.2695 99.0284C89.9695 99.0284 90.6045 99.1734 91.1745 99.4634C91.7545 99.7434 92.1945 100.128 92.4945 100.618L91.6395 101.668C91.4795 101.438 91.2745 101.228 91.0245 101.038C90.7745 100.848 90.5095 100.698 90.2295 100.588C89.9495 100.478 89.6795 100.423 89.4195 100.423C88.9395 100.423 88.5095 100.543 88.1295 100.783C87.7595 101.013 87.4645 101.333 87.2445 101.743C87.0245 102.153 86.9145 102.613 86.9145 103.123C86.9145 103.633 87.0295 104.093 87.2595 104.503C87.4895 104.903 87.7945 105.223 88.1745 105.463C88.5545 105.703 88.9745 105.823 89.4345 105.823C89.7045 105.823 89.9645 105.778 90.2145 105.688C90.4745 105.598 90.7245 105.463 90.9645 105.283C91.2045 105.103 91.4295 104.883 91.6395 104.623L92.4945 105.673C92.1745 106.123 91.7145 106.493 91.1145 106.783C90.5245 107.073 89.9095 107.218 89.2695 107.218ZM97.8269 107.218C97.0169 107.218 96.2969 107.048 95.6669 106.708C95.0469 106.358 94.5569 105.883 94.1969 105.283C93.8469 104.683 93.6719 103.993 93.6719 103.213C93.6719 102.593 93.7719 102.028 93.9719 101.518C94.1719 101.008 94.4469 100.568 94.7969 100.198C95.1569 99.8184 95.5819 99.5284 96.0719 99.3284C96.5719 99.1184 97.1119 99.0134 97.6919 99.0134C98.2019 99.0134 98.6769 99.1134 99.1169 99.3134C99.5569 99.5034 99.9369 99.7684 100.257 100.108C100.587 100.448 100.837 100.853 101.007 101.323C101.187 101.783 101.272 102.288 101.262 102.838L101.247 103.498H94.8119L94.4669 102.268H99.9119L99.6869 102.523V102.163C99.6569 101.833 99.5469 101.538 99.3569 101.278C99.1669 101.018 98.9269 100.813 98.6369 100.663C98.3469 100.513 98.0319 100.438 97.6919 100.438C97.1519 100.438 96.6969 100.543 96.3269 100.753C95.9569 100.953 95.6769 101.253 95.4869 101.653C95.2969 102.043 95.2019 102.528 95.2019 103.108C95.2019 103.658 95.3169 104.138 95.5469 104.548C95.7769 104.948 96.1019 105.258 96.5219 105.478C96.9419 105.698 97.4269 105.808 97.9769 105.808C98.3669 105.808 98.7269 105.743 99.0569 105.613C99.3969 105.483 99.7619 105.248 100.152 104.908L100.932 106.003C100.692 106.243 100.397 106.453 100.047 106.633C99.7069 106.813 99.3419 106.958 98.9519 107.068C98.5719 107.168 98.1969 107.218 97.8269 107.218Z" fill="#1E238E"/>
<path d="M42.5171 148.689C41.8271 148.689 41.2021 148.534 40.6421 148.224C40.0821 147.904 39.6171 147.449 39.2471 146.859L39.9521 146.094C40.3721 146.654 40.7921 147.044 41.2121 147.264C41.6421 147.474 42.0821 147.579 42.5321 147.579C43.0121 147.579 43.4471 147.469 43.8371 147.249C44.2371 147.019 44.5521 146.714 44.7821 146.334C45.0121 145.954 45.1271 145.534 45.1271 145.074C45.1271 144.624 45.0221 144.219 44.8121 143.859C44.6021 143.489 44.3171 143.199 43.9571 142.989C43.5971 142.769 43.1821 142.659 42.7121 142.659C42.4621 142.659 42.2121 142.689 41.9621 142.749C41.7121 142.799 41.4521 142.884 41.1821 143.004C40.9221 143.114 40.6421 143.254 40.3421 143.424L39.6821 142.539L40.2971 138.084H45.9671V139.179H40.9121L41.2871 138.909L40.7321 142.584L40.3871 142.344C40.5471 142.214 40.7621 142.089 41.0321 141.969C41.3021 141.849 41.5971 141.754 41.9171 141.684C42.2471 141.604 42.5671 141.564 42.8771 141.564C43.5271 141.564 44.1071 141.714 44.6171 142.014C45.1271 142.304 45.5321 142.709 45.8321 143.229C46.1321 143.739 46.2821 144.329 46.2821 144.999C46.2821 145.699 46.1171 146.329 45.7871 146.889C45.4571 147.439 45.0071 147.879 44.4371 148.209C43.8671 148.529 43.2271 148.689 42.5171 148.689ZM49.4875 146.064L49.4425 144.759L53.5375 140.754H55.0525L49.4875 146.064ZM48.4825 148.584V137.484H49.6075V148.584H48.4825ZM53.8525 148.584L50.5525 144.759L51.3475 143.979L55.3225 148.584H53.8525ZM56.7388 148.584V140.754H57.8638L57.8938 142.539L57.6688 142.614C57.7488 142.314 57.8788 142.044 58.0588 141.804C58.2488 141.554 58.4738 141.339 58.7338 141.159C58.9938 140.979 59.2788 140.844 59.5888 140.754C59.8988 140.654 60.2238 140.604 60.5638 140.604C60.9738 140.604 61.3388 140.674 61.6588 140.814C61.9888 140.944 62.2638 141.174 62.4838 141.504C62.7138 141.824 62.8888 142.249 63.0088 142.779L62.7388 142.644L62.8438 142.389C62.9438 142.159 63.0888 141.939 63.2788 141.729C63.4788 141.509 63.7038 141.314 63.9538 141.144C64.2138 140.974 64.4938 140.844 64.7938 140.754C65.1038 140.654 65.4188 140.604 65.7388 140.604C66.2888 140.604 66.7538 140.724 67.1338 140.964C67.5138 141.194 67.7988 141.549 67.9888 142.029C68.1888 142.509 68.2888 143.119 68.2888 143.859V148.584H67.1338V143.919C67.1338 143.399 67.0688 142.974 66.9388 142.644C66.8088 142.314 66.6138 142.069 66.3538 141.909C66.1038 141.739 65.7838 141.654 65.3938 141.654C65.0538 141.654 64.7388 141.714 64.4488 141.834C64.1688 141.944 63.9238 142.104 63.7138 142.314C63.5138 142.514 63.3538 142.744 63.2338 143.004C63.1238 143.264 63.0688 143.544 63.0688 143.844V148.584H61.9288V143.904C61.9288 143.404 61.8588 142.989 61.7188 142.659C61.5888 142.329 61.3938 142.079 61.1338 141.909C60.8738 141.739 60.5538 141.654 60.1738 141.654C59.8438 141.654 59.5388 141.714 59.2588 141.834C58.9788 141.944 58.7338 142.099 58.5238 142.299C58.3238 142.499 58.1638 142.729 58.0438 142.989C57.9338 143.249 57.8788 143.529 57.8788 143.829V148.584H56.7388Z" fill="#1E238E"/>
<path d="M309.279 151.518C308.589 151.518 307.964 151.363 307.404 151.053C306.844 150.733 306.379 150.278 306.009 149.688L306.714 148.923C307.134 149.483 307.554 149.873 307.974 150.093C308.404 150.303 308.844 150.408 309.294 150.408C309.774 150.408 310.209 150.298 310.599 150.078C310.999 149.848 311.314 149.543 311.544 149.163C311.774 148.783 311.889 148.363 311.889 147.903C311.889 147.453 311.784 147.048 311.574 146.688C311.364 146.318 311.079 146.028 310.719 145.818C310.359 145.598 309.944 145.488 309.474 145.488C309.224 145.488 308.974 145.518 308.724 145.578C308.474 145.628 308.214 145.713 307.944 145.833C307.684 145.943 307.404 146.083 307.104 146.253L306.444 145.368L307.059 140.913H312.729V142.008H307.674L308.049 141.738L307.494 145.413L307.149 145.173C307.309 145.043 307.524 144.918 307.794 144.798C308.064 144.678 308.359 144.583 308.679 144.513C309.009 144.433 309.329 144.393 309.639 144.393C310.289 144.393 310.869 144.543 311.379 144.843C311.889 145.133 312.294 145.538 312.594 146.058C312.894 146.568 313.044 147.158 313.044 147.828C313.044 148.528 312.879 149.158 312.549 149.718C312.219 150.268 311.769 150.708 311.199 151.038C310.629 151.358 309.989 151.518 309.279 151.518ZM318.739 151.563C317.919 151.563 317.219 151.348 316.639 150.918C316.069 150.488 315.629 149.873 315.319 149.073C315.019 148.263 314.869 147.293 314.869 146.163C314.869 145.033 315.019 144.068 315.319 143.268C315.629 142.458 316.069 141.838 316.639 141.408C317.219 140.978 317.919 140.763 318.739 140.763C319.549 140.763 320.244 140.978 320.824 141.408C321.404 141.838 321.844 142.458 322.144 143.268C322.454 144.068 322.609 145.033 322.609 146.163C322.609 147.293 322.454 148.263 322.144 149.073C321.844 149.873 321.404 150.488 320.824 150.918C320.244 151.348 319.549 151.563 318.739 151.563ZM318.739 150.468C319.599 150.468 320.259 150.093 320.719 149.343C321.189 148.593 321.424 147.533 321.424 146.163C321.424 144.793 321.189 143.733 320.719 142.983C320.259 142.233 319.599 141.858 318.739 141.858C317.869 141.858 317.199 142.233 316.729 142.983C316.269 143.733 316.039 144.793 316.039 146.163C316.039 147.533 316.269 148.593 316.729 149.343C317.199 150.093 317.869 150.468 318.739 150.468ZM325.634 148.893L325.589 147.588L329.684 143.583H331.199L325.634 148.893ZM324.629 151.413V140.313H325.754V151.413H324.629ZM329.999 151.413L326.699 147.588L327.494 146.808L331.469 151.413H329.999ZM332.885 151.413V143.583H334.01L334.04 145.368L333.815 145.443C333.895 145.143 334.025 144.873 334.205 144.633C334.395 144.383 334.62 144.168 334.88 143.988C335.14 143.808 335.425 143.673 335.735 143.583C336.045 143.483 336.37 143.433 336.71 143.433C337.12 143.433 337.485 143.503 337.805 143.643C338.135 143.773 338.41 144.003 338.63 144.333C338.86 144.653 339.035 145.078 339.155 145.608L338.885 145.473L338.99 145.218C339.09 144.988 339.235 144.768 339.425 144.558C339.625 144.338 339.85 144.143 340.1 143.973C340.36 143.803 340.64 143.673 340.94 143.583C341.25 143.483 341.565 143.433 341.885 143.433C342.435 143.433 342.9 143.553 343.28 143.793C343.66 144.023 343.945 144.378 344.135 144.858C344.335 145.338 344.435 145.948 344.435 146.688V151.413H343.28V146.748C343.28 146.228 343.215 145.803 343.085 145.473C342.955 145.143 342.76 144.898 342.5 144.738C342.25 144.568 341.93 144.483 341.54 144.483C341.2 144.483 340.885 144.543 340.595 144.663C340.315 144.773 340.07 144.933 339.86 145.143C339.66 145.343 339.5 145.573 339.38 145.833C339.27 146.093 339.215 146.373 339.215 146.673V151.413H338.075V146.733C338.075 146.233 338.005 145.818 337.865 145.488C337.735 145.158 337.54 144.908 337.28 144.738C337.02 144.568 336.7 144.483 336.32 144.483C335.99 144.483 335.685 144.543 335.405 144.663C335.125 144.773 334.88 144.928 334.67 145.128C334.47 145.328 334.31 145.558 334.19 145.818C334.08 146.078 334.025 146.358 334.025 146.658V151.413H332.885ZM346.422 147.678V146.658H353.787V147.678H346.422ZM349.512 150.783V143.538H350.667V150.783H349.512Z" fill="#1E238E"/>
<g clip-path="url(#clip0_438_374)">
<rect x="37.8179" y="171.747" width="312" height="4" rx="2" fill="#D9D9D9"/>
<rect x="37.8179" y="171.747" width="40.3975" height="4" rx="2" fill="#1E238E"/>
<g filter="url(#filter1_d_438_374)">
<circle cx="67.9321" cy="174.39" r="14" fill="#1E238E"/>
</g>
</g>
<path d="M1 50.1895H389.99" stroke="#EAEAEA" stroke-linecap="round" stroke-linejoin="round"/>
<g filter="url(#filter2_d_438_374)">
<rect x="21.8574" y="217.295" width="349" height="123" rx="5" fill="white"/>
</g>
<path d="M38.4446 249.068V238.568H42.8246C43.4946 238.568 44.0596 238.668 44.5196 238.868C44.9796 239.068 45.3246 239.368 45.5546 239.768C45.7946 240.158 45.9146 240.638 45.9146 241.208C45.9146 241.778 45.7546 242.263 45.4346 242.663C45.1246 243.063 44.6896 243.338 44.1296 243.488V243.188C44.5996 243.288 45.0096 243.468 45.3596 243.728C45.7096 243.978 45.9796 244.293 46.1696 244.673C46.3696 245.053 46.4696 245.488 46.4696 245.978C46.4696 246.478 46.3896 246.923 46.2296 247.313C46.0796 247.693 45.8496 248.013 45.5396 248.273C45.2396 248.533 44.8746 248.733 44.4446 248.873C44.0146 249.003 43.5246 249.068 42.9746 249.068H38.4446ZM40.0646 247.508H42.8846C43.2946 247.508 43.6396 247.448 43.9196 247.328C44.2096 247.208 44.4296 247.033 44.5796 246.803C44.7396 246.563 44.8196 246.278 44.8196 245.948C44.8196 245.638 44.7346 245.373 44.5646 245.153C44.4046 244.933 44.1746 244.768 43.8746 244.658C43.5746 244.538 43.2196 244.478 42.8096 244.478H40.0646V247.508ZM40.0646 242.918H42.7346C43.0346 242.918 43.2996 242.858 43.5296 242.738C43.7696 242.618 43.9546 242.453 44.0846 242.243C44.2246 242.033 44.2946 241.793 44.2946 241.523C44.2946 241.073 44.1446 240.728 43.8446 240.488C43.5446 240.248 43.1146 240.128 42.5546 240.128H40.0646V242.918ZM51.2246 249.218C50.6646 249.218 50.1746 249.088 49.7546 248.828C49.3446 248.568 49.0246 248.203 48.7946 247.733C48.5746 247.263 48.4646 246.703 48.4646 246.053V241.193H50.0096V245.633C50.0096 246.093 50.0796 246.493 50.2196 246.833C50.3696 247.163 50.5796 247.418 50.8496 247.598C51.1296 247.778 51.4646 247.868 51.8546 247.868C52.1446 247.868 52.4096 247.823 52.6496 247.733C52.8896 247.633 53.0946 247.498 53.2646 247.328C53.4446 247.158 53.5846 246.953 53.6846 246.713C53.7846 246.473 53.8346 246.213 53.8346 245.933V241.193H55.3796V249.068H53.8346V247.418L54.1046 247.238C53.9846 247.608 53.7796 247.943 53.4896 248.243C53.2096 248.543 52.8746 248.783 52.4846 248.963C52.0946 249.133 51.6746 249.218 51.2246 249.218ZM61.0316 249.218C60.3116 249.218 59.6666 249.043 59.0966 248.693C58.5366 248.333 58.0916 247.848 57.7616 247.238C57.4316 246.618 57.2666 245.913 57.2666 245.123C57.2666 244.333 57.4266 243.633 57.7466 243.023C58.0766 242.403 58.5216 241.918 59.0816 241.568C59.6416 241.208 60.2766 241.028 60.9866 241.028C61.3766 241.028 61.7516 241.093 62.1116 241.223C62.4816 241.343 62.8116 241.513 63.1016 241.733C63.3916 241.943 63.6166 242.178 63.7766 242.438C63.9466 242.688 64.0316 242.943 64.0316 243.203L63.5816 243.233V237.968H65.1266V249.068H63.5816V247.193H63.8816C63.8816 247.433 63.8016 247.673 63.6416 247.913C63.4816 248.143 63.2666 248.358 62.9966 248.558C62.7366 248.758 62.4316 248.918 62.0816 249.038C61.7416 249.158 61.3916 249.218 61.0316 249.218ZM61.2416 247.883C61.7116 247.883 62.1266 247.763 62.4866 247.523C62.8466 247.283 63.1266 246.958 63.3266 246.548C63.5366 246.128 63.6416 245.653 63.6416 245.123C63.6416 244.593 63.5366 244.123 63.3266 243.713C63.1266 243.293 62.8466 242.963 62.4866 242.723C62.1266 242.483 61.7116 242.363 61.2416 242.363C60.7716 242.363 60.3566 242.483 59.9966 242.723C59.6366 242.963 59.3516 243.293 59.1416 243.713C58.9416 244.123 58.8416 244.593 58.8416 245.123C58.8416 245.653 58.9416 246.128 59.1416 246.548C59.3516 246.958 59.6366 247.283 59.9966 247.523C60.3566 247.763 60.7716 247.883 61.2416 247.883ZM70.9784 252.518C70.4184 252.518 69.8584 252.428 69.2984 252.248C68.7484 252.078 68.3034 251.853 67.9634 251.573L68.5334 250.373C68.7334 250.523 68.9684 250.653 69.2384 250.763C69.5084 250.883 69.7934 250.973 70.0934 251.033C70.3934 251.103 70.6884 251.138 70.9784 251.138C71.5284 251.138 71.9884 251.048 72.3584 250.868C72.7284 250.688 73.0084 250.423 73.1984 250.073C73.3884 249.723 73.4834 249.288 73.4834 248.768V247.253L73.6484 247.358C73.5984 247.668 73.4334 247.968 73.1534 248.258C72.8834 248.538 72.5434 248.768 72.1334 248.948C71.7234 249.128 71.3034 249.218 70.8734 249.218C70.1234 249.218 69.4534 249.043 68.8634 248.693C68.2834 248.333 67.8234 247.848 67.4834 247.238C67.1434 246.618 66.9734 245.913 66.9734 245.123C66.9734 244.333 67.1384 243.633 67.4684 243.023C67.8084 242.403 68.2684 241.918 68.8484 241.568C69.4384 241.208 70.0984 241.028 70.8284 241.028C71.1284 241.028 71.4184 241.068 71.6984 241.148C71.9784 241.218 72.2384 241.323 72.4784 241.463C72.7184 241.593 72.9334 241.738 73.1234 241.898C73.3134 242.058 73.4684 242.228 73.5884 242.408C73.7084 242.588 73.7834 242.758 73.8134 242.918L73.4834 243.038V241.193H75.0284V248.588C75.0284 249.218 74.9334 249.773 74.7434 250.253C74.5634 250.743 74.2984 251.153 73.9484 251.483C73.5984 251.823 73.1734 252.078 72.6734 252.248C72.1734 252.428 71.6084 252.518 70.9784 252.518ZM71.0384 247.793C71.5284 247.793 71.9634 247.678 72.3434 247.448C72.7234 247.218 73.0184 246.903 73.2284 246.503C73.4384 246.103 73.5434 245.643 73.5434 245.123C73.5434 244.603 73.4334 244.143 73.2134 243.743C73.0034 243.333 72.7084 243.013 72.3284 242.783C71.9584 242.553 71.5284 242.438 71.0384 242.438C70.5584 242.438 70.1284 242.558 69.7484 242.798C69.3784 243.028 69.0834 243.348 68.8634 243.758C68.6534 244.158 68.5484 244.613 68.5484 245.123C68.5484 245.633 68.6534 246.093 68.8634 246.503C69.0834 246.903 69.3784 247.218 69.7484 247.448C70.1284 247.678 70.5584 247.793 71.0384 247.793ZM81.0696 249.218C80.2596 249.218 79.5396 249.048 78.9096 248.708C78.2896 248.358 77.7996 247.883 77.4396 247.283C77.0896 246.683 76.9146 245.993 76.9146 245.213C76.9146 244.593 77.0146 244.028 77.2146 243.518C77.4146 243.008 77.6896 242.568 78.0396 242.198C78.3996 241.818 78.8246 241.528 79.3146 241.328C79.8146 241.118 80.3546 241.013 80.9346 241.013C81.4446 241.013 81.9196 241.113 82.3596 241.313C82.7996 241.503 83.1796 241.768 83.4996 242.108C83.8296 242.448 84.0796 242.853 84.2496 243.323C84.4296 243.783 84.5146 244.288 84.5046 244.838L84.4896 245.498H78.0546L77.7096 244.268H83.1546L82.9296 244.523V244.163C82.8996 243.833 82.7896 243.538 82.5996 243.278C82.4096 243.018 82.1696 242.813 81.8796 242.663C81.5896 242.513 81.2746 242.438 80.9346 242.438C80.3946 242.438 79.9396 242.543 79.5696 242.753C79.1996 242.953 78.9196 243.253 78.7296 243.653C78.5396 244.043 78.4446 244.528 78.4446 245.108C78.4446 245.658 78.5596 246.138 78.7896 246.548C79.0196 246.948 79.3446 247.258 79.7646 247.478C80.1846 247.698 80.6696 247.808 81.2196 247.808C81.6096 247.808 81.9696 247.743 82.2996 247.613C82.6396 247.483 83.0046 247.248 83.3946 246.908L84.1746 248.003C83.9346 248.243 83.6396 248.453 83.2896 248.633C82.9496 248.813 82.5846 248.958 82.1946 249.068C81.8146 249.168 81.4396 249.218 81.0696 249.218ZM87.3587 249.068V239.183H88.9037V249.068H87.3587ZM85.7237 242.693V241.193H90.7337V242.693H85.7237Z" fill="#1E238E"/>
<g clip-path="url(#clip1_438_374)">
<rect width="316" height="39" transform="translate(35.7285 288)" fill="white"/>
<rect x="37.8179" y="305.747" width="312" height="4" rx="2" fill="#D9D9D9"/>
<rect x="37.8179" y="305.747" width="40.3975" height="4" rx="2" fill="#1E238E"/>
<g filter="url(#filter3_d_438_374)">
<circle cx="67.9321" cy="308.39" r="14" fill="#1E238E"/>
</g>
</g>
<path d="M40.7984 286.186C39.9984 286.186 39.2684 286.021 38.6084 285.691C37.9484 285.361 37.4034 284.906 36.9734 284.326L37.7834 283.426C38.2334 283.996 38.6984 284.416 39.1784 284.686C39.6684 284.956 40.2434 285.091 40.9034 285.091C41.3534 285.091 41.7634 285.016 42.1334 284.866C42.5034 284.716 42.7934 284.506 43.0034 284.236C43.2134 283.966 43.3184 283.656 43.3184 283.306C43.3184 283.086 43.2834 282.886 43.2134 282.706C43.1434 282.526 43.0334 282.366 42.8834 282.226C42.7434 282.086 42.5634 281.961 42.3434 281.851C42.1334 281.741 41.8834 281.641 41.5934 281.551C41.3034 281.461 40.9734 281.371 40.6034 281.281C39.9234 281.131 39.3484 280.931 38.8784 280.681C38.4184 280.421 38.0684 280.096 37.8284 279.706C37.5984 279.306 37.4834 278.831 37.4834 278.281C37.4834 277.871 37.5684 277.491 37.7384 277.141C37.9184 276.791 38.1634 276.491 38.4734 276.241C38.7834 275.981 39.1484 275.781 39.5684 275.641C39.9884 275.501 40.4384 275.431 40.9184 275.431C41.7284 275.431 42.4184 275.586 42.9884 275.896C43.5584 276.196 44.0134 276.606 44.3534 277.126L43.5284 277.951C43.2284 277.511 42.8584 277.161 42.4184 276.901C41.9784 276.641 41.4734 276.511 40.9034 276.511C40.4634 276.511 40.0734 276.586 39.7334 276.736C39.4034 276.886 39.1434 277.096 38.9534 277.366C38.7634 277.626 38.6684 277.926 38.6684 278.266C38.6684 278.516 38.7134 278.736 38.8034 278.926C38.8934 279.106 39.0284 279.266 39.2084 279.406C39.3984 279.546 39.6534 279.676 39.9734 279.796C40.2934 279.916 40.6784 280.031 41.1284 280.141C41.6584 280.261 42.1284 280.411 42.5384 280.591C42.9584 280.771 43.3134 280.981 43.6034 281.221C43.9034 281.451 44.1284 281.721 44.2784 282.031C44.4284 282.341 44.5034 282.691 44.5034 283.081C44.5034 283.701 44.3484 284.246 44.0384 284.716C43.7284 285.176 43.2934 285.536 42.7334 285.796C42.1834 286.056 41.5384 286.186 40.7984 286.186ZM40.1684 287.401V280.591L41.2634 281.086V287.401H40.1684ZM41.5784 281.086L40.4984 280.591V274.306H41.5784V281.086ZM50.1093 286.186C49.2893 286.186 48.5893 285.971 48.0093 285.541C47.4393 285.111 46.9993 284.496 46.6893 283.696C46.3893 282.886 46.2393 281.916 46.2393 280.786C46.2393 279.656 46.3893 278.691 46.6893 277.891C46.9993 277.081 47.4393 276.461 48.0093 276.031C48.5893 275.601 49.2893 275.386 50.1093 275.386C50.9193 275.386 51.6143 275.601 52.1943 276.031C52.7743 276.461 53.2143 277.081 53.5143 277.891C53.8243 278.691 53.9793 279.656 53.9793 280.786C53.9793 281.916 53.8243 282.886 53.5143 283.696C53.2143 284.496 52.7743 285.111 52.1943 285.541C51.6143 285.971 50.9193 286.186 50.1093 286.186ZM50.1093 285.091C50.9693 285.091 51.6293 284.716 52.0893 283.966C52.5593 283.216 52.7943 282.156 52.7943 280.786C52.7943 279.416 52.5593 278.356 52.0893 277.606C51.6293 276.856 50.9693 276.481 50.1093 276.481C49.2393 276.481 48.5693 276.856 48.0993 277.606C47.6393 278.356 47.4093 279.416 47.4093 280.786C47.4093 282.156 47.6393 283.216 48.0993 283.966C48.5693 284.716 49.2393 285.091 50.1093 285.091Z" fill="#1E238E"/>
<path d="M310.517 288.572C309.717 288.572 308.987 288.407 308.327 288.077C307.667 287.747 307.122 287.292 306.692 286.712L307.502 285.812C307.952 286.382 308.417 286.802 308.897 287.072C309.387 287.342 309.962 287.477 310.622 287.477C311.072 287.477 311.482 287.402 311.852 287.252C312.222 287.102 312.512 286.892 312.722 286.622C312.932 286.352 313.037 286.042 313.037 285.692C313.037 285.472 313.002 285.272 312.932 285.092C312.862 284.912 312.752 284.752 312.602 284.612C312.462 284.472 312.282 284.347 312.062 284.237C311.852 284.127 311.602 284.027 311.312 283.937C311.022 283.847 310.692 283.757 310.322 283.667C309.642 283.517 309.067 283.317 308.597 283.067C308.137 282.807 307.787 282.482 307.547 282.092C307.317 281.692 307.202 281.217 307.202 280.667C307.202 280.257 307.287 279.877 307.457 279.527C307.637 279.177 307.882 278.877 308.192 278.627C308.502 278.367 308.867 278.167 309.287 278.027C309.707 277.887 310.157 277.817 310.637 277.817C311.447 277.817 312.137 277.972 312.707 278.282C313.277 278.582 313.732 278.992 314.072 279.512L313.247 280.337C312.947 279.897 312.577 279.547 312.137 279.287C311.697 279.027 311.192 278.897 310.622 278.897C310.182 278.897 309.792 278.972 309.452 279.122C309.122 279.272 308.862 279.482 308.672 279.752C308.482 280.012 308.387 280.312 308.387 280.652C308.387 280.902 308.432 281.122 308.522 281.312C308.612 281.492 308.747 281.652 308.927 281.792C309.117 281.932 309.372 282.062 309.692 282.182C310.012 282.302 310.397 282.417 310.847 282.527C311.377 282.647 311.847 282.797 312.257 282.977C312.677 283.157 313.032 283.367 313.322 283.607C313.622 283.837 313.847 284.107 313.997 284.417C314.147 284.727 314.222 285.077 314.222 285.467C314.222 286.087 314.067 286.632 313.757 287.102C313.447 287.562 313.012 287.922 312.452 288.182C311.902 288.442 311.257 288.572 310.517 288.572ZM309.887 289.787V282.977L310.982 283.472V289.787H309.887ZM311.297 283.472L310.217 282.977V276.692H311.297V283.472ZM319.093 288.527C318.403 288.527 317.778 288.372 317.218 288.062C316.658 287.742 316.193 287.287 315.823 286.697L316.528 285.932C316.948 286.492 317.368 286.882 317.788 287.102C318.218 287.312 318.658 287.417 319.108 287.417C319.588 287.417 320.023 287.307 320.413 287.087C320.813 286.857 321.128 286.552 321.358 286.172C321.588 285.792 321.703 285.372 321.703 284.912C321.703 284.462 321.598 284.057 321.388 283.697C321.178 283.327 320.893 283.037 320.533 282.827C320.173 282.607 319.758 282.497 319.288 282.497C319.038 282.497 318.788 282.527 318.538 282.587C318.288 282.637 318.028 282.722 317.758 282.842C317.498 282.952 317.218 283.092 316.918 283.262L316.258 282.377L316.873 277.922H322.543V279.017H317.488L317.863 278.747L317.308 282.422L316.963 282.182C317.123 282.052 317.338 281.927 317.608 281.807C317.878 281.687 318.173 281.592 318.493 281.522C318.823 281.442 319.143 281.402 319.453 281.402C320.103 281.402 320.683 281.552 321.193 281.852C321.703 282.142 322.108 282.547 322.408 283.067C322.708 283.577 322.858 284.167 322.858 284.837C322.858 285.537 322.693 286.167 322.363 286.727C322.033 287.277 321.583 287.717 321.013 288.047C320.443 288.367 319.803 288.527 319.093 288.527ZM328.553 288.572C327.733 288.572 327.033 288.357 326.453 287.927C325.883 287.497 325.443 286.882 325.133 286.082C324.833 285.272 324.683 284.302 324.683 283.172C324.683 282.042 324.833 281.077 325.133 280.277C325.443 279.467 325.883 278.847 326.453 278.417C327.033 277.987 327.733 277.772 328.553 277.772C329.363 277.772 330.058 277.987 330.638 278.417C331.218 278.847 331.658 279.467 331.958 280.277C332.268 281.077 332.423 282.042 332.423 283.172C332.423 284.302 332.268 285.272 331.958 286.082C331.658 286.882 331.218 287.497 330.638 287.927C330.058 288.357 329.363 288.572 328.553 288.572ZM328.553 287.477C329.413 287.477 330.073 287.102 330.533 286.352C331.003 285.602 331.238 284.542 331.238 283.172C331.238 281.802 331.003 280.742 330.533 279.992C330.073 279.242 329.413 278.867 328.553 278.867C327.683 278.867 327.013 279.242 326.543 279.992C326.083 280.742 325.853 281.802 325.853 283.172C325.853 284.542 326.083 285.602 326.543 286.352C327.013 287.102 327.683 287.477 328.553 287.477ZM337.938 288.572C337.118 288.572 336.418 288.357 335.838 287.927C335.268 287.497 334.828 286.882 334.518 286.082C334.218 285.272 334.068 284.302 334.068 283.172C334.068 282.042 334.218 281.077 334.518 280.277C334.828 279.467 335.268 278.847 335.838 278.417C336.418 277.987 337.118 277.772 337.938 277.772C338.748 277.772 339.443 277.987 340.023 278.417C340.603 278.847 341.043 279.467 341.343 280.277C341.653 281.077 341.808 282.042 341.808 283.172C341.808 284.302 341.653 285.272 341.343 286.082C341.043 286.882 340.603 287.497 340.023 287.927C339.443 288.357 338.748 288.572 337.938 288.572ZM337.938 287.477C338.798 287.477 339.458 287.102 339.918 286.352C340.388 285.602 340.623 284.542 340.623 283.172C340.623 281.802 340.388 280.742 339.918 279.992C339.458 279.242 338.798 278.867 337.938 278.867C337.068 278.867 336.398 279.242 335.928 279.992C335.468 280.742 335.238 281.802 335.238 283.172C335.238 284.542 335.468 285.602 335.928 286.352C336.398 287.102 337.068 287.477 337.938 287.477ZM343.483 284.687V283.667H350.848V284.687H343.483ZM346.573 287.792V280.547H347.728V287.792H346.573Z" fill="#1E238E"/>
<path d="M162.843 29.8828V17.9828H164.169V29.8828H162.843ZM163.506 24.5788V23.2698H169.524V24.5788H163.506ZM163.506 19.2748V17.9828H170.323V19.2748H163.506ZM172.75 29.8828V21.0088H174.025V29.8828H172.75ZM173.379 19.0878C173.062 19.0878 172.818 19.0085 172.648 18.8498C172.489 18.6798 172.41 18.4531 172.41 18.1698C172.41 17.8865 172.495 17.6598 172.665 17.4898C172.835 17.3198 173.073 17.2348 173.379 17.2348C173.685 17.2348 173.923 17.3198 174.093 17.4898C174.263 17.6485 174.348 17.8751 174.348 18.1698C174.348 18.4418 174.263 18.6628 174.093 18.8328C173.923 19.0028 173.685 19.0878 173.379 19.0878ZM176.843 29.8828V17.3028H178.118V29.8828H176.843ZM181.802 29.8828V18.6798H183.077V29.8828H181.802ZM179.796 22.2328V21.0088H185.321V22.2328H179.796ZM190.714 30.0528C189.83 30.0528 189.042 29.8601 188.351 29.4748C187.671 29.0895 187.138 28.5511 186.753 27.8598C186.367 27.1685 186.175 26.3751 186.175 25.4798C186.175 24.7885 186.282 24.1651 186.498 23.6098C186.713 23.0431 187.013 22.5501 187.399 22.1308C187.795 21.7115 188.266 21.3885 188.81 21.1618C189.354 20.9238 189.943 20.8048 190.578 20.8048C191.178 20.8048 191.722 20.9125 192.21 21.1278C192.708 21.3431 193.133 21.6435 193.485 22.0288C193.847 22.4028 194.119 22.8505 194.3 23.3718C194.482 23.8931 194.561 24.4655 194.538 25.0888L194.522 25.6838H187.127L186.94 24.6128H193.553L193.247 24.9018V24.4938C193.224 24.0858 193.105 23.6948 192.89 23.3208C192.674 22.9355 192.368 22.6238 191.972 22.3858C191.586 22.1478 191.122 22.0288 190.578 22.0288C189.943 22.0288 189.393 22.1591 188.929 22.4198C188.464 22.6691 188.107 23.0431 187.858 23.5418C187.608 24.0405 187.484 24.6581 187.484 25.3948C187.484 26.0975 187.62 26.7095 187.892 27.2308C188.164 27.7408 188.549 28.1375 189.048 28.4208C189.558 28.7041 190.17 28.8458 190.884 28.8458C191.303 28.8458 191.717 28.7778 192.125 28.6418C192.544 28.4945 193.003 28.2111 193.502 27.7918L194.165 28.7098C193.904 28.9705 193.592 29.2028 193.23 29.4068C192.867 29.5995 192.47 29.7581 192.04 29.8828C191.609 29.9961 191.167 30.0528 190.714 30.0528ZM196.349 29.8828V21.0088H197.624L197.658 23.3718L197.522 23.0488C197.647 22.6521 197.845 22.2838 198.117 21.9438C198.401 21.6038 198.735 21.3318 199.12 21.1278C199.506 20.9238 199.931 20.8218 200.395 20.8218C200.588 20.8218 200.769 20.8388 200.939 20.8728C201.109 20.8955 201.251 20.9295 201.364 20.9748L201.007 22.4028C200.86 22.3348 200.707 22.2895 200.548 22.2668C200.401 22.2328 200.259 22.2158 200.123 22.2158C199.738 22.2158 199.392 22.2838 199.086 22.4198C198.78 22.5558 198.52 22.7485 198.304 22.9978C198.089 23.2358 197.925 23.5135 197.811 23.8308C197.698 24.1481 197.641 24.4881 197.641 24.8508V29.8828H196.349ZM207.966 29.8828V17.9828H212.794C213.485 17.9828 214.08 18.1075 214.579 18.3568C215.089 18.5948 215.48 18.9405 215.752 19.3938C216.024 19.8358 216.16 20.3628 216.16 20.9748C216.16 21.6321 215.973 22.1988 215.599 22.6748C215.225 23.1395 214.715 23.4625 214.069 23.6438L214.035 23.3208C214.59 23.4228 215.072 23.6211 215.48 23.9158C215.888 24.1991 216.205 24.5505 216.432 24.9698C216.67 25.3891 216.789 25.8595 216.789 26.3808C216.789 26.9135 216.698 27.3951 216.517 27.8258C216.336 28.2565 216.075 28.6248 215.735 28.9308C215.406 29.2368 215.004 29.4748 214.528 29.6448C214.063 29.8035 213.542 29.8828 212.964 29.8828H207.966ZM209.292 28.5908H212.862C213.372 28.5908 213.814 28.5058 214.188 28.3358C214.573 28.1545 214.868 27.8995 215.072 27.5708C215.287 27.2421 215.395 26.8625 215.395 26.4318C215.395 26.0238 215.282 25.6668 215.055 25.3608C214.84 25.0548 214.534 24.8168 214.137 24.6468C213.752 24.4768 213.298 24.3918 212.777 24.3918H209.292V28.5908ZM209.292 23.0998H212.692C213.1 23.0998 213.463 23.0205 213.78 22.8618C214.097 22.6918 214.347 22.4651 214.528 22.1818C214.709 21.8871 214.8 21.5585 214.8 21.1958C214.8 20.6178 214.602 20.1531 214.205 19.8018C213.82 19.4505 213.276 19.2748 212.573 19.2748H209.292V23.0998ZM220.357 33.7928L222.074 29.6108L222.193 30.8178L217.739 21.0088H219.184L222.227 27.8088C222.318 27.9901 222.408 28.2055 222.499 28.4548C222.59 28.6928 222.675 28.9308 222.754 29.1688L222.278 29.1178C222.357 28.9251 222.431 28.7268 222.499 28.5228C222.578 28.3188 222.652 28.1205 222.72 27.9278L225.389 21.0088H226.851L223.264 29.8828L221.734 33.7928H220.357Z" fill="#1E238E"/>
<path d="M37.8555 15.8828L21.8555 31.8828" stroke="#1E238E" stroke-width="2" stroke-linecap="round"/>
<path d="M21.8555 15.8828L37.8555 31.8828" stroke="#1E238E" stroke-width="2" stroke-linecap="round"/>
<defs>
<filter id="filter0_d_438_374" x="13.5918" y="71.2949" width="365" height="139.773" filterUnits="userSpaceOnUse" color-interpolation-filters="sRGB">
<feFlood flood-opacity="0" result="BackgroundImageFix"/>
<feColorMatrix in="SourceAlpha" type="matrix" values="0 0 0 0 0 0 0 0 0 0 0 0 0 0 0 0 0 0 127 0" result="hardAlpha"/>
<feOffset dy="4"/>
<feGaussianBlur stdDeviation="4"/>
<feComposite in2="hardAlpha" operator="out"/>
<feColorMatrix type="matrix" values="0 0 0 0 0 0 0 0 0 0 0 0 0 0 0 0 0 0 0.05 0"/>
<feBlend mode="normal" in2="BackgroundImageFix" result="effect1_dropShadow_438_374"/>
<feBlend mode="normal" in="SourceGraphic" in2="effect1_dropShadow_438_374" result="shape"/>
</filter>
<filter id="filter1_d_438_374" x="49.9321" y="160.39" width="36" height="36" filterUnits="userSpaceOnUse" color-interpolation-filters="sRGB">
<feFlood flood-opacity="0" result="BackgroundImageFix"/>
<feColorMatrix in="SourceAlpha" type="matrix" values="0 0 0 0 0 0 0 0 0 0 0 0 0 0 0 0 0 0 127 0" result="hardAlpha"/>
<feOffset dy="4"/>
<feGaussianBlur stdDeviation="2"/>
<feComposite in2="hardAlpha" operator="out"/>
<feColorMatrix type="matrix" values="0 0 0 0 0 0 0 0 0 0 0 0 0 0 0 0 0 0 0.05 0"/>
<feBlend mode="normal" in2="BackgroundImageFix" result="effect1_dropShadow_438_374"/>
<feBlend mode="normal" in="SourceGraphic" in2="effect1_dropShadow_438_374" result="shape"/>
</filter>
<filter id="filter2_d_438_374" x="13.8574" y="213.295" width="365" height="139" filterUnits="userSpaceOnUse" color-interpolation-filters="sRGB">
<feFlood flood-opacity="0" result="BackgroundImageFix"/>
<feColorMatrix in="SourceAlpha" type="matrix" values="0 0 0 0 0 0 0 0 0 0 0 0 0 0 0 0 0 0 127 0" result="hardAlpha"/>
<feOffset dy="4"/>
<feGaussianBlur stdDeviation="4"/>
<feComposite in2="hardAlpha" operator="out"/>
<feColorMatrix type="matrix" values="0 0 0 0 0 0 0 0 0 0 0 0 0 0 0 0 0 0 0.05 0"/>
<feBlend mode="normal" in2="BackgroundImageFix" result="effect1_dropShadow_438_374"/>
<feBlend mode="normal" in="SourceGraphic" in2="effect1_dropShadow_438_374" result="shape"/>
</filter>
<filter id="filter3_d_438_374" x="49.9321" y="294.39" width="36" height="36" filterUnits="userSpaceOnUse" color-interpolation-filters="sRGB">
<feFlood flood-opacity="0" result="BackgroundImageFix"/>
<feColorMatrix in="SourceAlpha" type="matrix" values="0 0 0 0 0 0 0 0 0 0 0 0 0 0 0 0 0 0 127 0" result="hardAlpha"/>
<feOffset dy="4"/>
<feGaussianBlur stdDeviation="2"/>
<feComposite in2="hardAlpha" operator="out"/>
<feColorMatrix type="matrix" values="0 0 0 0 0 0 0 0 0 0 0 0 0 0 0 0 0 0 0.05 0"/>
<feBlend mode="normal" in2="BackgroundImageFix" result="effect1_dropShadow_438_374"/>
<feBlend mode="normal" in="SourceGraphic" in2="effect1_dropShadow_438_374" result="shape"/>
</filter>
<clipPath id="clip0_438_374">
<rect width="316" height="39" fill="white" transform="translate(35.7285 154)"/>
</clipPath>
<clipPath id="clip1_438_374">
<rect width="316" height="39" fill="white" transform="translate(35.7285 288)"/>
</clipPath>
</defs>
</svg>
