<svg width="366" height="415" viewBox="0 0 366 415" fill="none" xmlns="http://www.w3.org/2000/svg">
<g filter="url(#filter0_d_438_375)">
<rect x="8.13672" y="4.70508" width="349" height="188" rx="5" fill="white"/>
</g>
<path d="M244.96 154.727L240.895 144.227H242.215L244.825 151.067C244.945 151.377 245.05 151.652 245.14 151.892C245.23 152.132 245.31 152.362 245.38 152.582C245.46 152.792 245.535 153.002 245.605 153.212C245.675 153.422 245.75 153.652 245.83 153.902L245.44 153.917C245.54 153.577 245.635 153.262 245.725 152.972C245.825 152.682 245.925 152.387 246.025 152.087C246.135 151.777 246.27 151.417 246.43 151.007L249.025 144.227H250.345L246.16 154.727H244.96ZM254.177 154.877C253.497 154.877 252.882 154.702 252.332 154.352C251.782 153.992 251.347 153.507 251.027 152.897C250.707 152.277 250.547 151.577 250.547 150.797C250.547 150.007 250.712 149.307 251.042 148.697C251.372 148.087 251.812 147.607 252.362 147.257C252.922 146.907 253.547 146.732 254.237 146.732C254.647 146.732 255.027 146.792 255.377 146.912C255.727 147.032 256.037 147.202 256.307 147.422C256.587 147.632 256.817 147.882 256.997 148.172C257.187 148.452 257.317 148.757 257.387 149.087L257.057 148.922L257.102 146.897H258.227V154.727H257.087V152.807L257.387 152.612C257.317 152.912 257.182 153.202 256.982 153.482C256.782 153.752 256.537 153.992 256.247 154.202C255.967 154.412 255.647 154.577 255.287 154.697C254.937 154.817 254.567 154.877 254.177 154.877ZM254.432 153.797C254.952 153.797 255.417 153.672 255.827 153.422C256.237 153.162 256.557 152.807 256.787 152.357C257.027 151.897 257.147 151.377 257.147 150.797C257.147 150.217 257.027 149.702 256.787 149.252C256.557 148.802 256.237 148.447 255.827 148.187C255.417 147.927 254.952 147.797 254.432 147.797C253.902 147.797 253.432 147.927 253.022 148.187C252.622 148.447 252.302 148.802 252.062 149.252C251.832 149.702 251.717 150.217 251.717 150.797C251.717 151.367 251.832 151.882 252.062 152.342C252.292 152.792 252.612 153.147 253.022 153.407C253.432 153.667 253.902 153.797 254.432 153.797ZM260.619 154.727V146.897H261.729L261.774 148.532L261.594 148.607C261.694 148.267 261.889 147.957 262.179 147.677C262.469 147.397 262.814 147.172 263.214 147.002C263.624 146.822 264.044 146.732 264.474 146.732C265.054 146.732 265.539 146.847 265.929 147.077C266.319 147.307 266.614 147.662 266.814 148.142C267.014 148.622 267.114 149.232 267.114 149.972V154.727H265.974V150.032C265.974 149.512 265.904 149.087 265.764 148.757C265.634 148.417 265.429 148.167 265.149 148.007C264.869 147.847 264.524 147.772 264.114 147.782C263.774 147.782 263.459 147.842 263.169 147.962C262.879 148.072 262.629 148.227 262.419 148.427C262.209 148.627 262.044 148.857 261.924 149.117C261.804 149.377 261.744 149.657 261.744 149.957V154.727H261.189C261.119 154.727 261.039 154.727 260.949 154.727C260.859 154.727 260.749 154.727 260.619 154.727ZM277.33 154.877C276.55 154.877 275.855 154.702 275.245 154.352C274.645 154.002 274.17 153.517 273.82 152.897C273.48 152.277 273.31 151.572 273.31 150.782C273.31 150.002 273.48 149.307 273.82 148.697C274.17 148.087 274.645 147.607 275.245 147.257C275.855 146.907 276.55 146.732 277.33 146.732C278.1 146.732 278.785 146.907 279.385 147.257C279.995 147.607 280.47 148.087 280.81 148.697C281.16 149.307 281.335 150.002 281.335 150.782C281.335 151.572 281.16 152.277 280.81 152.897C280.47 153.517 279.995 154.002 279.385 154.352C278.785 154.702 278.1 154.877 277.33 154.877ZM277.33 153.812C277.88 153.812 278.37 153.682 278.8 153.422C279.23 153.152 279.565 152.792 279.805 152.342C280.045 151.882 280.165 151.362 280.165 150.782C280.165 150.202 280.045 149.687 279.805 149.237C279.565 148.787 279.23 148.437 278.8 148.187C278.37 147.927 277.88 147.797 277.33 147.797C276.78 147.797 276.285 147.927 275.845 148.187C275.415 148.437 275.075 148.792 274.825 149.252C274.585 149.702 274.47 150.212 274.48 150.782C274.47 151.362 274.585 151.882 274.825 152.342C275.075 152.792 275.415 153.152 275.845 153.422C276.285 153.682 276.78 153.812 277.33 153.812ZM283.177 154.727V146.897H284.302L284.332 148.982L284.212 148.697C284.322 148.347 284.497 148.022 284.737 147.722C284.987 147.422 285.282 147.182 285.622 147.002C285.962 146.822 286.337 146.732 286.747 146.732C286.917 146.732 287.077 146.747 287.227 146.777C287.377 146.797 287.502 146.827 287.602 146.867L287.287 148.127C287.157 148.067 287.022 148.027 286.882 148.007C286.752 147.977 286.627 147.962 286.507 147.962C286.167 147.962 285.862 148.022 285.592 148.142C285.322 148.262 285.092 148.432 284.902 148.652C284.712 148.862 284.567 149.107 284.467 149.387C284.367 149.667 284.317 149.967 284.317 150.287V154.727H283.177ZM293.827 154.727V144.227H298.087C298.697 144.227 299.222 144.337 299.662 144.557C300.112 144.767 300.457 145.072 300.697 145.472C300.937 145.862 301.057 146.327 301.057 146.867C301.057 147.447 300.892 147.947 300.562 148.367C300.232 148.777 299.782 149.062 299.212 149.222L299.182 148.937C299.672 149.027 300.097 149.202 300.457 149.462C300.817 149.712 301.097 150.022 301.297 150.392C301.507 150.762 301.612 151.177 301.612 151.637C301.612 152.107 301.532 152.532 301.372 152.912C301.212 153.292 300.982 153.617 300.682 153.887C300.392 154.157 300.037 154.367 299.617 154.517C299.207 154.657 298.747 154.727 298.237 154.727H293.827ZM294.997 153.587H298.147C298.597 153.587 298.987 153.512 299.317 153.362C299.657 153.202 299.917 152.977 300.097 152.687C300.287 152.397 300.382 152.062 300.382 151.682C300.382 151.322 300.282 151.007 300.082 150.737C299.892 150.467 299.622 150.257 299.272 150.107C298.932 149.957 298.532 149.882 298.072 149.882H294.997V153.587ZM294.997 148.742H297.997C298.357 148.742 298.677 148.672 298.957 148.532C299.237 148.382 299.457 148.182 299.617 147.932C299.777 147.672 299.857 147.382 299.857 147.062C299.857 146.552 299.682 146.142 299.332 145.832C298.992 145.522 298.512 145.367 297.892 145.367H294.997V148.742ZM303.94 154.727V146.897H305.065V154.727H303.94ZM304.495 145.202C304.215 145.202 304 145.132 303.85 144.992C303.71 144.842 303.64 144.642 303.64 144.392C303.64 144.142 303.715 143.942 303.865 143.792C304.015 143.642 304.225 143.567 304.495 143.567C304.765 143.567 304.975 143.642 305.125 143.792C305.275 143.932 305.35 144.132 305.35 144.392C305.35 144.632 305.275 144.827 305.125 144.977C304.975 145.127 304.765 145.202 304.495 145.202ZM311.097 158.177C310.517 158.177 309.967 158.087 309.447 157.907C308.927 157.727 308.497 157.502 308.157 157.232L308.607 156.287C308.807 156.447 309.037 156.587 309.297 156.707C309.567 156.837 309.857 156.937 310.167 157.007C310.477 157.087 310.792 157.127 311.112 157.127C311.692 157.127 312.182 157.017 312.582 156.797C312.992 156.587 313.302 156.272 313.512 155.852C313.732 155.432 313.842 154.912 313.842 154.292V152.792L314.022 152.747C313.932 153.127 313.737 153.482 313.437 153.812C313.137 154.132 312.772 154.392 312.342 154.592C311.912 154.782 311.457 154.877 310.977 154.877C310.247 154.877 309.592 154.702 309.012 154.352C308.442 154.002 307.992 153.522 307.662 152.912C307.332 152.292 307.167 151.592 307.167 150.812C307.167 150.022 307.332 149.322 307.662 148.712C308.002 148.092 308.457 147.607 309.027 147.257C309.597 146.907 310.237 146.732 310.947 146.732C311.257 146.732 311.557 146.772 311.847 146.852C312.137 146.922 312.402 147.027 312.642 147.167C312.892 147.307 313.117 147.467 313.317 147.647C313.517 147.827 313.682 148.022 313.812 148.232C313.952 148.442 314.052 148.657 314.112 148.877L313.797 148.832L313.842 146.897H314.967V154.247C314.967 154.877 314.877 155.432 314.697 155.912C314.517 156.402 314.252 156.812 313.902 157.142C313.562 157.482 313.152 157.737 312.672 157.907C312.202 158.087 311.677 158.177 311.097 158.177ZM311.112 153.797C311.642 153.797 312.112 153.672 312.522 153.422C312.942 153.162 313.272 152.807 313.512 152.357C313.752 151.907 313.872 151.387 313.872 150.797C313.872 150.217 313.752 149.702 313.512 149.252C313.282 148.802 312.957 148.447 312.537 148.187C312.117 147.927 311.642 147.797 311.112 147.797C310.572 147.797 310.092 147.927 309.672 148.187C309.262 148.447 308.937 148.802 308.697 149.252C308.457 149.702 308.337 150.217 308.337 150.797C308.337 151.367 308.452 151.882 308.682 152.342C308.922 152.792 309.247 153.147 309.657 153.407C310.077 153.667 310.562 153.797 311.112 153.797ZM320.73 158.177C320.15 158.177 319.6 158.087 319.08 157.907C318.56 157.727 318.13 157.502 317.79 157.232L318.24 156.287C318.44 156.447 318.67 156.587 318.93 156.707C319.2 156.837 319.49 156.937 319.8 157.007C320.11 157.087 320.425 157.127 320.745 157.127C321.325 157.127 321.815 157.017 322.215 156.797C322.625 156.587 322.935 156.272 323.145 155.852C323.365 155.432 323.475 154.912 323.475 154.292V152.792L323.655 152.747C323.565 153.127 323.37 153.482 323.07 153.812C322.77 154.132 322.405 154.392 321.975 154.592C321.545 154.782 321.09 154.877 320.61 154.877C319.88 154.877 319.225 154.702 318.645 154.352C318.075 154.002 317.625 153.522 317.295 152.912C316.965 152.292 316.8 151.592 316.8 150.812C316.8 150.022 316.965 149.322 317.295 148.712C317.635 148.092 318.09 147.607 318.66 147.257C319.23 146.907 319.87 146.732 320.58 146.732C320.89 146.732 321.19 146.772 321.48 146.852C321.77 146.922 322.035 147.027 322.275 147.167C322.525 147.307 322.75 147.467 322.95 147.647C323.15 147.827 323.315 148.022 323.445 148.232C323.585 148.442 323.685 148.657 323.745 148.877L323.43 148.832L323.475 146.897H324.6V154.247C324.6 154.877 324.51 155.432 324.33 155.912C324.15 156.402 323.885 156.812 323.535 157.142C323.195 157.482 322.785 157.737 322.305 157.907C321.835 158.087 321.31 158.177 320.73 158.177ZM320.745 153.797C321.275 153.797 321.745 153.672 322.155 153.422C322.575 153.162 322.905 152.807 323.145 152.357C323.385 151.907 323.505 151.387 323.505 150.797C323.505 150.217 323.385 149.702 323.145 149.252C322.915 148.802 322.59 148.447 322.17 148.187C321.75 147.927 321.275 147.797 320.745 147.797C320.205 147.797 319.725 147.927 319.305 148.187C318.895 148.447 318.57 148.802 318.33 149.252C318.09 149.702 317.97 150.217 317.97 150.797C317.97 151.367 318.085 151.882 318.315 152.342C318.555 152.792 318.88 153.147 319.29 153.407C319.71 153.667 320.195 153.797 320.745 153.797ZM330.439 154.877C329.659 154.877 328.964 154.707 328.354 154.367C327.754 154.027 327.284 153.552 326.944 152.942C326.604 152.332 326.434 151.632 326.434 150.842C326.434 150.232 326.529 149.682 326.719 149.192C326.909 148.692 327.174 148.257 327.514 147.887C327.864 147.517 328.279 147.232 328.759 147.032C329.239 146.822 329.759 146.717 330.319 146.717C330.849 146.717 331.329 146.812 331.759 147.002C332.199 147.192 332.574 147.457 332.884 147.797C333.204 148.127 333.444 148.522 333.604 148.982C333.764 149.442 333.834 149.947 333.814 150.497L333.799 151.022H327.274L327.109 150.077H332.944L332.674 150.332V149.972C332.654 149.612 332.549 149.267 332.359 148.937C332.169 148.597 331.899 148.322 331.549 148.112C331.209 147.902 330.799 147.797 330.319 147.797C329.759 147.797 329.274 147.912 328.864 148.142C328.454 148.362 328.139 148.692 327.919 149.132C327.699 149.572 327.589 150.117 327.589 150.767C327.589 151.387 327.709 151.927 327.949 152.387C328.189 152.837 328.529 153.187 328.969 153.437C329.419 153.687 329.959 153.812 330.589 153.812C330.959 153.812 331.324 153.752 331.684 153.632C332.054 153.502 332.459 153.252 332.899 152.882L333.484 153.692C333.254 153.922 332.979 154.127 332.659 154.307C332.339 154.477 331.989 154.617 331.609 154.727C331.229 154.827 330.839 154.877 330.439 154.877ZM335.612 154.727V146.897H336.737L336.767 148.982L336.647 148.697C336.757 148.347 336.932 148.022 337.172 147.722C337.422 147.422 337.717 147.182 338.057 147.002C338.397 146.822 338.772 146.732 339.182 146.732C339.352 146.732 339.512 146.747 339.662 146.777C339.812 146.797 339.937 146.827 340.037 146.867L339.722 148.127C339.592 148.067 339.457 148.027 339.317 148.007C339.187 147.977 339.062 147.962 338.942 147.962C338.602 147.962 338.297 148.022 338.027 148.142C337.757 148.262 337.527 148.432 337.337 148.652C337.147 148.862 337.002 149.107 336.902 149.387C336.802 149.667 336.752 149.967 336.752 150.287V154.727H335.612Z" fill="#1E238E"/>
<path d="M40.2375 154.877C39.4975 154.877 38.8125 154.747 38.1825 154.487C37.5625 154.217 37.0175 153.842 36.5475 153.362C36.0875 152.882 35.7275 152.317 35.4675 151.667C35.2175 151.007 35.0925 150.287 35.0925 149.507C35.0925 148.727 35.2175 148.012 35.4675 147.362C35.7275 146.702 36.0875 146.132 36.5475 145.652C37.0175 145.162 37.5625 144.787 38.1825 144.527C38.8125 144.257 39.4975 144.122 40.2375 144.122C40.9875 144.122 41.6725 144.257 42.2925 144.527C42.9225 144.787 43.4675 145.162 43.9275 145.652C44.3975 146.132 44.7575 146.702 45.0075 147.362C45.2675 148.012 45.3975 148.727 45.3975 149.507C45.3975 150.277 45.2675 150.992 45.0075 151.652C44.7575 152.302 44.3975 152.872 43.9275 153.362C43.4675 153.842 42.9225 154.217 42.2925 154.487C41.6725 154.747 40.9875 154.877 40.2375 154.877ZM40.2375 153.722C40.8075 153.722 41.3325 153.622 41.8125 153.422C42.3025 153.212 42.7225 152.917 43.0725 152.537C43.4225 152.157 43.6925 151.712 43.8825 151.202C44.0825 150.682 44.1825 150.117 44.1825 149.507C44.1825 148.887 44.0825 148.322 43.8825 147.812C43.6925 147.292 43.4225 146.842 43.0725 146.462C42.7225 146.082 42.3025 145.787 41.8125 145.577C41.3325 145.367 40.8075 145.262 40.2375 145.262C39.6675 145.262 39.1375 145.367 38.6475 145.577C38.1675 145.787 37.7525 146.082 37.4025 146.462C37.0525 146.842 36.7825 147.292 36.5925 147.812C36.4025 148.322 36.3075 148.887 36.3075 149.507C36.3075 150.117 36.4025 150.682 36.5925 151.202C36.7825 151.712 37.0525 152.157 37.4025 152.537C37.7525 152.917 38.1675 153.212 38.6475 153.422C39.1375 153.622 39.6675 153.722 40.2375 153.722ZM47.4299 154.727V146.897H48.5399L48.5849 148.532L48.4049 148.607C48.5049 148.267 48.6999 147.957 48.9899 147.677C49.2799 147.397 49.6249 147.172 50.0249 147.002C50.4349 146.822 50.8549 146.732 51.2849 146.732C51.8649 146.732 52.3499 146.847 52.7399 147.077C53.1299 147.307 53.4249 147.662 53.6249 148.142C53.8249 148.622 53.9249 149.232 53.9249 149.972V154.727H52.7849V150.032C52.7849 149.512 52.7149 149.087 52.5749 148.757C52.4449 148.417 52.2399 148.167 51.9599 148.007C51.6799 147.847 51.3349 147.772 50.9249 147.782C50.5849 147.782 50.2699 147.842 49.9799 147.962C49.6899 148.072 49.4399 148.227 49.2299 148.427C49.0199 148.627 48.8549 148.857 48.7349 149.117C48.6149 149.377 48.5549 149.657 48.5549 149.957V154.727H47.9999C47.9299 154.727 47.8499 154.727 47.7599 154.727C47.6699 154.727 47.5599 154.727 47.4299 154.727ZM61.1265 154.727V144.227H62.2965V154.727H61.1265ZM61.7115 150.047V148.892H67.0215V150.047H61.7115ZM61.7115 145.367V144.227H67.7265V145.367H61.7115ZM73.0134 154.877C72.2334 154.877 71.5384 154.702 70.9284 154.352C70.3284 154.002 69.8534 153.517 69.5034 152.897C69.1634 152.277 68.9934 151.572 68.9934 150.782C68.9934 150.002 69.1634 149.307 69.5034 148.697C69.8534 148.087 70.3284 147.607 70.9284 147.257C71.5384 146.907 72.2334 146.732 73.0134 146.732C73.7834 146.732 74.4684 146.907 75.0684 147.257C75.6784 147.607 76.1534 148.087 76.4934 148.697C76.8434 149.307 77.0184 150.002 77.0184 150.782C77.0184 151.572 76.8434 152.277 76.4934 152.897C76.1534 153.517 75.6784 154.002 75.0684 154.352C74.4684 154.702 73.7834 154.877 73.0134 154.877ZM73.0134 153.812C73.5634 153.812 74.0534 153.682 74.4834 153.422C74.9134 153.152 75.2484 152.792 75.4884 152.342C75.7284 151.882 75.8484 151.362 75.8484 150.782C75.8484 150.202 75.7284 149.687 75.4884 149.237C75.2484 148.787 74.9134 148.437 74.4834 148.187C74.0534 147.927 73.5634 147.797 73.0134 147.797C72.4634 147.797 71.9684 147.927 71.5284 148.187C71.0984 148.437 70.7584 148.792 70.5084 149.252C70.2684 149.702 70.1534 150.212 70.1634 150.782C70.1534 151.362 70.2684 151.882 70.5084 152.342C70.7584 152.792 71.0984 153.152 71.5284 153.422C71.9684 153.682 72.4634 153.812 73.0134 153.812ZM82.3247 154.877C81.5447 154.877 80.8497 154.702 80.2397 154.352C79.6397 154.002 79.1647 153.517 78.8147 152.897C78.4747 152.277 78.3047 151.572 78.3047 150.782C78.3047 150.002 78.4747 149.307 78.8147 148.697C79.1647 148.087 79.6397 147.607 80.2397 147.257C80.8497 146.907 81.5447 146.732 82.3247 146.732C83.0947 146.732 83.7797 146.907 84.3797 147.257C84.9897 147.607 85.4647 148.087 85.8047 148.697C86.1547 149.307 86.3297 150.002 86.3297 150.782C86.3297 151.572 86.1547 152.277 85.8047 152.897C85.4647 153.517 84.9897 154.002 84.3797 154.352C83.7797 154.702 83.0947 154.877 82.3247 154.877ZM82.3247 153.812C82.8747 153.812 83.3647 153.682 83.7947 153.422C84.2247 153.152 84.5597 152.792 84.7997 152.342C85.0397 151.882 85.1597 151.362 85.1597 150.782C85.1597 150.202 85.0397 149.687 84.7997 149.237C84.5597 148.787 84.2247 148.437 83.7947 148.187C83.3647 147.927 82.8747 147.797 82.3247 147.797C81.7747 147.797 81.2797 147.927 80.8397 148.187C80.4097 148.437 80.0697 148.792 79.8197 149.252C79.5797 149.702 79.4647 150.212 79.4747 150.782C79.4647 151.362 79.5797 151.882 79.8197 152.342C80.0697 152.792 80.4097 153.152 80.8397 153.422C81.2797 153.682 81.7747 153.812 82.3247 153.812ZM89.2511 154.727V144.842H90.3761V154.727H89.2511ZM87.4811 147.977V146.897H92.3561V147.977H87.4811Z" fill="#1E238E"/>
<path d="M145.062 154.877C144.532 154.877 144.032 154.802 143.562 154.652C143.092 154.502 142.662 154.277 142.272 153.977C141.882 153.677 141.537 153.307 141.237 152.867L142.047 151.967C142.517 152.637 142.997 153.107 143.487 153.377C143.987 153.647 144.547 153.782 145.167 153.782C145.617 153.782 146.027 153.707 146.397 153.557C146.767 153.407 147.057 153.197 147.267 152.927C147.477 152.657 147.582 152.347 147.582 151.997C147.582 151.767 147.542 151.562 147.462 151.382C147.392 151.202 147.282 151.042 147.132 150.902C146.982 150.762 146.797 150.637 146.577 150.527C146.357 150.417 146.102 150.317 145.812 150.227C145.532 150.137 145.217 150.047 144.867 149.957C144.357 149.837 143.907 149.697 143.517 149.537C143.137 149.367 142.812 149.162 142.542 148.922C142.282 148.682 142.082 148.407 141.942 148.097C141.812 147.777 141.747 147.402 141.747 146.972C141.747 146.562 141.832 146.182 142.002 145.832C142.182 145.482 142.427 145.182 142.737 144.932C143.047 144.672 143.412 144.472 143.832 144.332C144.252 144.192 144.702 144.122 145.182 144.122C145.722 144.122 146.202 144.197 146.622 144.347C147.052 144.487 147.432 144.697 147.762 144.977C148.092 145.257 148.377 145.592 148.617 145.982L147.792 146.792C147.582 146.462 147.342 146.177 147.072 145.937C146.812 145.697 146.522 145.517 146.202 145.397C145.892 145.267 145.547 145.202 145.167 145.202C144.727 145.202 144.337 145.277 143.997 145.427C143.667 145.577 143.407 145.787 143.217 146.057C143.027 146.317 142.932 146.617 142.932 146.957C142.932 147.207 142.977 147.432 143.067 147.632C143.157 147.822 143.297 147.992 143.487 148.142C143.687 148.282 143.942 148.412 144.252 148.532C144.572 148.642 144.952 148.747 145.392 148.847C145.912 148.967 146.377 149.112 146.787 149.282C147.207 149.452 147.562 149.657 147.852 149.897C148.152 150.127 148.377 150.397 148.527 150.707C148.687 151.017 148.767 151.372 148.767 151.772C148.767 152.392 148.612 152.937 148.302 153.407C147.992 153.867 147.557 154.227 146.997 154.487C146.447 154.747 145.802 154.877 145.062 154.877ZM150.863 154.727V146.897H151.988L152.018 148.682L151.793 148.757C151.873 148.457 152.003 148.187 152.183 147.947C152.373 147.697 152.598 147.482 152.858 147.302C153.118 147.122 153.403 146.987 153.713 146.897C154.023 146.797 154.348 146.747 154.688 146.747C155.098 146.747 155.463 146.817 155.783 146.957C156.113 147.087 156.388 147.317 156.608 147.647C156.838 147.967 157.013 148.392 157.133 148.922L156.863 148.787L156.968 148.532C157.068 148.302 157.213 148.082 157.403 147.872C157.603 147.652 157.828 147.457 158.078 147.287C158.338 147.117 158.618 146.987 158.918 146.897C159.228 146.797 159.543 146.747 159.863 146.747C160.413 146.747 160.878 146.867 161.258 147.107C161.638 147.337 161.923 147.692 162.113 148.172C162.313 148.652 162.413 149.262 162.413 150.002V154.727H161.258V150.062C161.258 149.542 161.193 149.117 161.063 148.787C160.933 148.457 160.738 148.212 160.478 148.052C160.228 147.882 159.908 147.797 159.518 147.797C159.178 147.797 158.863 147.857 158.573 147.977C158.293 148.087 158.048 148.247 157.838 148.457C157.638 148.657 157.478 148.887 157.358 149.147C157.248 149.407 157.193 149.687 157.193 149.987V154.727H156.053V150.047C156.053 149.547 155.983 149.132 155.843 148.802C155.713 148.472 155.518 148.222 155.258 148.052C154.998 147.882 154.678 147.797 154.298 147.797C153.968 147.797 153.663 147.857 153.383 147.977C153.103 148.087 152.858 148.242 152.648 148.442C152.448 148.642 152.288 148.872 152.168 149.132C152.058 149.392 152.003 149.672 152.003 149.972V154.727H150.863ZM167.805 154.877C167.125 154.877 166.51 154.702 165.96 154.352C165.41 153.992 164.975 153.507 164.655 152.897C164.335 152.277 164.175 151.577 164.175 150.797C164.175 150.007 164.34 149.307 164.67 148.697C165 148.087 165.44 147.607 165.99 147.257C166.55 146.907 167.175 146.732 167.865 146.732C168.275 146.732 168.655 146.792 169.005 146.912C169.355 147.032 169.665 147.202 169.935 147.422C170.215 147.632 170.445 147.882 170.625 148.172C170.815 148.452 170.945 148.757 171.015 149.087L170.685 148.922L170.73 146.897H171.855V154.727H170.715V152.807L171.015 152.612C170.945 152.912 170.81 153.202 170.61 153.482C170.41 153.752 170.165 153.992 169.875 154.202C169.595 154.412 169.275 154.577 168.915 154.697C168.565 154.817 168.195 154.877 167.805 154.877ZM168.06 153.797C168.58 153.797 169.045 153.672 169.455 153.422C169.865 153.162 170.185 152.807 170.415 152.357C170.655 151.897 170.775 151.377 170.775 150.797C170.775 150.217 170.655 149.702 170.415 149.252C170.185 148.802 169.865 148.447 169.455 148.187C169.045 147.927 168.58 147.797 168.06 147.797C167.53 147.797 167.06 147.927 166.65 148.187C166.25 148.447 165.93 148.802 165.69 149.252C165.46 149.702 165.345 150.217 165.345 150.797C165.345 151.367 165.46 151.882 165.69 152.342C165.92 152.792 166.24 153.147 166.65 153.407C167.06 153.667 167.53 153.797 168.06 153.797ZM174.277 154.727V143.627H175.402V154.727H174.277ZM177.846 154.727V143.627H178.971V154.727H177.846ZM190.589 154.877C189.839 154.877 189.149 154.747 188.519 154.487C187.889 154.217 187.344 153.842 186.884 153.362C186.424 152.872 186.064 152.297 185.804 151.637C185.554 150.977 185.429 150.257 185.429 149.477C185.429 148.707 185.554 148.002 185.804 147.362C186.064 146.712 186.429 146.147 186.899 145.667C187.369 145.177 187.914 144.802 188.534 144.542C189.154 144.282 189.834 144.152 190.574 144.152C191.064 144.152 191.549 144.232 192.029 144.392C192.509 144.542 192.949 144.752 193.349 145.022C193.759 145.292 194.094 145.602 194.354 145.952L193.544 146.792C193.294 146.492 193.004 146.232 192.674 146.012C192.354 145.792 192.014 145.622 191.654 145.502C191.294 145.382 190.934 145.322 190.574 145.322C190.014 145.322 189.489 145.427 188.999 145.637C188.519 145.837 188.104 146.122 187.754 146.492C187.404 146.862 187.129 147.302 186.929 147.812C186.739 148.322 186.644 148.877 186.644 149.477C186.644 150.097 186.739 150.667 186.929 151.187C187.129 151.707 187.409 152.157 187.769 152.537C188.139 152.907 188.569 153.197 189.059 153.407C189.559 153.607 190.114 153.707 190.724 153.707C191.084 153.707 191.444 153.657 191.804 153.557C192.164 153.447 192.494 153.297 192.794 153.107C193.094 152.917 193.349 152.702 193.559 152.462L194.159 153.437C193.929 153.717 193.619 153.967 193.229 154.187C192.849 154.397 192.429 154.567 191.969 154.697C191.509 154.817 191.049 154.877 190.589 154.877ZM199.186 154.877C198.506 154.877 197.891 154.702 197.341 154.352C196.791 153.992 196.356 153.507 196.036 152.897C195.716 152.277 195.556 151.577 195.556 150.797C195.556 150.007 195.721 149.307 196.051 148.697C196.381 148.087 196.821 147.607 197.371 147.257C197.931 146.907 198.556 146.732 199.246 146.732C199.656 146.732 200.036 146.792 200.386 146.912C200.736 147.032 201.046 147.202 201.316 147.422C201.596 147.632 201.826 147.882 202.006 148.172C202.196 148.452 202.326 148.757 202.396 149.087L202.066 148.922L202.111 146.897H203.236V154.727H202.096V152.807L202.396 152.612C202.326 152.912 202.191 153.202 201.991 153.482C201.791 153.752 201.546 153.992 201.256 154.202C200.976 154.412 200.656 154.577 200.296 154.697C199.946 154.817 199.576 154.877 199.186 154.877ZM199.441 153.797C199.961 153.797 200.426 153.672 200.836 153.422C201.246 153.162 201.566 152.807 201.796 152.357C202.036 151.897 202.156 151.377 202.156 150.797C202.156 150.217 202.036 149.702 201.796 149.252C201.566 148.802 201.246 148.447 200.836 148.187C200.426 147.927 199.961 147.797 199.441 147.797C198.911 147.797 198.441 147.927 198.031 148.187C197.631 148.447 197.311 148.802 197.071 149.252C196.841 149.702 196.726 150.217 196.726 150.797C196.726 151.367 196.841 151.882 197.071 152.342C197.301 152.792 197.621 153.147 198.031 153.407C198.441 153.667 198.911 153.797 199.441 153.797ZM205.628 154.727V146.897H206.753L206.783 148.982L206.663 148.697C206.773 148.347 206.948 148.022 207.188 147.722C207.438 147.422 207.733 147.182 208.073 147.002C208.413 146.822 208.788 146.732 209.198 146.732C209.368 146.732 209.528 146.747 209.678 146.777C209.828 146.797 209.953 146.827 210.053 146.867L209.738 148.127C209.608 148.067 209.473 148.027 209.333 148.007C209.203 147.977 209.078 147.962 208.958 147.962C208.618 147.962 208.313 148.022 208.043 148.142C207.773 148.262 207.543 148.432 207.353 148.652C207.163 148.862 207.018 149.107 206.918 149.387C206.818 149.667 206.768 149.967 206.768 150.287V154.727H205.628Z" fill="#1E238E"/>
<path d="M24.6067 43.2051V32.7051H28.8817C29.4517 32.7051 29.9667 32.8501 30.4267 33.1401C30.8967 33.4201 31.2717 33.8051 31.5517 34.2951C31.8317 34.7851 31.9717 35.3301 31.9717 35.9301C31.9717 36.5301 31.8317 37.0751 31.5517 37.5651C31.2717 38.0551 30.8967 38.4501 30.4267 38.7501C29.9667 39.0401 29.4517 39.1851 28.8817 39.1851H26.2267V43.2051H24.6067ZM26.2267 37.6251H28.8517C29.1217 37.6251 29.3667 37.5501 29.5867 37.4001C29.8067 37.2401 29.9817 37.0351 30.1117 36.7851C30.2517 36.5251 30.3217 36.2401 30.3217 35.9301C30.3217 35.6201 30.2517 35.3401 30.1117 35.0901C29.9817 34.8401 29.8067 34.6401 29.5867 34.4901C29.3667 34.3401 29.1217 34.2651 28.8517 34.2651H26.2267V37.6251ZM34.1786 43.2051V35.3301H35.7236V43.2051H34.1786ZM34.9286 33.5901C34.5986 33.5901 34.3436 33.5051 34.1636 33.3351C33.9836 33.1651 33.8936 32.9251 33.8936 32.6151C33.8936 32.3251 33.9836 32.0901 34.1636 31.9101C34.3536 31.7301 34.6086 31.6401 34.9286 31.6401C35.2586 31.6401 35.5136 31.7251 35.6936 31.8951C35.8736 32.0651 35.9636 32.3051 35.9636 32.6151C35.9636 32.9051 35.8686 33.1401 35.6786 33.3201C35.4986 33.5001 35.2486 33.5901 34.9286 33.5901ZM41.6434 43.3551C40.9134 43.3551 40.2584 43.1751 39.6784 42.8151C39.1084 42.4551 38.6534 41.9651 38.3134 41.3451C37.9834 40.7251 37.8184 40.0301 37.8184 39.2601C37.8184 38.4901 37.9834 37.7951 38.3134 37.1751C38.6534 36.5551 39.1084 36.0651 39.6784 35.7051C40.2584 35.3451 40.9134 35.1651 41.6434 35.1651C42.3434 35.1651 42.9784 35.3101 43.5484 35.6001C44.1284 35.8801 44.5684 36.2651 44.8684 36.7551L44.0134 37.8051C43.8534 37.5751 43.6484 37.3651 43.3984 37.1751C43.1484 36.9851 42.8834 36.8351 42.6034 36.7251C42.3234 36.6151 42.0534 36.5601 41.7934 36.5601C41.3134 36.5601 40.8834 36.6801 40.5034 36.9201C40.1334 37.1501 39.8384 37.4701 39.6184 37.8801C39.3984 38.2901 39.2884 38.7501 39.2884 39.2601C39.2884 39.7701 39.4034 40.2301 39.6334 40.6401C39.8634 41.0401 40.1684 41.3601 40.5484 41.6001C40.9284 41.8401 41.3484 41.9601 41.8084 41.9601C42.0784 41.9601 42.3384 41.9151 42.5884 41.8251C42.8484 41.7351 43.0984 41.6001 43.3384 41.4201C43.5784 41.2401 43.8034 41.0201 44.0134 40.7601L44.8684 41.8101C44.5484 42.2601 44.0884 42.6301 43.4884 42.9201C42.8984 43.2101 42.2834 43.3551 41.6434 43.3551ZM47.9357 40.7451L47.8607 39.0651L51.6257 35.3301H53.7107L47.9357 40.7451ZM46.5257 43.2051V32.1051H48.0707V43.2051H46.5257ZM51.8357 43.2051L48.8657 39.7401L49.9607 38.7351L53.8157 43.2051H51.8357ZM64.1252 43.2951C63.3152 43.2951 62.5902 43.1201 61.9502 42.7701C61.3102 42.4101 60.8052 41.9201 60.4352 41.3001C60.0752 40.6701 59.8952 39.9601 59.8952 39.1701V32.6901H61.5152V39.0351C61.5152 39.5451 61.6352 40.0051 61.8752 40.4151C62.1152 40.8151 62.4302 41.1351 62.8202 41.3751C63.2202 41.6151 63.6552 41.7351 64.1252 41.7351C64.6252 41.7351 65.0752 41.6151 65.4752 41.3751C65.8852 41.1351 66.2102 40.8151 66.4502 40.4151C66.6902 40.0051 66.8102 39.5451 66.8102 39.0351V32.6901H68.3552V39.1701C68.3552 39.9601 68.1702 40.6701 67.8002 41.3001C67.4402 41.9201 66.9402 42.4101 66.3002 42.7701C65.6602 43.1201 64.9352 43.2951 64.1252 43.2951ZM70.9587 46.5051V35.3301H72.5187V37.1301L72.2787 36.9951C72.3387 36.6951 72.5087 36.4101 72.7887 36.1401C73.0687 35.8601 73.4087 35.6351 73.8087 35.4651C74.2187 35.2851 74.6387 35.1951 75.0687 35.1951C75.7787 35.1951 76.4087 35.3701 76.9587 35.7201C77.5087 36.0701 77.9437 36.5501 78.2637 37.1601C78.5837 37.7701 78.7437 38.4701 78.7437 39.2601C78.7437 40.0401 78.5837 40.7401 78.2637 41.3601C77.9537 41.9701 77.5237 42.4551 76.9737 42.8151C76.4237 43.1651 75.8037 43.3401 75.1137 43.3401C74.6537 43.3401 74.2087 43.2501 73.7787 43.0701C73.3487 42.8801 72.9837 42.6401 72.6837 42.3501C72.3837 42.0601 72.1987 41.7601 72.1287 41.4501L72.5187 41.2401V46.5051H70.9587ZM74.8587 41.9151C75.3187 41.9151 75.7287 41.8001 76.0887 41.5701C76.4487 41.3401 76.7337 41.0251 76.9437 40.6251C77.1537 40.2251 77.2587 39.7701 77.2587 39.2601C77.2587 38.7501 77.1537 38.3001 76.9437 37.9101C76.7437 37.5101 76.4637 37.1951 76.1037 36.9651C75.7437 36.7351 75.3287 36.6201 74.8587 36.6201C74.3887 36.6201 73.9737 36.7351 73.6137 36.9651C73.2537 37.1851 72.9687 37.4951 72.7587 37.8951C72.5487 38.2951 72.4437 38.7501 72.4437 39.2601C72.4437 39.7701 72.5487 40.2251 72.7587 40.6251C72.9687 41.0251 73.2537 41.3401 73.6137 41.5701C73.9737 41.8001 74.3887 41.9151 74.8587 41.9151ZM85.4157 43.2051V32.7051H86.8707L93.2907 41.3001L93.0507 41.4351C93.0107 41.1851 92.9757 40.9151 92.9457 40.6251C92.9157 40.3251 92.8857 40.0101 92.8557 39.6801C92.8357 39.3401 92.8157 38.9851 92.7957 38.6151C92.7857 38.2351 92.7757 37.8401 92.7657 37.4301C92.7557 37.0201 92.7507 36.5951 92.7507 36.1551V32.7051H94.3707V43.2051H92.8857L86.5707 34.9251L86.7357 34.7151C86.7857 35.3251 86.8257 35.8451 86.8557 36.2751C86.8957 36.6951 86.9257 37.0551 86.9457 37.3551C86.9757 37.6451 86.9957 37.8851 87.0057 38.0751C87.0157 38.2551 87.0207 38.4051 87.0207 38.5251C87.0307 38.6451 87.0357 38.7501 87.0357 38.8401V43.2051H85.4157ZM100.795 43.3551C99.9852 43.3551 99.2652 43.1851 98.6352 42.8451C98.0152 42.4951 97.5252 42.0201 97.1652 41.4201C96.8152 40.8201 96.6402 40.1301 96.6402 39.3501C96.6402 38.7301 96.7402 38.1651 96.9402 37.6551C97.1402 37.1451 97.4152 36.7051 97.7652 36.3351C98.1252 35.9551 98.5502 35.6651 99.0402 35.4651C99.5402 35.2551 100.08 35.1501 100.66 35.1501C101.17 35.1501 101.645 35.2501 102.085 35.4501C102.525 35.6401 102.905 35.9051 103.225 36.2451C103.555 36.5851 103.805 36.9901 103.975 37.4601C104.155 37.9201 104.24 38.4251 104.23 38.9751L104.215 39.6351H97.7802L97.4352 38.4051H102.88L102.655 38.6601V38.3001C102.625 37.9701 102.515 37.6751 102.325 37.4151C102.135 37.1551 101.895 36.9501 101.605 36.8001C101.315 36.6501 101 36.5751 100.66 36.5751C100.12 36.5751 99.6652 36.6801 99.2952 36.8901C98.9252 37.0901 98.6452 37.3901 98.4552 37.7901C98.2652 38.1801 98.1702 38.6651 98.1702 39.2451C98.1702 39.7951 98.2852 40.2751 98.5152 40.6851C98.7452 41.0851 99.0702 41.3951 99.4902 41.6151C99.9102 41.8351 100.395 41.9451 100.945 41.9451C101.335 41.9451 101.695 41.8801 102.025 41.7501C102.365 41.6201 102.73 41.3851 103.12 41.0451L103.9 42.1401C103.66 42.3801 103.365 42.5901 103.015 42.7701C102.675 42.9501 102.31 43.0951 101.92 43.2051C101.54 43.3051 101.165 43.3551 100.795 43.3551ZM109.784 43.3551C108.974 43.3551 108.254 43.1851 107.624 42.8451C107.004 42.4951 106.514 42.0201 106.154 41.4201C105.804 40.8201 105.629 40.1301 105.629 39.3501C105.629 38.7301 105.729 38.1651 105.929 37.6551C106.129 37.1451 106.404 36.7051 106.754 36.3351C107.114 35.9551 107.539 35.6651 108.029 35.4651C108.529 35.2551 109.069 35.1501 109.649 35.1501C110.159 35.1501 110.634 35.2501 111.074 35.4501C111.514 35.6401 111.894 35.9051 112.214 36.2451C112.544 36.5851 112.794 36.9901 112.964 37.4601C113.144 37.9201 113.229 38.4251 113.219 38.9751L113.204 39.6351H106.769L106.424 38.4051H111.869L111.644 38.6601V38.3001C111.614 37.9701 111.504 37.6751 111.314 37.4151C111.124 37.1551 110.884 36.9501 110.594 36.8001C110.304 36.6501 109.989 36.5751 109.649 36.5751C109.109 36.5751 108.654 36.6801 108.284 36.8901C107.914 37.0901 107.634 37.3901 107.444 37.7901C107.254 38.1801 107.159 38.6651 107.159 39.2451C107.159 39.7951 107.274 40.2751 107.504 40.6851C107.734 41.0851 108.059 41.3951 108.479 41.6151C108.899 41.8351 109.384 41.9451 109.934 41.9451C110.324 41.9451 110.684 41.8801 111.014 41.7501C111.354 41.6201 111.719 41.3851 112.109 41.0451L112.889 42.1401C112.649 42.3801 112.354 42.5901 112.004 42.7701C111.664 42.9501 111.299 43.0951 110.909 43.2051C110.529 43.3051 110.154 43.3551 109.784 43.3551ZM118.383 43.3551C117.663 43.3551 117.018 43.1801 116.448 42.8301C115.888 42.4701 115.443 41.9851 115.113 41.3751C114.783 40.7551 114.618 40.0501 114.618 39.2601C114.618 38.4701 114.778 37.7701 115.098 37.1601C115.428 36.5401 115.873 36.0551 116.433 35.7051C116.993 35.3451 117.628 35.1651 118.338 35.1651C118.728 35.1651 119.103 35.2301 119.463 35.3601C119.833 35.4801 120.163 35.6501 120.453 35.8701C120.743 36.0801 120.968 36.3151 121.128 36.5751C121.298 36.8251 121.383 37.0801 121.383 37.3401L120.933 37.3701V32.1051H122.478V43.2051H120.933V41.3301H121.233C121.233 41.5701 121.153 41.8101 120.993 42.0501C120.833 42.2801 120.618 42.4951 120.348 42.6951C120.088 42.8951 119.783 43.0551 119.433 43.1751C119.093 43.2951 118.743 43.3551 118.383 43.3551ZM118.593 42.0201C119.063 42.0201 119.478 41.9001 119.838 41.6601C120.198 41.4201 120.478 41.0951 120.678 40.6851C120.888 40.2651 120.993 39.7901 120.993 39.2601C120.993 38.7301 120.888 38.2601 120.678 37.8501C120.478 37.4301 120.198 37.1001 119.838 36.8601C119.478 36.6201 119.063 36.5001 118.593 36.5001C118.123 36.5001 117.708 36.6201 117.348 36.8601C116.988 37.1001 116.703 37.4301 116.493 37.8501C116.293 38.2601 116.193 38.7301 116.193 39.2601C116.193 39.7901 116.293 40.2651 116.493 40.6851C116.703 41.0951 116.988 41.4201 117.348 41.6601C117.708 41.9001 118.123 42.0201 118.593 42.0201ZM127.43 43.3551C126.77 43.3551 126.175 43.2401 125.645 43.0101C125.115 42.7801 124.675 42.4401 124.325 41.9901L125.375 41.0901C125.675 41.4401 126 41.6951 126.35 41.8551C126.71 42.0051 127.115 42.0801 127.565 42.0801C127.745 42.0801 127.91 42.0601 128.06 42.0201C128.22 41.9701 128.355 41.9001 128.465 41.8101C128.585 41.7201 128.675 41.6151 128.735 41.4951C128.795 41.3651 128.825 41.2251 128.825 41.0751C128.825 40.8151 128.73 40.6051 128.54 40.4451C128.44 40.3751 128.28 40.3001 128.06 40.2201C127.85 40.1301 127.575 40.0401 127.235 39.9501C126.655 39.8001 126.18 39.6301 125.81 39.4401C125.44 39.2501 125.155 39.0351 124.955 38.7951C124.805 38.6051 124.695 38.4001 124.625 38.1801C124.555 37.9501 124.52 37.7001 124.52 37.4301C124.52 37.1001 124.59 36.8001 124.73 36.5301C124.88 36.2501 125.08 36.0101 125.33 35.8101C125.59 35.6001 125.89 35.4401 126.23 35.3301C126.58 35.2201 126.95 35.1651 127.34 35.1651C127.71 35.1651 128.075 35.2151 128.435 35.3151C128.805 35.4151 129.145 35.5601 129.455 35.7501C129.765 35.9401 130.025 36.1651 130.235 36.4251L129.35 37.4001C129.16 37.2101 128.95 37.0451 128.72 36.9051C128.5 36.7551 128.275 36.6401 128.045 36.5601C127.815 36.4801 127.605 36.4401 127.415 36.4401C127.205 36.4401 127.015 36.4601 126.845 36.5001C126.675 36.5401 126.53 36.6001 126.41 36.6801C126.3 36.7601 126.215 36.8601 126.155 36.9801C126.095 37.1001 126.065 37.2351 126.065 37.3851C126.075 37.5151 126.105 37.6401 126.155 37.7601C126.215 37.8701 126.295 37.9651 126.395 38.0451C126.505 38.1251 126.67 38.2101 126.89 38.3001C127.11 38.3901 127.39 38.4751 127.73 38.5551C128.23 38.6851 128.64 38.8301 128.96 38.9901C129.29 39.1401 129.55 39.3151 129.74 39.5151C129.94 39.7051 130.08 39.9251 130.16 40.1751C130.24 40.4251 130.28 40.7051 130.28 41.0151C130.28 41.4651 130.15 41.8701 129.89 42.2301C129.64 42.5801 129.3 42.8551 128.87 43.0551C128.44 43.2551 127.96 43.3551 127.43 43.3551Z" fill="#1E238E"/>
<path d="M149.663 36.2012V42.9681M149.663 31.6899V33.1937" stroke="#1E238E" stroke-width="1.5" stroke-linecap="round" stroke-linejoin="round"/>
<path d="M149.663 48.2313C155.477 48.2313 160.189 43.5186 160.189 37.705C160.189 31.8915 155.477 27.1787 149.663 27.1787C143.85 27.1787 139.137 31.8915 139.137 37.705C139.137 43.5186 143.85 48.2313 149.663 48.2313Z" stroke="#1E238E" stroke-width="1.5" stroke-linecap="round" stroke-linejoin="round"/>
<g filter="url(#filter1_d_438_375)">
<rect x="8" y="214.125" width="349" height="188" rx="5" fill="white"/>
</g>
<path d="M38.9421 369.117V360.057L39.3771 360.387L37.4271 361.557L37.0821 360.507L39.6771 358.977H40.1271V369.117H38.9421ZM37.3971 369.627V368.487H41.7021V369.627H37.3971ZM48.4063 372.927V361.797H49.5313L49.5613 363.702L49.3513 363.732C49.4413 363.352 49.6363 363.007 49.9363 362.697C50.2363 362.377 50.6013 362.122 51.0313 361.932C51.4613 361.742 51.9163 361.647 52.3963 361.647C53.0963 361.647 53.7213 361.822 54.2713 362.172C54.8313 362.522 55.2763 363.002 55.6063 363.612C55.9363 364.222 56.1013 364.922 56.1013 365.712C56.1013 366.492 55.9413 367.187 55.6213 367.797C55.3013 368.407 54.8613 368.892 54.3013 369.252C53.7413 369.602 53.1113 369.777 52.4113 369.777C51.9213 369.777 51.4563 369.677 51.0163 369.477C50.5763 369.277 50.2013 369.017 49.8913 368.697C49.5813 368.367 49.3763 368.012 49.2763 367.632H49.5463V372.927H48.4063ZM52.2313 368.697C52.7613 368.697 53.2313 368.567 53.6413 368.307C54.0513 368.047 54.3763 367.692 54.6163 367.242C54.8563 366.792 54.9763 366.282 54.9763 365.712C54.9763 365.132 54.8563 364.617 54.6163 364.167C54.3763 363.717 54.0513 363.362 53.6413 363.102C53.2313 362.842 52.7613 362.712 52.2313 362.712C51.7013 362.712 51.2263 362.842 50.8063 363.102C50.3963 363.352 50.0713 363.702 49.8313 364.152C49.5913 364.602 49.4713 365.117 49.4713 365.697C49.4713 366.277 49.5913 366.792 49.8313 367.242C50.0713 367.692 50.3963 368.047 50.8063 368.307C51.2263 368.567 51.7013 368.697 52.2313 368.697ZM61.3874 369.777C60.6074 369.777 59.9124 369.607 59.3024 369.267C58.7024 368.927 58.2324 368.452 57.8924 367.842C57.5524 367.232 57.3824 366.532 57.3824 365.742C57.3824 365.132 57.4774 364.582 57.6674 364.092C57.8574 363.592 58.1224 363.157 58.4624 362.787C58.8124 362.417 59.2274 362.132 59.7074 361.932C60.1874 361.722 60.7074 361.617 61.2674 361.617C61.7974 361.617 62.2774 361.712 62.7074 361.902C63.1474 362.092 63.5224 362.357 63.8324 362.697C64.1524 363.027 64.3924 363.422 64.5524 363.882C64.7124 364.342 64.7824 364.847 64.7624 365.397L64.7474 365.922H58.2224L58.0574 364.977H63.8924L63.6224 365.232V364.872C63.6024 364.512 63.4974 364.167 63.3074 363.837C63.1174 363.497 62.8474 363.222 62.4974 363.012C62.1574 362.802 61.7474 362.697 61.2674 362.697C60.7074 362.697 60.2224 362.812 59.8124 363.042C59.4024 363.262 59.0874 363.592 58.8674 364.032C58.6474 364.472 58.5374 365.017 58.5374 365.667C58.5374 366.287 58.6574 366.827 58.8974 367.287C59.1374 367.737 59.4774 368.087 59.9174 368.337C60.3674 368.587 60.9074 368.712 61.5374 368.712C61.9074 368.712 62.2724 368.652 62.6324 368.532C63.0024 368.402 63.4074 368.152 63.8474 367.782L64.4324 368.592C64.2024 368.822 63.9274 369.027 63.6074 369.207C63.2874 369.377 62.9374 369.517 62.5574 369.627C62.1774 369.727 61.7874 369.777 61.3874 369.777ZM66.5602 369.627V361.797H67.6852L67.7152 363.882L67.5952 363.597C67.7052 363.247 67.8802 362.922 68.1202 362.622C68.3702 362.322 68.6652 362.082 69.0052 361.902C69.3452 361.722 69.7202 361.632 70.1302 361.632C70.3002 361.632 70.4602 361.647 70.6102 361.677C70.7602 361.697 70.8852 361.727 70.9852 361.767L70.6702 363.027C70.5402 362.967 70.4052 362.927 70.2652 362.907C70.1352 362.877 70.0102 362.862 69.8902 362.862C69.5502 362.862 69.2452 362.922 68.9752 363.042C68.7052 363.162 68.4752 363.332 68.2852 363.552C68.0952 363.762 67.9502 364.007 67.8502 364.287C67.7502 364.567 67.7002 364.867 67.7002 365.187V369.627H66.5602ZM74.9209 369.777C74.2509 369.777 73.6509 369.652 73.1209 369.402C72.5909 369.152 72.1709 368.822 71.8609 368.412L72.6559 367.722C72.9459 368.072 73.2859 368.337 73.6759 368.517C74.0759 368.697 74.5209 368.787 75.0109 368.787C75.2609 368.787 75.4859 368.762 75.6859 368.712C75.8859 368.652 76.0609 368.567 76.2109 368.457C76.3609 368.347 76.4759 368.217 76.5559 368.067C76.6359 367.917 76.6759 367.752 76.6759 367.572C76.6759 367.242 76.5309 366.967 76.2409 366.747C76.1109 366.657 75.9259 366.567 75.6859 366.477C75.4459 366.377 75.1559 366.282 74.8159 366.192C74.2559 366.032 73.7909 365.872 73.4209 365.712C73.0509 365.542 72.7609 365.347 72.5509 365.127C72.4009 364.947 72.2859 364.752 72.2059 364.542C72.1359 364.332 72.1009 364.102 72.1009 363.852C72.1009 363.532 72.1659 363.237 72.2959 362.967C72.4359 362.697 72.6259 362.462 72.8659 362.262C73.1159 362.052 73.4059 361.897 73.7359 361.797C74.0759 361.687 74.4409 361.632 74.8309 361.632C75.2009 361.632 75.5659 361.682 75.9259 361.782C76.2859 361.882 76.6209 362.027 76.9309 362.217C77.2409 362.407 77.5059 362.632 77.7259 362.892L77.0359 363.642C76.8459 363.442 76.6359 363.262 76.4059 363.102C76.1759 362.942 75.9309 362.817 75.6709 362.727C75.4209 362.637 75.1609 362.592 74.8909 362.592C74.6509 362.592 74.4259 362.622 74.2159 362.682C74.0159 362.742 73.8409 362.827 73.6909 362.937C73.5509 363.037 73.4409 363.162 73.3609 363.312C73.2909 363.462 73.2559 363.627 73.2559 363.807C73.2559 363.957 73.2859 364.092 73.3459 364.212C73.4059 364.332 73.4909 364.437 73.6009 364.527C73.7409 364.637 73.9359 364.742 74.1859 364.842C74.4459 364.932 74.7659 365.027 75.1459 365.127C75.5859 365.247 75.9559 365.372 76.2559 365.502C76.5659 365.622 76.8209 365.767 77.0209 365.937C77.2909 366.137 77.4809 366.367 77.5909 366.627C77.7109 366.887 77.7709 367.182 77.7709 367.512C77.7709 367.952 77.6459 368.342 77.3959 368.682C77.1559 369.022 76.8209 369.292 76.3909 369.492C75.9609 369.682 75.4709 369.777 74.9209 369.777ZM83.1987 369.777C82.4187 369.777 81.7237 369.602 81.1137 369.252C80.5137 368.902 80.0387 368.417 79.6887 367.797C79.3487 367.177 79.1787 366.472 79.1787 365.682C79.1787 364.902 79.3487 364.207 79.6887 363.597C80.0387 362.987 80.5137 362.507 81.1137 362.157C81.7237 361.807 82.4187 361.632 83.1987 361.632C83.9687 361.632 84.6537 361.807 85.2537 362.157C85.8637 362.507 86.3387 362.987 86.6787 363.597C87.0287 364.207 87.2037 364.902 87.2037 365.682C87.2037 366.472 87.0287 367.177 86.6787 367.797C86.3387 368.417 85.8637 368.902 85.2537 369.252C84.6537 369.602 83.9687 369.777 83.1987 369.777ZM83.1987 368.712C83.7487 368.712 84.2387 368.582 84.6687 368.322C85.0987 368.052 85.4337 367.692 85.6737 367.242C85.9137 366.782 86.0337 366.262 86.0337 365.682C86.0337 365.102 85.9137 364.587 85.6737 364.137C85.4337 363.687 85.0987 363.337 84.6687 363.087C84.2387 362.827 83.7487 362.697 83.1987 362.697C82.6487 362.697 82.1537 362.827 81.7137 363.087C81.2837 363.337 80.9437 363.692 80.6937 364.152C80.4537 364.602 80.3387 365.112 80.3487 365.682C80.3387 366.262 80.4537 366.782 80.6937 367.242C80.9437 367.692 81.2837 368.052 81.7137 368.322C82.1537 368.582 82.6487 368.712 83.1987 368.712ZM89.045 369.627V361.797H90.155L90.2 363.432L90.02 363.507C90.12 363.167 90.315 362.857 90.605 362.577C90.895 362.297 91.24 362.072 91.64 361.902C92.05 361.722 92.47 361.632 92.9 361.632C93.48 361.632 93.965 361.747 94.355 361.977C94.745 362.207 95.04 362.562 95.24 363.042C95.44 363.522 95.54 364.132 95.54 364.872V369.627H94.4V364.932C94.4 364.412 94.33 363.987 94.19 363.657C94.06 363.317 93.855 363.067 93.575 362.907C93.295 362.747 92.95 362.672 92.54 362.682C92.2 362.682 91.885 362.742 91.595 362.862C91.305 362.972 91.055 363.127 90.845 363.327C90.635 363.527 90.47 363.757 90.35 364.017C90.23 364.277 90.17 364.557 90.17 364.857V369.627H89.615C89.545 369.627 89.465 369.627 89.375 369.627C89.285 369.627 89.175 369.627 89.045 369.627Z" fill="#1E238E"/>
<path d="M148.184 369.627L147.824 368.757L151.364 364.782C151.534 364.592 151.709 364.377 151.889 364.137C152.079 363.897 152.254 363.647 152.414 363.387C152.584 363.117 152.719 362.852 152.819 362.592C152.919 362.332 152.969 362.077 152.969 361.827C152.969 361.457 152.889 361.147 152.729 360.897C152.569 360.637 152.339 360.437 152.039 360.297C151.749 360.157 151.409 360.087 151.019 360.087C150.679 360.087 150.344 360.167 150.014 360.327C149.684 360.487 149.384 360.732 149.114 361.062C148.844 361.392 148.634 361.812 148.484 362.322L147.554 361.767C147.734 361.157 147.999 360.647 148.349 360.237C148.699 359.817 149.114 359.502 149.594 359.292C150.074 359.082 150.589 358.977 151.139 358.977C151.719 358.977 152.239 359.097 152.699 359.337C153.159 359.567 153.524 359.897 153.794 360.327C154.064 360.747 154.199 361.232 154.199 361.782C154.199 362.022 154.169 362.262 154.109 362.502C154.059 362.742 153.979 362.982 153.869 363.222C153.759 363.462 153.624 363.707 153.464 363.957C153.314 364.207 153.134 364.462 152.924 364.722C152.724 364.982 152.499 365.252 152.249 365.532L149.234 368.892L149.054 368.502H154.529V369.627H148.184ZM160.706 372.927V361.797H161.831L161.861 363.702L161.651 363.732C161.741 363.352 161.936 363.007 162.236 362.697C162.536 362.377 162.901 362.122 163.331 361.932C163.761 361.742 164.216 361.647 164.696 361.647C165.396 361.647 166.021 361.822 166.571 362.172C167.131 362.522 167.576 363.002 167.906 363.612C168.236 364.222 168.401 364.922 168.401 365.712C168.401 366.492 168.241 367.187 167.921 367.797C167.601 368.407 167.161 368.892 166.601 369.252C166.041 369.602 165.411 369.777 164.711 369.777C164.221 369.777 163.756 369.677 163.316 369.477C162.876 369.277 162.501 369.017 162.191 368.697C161.881 368.367 161.676 368.012 161.576 367.632H161.846V372.927H160.706ZM164.531 368.697C165.061 368.697 165.531 368.567 165.941 368.307C166.351 368.047 166.676 367.692 166.916 367.242C167.156 366.792 167.276 366.282 167.276 365.712C167.276 365.132 167.156 364.617 166.916 364.167C166.676 363.717 166.351 363.362 165.941 363.102C165.531 362.842 165.061 362.712 164.531 362.712C164.001 362.712 163.526 362.842 163.106 363.102C162.696 363.352 162.371 363.702 162.131 364.152C161.891 364.602 161.771 365.117 161.771 365.697C161.771 366.277 161.891 366.792 162.131 367.242C162.371 367.692 162.696 368.047 163.106 368.307C163.526 368.567 164.001 368.697 164.531 368.697ZM173.687 369.777C172.907 369.777 172.212 369.607 171.602 369.267C171.002 368.927 170.532 368.452 170.192 367.842C169.852 367.232 169.682 366.532 169.682 365.742C169.682 365.132 169.777 364.582 169.967 364.092C170.157 363.592 170.422 363.157 170.762 362.787C171.112 362.417 171.527 362.132 172.007 361.932C172.487 361.722 173.007 361.617 173.567 361.617C174.097 361.617 174.577 361.712 175.007 361.902C175.447 362.092 175.822 362.357 176.132 362.697C176.452 363.027 176.692 363.422 176.852 363.882C177.012 364.342 177.082 364.847 177.062 365.397L177.047 365.922H170.522L170.357 364.977H176.192L175.922 365.232V364.872C175.902 364.512 175.797 364.167 175.607 363.837C175.417 363.497 175.147 363.222 174.797 363.012C174.457 362.802 174.047 362.697 173.567 362.697C173.007 362.697 172.522 362.812 172.112 363.042C171.702 363.262 171.387 363.592 171.167 364.032C170.947 364.472 170.837 365.017 170.837 365.667C170.837 366.287 170.957 366.827 171.197 367.287C171.437 367.737 171.777 368.087 172.217 368.337C172.667 368.587 173.207 368.712 173.837 368.712C174.207 368.712 174.572 368.652 174.932 368.532C175.302 368.402 175.707 368.152 176.147 367.782L176.732 368.592C176.502 368.822 176.227 369.027 175.907 369.207C175.587 369.377 175.237 369.517 174.857 369.627C174.477 369.727 174.087 369.777 173.687 369.777ZM182.325 369.777C181.545 369.777 180.85 369.602 180.24 369.252C179.64 368.902 179.165 368.417 178.815 367.797C178.475 367.177 178.305 366.472 178.305 365.682C178.305 364.902 178.475 364.207 178.815 363.597C179.165 362.987 179.64 362.507 180.24 362.157C180.85 361.807 181.545 361.632 182.325 361.632C183.095 361.632 183.78 361.807 184.38 362.157C184.99 362.507 185.465 362.987 185.805 363.597C186.155 364.207 186.33 364.902 186.33 365.682C186.33 366.472 186.155 367.177 185.805 367.797C185.465 368.417 184.99 368.902 184.38 369.252C183.78 369.602 183.095 369.777 182.325 369.777ZM182.325 368.712C182.875 368.712 183.365 368.582 183.795 368.322C184.225 368.052 184.56 367.692 184.8 367.242C185.04 366.782 185.16 366.262 185.16 365.682C185.16 365.102 185.04 364.587 184.8 364.137C184.56 363.687 184.225 363.337 183.795 363.087C183.365 362.827 182.875 362.697 182.325 362.697C181.775 362.697 181.28 362.827 180.84 363.087C180.41 363.337 180.07 363.692 179.82 364.152C179.58 364.602 179.465 365.112 179.475 365.682C179.465 366.262 179.58 366.782 179.82 367.242C180.07 367.692 180.41 368.052 180.84 368.322C181.28 368.582 181.775 368.712 182.325 368.712ZM188.171 372.927V361.797H189.296L189.326 363.702L189.116 363.732C189.206 363.352 189.401 363.007 189.701 362.697C190.001 362.377 190.366 362.122 190.796 361.932C191.226 361.742 191.681 361.647 192.161 361.647C192.861 361.647 193.486 361.822 194.036 362.172C194.596 362.522 195.041 363.002 195.371 363.612C195.701 364.222 195.866 364.922 195.866 365.712C195.866 366.492 195.706 367.187 195.386 367.797C195.066 368.407 194.626 368.892 194.066 369.252C193.506 369.602 192.876 369.777 192.176 369.777C191.686 369.777 191.221 369.677 190.781 369.477C190.341 369.277 189.966 369.017 189.656 368.697C189.346 368.367 189.141 368.012 189.041 367.632H189.311V372.927H188.171ZM191.996 368.697C192.526 368.697 192.996 368.567 193.406 368.307C193.816 368.047 194.141 367.692 194.381 367.242C194.621 366.792 194.741 366.282 194.741 365.712C194.741 365.132 194.621 364.617 194.381 364.167C194.141 363.717 193.816 363.362 193.406 363.102C192.996 362.842 192.526 362.712 191.996 362.712C191.466 362.712 190.991 362.842 190.571 363.102C190.161 363.352 189.836 363.702 189.596 364.152C189.356 364.602 189.236 365.117 189.236 365.697C189.236 366.277 189.356 366.792 189.596 367.242C189.836 367.692 190.161 368.047 190.571 368.307C190.991 368.567 191.466 368.697 191.996 368.697ZM197.732 369.627V358.527H198.857V369.627H197.732ZM204.575 369.777C203.795 369.777 203.1 369.607 202.49 369.267C201.89 368.927 201.42 368.452 201.08 367.842C200.74 367.232 200.57 366.532 200.57 365.742C200.57 365.132 200.665 364.582 200.855 364.092C201.045 363.592 201.31 363.157 201.65 362.787C202 362.417 202.415 362.132 202.895 361.932C203.375 361.722 203.895 361.617 204.455 361.617C204.985 361.617 205.465 361.712 205.895 361.902C206.335 362.092 206.71 362.357 207.02 362.697C207.34 363.027 207.58 363.422 207.74 363.882C207.9 364.342 207.97 364.847 207.95 365.397L207.935 365.922H201.41L201.245 364.977H207.08L206.81 365.232V364.872C206.79 364.512 206.685 364.167 206.495 363.837C206.305 363.497 206.035 363.222 205.685 363.012C205.345 362.802 204.935 362.697 204.455 362.697C203.895 362.697 203.41 362.812 203 363.042C202.59 363.262 202.275 363.592 202.055 364.032C201.835 364.472 201.725 365.017 201.725 365.667C201.725 366.287 201.845 366.827 202.085 367.287C202.325 367.737 202.665 368.087 203.105 368.337C203.555 368.587 204.095 368.712 204.725 368.712C205.095 368.712 205.46 368.652 205.82 368.532C206.19 368.402 206.595 368.152 207.035 367.782L207.62 368.592C207.39 368.822 207.115 369.027 206.795 369.207C206.475 369.377 206.125 369.517 205.745 369.627C205.365 369.727 204.975 369.777 204.575 369.777Z" fill="#1E238E"/>
<path d="M264.554 369.777C263.814 369.777 263.159 369.612 262.589 369.282C262.029 368.942 261.504 368.367 261.014 367.557L261.974 366.957C262.244 367.387 262.519 367.732 262.799 367.992C263.089 368.242 263.384 368.422 263.684 368.532C263.984 368.642 264.304 368.697 264.644 368.697C265.064 368.697 265.449 368.597 265.799 368.397C266.149 368.187 266.429 367.907 266.639 367.557C266.849 367.197 266.954 366.797 266.954 366.357C266.954 365.907 266.859 365.512 266.669 365.172C266.479 364.832 266.214 364.567 265.874 364.377C265.544 364.187 265.159 364.092 264.719 364.092C264.559 364.092 264.384 364.112 264.194 364.152C264.014 364.182 263.814 364.247 263.594 364.347C263.384 364.437 263.154 364.572 262.904 364.752L262.559 363.822L266.264 359.787L266.519 360.222H261.749V359.127H267.419L267.719 359.727L264.119 363.567L263.819 363.267C263.949 363.187 264.104 363.122 264.284 363.072C264.464 363.012 264.644 362.982 264.824 362.982C265.284 362.982 265.714 363.067 266.114 363.237C266.514 363.407 266.859 363.647 267.149 363.957C267.449 364.257 267.684 364.607 267.854 365.007C268.024 365.407 268.109 365.842 268.109 366.312C268.109 366.962 267.954 367.552 267.644 368.082C267.334 368.602 266.909 369.017 266.369 369.327C265.829 369.627 265.224 369.777 264.554 369.777ZM269.603 365.892V364.872H276.968V365.892H269.603ZM272.693 368.997V361.752H273.848V368.997H272.693ZM283.415 372.927V361.797H284.54L284.57 363.702L284.36 363.732C284.45 363.352 284.645 363.007 284.945 362.697C285.245 362.377 285.61 362.122 286.04 361.932C286.47 361.742 286.925 361.647 287.405 361.647C288.105 361.647 288.73 361.822 289.28 362.172C289.84 362.522 290.285 363.002 290.615 363.612C290.945 364.222 291.11 364.922 291.11 365.712C291.11 366.492 290.95 367.187 290.63 367.797C290.31 368.407 289.87 368.892 289.31 369.252C288.75 369.602 288.12 369.777 287.42 369.777C286.93 369.777 286.465 369.677 286.025 369.477C285.585 369.277 285.21 369.017 284.9 368.697C284.59 368.367 284.385 368.012 284.285 367.632H284.555V372.927H283.415ZM287.24 368.697C287.77 368.697 288.24 368.567 288.65 368.307C289.06 368.047 289.385 367.692 289.625 367.242C289.865 366.792 289.985 366.282 289.985 365.712C289.985 365.132 289.865 364.617 289.625 364.167C289.385 363.717 289.06 363.362 288.65 363.102C288.24 362.842 287.77 362.712 287.24 362.712C286.71 362.712 286.235 362.842 285.815 363.102C285.405 363.352 285.08 363.702 284.84 364.152C284.6 364.602 284.48 365.117 284.48 365.697C284.48 366.277 284.6 366.792 284.84 367.242C285.08 367.692 285.405 368.047 285.815 368.307C286.235 368.567 286.71 368.697 287.24 368.697ZM296.396 369.777C295.616 369.777 294.921 369.607 294.311 369.267C293.711 368.927 293.241 368.452 292.901 367.842C292.561 367.232 292.391 366.532 292.391 365.742C292.391 365.132 292.486 364.582 292.676 364.092C292.866 363.592 293.131 363.157 293.471 362.787C293.821 362.417 294.236 362.132 294.716 361.932C295.196 361.722 295.716 361.617 296.276 361.617C296.806 361.617 297.286 361.712 297.716 361.902C298.156 362.092 298.531 362.357 298.841 362.697C299.161 363.027 299.401 363.422 299.561 363.882C299.721 364.342 299.791 364.847 299.771 365.397L299.756 365.922H293.231L293.066 364.977H298.901L298.631 365.232V364.872C298.611 364.512 298.506 364.167 298.316 363.837C298.126 363.497 297.856 363.222 297.506 363.012C297.166 362.802 296.756 362.697 296.276 362.697C295.716 362.697 295.231 362.812 294.821 363.042C294.411 363.262 294.096 363.592 293.876 364.032C293.656 364.472 293.546 365.017 293.546 365.667C293.546 366.287 293.666 366.827 293.906 367.287C294.146 367.737 294.486 368.087 294.926 368.337C295.376 368.587 295.916 368.712 296.546 368.712C296.916 368.712 297.281 368.652 297.641 368.532C298.011 368.402 298.416 368.152 298.856 367.782L299.441 368.592C299.211 368.822 298.936 369.027 298.616 369.207C298.296 369.377 297.946 369.517 297.566 369.627C297.186 369.727 296.796 369.777 296.396 369.777ZM305.033 369.777C304.253 369.777 303.558 369.602 302.948 369.252C302.348 368.902 301.873 368.417 301.523 367.797C301.183 367.177 301.013 366.472 301.013 365.682C301.013 364.902 301.183 364.207 301.523 363.597C301.873 362.987 302.348 362.507 302.948 362.157C303.558 361.807 304.253 361.632 305.033 361.632C305.803 361.632 306.488 361.807 307.088 362.157C307.698 362.507 308.173 362.987 308.513 363.597C308.863 364.207 309.038 364.902 309.038 365.682C309.038 366.472 308.863 367.177 308.513 367.797C308.173 368.417 307.698 368.902 307.088 369.252C306.488 369.602 305.803 369.777 305.033 369.777ZM305.033 368.712C305.583 368.712 306.073 368.582 306.503 368.322C306.933 368.052 307.268 367.692 307.508 367.242C307.748 366.782 307.868 366.262 307.868 365.682C307.868 365.102 307.748 364.587 307.508 364.137C307.268 363.687 306.933 363.337 306.503 363.087C306.073 362.827 305.583 362.697 305.033 362.697C304.483 362.697 303.988 362.827 303.548 363.087C303.118 363.337 302.778 363.692 302.528 364.152C302.288 364.602 302.173 365.112 302.183 365.682C302.173 366.262 302.288 366.782 302.528 367.242C302.778 367.692 303.118 368.052 303.548 368.322C303.988 368.582 304.483 368.712 305.033 368.712ZM310.88 372.927V361.797H312.005L312.035 363.702L311.825 363.732C311.915 363.352 312.11 363.007 312.41 362.697C312.71 362.377 313.075 362.122 313.505 361.932C313.935 361.742 314.39 361.647 314.87 361.647C315.57 361.647 316.195 361.822 316.745 362.172C317.305 362.522 317.75 363.002 318.08 363.612C318.41 364.222 318.575 364.922 318.575 365.712C318.575 366.492 318.415 367.187 318.095 367.797C317.775 368.407 317.335 368.892 316.775 369.252C316.215 369.602 315.585 369.777 314.885 369.777C314.395 369.777 313.93 369.677 313.49 369.477C313.05 369.277 312.675 369.017 312.365 368.697C312.055 368.367 311.85 368.012 311.75 367.632H312.02V372.927H310.88ZM314.705 368.697C315.235 368.697 315.705 368.567 316.115 368.307C316.525 368.047 316.85 367.692 317.09 367.242C317.33 366.792 317.45 366.282 317.45 365.712C317.45 365.132 317.33 364.617 317.09 364.167C316.85 363.717 316.525 363.362 316.115 363.102C315.705 362.842 315.235 362.712 314.705 362.712C314.175 362.712 313.7 362.842 313.28 363.102C312.87 363.352 312.545 363.702 312.305 364.152C312.065 364.602 311.945 365.117 311.945 365.697C311.945 366.277 312.065 366.792 312.305 367.242C312.545 367.692 312.87 368.047 313.28 368.307C313.7 368.567 314.175 368.697 314.705 368.697ZM320.441 369.627V358.527H321.566V369.627H320.441ZM327.283 369.777C326.503 369.777 325.808 369.607 325.198 369.267C324.598 368.927 324.128 368.452 323.788 367.842C323.448 367.232 323.278 366.532 323.278 365.742C323.278 365.132 323.373 364.582 323.563 364.092C323.753 363.592 324.018 363.157 324.358 362.787C324.708 362.417 325.123 362.132 325.603 361.932C326.083 361.722 326.603 361.617 327.163 361.617C327.693 361.617 328.173 361.712 328.603 361.902C329.043 362.092 329.418 362.357 329.728 362.697C330.048 363.027 330.288 363.422 330.448 363.882C330.608 364.342 330.678 364.847 330.658 365.397L330.643 365.922H324.118L323.953 364.977H329.788L329.518 365.232V364.872C329.498 364.512 329.393 364.167 329.203 363.837C329.013 363.497 328.743 363.222 328.393 363.012C328.053 362.802 327.643 362.697 327.163 362.697C326.603 362.697 326.118 362.812 325.708 363.042C325.298 363.262 324.983 363.592 324.763 364.032C324.543 364.472 324.433 365.017 324.433 365.667C324.433 366.287 324.553 366.827 324.793 367.287C325.033 367.737 325.373 368.087 325.813 368.337C326.263 368.587 326.803 368.712 327.433 368.712C327.803 368.712 328.168 368.652 328.528 368.532C328.898 368.402 329.303 368.152 329.743 367.782L330.328 368.592C330.098 368.822 329.823 369.027 329.503 369.207C329.183 369.377 328.833 369.517 328.453 369.627C328.073 369.727 327.683 369.777 327.283 369.777Z" fill="#1E238E"/>
<path d="M25.6848 257.73V247.23H27.2748L31.0998 253.455L30.3348 253.44L34.2048 247.23H35.7048V257.73H34.0848V253.425C34.0848 252.525 34.1048 251.715 34.1448 250.995C34.1948 250.275 34.2748 249.56 34.3848 248.85L34.5948 249.405L31.1598 254.715H30.1698L26.8398 249.465L27.0048 248.85C27.1148 249.52 27.1898 250.21 27.2298 250.92C27.2798 251.62 27.3048 252.455 27.3048 253.425V257.73H25.6848ZM41.9987 257.88C41.2287 257.88 40.5387 257.705 39.9287 257.355C39.3287 256.995 38.8537 256.51 38.5037 255.9C38.1537 255.28 37.9787 254.575 37.9787 253.785C37.9787 252.995 38.1537 252.295 38.5037 251.685C38.8537 251.065 39.3287 250.58 39.9287 250.23C40.5387 249.87 41.2287 249.69 41.9987 249.69C42.7587 249.69 43.4387 249.87 44.0387 250.23C44.6487 250.58 45.1287 251.065 45.4787 251.685C45.8287 252.295 46.0037 252.995 46.0037 253.785C46.0037 254.575 45.8287 255.28 45.4787 255.9C45.1287 256.51 44.6487 256.995 44.0387 257.355C43.4387 257.705 42.7587 257.88 41.9987 257.88ZM41.9987 256.47C42.4687 256.47 42.8887 256.355 43.2587 256.125C43.6287 255.885 43.9187 255.565 44.1287 255.165C44.3387 254.755 44.4387 254.295 44.4287 253.785C44.4387 253.265 44.3387 252.805 44.1287 252.405C43.9187 251.995 43.6287 251.675 43.2587 251.445C42.8887 251.215 42.4687 251.1 41.9987 251.1C41.5287 251.1 41.1037 251.22 40.7237 251.46C40.3537 251.69 40.0637 252.01 39.8537 252.42C39.6437 252.82 39.5437 253.275 39.5537 253.785C39.5437 254.295 39.6437 254.755 39.8537 255.165C40.0637 255.565 40.3537 255.885 40.7237 256.125C41.1037 256.355 41.5287 256.47 41.9987 256.47ZM50.2475 257.73L46.9175 249.855H48.5825L50.9825 255.75L50.6975 255.885L53.2625 249.855H54.8525L51.3575 257.73H50.2475ZM56.7211 257.73V249.855H58.2661V257.73H56.7211ZM57.4711 248.115C57.1411 248.115 56.8861 248.03 56.7061 247.86C56.5261 247.69 56.4361 247.45 56.4361 247.14C56.4361 246.85 56.5261 246.615 56.7061 246.435C56.8961 246.255 57.1511 246.165 57.4711 246.165C57.8011 246.165 58.0561 246.25 58.2361 246.42C58.4161 246.59 58.5061 246.83 58.5061 247.14C58.5061 247.43 58.4111 247.665 58.2211 247.845C58.0411 248.025 57.7911 248.115 57.4711 248.115ZM60.8409 257.73V249.855H62.3859V251.475L62.1159 251.655C62.2159 251.305 62.4109 250.985 62.7009 250.695C62.9909 250.395 63.3359 250.155 63.7359 249.975C64.1359 249.785 64.5459 249.69 64.9659 249.69C65.5659 249.69 66.0659 249.81 66.4659 250.05C66.8659 250.28 67.1659 250.635 67.3659 251.115C67.5659 251.595 67.6659 252.2 67.6659 252.93V257.73H66.1209V253.035C66.1209 252.585 66.0609 252.215 65.9409 251.925C65.8209 251.625 65.6359 251.41 65.3859 251.28C65.1359 251.14 64.8259 251.08 64.4559 251.1C64.1559 251.1 63.8809 251.15 63.6309 251.25C63.3809 251.34 63.1609 251.47 62.9709 251.64C62.7909 251.81 62.6459 252.01 62.5359 252.24C62.4359 252.46 62.3859 252.7 62.3859 252.96V257.73H61.6209C61.4909 257.73 61.3609 257.73 61.2309 257.73C61.1009 257.73 60.9709 257.73 60.8409 257.73ZM73.4868 261.18C72.9268 261.18 72.3668 261.09 71.8068 260.91C71.2568 260.74 70.8118 260.515 70.4718 260.235L71.0418 259.035C71.2418 259.185 71.4768 259.315 71.7468 259.425C72.0168 259.545 72.3018 259.635 72.6018 259.695C72.9018 259.765 73.1968 259.8 73.4868 259.8C74.0368 259.8 74.4968 259.71 74.8668 259.53C75.2368 259.35 75.5168 259.085 75.7068 258.735C75.8968 258.385 75.9918 257.95 75.9918 257.43V255.915L76.1568 256.02C76.1068 256.33 75.9418 256.63 75.6618 256.92C75.3918 257.2 75.0518 257.43 74.6418 257.61C74.2318 257.79 73.8118 257.88 73.3818 257.88C72.6318 257.88 71.9618 257.705 71.3718 257.355C70.7918 256.995 70.3318 256.51 69.9918 255.9C69.6518 255.28 69.4818 254.575 69.4818 253.785C69.4818 252.995 69.6468 252.295 69.9768 251.685C70.3168 251.065 70.7768 250.58 71.3568 250.23C71.9468 249.87 72.6068 249.69 73.3368 249.69C73.6368 249.69 73.9268 249.73 74.2068 249.81C74.4868 249.88 74.7468 249.985 74.9868 250.125C75.2268 250.255 75.4418 250.4 75.6318 250.56C75.8218 250.72 75.9768 250.89 76.0968 251.07C76.2168 251.25 76.2918 251.42 76.3218 251.58L75.9918 251.7V249.855H77.5368V257.25C77.5368 257.88 77.4418 258.435 77.2518 258.915C77.0718 259.405 76.8068 259.815 76.4568 260.145C76.1068 260.485 75.6818 260.74 75.1818 260.91C74.6818 261.09 74.1168 261.18 73.4868 261.18ZM73.5468 256.455C74.0368 256.455 74.4718 256.34 74.8518 256.11C75.2318 255.88 75.5268 255.565 75.7368 255.165C75.9468 254.765 76.0518 254.305 76.0518 253.785C76.0518 253.265 75.9418 252.805 75.7218 252.405C75.5118 251.995 75.2168 251.675 74.8368 251.445C74.4668 251.215 74.0368 251.1 73.5468 251.1C73.0668 251.1 72.6368 251.22 72.2568 251.46C71.8868 251.69 71.5918 252.01 71.3718 252.42C71.1618 252.82 71.0568 253.275 71.0568 253.785C71.0568 254.295 71.1618 254.755 71.3718 255.165C71.5918 255.565 71.8868 255.88 72.2568 256.11C72.6368 256.34 73.0668 256.455 73.5468 256.455ZM84.6972 257.73V247.23H86.1522L92.5722 255.825L92.3322 255.96C92.2922 255.71 92.2572 255.44 92.2272 255.15C92.1972 254.85 92.1672 254.535 92.1372 254.205C92.1172 253.865 92.0972 253.51 92.0772 253.14C92.0672 252.76 92.0572 252.365 92.0471 251.955C92.0372 251.545 92.0322 251.12 92.0322 250.68V247.23H93.6522V257.73H92.1672L85.8522 249.45L86.0172 249.24C86.0672 249.85 86.1072 250.37 86.1372 250.8C86.1772 251.22 86.2072 251.58 86.2272 251.88C86.2572 252.17 86.2772 252.41 86.2872 252.6C86.2972 252.78 86.3022 252.93 86.3022 253.05C86.3122 253.17 86.3172 253.275 86.3172 253.365V257.73H84.6972ZM100.077 257.88C99.2667 257.88 98.5467 257.71 97.9167 257.37C97.2967 257.02 96.8067 256.545 96.4467 255.945C96.0967 255.345 95.9217 254.655 95.9217 253.875C95.9217 253.255 96.0217 252.69 96.2217 252.18C96.4217 251.67 96.6967 251.23 97.0467 250.86C97.4067 250.48 97.8317 250.19 98.3217 249.99C98.8217 249.78 99.3617 249.675 99.9417 249.675C100.452 249.675 100.927 249.775 101.367 249.975C101.807 250.165 102.187 250.43 102.507 250.77C102.837 251.11 103.087 251.515 103.257 251.985C103.437 252.445 103.522 252.95 103.512 253.5L103.497 254.16H97.0617L96.7167 252.93H102.162L101.937 253.185V252.825C101.907 252.495 101.797 252.2 101.607 251.94C101.417 251.68 101.177 251.475 100.887 251.325C100.597 251.175 100.282 251.1 99.9417 251.1C99.4017 251.1 98.9467 251.205 98.5767 251.415C98.2067 251.615 97.9267 251.915 97.7367 252.315C97.5467 252.705 97.4517 253.19 97.4517 253.77C97.4517 254.32 97.5667 254.8 97.7967 255.21C98.0267 255.61 98.3517 255.92 98.7717 256.14C99.1917 256.36 99.6767 256.47 100.227 256.47C100.617 256.47 100.977 256.405 101.307 256.275C101.647 256.145 102.012 255.91 102.402 255.57L103.182 256.665C102.942 256.905 102.647 257.115 102.297 257.295C101.957 257.475 101.592 257.62 101.202 257.73C100.822 257.83 100.447 257.88 100.077 257.88ZM109.066 257.88C108.256 257.88 107.536 257.71 106.906 257.37C106.286 257.02 105.796 256.545 105.436 255.945C105.086 255.345 104.911 254.655 104.911 253.875C104.911 253.255 105.011 252.69 105.211 252.18C105.411 251.67 105.686 251.23 106.036 250.86C106.396 250.48 106.821 250.19 107.311 249.99C107.811 249.78 108.351 249.675 108.931 249.675C109.441 249.675 109.916 249.775 110.356 249.975C110.796 250.165 111.176 250.43 111.496 250.77C111.826 251.11 112.076 251.515 112.246 251.985C112.426 252.445 112.511 252.95 112.501 253.5L112.486 254.16H106.051L105.706 252.93H111.151L110.926 253.185V252.825C110.896 252.495 110.786 252.2 110.596 251.94C110.406 251.68 110.166 251.475 109.876 251.325C109.586 251.175 109.271 251.1 108.931 251.1C108.391 251.1 107.936 251.205 107.566 251.415C107.196 251.615 106.916 251.915 106.726 252.315C106.536 252.705 106.441 253.19 106.441 253.77C106.441 254.32 106.556 254.8 106.786 255.21C107.016 255.61 107.341 255.92 107.761 256.14C108.181 256.36 108.666 256.47 109.216 256.47C109.606 256.47 109.966 256.405 110.296 256.275C110.636 256.145 111.001 255.91 111.391 255.57L112.171 256.665C111.931 256.905 111.636 257.115 111.286 257.295C110.946 257.475 110.581 257.62 110.191 257.73C109.811 257.83 109.436 257.88 109.066 257.88ZM117.665 257.88C116.945 257.88 116.3 257.705 115.73 257.355C115.17 256.995 114.725 256.51 114.395 255.9C114.065 255.28 113.9 254.575 113.9 253.785C113.9 252.995 114.06 252.295 114.38 251.685C114.71 251.065 115.155 250.58 115.715 250.23C116.275 249.87 116.91 249.69 117.62 249.69C118.01 249.69 118.385 249.755 118.745 249.885C119.115 250.005 119.445 250.175 119.735 250.395C120.025 250.605 120.25 250.84 120.41 251.1C120.58 251.35 120.665 251.605 120.665 251.865L120.215 251.895V246.63H121.76V257.73H120.215V255.855H120.515C120.515 256.095 120.435 256.335 120.275 256.575C120.115 256.805 119.9 257.02 119.63 257.22C119.37 257.42 119.065 257.58 118.715 257.7C118.375 257.82 118.025 257.88 117.665 257.88ZM117.875 256.545C118.345 256.545 118.76 256.425 119.12 256.185C119.48 255.945 119.76 255.62 119.96 255.21C120.17 254.79 120.275 254.315 120.275 253.785C120.275 253.255 120.17 252.785 119.96 252.375C119.76 251.955 119.48 251.625 119.12 251.385C118.76 251.145 118.345 251.025 117.875 251.025C117.405 251.025 116.99 251.145 116.63 251.385C116.27 251.625 115.985 251.955 115.775 252.375C115.575 252.785 115.475 253.255 115.475 253.785C115.475 254.315 115.575 254.79 115.775 255.21C115.985 255.62 116.27 255.945 116.63 256.185C116.99 256.425 117.405 256.545 117.875 256.545ZM126.712 257.88C126.052 257.88 125.457 257.765 124.927 257.535C124.397 257.305 123.957 256.965 123.607 256.515L124.657 255.615C124.957 255.965 125.282 256.22 125.632 256.38C125.992 256.53 126.397 256.605 126.847 256.605C127.027 256.605 127.192 256.585 127.342 256.545C127.502 256.495 127.637 256.425 127.747 256.335C127.867 256.245 127.957 256.14 128.017 256.02C128.077 255.89 128.107 255.75 128.107 255.6C128.107 255.34 128.012 255.13 127.822 254.97C127.722 254.9 127.562 254.825 127.342 254.745C127.132 254.655 126.857 254.565 126.517 254.475C125.937 254.325 125.462 254.155 125.092 253.965C124.722 253.775 124.437 253.56 124.237 253.32C124.087 253.13 123.977 252.925 123.907 252.705C123.837 252.475 123.802 252.225 123.802 251.955C123.802 251.625 123.872 251.325 124.012 251.055C124.162 250.775 124.362 250.535 124.612 250.335C124.872 250.125 125.172 249.965 125.512 249.855C125.862 249.745 126.232 249.69 126.622 249.69C126.992 249.69 127.357 249.74 127.717 249.84C128.087 249.94 128.427 250.085 128.737 250.275C129.047 250.465 129.307 250.69 129.517 250.95L128.632 251.925C128.442 251.735 128.232 251.57 128.002 251.43C127.782 251.28 127.557 251.165 127.327 251.085C127.097 251.005 126.887 250.965 126.697 250.965C126.487 250.965 126.297 250.985 126.127 251.025C125.957 251.065 125.812 251.125 125.692 251.205C125.582 251.285 125.497 251.385 125.437 251.505C125.377 251.625 125.347 251.76 125.347 251.91C125.357 252.04 125.387 252.165 125.437 252.285C125.497 252.395 125.577 252.49 125.677 252.57C125.787 252.65 125.952 252.735 126.172 252.825C126.392 252.915 126.672 253 127.012 253.08C127.512 253.21 127.922 253.355 128.242 253.515C128.572 253.665 128.832 253.84 129.022 254.04C129.222 254.23 129.362 254.45 129.442 254.7C129.522 254.95 129.562 255.23 129.562 255.54C129.562 255.99 129.432 256.395 129.172 256.755C128.922 257.105 128.582 257.38 128.152 257.58C127.722 257.78 127.242 257.88 126.712 257.88Z" fill="#1E238E"/>
<path d="M155.741 250.727V257.494M155.741 246.215V247.719" stroke="#1E238E" stroke-width="1.5" stroke-linecap="round" stroke-linejoin="round"/>
<path d="M155.741 262.757C161.555 262.757 166.267 258.044 166.267 252.23C166.267 246.417 161.555 241.704 155.741 241.704C149.928 241.704 145.215 246.417 145.215 252.23C145.215 258.044 149.928 262.757 155.741 262.757Z" stroke="#1E238E" stroke-width="1.5" stroke-linecap="round" stroke-linejoin="round"/>
<g filter="url(#filter2_d_438_375)">
<rect x="149.422" y="277.524" width="55.9181" height="55.9181" rx="7.7171" fill="#FCFBF9"/>
<rect x="149.808" y="277.91" width="55.1464" height="55.1464" rx="7.33124" stroke="#1E238E" stroke-width="0.77171"/>
</g>
<path d="M165.839 299.456C166.991 299.456 167.925 298.522 167.925 297.37C167.925 296.218 166.991 295.285 165.839 295.285C164.688 295.285 163.754 296.218 163.754 297.37C163.754 298.522 164.688 299.456 165.839 299.456Z" stroke="#1E238E" stroke-width="0.77171" stroke-miterlimit="10"/>
<path d="M162.884 308.864L161.299 317.842C161.27 318.004 161.274 318.17 161.309 318.331C161.345 318.491 161.412 318.643 161.507 318.778C161.601 318.912 161.721 319.027 161.86 319.115C161.999 319.203 162.153 319.263 162.315 319.292C162.477 319.32 162.642 319.317 162.802 319.281C162.962 319.246 163.113 319.178 163.247 319.084C163.381 318.989 163.495 318.869 163.582 318.73C163.669 318.591 163.727 318.437 163.754 318.275L164.849 312.024V312.034C164.849 312.034 165.12 310.339 165.762 310.339H165.923C166.575 310.339 166.836 312.034 166.836 312.034V312.029L167.931 318.28C167.989 318.606 168.174 318.895 168.445 319.084C168.717 319.274 169.052 319.347 169.378 319.289C169.703 319.231 169.992 319.046 170.182 318.775C170.371 318.503 170.445 318.168 170.386 317.842L168.801 308.864L168.546 307.315C168.395 306.372 168.327 304.833 168.572 304.203C168.781 303.66 169.309 303.462 169.782 303.462H174.599C174.931 303.462 175.25 303.33 175.484 303.096C175.719 302.861 175.851 302.543 175.851 302.211C175.851 301.879 175.719 301.561 175.484 301.326C175.25 301.091 174.931 300.959 174.599 300.959H157.08C156.749 300.959 156.43 301.091 156.196 301.326C155.961 301.561 155.829 301.879 155.829 302.211C155.829 302.543 155.961 302.861 156.196 303.096C156.43 303.33 156.749 303.462 157.08 303.462H161.903C162.385 303.462 162.904 303.66 163.113 304.203C163.358 304.833 163.29 306.372 163.139 307.315L162.884 308.864Z" stroke="#1E238E" stroke-width="0.77171" stroke-miterlimit="10"/>
<path d="M188.922 299.456C190.074 299.456 191.008 298.522 191.008 297.37C191.008 296.218 190.074 295.285 188.922 295.285C187.77 295.285 186.836 296.218 186.836 297.37C186.836 298.522 187.77 299.456 188.922 299.456Z" stroke="#1E238E" stroke-width="0.77171" stroke-miterlimit="10"/>
<path d="M185.966 308.864L184.381 317.842C184.352 318.004 184.356 318.17 184.391 318.331C184.427 318.491 184.494 318.643 184.589 318.778C184.683 318.912 184.803 319.027 184.942 319.115C185.081 319.203 185.235 319.263 185.397 319.292C185.559 319.32 185.724 319.317 185.884 319.281C186.044 319.246 186.195 319.178 186.329 319.084C186.463 318.989 186.577 318.869 186.664 318.73C186.751 318.591 186.81 318.437 186.836 318.275L187.931 312.024V312.034C187.931 312.034 188.202 310.339 188.844 310.339H189.005C189.657 310.339 189.918 312.034 189.918 312.034V312.029L191.013 318.28C191.071 318.606 191.256 318.895 191.527 319.084C191.799 319.274 192.134 319.347 192.46 319.289C192.785 319.231 193.075 319.046 193.264 318.775C193.453 318.503 193.527 318.168 193.469 317.842L191.883 308.864L191.628 307.315C191.477 306.372 191.409 304.833 191.654 304.203C191.863 303.66 192.391 303.462 192.864 303.462H197.681C198.013 303.462 198.332 303.33 198.566 303.096C198.801 302.861 198.933 302.543 198.933 302.211C198.933 301.879 198.801 301.561 198.566 301.326C198.332 301.091 198.013 300.959 197.681 300.959H180.162C179.831 300.959 179.512 301.091 179.278 301.326C179.043 301.561 178.911 301.879 178.911 302.211C178.911 302.543 179.043 302.861 179.278 303.096C179.512 303.33 179.831 303.462 180.162 303.462H184.985C185.467 303.462 185.986 303.66 186.195 304.203C186.44 304.833 186.372 306.372 186.221 307.315L185.966 308.864Z" stroke="#1E238E" stroke-width="0.77171" stroke-miterlimit="10"/>
<g filter="url(#filter3_d_438_375)">
<rect x="39.752" y="275.752" width="55.9181" height="55.9181" rx="7.7171" fill="#FCFBF9"/>
<rect x="40.1378" y="276.138" width="55.1464" height="55.1464" rx="7.33124" stroke="#1E238E" stroke-width="0.77171"/>
</g>
<path d="M67.7117 294.551C69.2211 294.551 70.4448 293.328 70.4448 291.818C70.4448 290.309 69.2211 289.085 67.7117 289.085C66.2022 289.085 64.9785 290.309 64.9785 291.818C64.9785 293.328 66.2022 294.551 67.7117 294.551Z" stroke="#1E238E" stroke-width="0.77171" stroke-miterlimit="10"/>
<path d="M63.8371 307.191L61.7599 318.957C61.7226 319.169 61.7274 319.386 61.7742 319.597C61.821 319.807 61.9087 320.006 62.0325 320.183C62.1562 320.359 62.3135 320.509 62.4954 320.625C62.6772 320.741 62.8801 320.819 63.0923 320.856C63.3038 320.894 63.5206 320.889 63.7302 320.842C63.9398 320.796 64.1381 320.708 64.3135 320.584C64.4889 320.46 64.6379 320.302 64.752 320.12C64.8661 319.939 64.943 319.736 64.9782 319.524L66.4131 311.331V311.345C66.4131 311.345 66.7684 309.124 67.6088 309.124H67.8207C68.6748 309.124 69.0164 311.345 69.0164 311.345V311.338L70.4513 319.531C70.5274 319.957 70.7699 320.337 71.1255 320.584C71.4811 320.832 71.9206 320.929 72.3474 320.853C72.7742 320.777 73.1532 320.534 73.4012 320.179C73.6491 319.823 73.7457 319.384 73.6696 318.957L71.5924 307.191L71.2576 305.161C71.0594 303.925 70.9706 301.909 71.2917 301.082C71.5651 300.371 72.2572 300.112 72.877 300.112H79.1905C79.6254 300.112 80.0425 299.939 80.3501 299.631C80.6576 299.324 80.8304 298.907 80.8304 298.472C80.8304 298.037 80.6576 297.62 80.3501 297.312C80.0425 297.005 79.6254 296.832 79.1905 296.832H56.2322C55.7972 296.832 55.3801 297.005 55.0726 297.312C54.7651 297.62 54.5923 298.037 54.5923 298.472C54.5923 298.907 54.7651 299.324 55.0726 299.631C55.3801 299.939 55.7972 300.112 56.2322 300.112H62.5525C63.1832 300.112 63.8644 300.371 64.1378 301.082C64.4589 301.909 64.3701 303.925 64.1719 305.161L63.8371 307.191Z" stroke="#1E238E" stroke-width="0.77171" stroke-miterlimit="10"/>
<g filter="url(#filter4_d_438_375)">
<rect x="265.375" y="275.752" width="55.9181" height="55.9181" rx="7.7171" fill="#FCFBF9"/>
<rect x="265.761" y="276.138" width="55.1464" height="55.1464" rx="7.33124" stroke="#1E238E" stroke-width="0.77171"/>
</g>
<path d="M283.503 306.859C284.584 306.859 285.46 305.983 285.46 304.902C285.46 303.821 284.584 302.944 283.503 302.944C282.422 302.944 281.545 303.821 281.545 304.902C281.545 305.983 282.422 306.859 283.503 306.859Z" stroke="#1E238E" stroke-width="0.77171" stroke-miterlimit="10"/>
<path d="M280.728 315.627L279.241 324.053C279.214 324.205 279.218 324.36 279.251 324.511C279.285 324.662 279.347 324.804 279.436 324.931C279.525 325.057 279.637 325.165 279.768 325.247C279.898 325.33 280.043 325.386 280.195 325.413C280.346 325.44 280.502 325.437 280.652 325.403C280.802 325.37 280.944 325.307 281.07 325.218C281.195 325.129 281.302 325.016 281.384 324.886C281.465 324.756 281.52 324.611 281.546 324.459L282.573 318.592V318.602C282.573 318.602 282.828 317.011 283.429 317.011H283.581C284.193 317.011 284.438 318.602 284.438 318.602V318.597L285.465 324.464C285.52 324.769 285.693 325.041 285.948 325.218C286.203 325.396 286.517 325.465 286.823 325.411C287.129 325.356 287.4 325.182 287.578 324.928C287.755 324.673 287.824 324.358 287.77 324.053L286.282 315.627L286.042 314.173C285.901 313.288 285.837 311.844 286.067 311.252C286.263 310.743 286.758 310.557 287.202 310.557H291.724C292.035 310.557 292.334 310.434 292.554 310.213C292.774 309.993 292.898 309.694 292.898 309.383C292.898 309.071 292.774 308.773 292.554 308.552C292.334 308.332 292.035 308.208 291.724 308.208H275.282C274.971 308.208 274.672 308.332 274.452 308.552C274.232 308.773 274.108 309.071 274.108 309.383C274.108 309.694 274.232 309.993 274.452 310.213C274.672 310.434 274.971 310.557 275.282 310.557H279.809C280.26 310.557 280.748 310.743 280.944 311.252C281.174 311.844 281.11 313.288 280.968 314.173L280.728 315.627Z" stroke="#1E238E" stroke-width="0.77171" stroke-miterlimit="10"/>
<path d="M305.165 306.859C306.246 306.859 307.123 305.983 307.123 304.902C307.123 303.821 306.246 302.944 305.165 302.944C304.084 302.944 303.208 303.821 303.208 304.902C303.208 305.983 304.084 306.859 305.165 306.859Z" stroke="#1E238E" stroke-width="0.77171" stroke-miterlimit="10"/>
<path d="M302.391 315.627L300.903 324.053C300.876 324.205 300.88 324.36 300.913 324.511C300.947 324.662 301.01 324.804 301.098 324.931C301.187 325.057 301.299 325.165 301.43 325.247C301.56 325.33 301.705 325.386 301.857 325.413C302.009 325.44 302.164 325.437 302.314 325.403C302.464 325.37 302.606 325.307 302.732 325.218C302.857 325.129 302.964 325.016 303.046 324.886C303.127 324.756 303.183 324.611 303.208 324.459L304.235 318.592V318.602C304.235 318.602 304.49 317.011 305.092 317.011H305.243C305.855 317.011 306.1 318.602 306.1 318.602V318.597L307.127 324.464C307.182 324.769 307.355 325.041 307.61 325.218C307.865 325.396 308.179 325.465 308.485 325.411C308.791 325.356 309.062 325.182 309.24 324.928C309.417 324.673 309.486 324.358 309.432 324.053L307.944 315.627L307.705 314.173C307.563 313.288 307.499 311.844 307.729 311.252C307.925 310.743 308.42 310.557 308.864 310.557H313.386C313.697 310.557 313.996 310.434 314.216 310.213C314.436 309.993 314.56 309.694 314.56 309.383C314.56 309.071 314.436 308.773 314.216 308.552C313.996 308.332 313.697 308.208 313.386 308.208H296.944C296.633 308.208 296.334 308.332 296.114 308.552C295.894 308.773 295.77 309.071 295.77 309.383C295.77 309.694 295.894 309.993 296.114 310.213C296.334 310.434 296.633 310.557 296.944 310.557H301.471C301.922 310.557 302.41 310.743 302.606 311.252C302.836 311.844 302.772 313.288 302.63 314.173L302.391 315.627Z" stroke="#1E238E" stroke-width="0.77171" stroke-miterlimit="10"/>
<path d="M294.855 285.915C295.936 285.915 296.812 285.039 296.812 283.958C296.812 282.877 295.936 282 294.855 282C293.774 282 292.897 282.877 292.897 283.958C292.897 285.039 293.774 285.915 294.855 285.915Z" stroke="#1E238E" stroke-width="0.77171" stroke-miterlimit="10"/>
<path d="M292.08 294.683L290.593 303.109C290.566 303.261 290.57 303.417 290.603 303.567C290.637 303.718 290.7 303.86 290.788 303.987C290.877 304.113 290.989 304.221 291.12 304.304C291.25 304.386 291.395 304.443 291.547 304.469C291.699 304.496 291.854 304.493 292.004 304.459C292.154 304.426 292.296 304.363 292.422 304.274C292.547 304.185 292.654 304.073 292.736 303.942C292.817 303.812 292.872 303.667 292.898 303.515L293.925 297.648V297.658C293.925 297.658 294.18 296.068 294.782 296.068H294.933C295.545 296.068 295.79 297.658 295.79 297.658V297.653L296.817 303.52C296.872 303.826 297.045 304.097 297.3 304.275C297.555 304.452 297.869 304.521 298.175 304.467C298.481 304.412 298.752 304.239 298.93 303.984C299.107 303.729 299.176 303.415 299.122 303.109L297.634 294.683L297.395 293.229C297.253 292.344 297.189 290.9 297.419 290.308C297.615 289.799 298.11 289.613 298.554 289.613H303.076C303.387 289.613 303.686 289.49 303.906 289.269C304.126 289.049 304.25 288.75 304.25 288.439C304.25 288.128 304.126 287.829 303.906 287.609C303.686 287.388 303.387 287.265 303.076 287.265H286.634C286.323 287.265 286.024 287.388 285.804 287.609C285.584 287.829 285.46 288.128 285.46 288.439C285.46 288.75 285.584 289.049 285.804 289.269C286.024 289.49 286.323 289.613 286.634 289.613H291.161C291.612 289.613 292.1 289.799 292.296 290.308C292.526 290.9 292.462 292.344 292.32 293.229L292.08 294.683Z" stroke="#1E238E" stroke-width="0.77171" stroke-miterlimit="10"/>
<g filter="url(#filter5_d_438_375)">
<rect x="39.752" y="62.041" width="54.9181" height="54.9181" rx="7.57909" fill="#FCFBF9"/>
<rect x="40.252" y="62.541" width="53.9181" height="53.9181" rx="7.07909" stroke="#1E238E"/>
</g>
<path d="M65.7095 88.0744H65.6305L65.5573 88.1045C65.5346 88.1139 65.5317 88.115 65.5175 88.1212L65.5172 88.1213C65.5078 88.1254 65.4887 88.1336 65.4326 88.1575L64.8107 88.3842L64.7957 88.3897L64.7812 88.3963C63.8897 88.8045 63.5511 89.5137 63.2858 90.3274L63.2856 90.328L63.1691 90.6875C62.9848 91.2563 62.3987 91.5464 61.8645 91.3633C61.3269 91.179 61.0236 90.574 61.2101 89.9987L61.3265 89.6395C61.3265 89.6395 61.3266 89.6395 61.3266 89.6395C61.8036 88.172 62.8566 86.9799 64.2213 86.3548L64.5786 86.194L64.5786 86.194L64.5801 86.1933C65.4609 85.7927 66.4127 85.5841 67.3765 85.5841C69.2071 85.5841 70.8649 86.7156 71.5719 88.4631L71.572 88.4635L72.2621 90.164L72.3179 90.3015L72.4499 90.3693L73.4088 90.8624C73.918 91.1242 74.1344 91.7706 73.8728 92.3087C73.614 92.8409 72.9957 93.0453 72.493 92.7869L72.492 92.7863L71.2935 92.1747C71.2931 92.1745 71.2927 92.1743 71.2923 92.1741C70.916 91.9783 70.6201 91.6553 70.4589 91.2522L70.4582 91.2503L70.028 90.1903L69.5921 89.1163L69.2728 90.2306L68.408 93.249L68.3473 93.4609L68.4939 93.6254L70.7118 96.1136C70.909 96.3352 71.0495 96.6034 71.1241 96.9018C71.1242 96.9022 71.1243 96.9026 71.1244 96.903L72.1544 101.145L72.1546 101.145C72.2974 101.729 71.9495 102.31 71.3995 102.451C70.8542 102.591 70.2915 102.256 70.1491 101.67C70.1491 101.67 70.1491 101.67 70.1491 101.67L69.1633 97.6105L69.1397 97.5133L69.0731 97.4386L65.905 93.8856L65.9047 93.8853C65.336 93.2491 65.1199 92.3582 65.3306 91.5181L66.3788 88.61L66.5719 88.0744H66.0025H65.7095ZM63.406 97.9102L63.4627 97.852L63.4922 97.7763L64.3634 95.5399L65.9155 97.2811L65.3547 98.721L65.3546 98.7211C65.266 98.9489 65.1336 99.1566 64.9657 99.3292L62.2008 102.173C61.7978 102.587 61.1475 102.587 60.7445 102.173C60.3353 101.752 60.3353 101.063 60.7445 100.643L63.406 97.9102ZM71.1125 81.502C71.1125 82.5129 70.3177 83.314 69.3616 83.314C68.4055 83.314 67.6107 82.5129 67.6107 81.502C67.6107 80.4911 68.4055 79.69 69.3616 79.69C70.3177 79.69 71.1125 80.4911 71.1125 81.502Z" stroke="#1E238E" stroke-width="0.8"/>
<g filter="url(#filter6_d_438_375)">
<rect x="149.955" y="62.041" width="54.9181" height="54.9181" rx="7.57909" fill="#FCFBF9"/>
<rect x="150.334" y="62.42" width="54.1602" height="54.1602" rx="7.20014" stroke="#1E238E" stroke-width="0.757909"/>
</g>
<path d="M171.465 81.4084C170.821 81.408 170.194 81.6061 169.671 81.9749C169.148 82.3438 168.757 82.8649 168.553 83.4647L167.272 87.2252L167.205 87.4235H167.414H173.523H173.673V87.2735V81.5584V81.4084H173.523H171.465ZM171.465 81.4084L171.465 81.5575V81.4084H171.465ZM166.767 89.1778V89.0286H166.769H166.992H184.583H184.602L184.621 89.0335L188.903 90.1517C189.556 90.322 190.133 90.699 190.546 91.2247C190.958 91.7504 191.182 92.3954 191.182 93.0592C191.182 93.0592 191.182 93.0592 191.182 93.0593V95.3698V95.37H191.032C191.032 95.6015 190.975 95.8285 190.866 96.0319L166.767 89.1778ZM166.767 89.1778L166.755 89.173L166.725 89.0519L166.208 89.1776L166.208 89.1776L165.971 89.2347L165.97 89.2348C165.307 89.3973 164.718 89.7725 164.296 90.3014C163.875 90.8304 163.646 91.4826 163.646 92.1543L166.767 89.1778ZM183.261 87.4235H183.003H175.469H175.319V87.2735V81.5584V81.4084H175.469H178.044H178.044C178.591 81.4089 179.127 81.5524 179.598 81.8242C180.069 82.0959 180.457 82.4862 180.723 82.955L183.261 87.4235ZM183.261 87.4235L183.134 87.1995L180.723 82.9551L183.261 87.4235ZM190.926 98.266L190.85 98.2999L190.839 98.3821C190.688 99.4608 190.152 100.453 189.325 101.183C188.498 101.912 187.433 102.332 186.32 102.367C185.206 102.402 184.116 102.05 183.243 101.374C182.37 100.697 181.77 99.7405 181.549 98.6735L181.524 98.5539H181.402H173.426H173.304L173.279 98.6735C173.058 99.7405 172.458 100.697 171.585 101.374C170.712 102.05 169.622 102.402 168.508 102.367C167.395 102.332 166.33 101.912 165.503 101.183C164.676 100.453 164.14 99.4608 163.989 98.3821L163.978 98.2999L163.902 98.266C163.334 98.012 162.853 97.6038 162.516 97.0903C162.179 96.5769 162.001 95.9798 162.001 95.37V92.1543C162.001 91.1745 162.319 90.2198 162.911 89.4289C163.503 88.6379 164.338 88.0517 165.294 87.7559L165.367 87.7334L165.391 87.661L166.992 82.9574C166.992 82.9574 166.992 82.9574 166.992 82.9574C167.305 82.0395 167.905 81.2407 168.707 80.6744C169.51 80.108 170.475 79.8032 171.465 79.8033H171.465H178.042L178.042 79.8033C178.884 79.8031 179.71 80.0234 180.435 80.441C181.159 80.8585 181.757 81.4581 182.165 82.1772L185.164 87.4676L185.196 87.5227L185.257 87.5387L189.329 88.6017C190.333 88.8639 191.22 89.4435 191.853 90.2497C192.485 91.0558 192.827 92.0435 192.827 93.0592V95.37C192.827 95.9798 192.648 96.5769 192.312 97.0903C191.975 97.6038 191.494 98.012 190.926 98.266ZM168.66 94.7438C167.847 94.7438 167.067 95.0599 166.491 95.6236C165.915 96.1873 165.591 96.9527 165.591 97.7514C165.591 98.55 165.915 99.3154 166.491 99.8791C167.067 100.443 167.847 100.759 168.66 100.759C169.472 100.759 170.252 100.443 170.828 99.8791C171.404 99.3154 171.728 98.55 171.728 97.7514C171.728 96.9527 171.404 96.1873 170.828 95.6236C170.252 95.0599 169.472 94.7438 168.66 94.7438ZM186.168 94.7438C185.356 94.7438 184.576 95.0599 184 95.6236C183.424 96.1873 183.1 96.9527 183.1 97.7514C183.1 98.55 183.424 99.3154 184 99.8791C184.576 100.443 185.356 100.759 186.168 100.759C186.981 100.759 187.761 100.443 188.337 99.8791C188.912 99.3154 189.236 98.55 189.236 97.7514C189.236 96.9527 188.912 96.1873 188.337 95.6236C187.761 95.0599 186.981 94.7438 186.168 94.7438Z" fill="#1E238E" stroke="#FCFBF9" stroke-width="0.3"/>
<g filter="url(#filter7_d_438_375)">
<rect x="265.375" y="62.041" width="54.9181" height="54.9181" rx="7.57909" fill="#FCFBF9"/>
<rect x="265.754" y="62.42" width="54.1602" height="54.1602" rx="7.20014" stroke="#1E238E" stroke-width="0.757909"/>
</g>
<path d="M298.864 85.0254V85.1872L298.987 85.292L304.855 90.2847L305.082 90.0181L304.865 90.2924C304.978 90.3818 305.071 90.4986 305.137 90.6348C305.203 90.7702 305.239 90.9204 305.243 91.0742V96.4681C305.243 96.7393 305.14 96.9958 304.965 97.1819C304.789 97.3673 304.556 97.4675 304.317 97.4675H304.062H303.572L303.731 97.9311C303.923 98.4919 303.985 99.094 303.911 99.6863C303.837 100.279 303.629 100.842 303.306 101.329C302.984 101.816 302.557 102.211 302.062 102.483C301.567 102.755 301.019 102.897 300.464 102.897C299.909 102.897 299.361 102.755 298.867 102.483C298.372 102.211 297.945 101.816 297.622 101.329C297.3 100.842 297.092 100.279 297.018 99.6863C296.944 99.094 297.006 98.4919 297.198 97.9311L297.357 97.4675H296.867H288.754H288.265L288.422 97.9302C288.615 98.497 288.675 99.1055 288.595 99.7029C288.516 100.3 288.301 100.867 287.97 101.354C287.639 101.841 287.202 102.234 286.698 102.5C286.195 102.766 285.639 102.897 285.078 102.885C284.518 102.872 283.968 102.715 283.475 102.427C282.982 102.138 282.562 101.726 282.25 101.224C281.939 100.721 281.747 100.145 281.692 99.5448C281.637 98.9443 281.721 98.3391 281.936 97.7818L282.055 97.4754L281.757 97.3378C281.358 97.1538 281.017 96.8469 280.779 96.453C280.541 96.059 280.419 95.5971 280.429 95.1265L280.429 95.1265V95.1188V81.625V81.6169L280.429 81.6088C280.401 81.0176 280.596 80.4418 280.964 80.0059C281.33 79.5736 281.837 79.3144 282.374 79.2763H296.895C297.437 79.3082 297.95 79.5649 298.321 79.9983C298.695 80.4348 298.892 81.0139 298.865 81.609L298.864 81.617V81.625V85.0254ZM303.391 91.7183V91.556L303.267 91.4512L299.44 88.2127L298.864 87.7252V88.4798V95.1188V95.4688H299.214H303.041H303.391V95.1188V91.7183ZM282.28 95.1188V95.4688H282.63H292.836H296.663H297.013V95.1188V81.625V81.275H296.663H282.63H282.28V81.625V95.1188ZM286.538 100.103C286.715 99.8247 286.807 99.4988 286.807 99.1669C286.807 98.7223 286.641 98.2923 286.338 97.9723C286.035 97.6516 285.619 97.4675 285.182 97.4675C284.856 97.4675 284.539 97.5699 284.271 97.7591C284.004 97.9481 283.798 98.2147 283.677 98.5229C283.557 98.831 283.525 99.169 283.587 99.4948C283.648 99.8208 283.8 100.123 284.025 100.361C284.251 100.601 284.542 100.766 284.861 100.833C285.18 100.9 285.511 100.865 285.81 100.734C286.11 100.603 286.362 100.383 286.538 100.103ZM301.846 100.103C302.023 99.8247 302.115 99.4988 302.115 99.1669C302.115 98.7223 301.949 98.2923 301.646 97.9723C301.343 97.6516 300.928 97.4675 300.49 97.4675C300.164 97.4675 299.847 97.5699 299.579 97.7591C299.312 97.9481 299.106 98.2147 298.985 98.5229C298.865 98.831 298.833 99.169 298.895 99.4948C298.956 99.8208 299.108 100.123 299.333 100.361C299.559 100.601 299.85 100.766 300.169 100.833C300.488 100.9 300.819 100.865 301.118 100.734C301.418 100.603 301.67 100.383 301.846 100.103Z" fill="#1E238E" stroke="#FCFBF9" stroke-width="0.7"/>
<defs>
<filter id="filter0_d_438_375" x="0.136719" y="0.705078" width="365" height="204" filterUnits="userSpaceOnUse" color-interpolation-filters="sRGB">
<feFlood flood-opacity="0" result="BackgroundImageFix"/>
<feColorMatrix in="SourceAlpha" type="matrix" values="0 0 0 0 0 0 0 0 0 0 0 0 0 0 0 0 0 0 127 0" result="hardAlpha"/>
<feOffset dy="4"/>
<feGaussianBlur stdDeviation="4"/>
<feComposite in2="hardAlpha" operator="out"/>
<feColorMatrix type="matrix" values="0 0 0 0 0 0 0 0 0 0 0 0 0 0 0 0 0 0 0.05 0"/>
<feBlend mode="normal" in2="BackgroundImageFix" result="effect1_dropShadow_438_375"/>
<feBlend mode="normal" in="SourceGraphic" in2="effect1_dropShadow_438_375" result="shape"/>
</filter>
<filter id="filter1_d_438_375" x="0" y="210.125" width="365" height="204" filterUnits="userSpaceOnUse" color-interpolation-filters="sRGB">
<feFlood flood-opacity="0" result="BackgroundImageFix"/>
<feColorMatrix in="SourceAlpha" type="matrix" values="0 0 0 0 0 0 0 0 0 0 0 0 0 0 0 0 0 0 127 0" result="hardAlpha"/>
<feOffset dy="4"/>
<feGaussianBlur stdDeviation="4"/>
<feComposite in2="hardAlpha" operator="out"/>
<feColorMatrix type="matrix" values="0 0 0 0 0 0 0 0 0 0 0 0 0 0 0 0 0 0 0.05 0"/>
<feBlend mode="normal" in2="BackgroundImageFix" result="effect1_dropShadow_438_375"/>
<feBlend mode="normal" in="SourceGraphic" in2="effect1_dropShadow_438_375" result="shape"/>
</filter>
<filter id="filter2_d_438_375" x="146.335" y="277.524" width="62.0916" height="62.0916" filterUnits="userSpaceOnUse" color-interpolation-filters="sRGB">
<feFlood flood-opacity="0" result="BackgroundImageFix"/>
<feColorMatrix in="SourceAlpha" type="matrix" values="0 0 0 0 0 0 0 0 0 0 0 0 0 0 0 0 0 0 127 0" result="hardAlpha"/>
<feOffset dy="3.08684"/>
<feGaussianBlur stdDeviation="1.54342"/>
<feComposite in2="hardAlpha" operator="out"/>
<feColorMatrix type="matrix" values="0 0 0 0 0 0 0 0 0 0 0 0 0 0 0 0 0 0 0.05 0"/>
<feBlend mode="normal" in2="BackgroundImageFix" result="effect1_dropShadow_438_375"/>
<feBlend mode="normal" in="SourceGraphic" in2="effect1_dropShadow_438_375" result="shape"/>
</filter>
<filter id="filter3_d_438_375" x="36.752" y="275.752" width="61.918" height="62.0048" filterUnits="userSpaceOnUse" color-interpolation-filters="sRGB">
<feFlood flood-opacity="0" result="BackgroundImageFix"/>
<feColorMatrix in="SourceAlpha" type="matrix" values="0 0 0 0 0 0 0 0 0 0 0 0 0 0 0 0 0 0 127 0" result="hardAlpha"/>
<feOffset dy="3.08684"/>
<feGaussianBlur stdDeviation="1.5"/>
<feComposite in2="hardAlpha" operator="out"/>
<feColorMatrix type="matrix" values="0 0 0 0 0 0 0 0 0 0 0 0 0 0 0 0 0 0 0.05 0"/>
<feBlend mode="normal" in2="BackgroundImageFix" result="effect1_dropShadow_438_375"/>
<feBlend mode="normal" in="SourceGraphic" in2="effect1_dropShadow_438_375" result="shape"/>
</filter>
<filter id="filter4_d_438_375" x="262.288" y="275.752" width="62.0916" height="62.0916" filterUnits="userSpaceOnUse" color-interpolation-filters="sRGB">
<feFlood flood-opacity="0" result="BackgroundImageFix"/>
<feColorMatrix in="SourceAlpha" type="matrix" values="0 0 0 0 0 0 0 0 0 0 0 0 0 0 0 0 0 0 127 0" result="hardAlpha"/>
<feOffset dy="3.08684"/>
<feGaussianBlur stdDeviation="1.54342"/>
<feComposite in2="hardAlpha" operator="out"/>
<feColorMatrix type="matrix" values="0 0 0 0 0 0 0 0 0 0 0 0 0 0 0 0 0 0 0.05 0"/>
<feBlend mode="normal" in2="BackgroundImageFix" result="effect1_dropShadow_438_375"/>
<feBlend mode="normal" in="SourceGraphic" in2="effect1_dropShadow_438_375" result="shape"/>
</filter>
<filter id="filter5_d_438_375" x="36.7203" y="62.041" width="60.9812" height="60.9812" filterUnits="userSpaceOnUse" color-interpolation-filters="sRGB">
<feFlood flood-opacity="0" result="BackgroundImageFix"/>
<feColorMatrix in="SourceAlpha" type="matrix" values="0 0 0 0 0 0 0 0 0 0 0 0 0 0 0 0 0 0 127 0" result="hardAlpha"/>
<feOffset dy="3.03164"/>
<feGaussianBlur stdDeviation="1.51582"/>
<feComposite in2="hardAlpha" operator="out"/>
<feColorMatrix type="matrix" values="0 0 0 0 0 0 0 0 0 0 0 0 0 0 0 0 0 0 0.05 0"/>
<feBlend mode="normal" in2="BackgroundImageFix" result="effect1_dropShadow_438_375"/>
<feBlend mode="normal" in="SourceGraphic" in2="effect1_dropShadow_438_375" result="shape"/>
</filter>
<filter id="filter6_d_438_375" x="146.923" y="62.041" width="60.9812" height="60.9812" filterUnits="userSpaceOnUse" color-interpolation-filters="sRGB">
<feFlood flood-opacity="0" result="BackgroundImageFix"/>
<feColorMatrix in="SourceAlpha" type="matrix" values="0 0 0 0 0 0 0 0 0 0 0 0 0 0 0 0 0 0 127 0" result="hardAlpha"/>
<feOffset dy="3.03164"/>
<feGaussianBlur stdDeviation="1.51582"/>
<feComposite in2="hardAlpha" operator="out"/>
<feColorMatrix type="matrix" values="0 0 0 0 0 0 0 0 0 0 0 0 0 0 0 0 0 0 0.05 0"/>
<feBlend mode="normal" in2="BackgroundImageFix" result="effect1_dropShadow_438_375"/>
<feBlend mode="normal" in="SourceGraphic" in2="effect1_dropShadow_438_375" result="shape"/>
</filter>
<filter id="filter7_d_438_375" x="262.343" y="62.041" width="60.9812" height="60.9812" filterUnits="userSpaceOnUse" color-interpolation-filters="sRGB">
<feFlood flood-opacity="0" result="BackgroundImageFix"/>
<feColorMatrix in="SourceAlpha" type="matrix" values="0 0 0 0 0 0 0 0 0 0 0 0 0 0 0 0 0 0 127 0" result="hardAlpha"/>
<feOffset dy="3.03164"/>
<feGaussianBlur stdDeviation="1.51582"/>
<feComposite in2="hardAlpha" operator="out"/>
<feColorMatrix type="matrix" values="0 0 0 0 0 0 0 0 0 0 0 0 0 0 0 0 0 0 0.05 0"/>
<feBlend mode="normal" in2="BackgroundImageFix" result="effect1_dropShadow_438_375"/>
<feBlend mode="normal" in="SourceGraphic" in2="effect1_dropShadow_438_375" result="shape"/>
</filter>
</defs>
</svg>
