<svg width="148" height="148" viewBox="0 0 148 148" fill="none" xmlns="http://www.w3.org/2000/svg">
<rect width="148" height="148" rx="10" fill="#D7F0FE"/>
<path d="M114.563 87.3125L73.6876 83.9062L32.8126 87.3125L26.0682 117.597C25.6936 120.207 29.3893 119.672 31.1095 119.672H116.266C117.986 119.672 121.682 120.207 121.307 117.597L114.563 87.3125Z" fill="#D3D3D3"/>
<path d="M111.156 26H36.2188C34.3453 26 32.8125 27.5328 32.8125 29.4062V87.2784H114.562V29.4062C114.562 27.5328 113.03 26 111.156 26Z" fill="#7167A4"/>
<path d="M36.2188 83.0206V30.2578C36.2188 29.7809 36.5934 29.4062 37.0703 29.4062H110.305C110.782 29.4062 111.156 29.7809 111.156 30.2578V83.0206C111.156 83.4975 110.782 83.8722 110.305 83.8722H37.0703C36.5934 83.8722 36.2188 83.4975 36.2188 83.0206Z" fill="#26C9FC"/>
<path fill-rule="evenodd" clip-rule="evenodd" d="M112.076 91.6725L114.529 102.743C114.569 102.931 114.567 103.126 114.523 103.314C114.478 103.501 114.393 103.676 114.272 103.827C114.151 103.977 113.998 104.098 113.825 104.182C113.651 104.265 113.461 104.309 113.268 104.31H34.107C33.2895 104.31 32.6764 103.526 32.8467 102.743L35.2992 91.6725C35.4354 91.0934 35.9464 90.6847 36.5595 90.6847H110.816C111.429 90.6847 111.94 91.0934 112.076 91.6725ZM47.0712 102.641H42.19L42.6158 100.086H47.3914L47.0712 102.641ZM53.6725 102.641H48.7879L49.1081 100.086H53.8905L53.6725 102.641ZM59.9332 102.641H55.3824L55.5936 100.086H60.0422L59.9332 102.641ZM66.2347 102.641H61.6363L61.7453 100.086H66.3437L66.2347 102.641ZM72.836 102.641H67.9413L68.0469 100.086H72.836V102.641ZM79.434 102.641H74.5392V100.086H79.3284L79.434 102.641ZM85.7355 102.641H81.1371L81.0349 100.086H85.6299L85.7355 102.641ZM91.9928 102.641H87.4421L87.3331 100.086H91.7816L91.9928 102.641ZM98.5907 102.641H93.7027L93.4881 100.086H98.2705L98.5907 102.641ZM105.185 102.641H100.304L99.9873 100.086H104.756L105.185 102.641ZM111.156 102.641H106.909L106.483 100.086H110.731L111.156 102.641ZM110.022 95.8281L110.448 98.3828H106.2L105.774 95.8281H110.022ZM109.453 92.4219L109.736 94.125H105.492L105.206 92.4219H109.453ZM99.0301 92.4219H103.482L103.765 94.125H99.2413L99.0301 92.4219ZM92.8512 92.4219H97.3134L97.5245 94.125H92.9942L92.8512 92.4219ZM87.0163 92.4219H91.1412L91.2843 94.125H87.0844L87.0163 92.4219ZM80.7147 92.4219H85.3131L85.3813 94.125H80.7828L80.7147 92.4219ZM74.5392 92.4219H79.0082L79.0797 94.125H74.5392V92.4219ZM68.367 92.4219H72.836V94.125H68.2955L68.367 92.4219ZM62.0655 92.4219H66.6639L66.589 94.125H61.9905L62.0655 92.4219ZM56.234 92.4219H60.359L60.2908 94.125H56.0909L56.234 92.4219ZM50.0619 92.4219H54.524L54.381 94.125H49.8507L50.0619 92.4219ZM43.8966 92.4219H48.3451L48.1305 94.125H43.6104L43.8966 92.4219ZM37.922 92.4219H42.1696L41.8835 94.125H37.6393L37.922 92.4219ZM36.9274 98.3828L37.3531 95.8281H41.6007L41.175 98.3828H36.9274ZM36.2189 102.641L36.6446 100.086H40.8922L40.4665 102.641H36.2189ZM104.473 98.3828L104.048 95.8281H99.4525L99.7727 98.3828H104.473ZM98.0559 98.3828L97.7391 95.8281H93.1339L93.3485 98.3828H98.0559ZM91.6386 98.3828L91.4274 95.8281H87.1559L87.2649 98.3828H91.6386ZM85.5584 98.3828L85.4528 95.8281H80.8544L80.9634 98.3828H85.5584ZM79.2568 98.3828L79.1512 95.8281H74.5392V98.3828H79.2568ZM43.3277 95.8281L42.9019 98.3828H47.6025L47.9227 95.8281H43.3277ZM49.6361 95.8281L49.3193 98.3828H54.0267L54.2413 95.8281H49.6361ZM55.9513 95.8281L55.7367 98.3828H60.1103L60.2193 95.8281H55.9513ZM61.9224 95.8281L61.8168 98.3828H66.4153L66.5175 95.8281H61.9224ZM68.224 95.8281L68.1184 98.3828H72.836V95.8281H68.224Z" fill="#9B9B9B"/>
<path d="M118.275 117.969C118.839 117.968 119.392 117.812 119.872 117.517C120.353 117.223 120.743 116.802 121 116.3L121.307 117.594L121.317 117.672C121.404 118.122 121.391 118.585 121.279 119.028C121.167 119.472 120.958 119.886 120.667 120.239C120.377 120.593 120.012 120.878 119.598 121.074C119.185 121.271 118.733 121.373 118.275 121.375H29.0997C27.3966 121.375 26 119.978 26 118.275C26 118.037 26.0341 117.833 26.1022 117.628L26.3747 116.334C26.8856 117.288 27.9075 117.969 29.0997 117.969H118.275ZM56.0431 114.528H91.3319C91.8769 114.528 92.2856 114.018 92.1494 113.473L90.855 108.363C90.8071 108.181 90.7016 108.02 90.5542 107.903C90.4068 107.787 90.2254 107.721 90.0375 107.716H57.3375C56.9628 107.716 56.6222 107.988 56.52 108.363L55.2256 113.473C55.0894 114.018 55.4981 114.528 56.0431 114.528Z" fill="#9B9B9B"/>
</svg>
