<svg width="1728" height="691" viewBox="0 0 1728 691" fill="none" xmlns="http://www.w3.org/2000/svg">
<rect width="1728" height="690" rx="20" fill="#E95B5B" fill-opacity="0.12"/>
<path d="M-0.00344141 645.915C-0.00368099 667.002 21.0849 681.822 41.0405 675.008C143.156 640.135 413.89 558.42 601.107 600.396C835.952 653.052 939.481 689.723 1235.78 602.331C1412.96 550.077 1609.55 578.409 1690.28 594.118C1709.53 597.864 1727.99 583.215 1727.99 563.602L1728 115.166C1728 98.5975 1714.57 85.166 1698 85.166L30.0029 85.1603C13.4344 85.1602 0.00277708 98.5916 0.00258884 115.16L-0.00344141 645.915Z" fill="url(#paint0_linear_464_1392)" fill-opacity="0.4"/>
<path d="M1727.99 631.14C1727.99 659.403 1699.49 679.205 1672.73 670.09C1561.51 632.2 1305.98 557.278 1126.88 598.466C892.036 652.475 788.508 690.087 492.21 600.449C323.89 549.528 138.036 573.211 50.6659 589.521C24.8584 594.339 -0.00182848 574.727 -0.0015302 548.474L0.00345178 109.982C0.00370278 87.891 17.9125 69.9825 40.0039 69.9826L1688 69.9882C1710.09 69.9883 1728 87.8969 1728 109.988L1727.99 631.14Z" fill="url(#paint1_linear_464_1392)" fill-opacity="0.6"/>
<path d="M1727.99 508.934C1727.99 534.913 1727.99 547.903 1719.84 553.898C1711.7 559.892 1699.13 555.975 1673.99 548.139C1563.45 513.683 1306.66 444.638 1126.88 482.371C892.035 531.663 788.507 565.997 492.209 484.179C323.279 437.533 136.689 459.475 49.7195 474.365C26.0463 478.418 14.2096 480.445 7.10336 474.452C-0.00292111 468.459 -0.00284815 456.757 -0.00270221 433.354L-0.000249423 40C-0.000131844 21.1438 -7.30544e-05 11.7157 5.85783 5.8579C11.7157 7.30523e-05 21.1438 0.00013184 40 0.000249416L1687.99 0.0105253C1706.85 0.0106429 1716.28 0.0107017 1722.14 5.8686C1727.99 11.7265 1727.99 21.1546 1727.99 40.0108L1727.99 508.934Z" fill="url(#paint2_linear_464_1392)"/>
<circle cx="864" cy="85" r="64" fill="white"/>
<path d="M864.311 59.8513C851.61 47.9697 832.616 48.1859 824.706 49.7792C828.917 55.6404 837.202 73.918 836.656 100.14C840.696 96.9529 851.884 92.2185 864.311 98.7738C868.181 95.9286 879.129 92.2185 891.967 100.14C890.328 73.7815 899.592 55.5835 904.429 49.7792C881.212 47.0478 868.01 55.3558 864.311 59.8513Z" fill="#FF4667" stroke="#F4473E"/>
<path d="M845.022 88.7002C843.52 73.4043 840.413 61.9552 839.047 58.1426C844.054 58.3133 856.152 61.6593 864.483 73.6775C872.541 61.3861 884.343 58.1995 889.236 58.1426C885.959 64.5614 883.887 81.4164 883.262 89.0416C881.486 87.8125 877.969 87.9604 876.433 88.1881L878.652 71.1168C873.463 74.3945 868.751 84.0909 867.044 88.5295H861.069C859.84 82.2472 852.704 74.3034 849.29 71.1168L851.509 88.1881C849.87 87.5052 846.501 88.245 845.022 88.7002Z" fill="white" stroke="white"/>
<path fill-rule="evenodd" clip-rule="evenodd" d="M823 59.584C825.39 64.933 829.624 83.1765 827.439 113.359C834.267 108.977 851.168 101.784 864.142 108.066V102.604C859.931 99.6446 847.788 95.8776 832.901 104.481C833.413 93.6128 832.15 69.4171 823 59.584ZM905.454 59.584C903.064 64.933 898.83 83.1765 901.016 113.359C894.187 108.977 877.286 101.784 864.312 108.066V102.604C868.523 99.6446 880.667 95.8776 895.553 104.481C895.041 93.6128 896.304 69.4171 905.454 59.584Z" fill="#5843C8"/>
<path d="M827.439 113.359L826.94 113.322L826.868 114.319L827.709 113.779L827.439 113.359ZM823 59.584L823.366 59.2434L822.543 59.788L823 59.584ZM864.142 108.066L863.924 108.516L864.642 108.864V108.066H864.142ZM864.142 102.604H864.642V102.344L864.429 102.195L864.142 102.604ZM832.901 104.481L832.402 104.458L832.359 105.373L833.152 104.914L832.901 104.481ZM901.016 113.359L900.746 113.779L901.586 114.319L901.514 113.322L901.016 113.359ZM905.454 59.584L905.911 59.788L905.088 59.2434L905.454 59.584ZM864.312 108.066H863.812V108.864L864.53 108.516L864.312 108.066ZM864.312 102.604L864.025 102.195L863.812 102.344V102.604H864.312ZM895.553 104.481L895.303 104.914L896.095 105.373L896.052 104.458L895.553 104.481ZM827.937 113.395C830.125 83.1714 825.894 64.8346 823.457 59.38L822.543 59.788C824.886 65.0313 829.122 83.1816 826.94 113.322L827.937 113.395ZM864.36 107.616C857.729 104.406 850.13 104.653 843.372 106.227C836.61 107.802 830.625 110.72 827.169 112.938L827.709 113.779C831.081 111.616 836.96 108.747 843.599 107.201C850.242 105.653 857.58 105.445 863.924 108.516L864.36 107.616ZM863.642 102.604V108.066H864.642V102.604H863.642ZM833.152 104.914C847.87 96.4076 859.803 100.166 863.854 103.013L864.429 102.195C860.059 99.1233 847.705 95.3475 832.651 104.049L833.152 104.914ZM822.634 59.9246C827.101 64.7248 829.687 73.1012 831.08 81.7241C832.47 90.3212 832.657 99.0521 832.402 104.458L833.401 104.505C833.658 99.0422 833.47 90.2409 832.068 81.5646C830.67 72.9142 828.049 64.2763 823.366 59.2434L822.634 59.9246ZM901.514 113.322C899.332 83.1816 903.568 65.0313 905.911 59.788L904.998 59.38C902.56 64.8346 898.329 83.1714 900.517 113.395L901.514 113.322ZM864.53 108.516C870.874 105.445 878.212 105.653 884.855 107.201C891.494 108.747 897.374 111.616 900.746 113.779L901.286 112.938C897.829 110.72 891.844 107.802 885.082 106.227C878.324 104.653 870.725 104.406 864.094 107.616L864.53 108.516ZM863.812 102.604V108.066H864.812V102.604H863.812ZM895.803 104.049C880.749 95.3475 868.395 99.1233 864.025 102.195L864.6 103.013C868.651 100.166 880.584 96.4076 895.303 104.914L895.803 104.049ZM905.088 59.2434C900.405 64.2763 897.784 72.9142 896.386 81.5646C894.984 90.2409 894.796 99.0422 895.053 104.505L896.052 104.458C895.797 99.0521 895.984 90.3212 897.374 81.7241C898.767 73.1012 901.353 64.7248 905.82 59.9246L905.088 59.2434Z" fill="#5843C8"/>
<path d="M834.95 121.921V114.41C840.64 111.451 853.967 106.42 861.752 109.971C848.095 110.654 838.193 118.222 834.95 121.921Z" fill="#5843C8" stroke="#5843C8"/>
<path d="M893.675 121.947V114.435C887.984 111.476 874.657 106.446 866.873 109.997C880.53 110.68 890.431 118.248 893.675 121.947Z" fill="#5843C8" stroke="#5843C8"/>
<path d="M136.574 362.081C101.899 335.675 54.54 340.976 35.1949 346.927C47.172 360.468 72.4249 403.91 77.6202 469.35C86.908 460.401 113.649 445.805 146.31 459.015C155.257 450.959 181.658 438.974 215.684 455.483C205 390.251 223.572 342.608 234.194 326.94C175.558 325.958 144.683 349.958 136.574 362.081Z" fill="white" fill-opacity="0.1"/>
<path fill-rule="evenodd" clip-rule="evenodd" d="M1639.7 393.788C1632.1 404.04 1614.51 440.849 1604.96 506.067C1592.5 493.536 1559.94 470.288 1529.39 477.546L1531.96 465.928C1542.31 461.615 1569.91 459.316 1597.52 484.618C1601.54 461.261 1615.61 410.397 1639.7 393.788ZM1464.34 355.002C1466.9 367.502 1467.33 408.294 1448.48 471.457C1465.06 465.35 1504.39 458.003 1529.03 477.468L1531.6 465.849C1524.04 457.575 1499.98 443.851 1464.27 455.147C1470.48 432.272 1479.17 380.219 1464.34 355.002ZM1460.43 493.203L1463.96 477.228C1477.45 473.611 1508.16 469.182 1523.05 480.396C1493.68 475.424 1469.06 486.862 1460.43 493.203ZM1588.84 504.905L1585.31 520.88C1580.15 511.488 1562.65 490.734 1533.93 482.857C1552.16 478.967 1578.13 495.935 1588.84 504.905Z" fill="#5843C8"/>
<path d="M1604.96 506.067L1604.61 506.42L1605.31 507.128L1605.46 506.14L1604.96 506.067ZM1639.7 393.788L1640.1 394.086L1639.41 393.377L1639.7 393.788ZM1529.39 477.546L1528.9 477.438L1528.73 478.217L1529.51 478.032L1529.39 477.546ZM1531.96 465.928L1531.77 465.466L1531.53 465.566L1531.47 465.82L1531.96 465.928ZM1597.52 484.618L1597.18 484.986L1597.86 485.605L1598.01 484.703L1597.52 484.618ZM1448.48 471.457L1448 471.314L1447.71 472.271L1448.65 471.926L1448.48 471.457ZM1464.34 355.002L1464.77 354.748L1463.85 355.102L1464.34 355.002ZM1529.03 477.468L1528.72 477.86L1529.35 478.354L1529.52 477.576L1529.03 477.468ZM1531.6 465.849L1532.09 465.957L1532.14 465.704L1531.97 465.512L1531.6 465.849ZM1464.27 455.147L1463.79 455.016L1463.55 455.9L1464.42 455.624L1464.27 455.147ZM1463.96 477.228L1463.83 476.745L1463.54 476.823L1463.47 477.12L1463.96 477.228ZM1460.43 493.203L1459.94 493.095L1459.65 494.392L1460.72 493.606L1460.43 493.203ZM1523.05 480.396L1522.97 480.889L1523.35 479.997L1523.05 480.396ZM1585.31 520.88L1584.87 521.121L1585.51 522.285L1585.8 520.988L1585.31 520.88ZM1588.84 504.905L1589.33 505.013L1589.4 504.717L1589.16 504.522L1588.84 504.905ZM1533.93 482.857L1533.83 482.368L1533.8 483.339L1533.93 482.857ZM1605.46 506.14C1615 440.962 1632.57 404.245 1640.1 394.086L1639.3 393.49C1631.63 403.835 1614.02 440.735 1604.47 505.995L1605.46 506.14ZM1529.51 478.032C1544.63 474.441 1560.28 478.391 1573.74 484.837C1587.2 491.281 1598.41 500.19 1604.61 506.42L1605.32 505.715C1599.05 499.413 1587.75 490.433 1574.18 483.935C1560.61 477.438 1544.71 473.394 1529.28 477.06L1529.51 478.032ZM1531.47 465.82L1528.9 477.438L1529.88 477.654L1532.45 466.036L1531.47 465.82ZM1597.86 484.249C1570.1 458.816 1542.3 461.079 1531.77 465.466L1532.15 466.389C1542.32 462.152 1569.71 459.816 1597.18 484.986L1597.86 484.249ZM1639.41 393.377C1627.24 401.771 1617.66 418.763 1610.62 436.488C1603.58 454.237 1599.04 472.827 1597.03 484.533L1598.01 484.703C1600.02 473.053 1604.53 454.531 1611.55 436.857C1618.58 419.158 1628.07 402.414 1639.98 394.2L1639.41 393.377ZM1448.96 471.6C1467.82 408.397 1467.42 367.515 1464.83 354.901L1463.85 355.102C1466.39 367.489 1466.83 408.191 1448 471.314L1448.96 471.6ZM1529.34 477.075C1516.89 467.244 1500.77 464.206 1485.73 464.373C1470.68 464.541 1456.65 467.917 1448.31 470.988L1448.65 471.926C1456.9 468.89 1470.82 465.539 1485.74 465.373C1500.67 465.207 1516.53 468.227 1528.72 477.86L1529.34 477.075ZM1531.11 465.741L1528.54 477.36L1529.52 477.576L1532.09 465.957L1531.11 465.741ZM1464.42 455.624C1499.95 444.386 1523.8 458.057 1531.23 466.187L1531.97 465.512C1524.27 457.094 1500.02 443.316 1464.12 454.67L1464.42 455.624ZM1463.91 355.255C1471.24 367.727 1472.79 386.913 1471.69 405.924C1470.6 424.909 1466.88 443.606 1463.79 455.016L1464.76 455.278C1467.86 443.813 1471.6 425.047 1472.69 405.982C1473.79 386.943 1472.27 367.494 1464.77 354.748L1463.91 355.255ZM1463.47 477.12L1459.94 493.095L1460.91 493.311L1464.45 477.336L1463.47 477.12ZM1523.35 479.997C1515.77 474.285 1504.23 472.593 1492.98 472.751C1481.7 472.909 1470.61 474.928 1463.83 476.745L1464.09 477.711C1470.8 475.911 1481.81 473.907 1492.99 473.751C1504.19 473.593 1515.44 475.293 1522.75 480.796L1523.35 479.997ZM1460.72 493.606C1469.27 487.328 1493.76 475.944 1522.97 480.889L1523.13 479.903C1493.61 474.904 1468.85 486.396 1460.13 492.8L1460.72 493.606ZM1585.8 520.988L1589.33 505.013L1588.36 504.797L1584.82 520.772L1585.8 520.988ZM1533.8 483.339C1562.37 491.173 1579.76 511.822 1584.87 521.121L1585.75 520.639C1580.54 511.154 1562.94 490.294 1534.06 482.375L1533.8 483.339ZM1589.16 504.522C1583.78 500.015 1574.58 493.506 1564.42 488.608C1554.29 483.72 1543.11 480.387 1533.83 482.368L1534.03 483.346C1542.98 481.437 1553.9 484.643 1563.99 489.509C1574.06 494.365 1583.19 500.825 1588.52 505.288L1589.16 504.522Z" fill="#5843C8"/>
<defs>
<linearGradient id="paint0_linear_464_1392" x1="129.599" y1="387.44" x2="555.499" y2="1063.42" gradientUnits="userSpaceOnUse">
<stop stop-color="#D86B53"/>
<stop offset="0.4961" stop-color="#FF4667"/>
<stop offset="1" stop-color="#301E90" stop-opacity="0.81"/>
</linearGradient>
<linearGradient id="paint1_linear_464_1392" x1="129.599" y1="380.034" x2="571.146" y2="1063.28" gradientUnits="userSpaceOnUse">
<stop stop-color="#D86B53"/>
<stop offset="0.4961" stop-color="#FF4667"/>
<stop offset="1" stop-color="#301E90" stop-opacity="0.81"/>
</linearGradient>
<linearGradient id="paint2_linear_464_1392" x1="129.597" y1="282.997" x2="516.471" y2="938.878" gradientUnits="userSpaceOnUse">
<stop stop-color="#D86B53"/>
<stop offset="0.4961" stop-color="#FF4667"/>
<stop offset="1" stop-color="#301E90" stop-opacity="0.81"/>
</linearGradient>
</defs>
</svg>
