<svg width="47" height="55" viewBox="0 0 47 55" fill="none" xmlns="http://www.w3.org/2000/svg">
<g clip-path="url(#clip0_228_853)">
<path d="M47 13.7963L23.5059 0V9.5464L47 23.2819V13.7944V13.7963Z" fill="#FF6492"/>
<path d="M47.0001 23.2824L39.9518 27.444L23.5001 17.8015L14.1005 23.2902L7.05029 19.4344L23.504 9.54688L47.0001 23.2824Z" fill="#141446"/>
<path d="M14.1005 23.2894L7.05029 19.4336V27.4432L14.1005 23.2894Z" fill="#A14474"/>
<path d="M0 41.0908L23.5 27.4434L47 41.0908L23.5 54.8871L0 41.0908Z" fill="#141446"/>
<path d="M47 31.6192L23.5 17.6523V27.4438L47 41.0913V31.6192Z" fill="#FF6492"/>
<path d="M7.05018 27.4435V19.434L23.5039 9.5464V0L0 13.7963V41.0909L23.5 27.4435V17.652L7.05018 27.4435Z" fill="#7A77FF"/>
</g>
<defs>
<clipPath id="clip0_228_853">
<rect width="47" height="55" fill="white"/>
</clipPath>
</defs>
</svg>
