<svg width="1728" height="696" viewBox="0 0 1728 696" fill="none" xmlns="http://www.w3.org/2000/svg">
<rect width="1728" height="696" rx="20" fill="#FFB03B" fill-opacity="0.1"/>
<path d="M1321 0C1321.19 2.31238 1321.36 4.62782 1321.53 6.94152C1323.06 27.3032 1324.57 47.5302 1336.22 64.3525C1344.72 76.6324 1358.2 82.5361 1371.92 88.5423C1381.11 92.5671 1390.4 96.6379 1398.37 102.704C1408.52 110.427 1416.92 122.061 1425.17 133.494C1439.4 153.194 1453.19 172.299 1474.77 169.775C1494.68 167.446 1501.49 147.33 1508.6 126.327C1513.43 112.051 1518.39 97.365 1527.71 87.5789C1537.49 77.305 1550.9 71.0322 1564.1 64.8535C1581.89 56.5345 1599.3 48.3859 1607.01 30.8715C1611.21 21.3319 1614.3 10.8174 1616 0H1321Z" fill="#FFBC5A"/>
<path d="M82.1876 696H420C419.122 674.649 412.903 653.937 399.79 637.834C383.131 617.378 356.427 614.973 329.124 612.515C313.644 611.122 297.972 609.71 283.829 604.982C271.551 600.877 260.127 594.793 248.807 588.765C230.867 579.211 213.192 569.799 192.803 568.628C191.008 568.525 189.193 568.417 187.361 568.309C148.571 566.01 102.142 563.259 79.4052 593.245C62.296 615.81 69.7672 645.485 77.2339 675.142C78.9924 682.127 80.7507 689.11 82.1876 696Z" fill="#FFBC5A"/>
</svg>
