<svg width="840" height="240" viewBox="0 0 840 240" fill="none" xmlns="http://www.w3.org/2000/svg">
<path d="M30.328 11.576C30.328 12.552 30.104 13.448 29.656 14.264C29.208 15.064 28.52 15.712 27.592 16.208C26.664 16.704 25.512 16.952 24.136 16.952H21.592V23H17.488V6.152H24.136C25.48 6.152 26.616 6.384 27.544 6.848C28.472 7.312 29.168 7.952 29.632 8.768C30.096 9.584 30.328 10.52 30.328 11.576ZM23.824 13.688C24.608 13.688 25.192 13.504 25.576 13.136C25.96 12.768 26.152 12.248 26.152 11.576C26.152 10.904 25.96 10.384 25.576 10.016C25.192 9.648 24.608 9.464 23.824 9.464H21.592V13.688H23.824ZM36.5686 11.84C37.0486 11.104 37.6486 10.528 38.3686 10.112C39.0886 9.68 39.8886 9.464 40.7686 9.464V13.808H39.6406C38.6166 13.808 37.8486 14.032 37.3366 14.48C36.8246 14.912 36.5686 15.68 36.5686 16.784V23H32.4646V9.608H36.5686V11.84ZM44.7942 8.216C44.0742 8.216 43.4822 8.008 43.0182 7.592C42.5702 7.16 42.3462 6.632 42.3462 6.008C42.3462 5.368 42.5702 4.84 43.0182 4.424C43.4822 3.992 44.0742 3.776 44.7942 3.776C45.4982 3.776 46.0742 3.992 46.5222 4.424C46.9862 4.84 47.2182 5.368 47.2182 6.008C47.2182 6.632 46.9862 7.16 46.5222 7.592C46.0742 8.008 45.4982 8.216 44.7942 8.216ZM46.8342 9.608V23H42.7302V9.608H46.8342ZM66.8963 9.464C68.5603 9.464 69.8803 9.968 70.8563 10.976C71.8483 11.984 72.3443 13.384 72.3443 15.176V23H68.2643V15.728C68.2643 14.864 68.0323 14.2 67.5683 13.736C67.1203 13.256 66.4963 13.016 65.6963 13.016C64.8963 13.016 64.2643 13.256 63.8003 13.736C63.3523 14.2 63.1283 14.864 63.1283 15.728V23H59.0483V15.728C59.0483 14.864 58.8163 14.2 58.3523 13.736C57.9043 13.256 57.2803 13.016 56.4803 13.016C55.6803 13.016 55.0483 13.256 54.5843 13.736C54.1363 14.2 53.9123 14.864 53.9123 15.728V23H49.8083V9.608H53.9123V11.288C54.3283 10.728 54.8723 10.288 55.5443 9.968C56.2163 9.632 56.9763 9.464 57.8243 9.464C58.8323 9.464 59.7283 9.68 60.5123 10.112C61.3123 10.544 61.9363 11.16 62.3843 11.96C62.8483 11.224 63.4803 10.624 64.2803 10.16C65.0803 9.696 65.9523 9.464 66.8963 9.464ZM74.3986 16.28C74.3986 14.904 74.6546 13.696 75.1666 12.656C75.6946 11.616 76.4066 10.816 77.3026 10.256C78.1986 9.696 79.1986 9.416 80.3026 9.416C81.2466 9.416 82.0706 9.608 82.7746 9.992C83.4946 10.376 84.0466 10.88 84.4306 11.504V9.608H88.5346V23H84.4306V21.104C84.0306 21.728 83.4706 22.232 82.7506 22.616C82.0466 23 81.2226 23.192 80.2786 23.192C79.1906 23.192 78.1986 22.912 77.3026 22.352C76.4066 21.776 75.6946 20.968 75.1666 19.928C74.6546 18.872 74.3986 17.656 74.3986 16.28ZM84.4306 16.304C84.4306 15.28 84.1426 14.472 83.5666 13.88C83.0066 13.288 82.3186 12.992 81.5026 12.992C80.6866 12.992 79.9906 13.288 79.4146 13.88C78.8546 14.456 78.5746 15.256 78.5746 16.28C78.5746 17.304 78.8546 18.12 79.4146 18.728C79.9906 19.32 80.6866 19.616 81.5026 19.616C82.3186 19.616 83.0066 19.32 83.5666 18.728C84.1426 18.136 84.4306 17.328 84.4306 16.304ZM95.6076 11.84C96.0876 11.104 96.6876 10.528 97.4076 10.112C98.1276 9.68 98.9276 9.464 99.8076 9.464V13.808H98.6796C97.6556 13.808 96.8876 14.032 96.3756 14.48C95.8636 14.912 95.6076 15.68 95.6076 16.784V23H91.5036V9.608H95.6076V11.84ZM115.449 9.608L107.049 29.36H102.633L105.705 22.544L100.257 9.608H104.841L107.937 17.984L111.009 9.608H115.449Z" fill="black"/>
<g filter="url(#filter0_d_265_4671)">
<path d="M416.5 40.5H806C811.247 40.5 815.5 44.7533 815.5 50V206C815.5 211.247 811.247 215.5 806 215.5H416.5V40.5Z" fill="white" stroke="#FFB03B"/>
<path d="M16 50C16 44.4772 20.4772 40 26 40H416V216H26C20.4771 216 16 211.523 16 206V50Z" fill="#FFB03B"/>
<path d="M53.408 176.168C51.856 176.168 50.424 175.808 49.112 175.088C47.816 174.352 46.784 173.336 46.016 172.04C45.264 170.728 44.888 169.256 44.888 167.624C44.888 165.992 45.264 164.528 46.016 163.232C46.784 161.936 47.816 160.928 49.112 160.208C50.424 159.472 51.856 159.104 53.408 159.104C54.976 159.104 56.408 159.472 57.704 160.208C59.016 160.928 60.048 161.936 60.8 163.232C61.552 164.528 61.928 165.992 61.928 167.624C61.928 169.256 61.552 170.728 60.8 172.04C60.048 173.336 59.016 174.352 57.704 175.088C56.408 175.808 54.976 176.168 53.408 176.168ZM53.408 173.792C54.512 173.792 55.496 173.544 56.36 173.048C57.224 172.536 57.896 171.816 58.376 170.888C58.872 169.944 59.12 168.856 59.12 167.624C59.12 166.392 58.872 165.312 58.376 164.384C57.896 163.456 57.224 162.744 56.36 162.248C55.496 161.752 54.512 161.504 53.408 161.504C52.304 161.504 51.32 161.752 50.456 162.248C49.592 162.744 48.912 163.456 48.416 164.384C47.936 165.312 47.696 166.392 47.696 167.624C47.696 168.856 47.936 169.944 48.416 170.888C48.912 171.816 49.592 172.536 50.456 173.048C51.32 173.544 52.304 173.792 53.408 173.792ZM73.2843 176L69.4443 169.328H67.3563V176H64.6203V159.32H70.3803C71.6603 159.32 72.7403 159.544 73.6203 159.992C74.5163 160.44 75.1803 161.04 75.6123 161.792C76.0603 162.544 76.2843 163.384 76.2843 164.312C76.2843 165.4 75.9643 166.392 75.3243 167.288C74.7003 168.168 73.7323 168.768 72.4203 169.088L76.5483 176H73.2843ZM67.3563 167.144H70.3803C71.4043 167.144 72.1723 166.888 72.6843 166.376C73.2123 165.864 73.4763 165.176 73.4763 164.312C73.4763 163.448 73.2203 162.776 72.7083 162.296C72.1963 161.8 71.4203 161.552 70.3803 161.552H67.3563V167.144ZM89.8404 172.592H82.8564L81.6564 176H78.8004L84.7764 159.296H87.9444L93.9204 176H91.0404L89.8404 172.592ZM89.0724 170.36L86.3604 162.608L83.6244 170.36H89.0724ZM110.223 176H107.487L99.2548 163.544V176H96.5188V159.296H99.2548L107.487 171.728V159.296H110.223V176ZM125.888 164.12C125.456 163.288 124.856 162.664 124.088 162.248C123.32 161.816 122.432 161.6 121.424 161.6C120.32 161.6 119.336 161.848 118.472 162.344C117.608 162.84 116.928 163.544 116.432 164.456C115.952 165.368 115.712 166.424 115.712 167.624C115.712 168.824 115.952 169.888 116.432 170.816C116.928 171.728 117.608 172.432 118.472 172.928C119.336 173.424 120.32 173.672 121.424 173.672C122.912 173.672 124.12 173.256 125.048 172.424C125.976 171.592 126.544 170.464 126.752 169.04H120.488V166.856H129.68V168.992C129.504 170.288 129.04 171.48 128.288 172.568C127.552 173.656 126.584 174.528 125.384 175.184C124.2 175.824 122.88 176.144 121.424 176.144C119.856 176.144 118.424 175.784 117.128 175.064C115.832 174.328 114.8 173.312 114.032 172.016C113.28 170.72 112.904 169.256 112.904 167.624C112.904 165.992 113.28 164.528 114.032 163.232C114.8 161.936 115.832 160.928 117.128 160.208C118.44 159.472 119.872 159.104 121.424 159.104C123.2 159.104 124.776 159.544 126.152 160.424C127.544 161.288 128.552 162.52 129.176 164.12H125.888ZM135.114 161.528V166.424H140.874V168.656H135.114V173.768H141.594V176H132.378V159.296H141.594V161.528H135.114ZM54.71 185.185V197H52.772V191.832H47.213V197H45.275V185.185H47.213V190.251H52.772V185.185H54.71ZM59.1993 186.749V190.217H63.2793V191.798H59.1993V195.419H63.7893V197H57.2613V185.168H63.7893V186.749H59.1993ZM71.5994 191.101L75.2714 197H73.0954L70.4264 192.716L67.9274 197H65.7684L69.4404 191.101L65.7514 185.185H67.9274L70.6134 189.503L73.1294 185.185H75.2884L71.5994 191.101ZM78.181 197.119C77.8297 197.119 77.535 197 77.297 196.762C77.059 196.524 76.94 196.229 76.94 195.878C76.94 195.527 77.059 195.232 77.297 194.994C77.535 194.756 77.8297 194.637 78.181 194.637C78.521 194.637 78.81 194.756 79.048 194.994C79.286 195.232 79.405 195.527 79.405 195.878C79.405 196.229 79.286 196.524 79.048 196.762C78.81 197 78.521 197.119 78.181 197.119ZM78.181 189.979C77.8297 189.979 77.535 189.86 77.297 189.622C77.059 189.384 76.94 189.089 76.94 188.738C76.94 188.387 77.059 188.092 77.297 187.854C77.535 187.616 77.8297 187.497 78.181 187.497C78.521 187.497 78.81 187.616 79.048 187.854C79.286 188.092 79.405 188.387 79.405 188.738C79.405 189.089 79.286 189.384 79.048 189.622C78.81 189.86 78.521 189.979 78.181 189.979ZM95.893 189.214L95.264 192.155H97.508V193.855H94.907L94.227 197H92.374L93.054 193.855H89.722L89.042 197H87.189L87.869 193.855H85.234V192.155H88.226L88.855 189.214H86.237V187.514H89.212L89.875 184.42H91.728L91.065 187.514H94.397L95.06 184.42H96.913L96.25 187.514H98.511V189.214H95.893ZM94.04 189.214H90.708L90.079 192.155H93.411L94.04 189.214ZM107.76 185.185V186.766H102.745V190.251H106.655V191.832H102.745V197H100.807V185.185H107.76ZM116.509 185.185V186.766H111.494V190.251H115.404V191.832H111.494V197H109.556V185.185H116.509ZM124.629 190.931C125.264 191.044 125.802 191.379 126.244 191.934C126.686 192.489 126.907 193.118 126.907 193.821C126.907 194.422 126.749 194.966 126.431 195.453C126.125 195.929 125.678 196.309 125.088 196.592C124.499 196.864 123.813 197 123.031 197H118.305V185.185H122.81C123.615 185.185 124.306 185.321 124.884 185.593C125.462 185.865 125.899 186.233 126.193 186.698C126.488 187.151 126.635 187.661 126.635 188.228C126.635 188.908 126.454 189.475 126.091 189.928C125.729 190.381 125.241 190.716 124.629 190.931ZM120.243 190.149H122.64C123.275 190.149 123.768 190.007 124.119 189.724C124.482 189.429 124.663 189.01 124.663 188.466C124.663 187.933 124.482 187.52 124.119 187.225C123.768 186.919 123.275 186.766 122.64 186.766H120.243V190.149ZM122.861 195.419C123.519 195.419 124.034 195.26 124.408 194.943C124.782 194.626 124.969 194.184 124.969 193.617C124.969 193.039 124.771 192.58 124.374 192.24C123.978 191.9 123.451 191.73 122.793 191.73H120.243V195.419H122.861ZM128.758 190.642C128.758 188.681 129.087 187.151 129.744 186.052C130.413 184.941 131.558 184.386 133.178 184.386C134.799 184.386 135.938 184.941 136.595 186.052C137.264 187.151 137.598 188.681 137.598 190.642C137.598 192.625 137.264 194.178 136.595 195.3C135.938 196.411 134.799 196.966 133.178 196.966C131.558 196.966 130.413 196.411 129.744 195.3C129.087 194.178 128.758 192.625 128.758 190.642ZM135.694 190.642C135.694 189.724 135.632 188.948 135.507 188.313C135.394 187.678 135.156 187.163 134.793 186.766C134.431 186.358 133.892 186.154 133.178 186.154C132.464 186.154 131.926 186.358 131.563 186.766C131.201 187.163 130.957 187.678 130.832 188.313C130.719 188.948 130.662 189.724 130.662 190.642C130.662 191.594 130.719 192.393 130.832 193.039C130.946 193.685 131.184 194.206 131.546 194.603C131.92 195 132.464 195.198 133.178 195.198C133.892 195.198 134.431 195 134.793 194.603C135.167 194.206 135.411 193.685 135.524 193.039C135.638 192.393 135.694 191.594 135.694 190.642ZM139.615 187.667C139.683 186.613 140.085 185.791 140.822 185.202C141.57 184.613 142.522 184.318 143.678 184.318C144.471 184.318 145.157 184.46 145.735 184.743C146.313 185.026 146.749 185.412 147.044 185.899C147.339 186.386 147.486 186.936 147.486 187.548C147.486 188.251 147.299 188.851 146.925 189.35C146.551 189.849 146.103 190.183 145.582 190.353V190.421C146.251 190.625 146.772 190.999 147.146 191.543C147.52 192.076 147.707 192.761 147.707 193.6C147.707 194.269 147.554 194.864 147.248 195.385C146.942 195.906 146.489 196.32 145.888 196.626C145.287 196.921 144.568 197.068 143.729 197.068C142.505 197.068 141.496 196.756 140.703 196.133C139.921 195.498 139.502 194.592 139.445 193.413H141.315C141.36 194.014 141.593 194.507 142.012 194.892C142.431 195.266 142.998 195.453 143.712 195.453C144.403 195.453 144.936 195.266 145.31 194.892C145.684 194.507 145.871 194.014 145.871 193.413C145.871 192.62 145.616 192.059 145.106 191.73C144.607 191.39 143.837 191.22 142.794 191.22H142.352V189.622H142.811C143.729 189.611 144.426 189.458 144.902 189.163C145.389 188.868 145.633 188.404 145.633 187.769C145.633 187.225 145.457 186.794 145.106 186.477C144.755 186.148 144.256 185.984 143.61 185.984C142.975 185.984 142.482 186.148 142.131 186.477C141.78 186.794 141.57 187.191 141.502 187.667H139.615ZM156.322 190.931C156.956 191.044 157.495 191.379 157.937 191.934C158.379 192.489 158.6 193.118 158.6 193.821C158.6 194.422 158.441 194.966 158.124 195.453C157.818 195.929 157.37 196.309 156.781 196.592C156.191 196.864 155.506 197 154.724 197H149.998V185.185H154.503C155.307 185.185 155.999 185.321 156.577 185.593C157.155 185.865 157.591 186.233 157.886 186.698C158.18 187.151 158.328 187.661 158.328 188.228C158.328 188.908 158.146 189.475 157.784 189.928C157.421 190.381 156.934 190.716 156.322 190.931ZM151.936 190.149H154.333C154.967 190.149 155.46 190.007 155.812 189.724C156.174 189.429 156.356 189.01 156.356 188.466C156.356 187.933 156.174 187.52 155.812 187.225C155.46 186.919 154.967 186.766 154.333 186.766H151.936V190.149ZM154.554 195.419C155.211 195.419 155.727 195.26 156.101 194.943C156.475 194.626 156.662 194.184 156.662 193.617C156.662 193.039 156.463 192.58 156.067 192.24C155.67 191.9 155.143 191.73 154.486 191.73H151.936V195.419H154.554Z" fill="white"/>
<path d="M456.408 176.168C454.856 176.168 453.424 175.808 452.112 175.088C450.816 174.352 449.784 173.336 449.016 172.04C448.264 170.728 447.888 169.256 447.888 167.624C447.888 165.992 448.264 164.528 449.016 163.232C449.784 161.936 450.816 160.928 452.112 160.208C453.424 159.472 454.856 159.104 456.408 159.104C457.976 159.104 459.408 159.472 460.704 160.208C462.016 160.928 463.048 161.936 463.8 163.232C464.552 164.528 464.928 165.992 464.928 167.624C464.928 169.256 464.552 170.728 463.8 172.04C463.048 173.336 462.016 174.352 460.704 175.088C459.408 175.808 457.976 176.168 456.408 176.168ZM456.408 173.792C457.512 173.792 458.496 173.544 459.36 173.048C460.224 172.536 460.896 171.816 461.376 170.888C461.872 169.944 462.12 168.856 462.12 167.624C462.12 166.392 461.872 165.312 461.376 164.384C460.896 163.456 460.224 162.744 459.36 162.248C458.496 161.752 457.512 161.504 456.408 161.504C455.304 161.504 454.32 161.752 453.456 162.248C452.592 162.744 451.912 163.456 451.416 164.384C450.936 165.312 450.696 166.392 450.696 167.624C450.696 168.856 450.936 169.944 451.416 170.888C451.912 171.816 452.592 172.536 453.456 173.048C454.32 173.544 455.304 173.792 456.408 173.792ZM476.284 176L472.444 169.328H470.356V176H467.62V159.32H473.38C474.66 159.32 475.74 159.544 476.62 159.992C477.516 160.44 478.18 161.04 478.612 161.792C479.06 162.544 479.284 163.384 479.284 164.312C479.284 165.4 478.964 166.392 478.324 167.288C477.7 168.168 476.732 168.768 475.42 169.088L479.548 176H476.284ZM470.356 167.144H473.38C474.404 167.144 475.172 166.888 475.684 166.376C476.212 165.864 476.476 165.176 476.476 164.312C476.476 163.448 476.22 162.776 475.708 162.296C475.196 161.8 474.42 161.552 473.38 161.552H470.356V167.144ZM492.84 172.592H485.856L484.656 176H481.8L487.776 159.296H490.944L496.92 176H494.04L492.84 172.592ZM492.072 170.36L489.36 162.608L486.624 170.36H492.072ZM513.223 176H510.487L502.255 163.544V176H499.519V159.296H502.255L510.487 171.728V159.296H513.223V176ZM528.888 164.12C528.456 163.288 527.856 162.664 527.088 162.248C526.32 161.816 525.432 161.6 524.424 161.6C523.32 161.6 522.336 161.848 521.472 162.344C520.608 162.84 519.928 163.544 519.432 164.456C518.952 165.368 518.712 166.424 518.712 167.624C518.712 168.824 518.952 169.888 519.432 170.816C519.928 171.728 520.608 172.432 521.472 172.928C522.336 173.424 523.32 173.672 524.424 173.672C525.912 173.672 527.12 173.256 528.048 172.424C528.976 171.592 529.544 170.464 529.752 169.04H523.488V166.856H532.68V168.992C532.504 170.288 532.04 171.48 531.288 172.568C530.552 173.656 529.584 174.528 528.384 175.184C527.2 175.824 525.88 176.144 524.424 176.144C522.856 176.144 521.424 175.784 520.128 175.064C518.832 174.328 517.8 173.312 517.032 172.016C516.28 170.72 515.904 169.256 515.904 167.624C515.904 165.992 516.28 164.528 517.032 163.232C517.8 161.936 518.832 160.928 520.128 160.208C521.44 159.472 522.872 159.104 524.424 159.104C526.2 159.104 527.776 159.544 529.152 160.424C530.544 161.288 531.552 162.52 532.176 164.12H528.888ZM538.114 161.528V166.424H543.874V168.656H538.114V173.768H544.594V176H535.378V159.296H544.594V161.528H538.114ZM457.71 185.185V197H455.772V191.832H450.213V197H448.275V185.185H450.213V190.251H455.772V185.185H457.71ZM462.199 186.749V190.217H466.279V191.798H462.199V195.419H466.789V197H460.261V185.168H466.789V186.749H462.199ZM474.599 191.101L478.271 197H476.095L473.426 192.716L470.927 197H468.768L472.44 191.101L468.751 185.185H470.927L473.613 189.503L476.129 185.185H478.288L474.599 191.101ZM481.181 197.119C480.83 197.119 480.535 197 480.297 196.762C480.059 196.524 479.94 196.229 479.94 195.878C479.94 195.527 480.059 195.232 480.297 194.994C480.535 194.756 480.83 194.637 481.181 194.637C481.521 194.637 481.81 194.756 482.048 194.994C482.286 195.232 482.405 195.527 482.405 195.878C482.405 196.229 482.286 196.524 482.048 196.762C481.81 197 481.521 197.119 481.181 197.119ZM481.181 189.979C480.83 189.979 480.535 189.86 480.297 189.622C480.059 189.384 479.94 189.089 479.94 188.738C479.94 188.387 480.059 188.092 480.297 187.854C480.535 187.616 480.83 187.497 481.181 187.497C481.521 187.497 481.81 187.616 482.048 187.854C482.286 188.092 482.405 188.387 482.405 188.738C482.405 189.089 482.286 189.384 482.048 189.622C481.81 189.86 481.521 189.979 481.181 189.979ZM498.893 189.214L498.264 192.155H500.508V193.855H497.907L497.227 197H495.374L496.054 193.855H492.722L492.042 197H490.189L490.869 193.855H488.234V192.155H491.226L491.855 189.214H489.237V187.514H492.212L492.875 184.42H494.728L494.065 187.514H497.397L498.06 184.42H499.913L499.25 187.514H501.511V189.214H498.893ZM497.04 189.214H493.708L493.079 192.155H496.411L497.04 189.214ZM510.76 185.185V186.766H505.745V190.251H509.655V191.832H505.745V197H503.807V185.185H510.76ZM519.509 185.185V186.766H514.494V190.251H518.404V191.832H514.494V197H512.556V185.185H519.509ZM527.629 190.931C528.264 191.044 528.802 191.379 529.244 191.934C529.686 192.489 529.907 193.118 529.907 193.821C529.907 194.422 529.749 194.966 529.431 195.453C529.125 195.929 528.678 196.309 528.088 196.592C527.499 196.864 526.813 197 526.031 197H521.305V185.185H525.81C526.615 185.185 527.306 185.321 527.884 185.593C528.462 185.865 528.899 186.233 529.193 186.698C529.488 187.151 529.635 187.661 529.635 188.228C529.635 188.908 529.454 189.475 529.091 189.928C528.729 190.381 528.241 190.716 527.629 190.931ZM523.243 190.149H525.64C526.275 190.149 526.768 190.007 527.119 189.724C527.482 189.429 527.663 189.01 527.663 188.466C527.663 187.933 527.482 187.52 527.119 187.225C526.768 186.919 526.275 186.766 525.64 186.766H523.243V190.149ZM525.861 195.419C526.519 195.419 527.034 195.26 527.408 194.943C527.782 194.626 527.969 194.184 527.969 193.617C527.969 193.039 527.771 192.58 527.374 192.24C526.978 191.9 526.451 191.73 525.793 191.73H523.243V195.419H525.861ZM531.758 190.642C531.758 188.681 532.087 187.151 532.744 186.052C533.413 184.941 534.558 184.386 536.178 184.386C537.799 184.386 538.938 184.941 539.595 186.052C540.264 187.151 540.598 188.681 540.598 190.642C540.598 192.625 540.264 194.178 539.595 195.3C538.938 196.411 537.799 196.966 536.178 196.966C534.558 196.966 533.413 196.411 532.744 195.3C532.087 194.178 531.758 192.625 531.758 190.642ZM538.694 190.642C538.694 189.724 538.632 188.948 538.507 188.313C538.394 187.678 538.156 187.163 537.793 186.766C537.431 186.358 536.892 186.154 536.178 186.154C535.464 186.154 534.926 186.358 534.563 186.766C534.201 187.163 533.957 187.678 533.832 188.313C533.719 188.948 533.662 189.724 533.662 190.642C533.662 191.594 533.719 192.393 533.832 193.039C533.946 193.685 534.184 194.206 534.546 194.603C534.92 195 535.464 195.198 536.178 195.198C536.892 195.198 537.431 195 537.793 194.603C538.167 194.206 538.411 193.685 538.524 193.039C538.638 192.393 538.694 191.594 538.694 190.642ZM542.615 187.667C542.683 186.613 543.085 185.791 543.822 185.202C544.57 184.613 545.522 184.318 546.678 184.318C547.471 184.318 548.157 184.46 548.735 184.743C549.313 185.026 549.749 185.412 550.044 185.899C550.339 186.386 550.486 186.936 550.486 187.548C550.486 188.251 550.299 188.851 549.925 189.35C549.551 189.849 549.103 190.183 548.582 190.353V190.421C549.251 190.625 549.772 190.999 550.146 191.543C550.52 192.076 550.707 192.761 550.707 193.6C550.707 194.269 550.554 194.864 550.248 195.385C549.942 195.906 549.489 196.32 548.888 196.626C548.287 196.921 547.568 197.068 546.729 197.068C545.505 197.068 544.496 196.756 543.703 196.133C542.921 195.498 542.502 194.592 542.445 193.413H544.315C544.36 194.014 544.593 194.507 545.012 194.892C545.431 195.266 545.998 195.453 546.712 195.453C547.403 195.453 547.936 195.266 548.31 194.892C548.684 194.507 548.871 194.014 548.871 193.413C548.871 192.62 548.616 192.059 548.106 191.73C547.607 191.39 546.837 191.22 545.794 191.22H545.352V189.622H545.811C546.729 189.611 547.426 189.458 547.902 189.163C548.389 188.868 548.633 188.404 548.633 187.769C548.633 187.225 548.457 186.794 548.106 186.477C547.755 186.148 547.256 185.984 546.61 185.984C545.975 185.984 545.482 186.148 545.131 186.477C544.78 186.794 544.57 187.191 544.502 187.667H542.615ZM559.322 190.931C559.956 191.044 560.495 191.379 560.937 191.934C561.379 192.489 561.6 193.118 561.6 193.821C561.6 194.422 561.441 194.966 561.124 195.453C560.818 195.929 560.37 196.309 559.781 196.592C559.191 196.864 558.506 197 557.724 197H552.998V185.185H557.503C558.307 185.185 558.999 185.321 559.577 185.593C560.155 185.865 560.591 186.233 560.886 186.698C561.18 187.151 561.328 187.661 561.328 188.228C561.328 188.908 561.146 189.475 560.784 189.928C560.421 190.381 559.934 190.716 559.322 190.931ZM554.936 190.149H557.333C557.967 190.149 558.46 190.007 558.812 189.724C559.174 189.429 559.356 189.01 559.356 188.466C559.356 187.933 559.174 187.52 558.812 187.225C558.46 186.919 557.967 186.766 557.333 186.766H554.936V190.149ZM557.554 195.419C558.211 195.419 558.727 195.26 559.101 194.943C559.475 194.626 559.662 194.184 559.662 193.617C559.662 193.039 559.463 192.58 559.067 192.24C558.67 191.9 558.143 191.73 557.486 191.73H554.936V195.419H557.554Z" fill="#FFB03B"/>
</g>
<defs>
<filter id="filter0_d_265_4671" x="0" y="24" width="840" height="216" filterUnits="userSpaceOnUse" color-interpolation-filters="sRGB">
<feFlood flood-opacity="0" result="BackgroundImageFix"/>
<feColorMatrix in="SourceAlpha" type="matrix" values="0 0 0 0 0 0 0 0 0 0 0 0 0 0 0 0 0 0 127 0" result="hardAlpha"/>
<feOffset dx="4" dy="4"/>
<feGaussianBlur stdDeviation="10"/>
<feComposite in2="hardAlpha" operator="out"/>
<feColorMatrix type="matrix" values="0 0 0 0 0 0 0 0 0 0 0 0 0 0 0 0 0 0 0.25 0"/>
<feBlend mode="normal" in2="BackgroundImageFix" result="effect1_dropShadow_265_4671"/>
<feBlend mode="normal" in="SourceGraphic" in2="effect1_dropShadow_265_4671" result="shape"/>
</filter>
</defs>
</svg>
