<svg width="256" height="298" viewBox="0 0 256 298" fill="none" xmlns="http://www.w3.org/2000/svg">
<g clip-path="url(#clip0_228_817)">
<path d="M192 112.385L256 150.328V224.769L192 261.249L128 224.769V150.346" fill="#00B46F"/>
<path d="M128 0L192 37.943V112.384L128 148.864L64 112.384V37.961" fill="#2294D9"/>
<path d="M192 37.9434L256 75.8864V150.336L192 186.816L128 150.336V75.8864" fill="#2294D9"/>
<path d="M64 37.9434L128 75.8864V150.336L64 186.816L0 150.336V75.8864" fill="#F85551"/>
<path d="M64 112.385L128 150.328V224.769L64 261.249L0 224.769V150.346" fill="#F85551"/>
<path d="M128 148.873L192 186.816V261.257L128 297.737L64 261.257V186.816" fill="#00B46F"/>
<path d="M192 37.943L128 75.886L64 37.943L128 0L192 37.943ZM256 75.886L192 113.846L128 75.904L192 37.961L256 75.904V75.886Z" fill="#30B2E9"/>
<path d="M128 223.306V148.883L64 186.826V261.249" fill="#00AB64"/>
<path d="M192 186.816L128 223.296L64 186.816L128 148.873" fill="#00CE8E"/>
<path d="M128 223.306L64 186.826L128 148.883V223.306Z" fill="#00C783"/>
<path d="M128 75.886L64 37.943L128 0V75.886Z" fill="#2CAEE7"/>
<path d="M128 75.8859L64 113.847L0 75.9039L64 37.9609" fill="#FB716C"/>
<path d="M256 150.335L192 186.815L128 148.872L192 113.855" fill="#1F8ED6"/>
<path d="M63.013 260.627L0 224.147L63.013 186.186V260.627Z" fill="#F64743"/>
<path d="M64 113.847V37.9609L128 75.9039V148.864" fill="#F96560"/>
<path d="M128 148.874V75.8867L64 113.848V186.808" fill="#B71D1D"/>
<path d="M128 148.874L64 113.857L128 75.8867V148.874Z" fill="#B21A1A"/>
<path d="M256 224.769L192 186.826L256 150.346V224.769Z" fill="#10161A" fill-opacity="0.2"/>
<path d="M192 261.257V186.816L128 223.296V297.746L192 261.266V261.257ZM256 224.777V150.336L192 186.816V261.257L256 224.777Z" fill="#007233"/>
<path d="M256 224.769L192 186.826L256 150.346V224.769Z" fill="#00682C"/>
<path d="M256 150.337V75.8867L192 113.848V186.808" fill="#0759BA"/>
<path d="M256 150.337L192 113.857L256 75.8867V150.337Z" fill="#0860BF"/>
<path opacity="0.78" d="M0 75.8867L64 112.385L128 75.9047L65.463 114.579L64 186.515L62.537 114.561L0 75.8867Z" fill="#FEBCB7"/>
<path opacity="0.78" d="M128 75.8867L192 112.385L256 75.9047L193.463 114.579L192 186.808L190.537 114.579" fill="#4EDCF8"/>
<path opacity="0.78" d="M64 186.816L128 221.851L192 186.816L129.463 224.027L128 297.691L126.537 224.037L64 186.825V186.816Z" fill="#00F3C9"/>
</g>
<defs>
<clipPath id="clip0_228_817">
<rect width="256" height="298" fill="white"/>
</clipPath>
</defs>
</svg>
