<svg width="48" height="55" viewBox="0 0 48 55" fill="none" xmlns="http://www.w3.org/2000/svg">
<g clip-path="url(#clip0_228_817)">
<path d="M36 20.7422L48 27.7451V41.4842L36 48.2171L24 41.4842V27.7484" fill="#00B46F"/>
<path d="M24 0L36 7.0029V20.742L24 27.4749L12 20.742V7.00623" fill="#2294D9"/>
<path d="M36 7.00195L48 14.0049V27.7456L36 34.4785L24 27.7456V14.0049" fill="#2294D9"/>
<path d="M12 7.00195L24 14.0049V27.7456L12 34.4785L0 27.7456V14.0049" fill="#F85551"/>
<path d="M12 20.7422L24 27.7451V41.4842L12 48.2171L0 41.4842V27.7484" fill="#F85551"/>
<path d="M24 27.4766L36 34.4795V48.2186L24 54.9515L12 48.2186V34.4795" fill="#00B46F"/>
<path d="M36 7.0029L24 14.0058L12 7.0029L24 0L36 7.0029ZM48 14.0058L36 21.0118L24 14.0091L36 7.00623L48 14.0091V14.0058Z" fill="#30B2E9"/>
<path d="M24 41.2143V27.4785L12 34.4814V48.2172" fill="#00AB64"/>
<path d="M36 34.4795L24 41.2124L12 34.4795L24 27.4766" fill="#00CE8E"/>
<path d="M24 41.2143L12 34.4814L24 27.4785V41.2143Z" fill="#00C783"/>
<path d="M24 14.0058L12 7.0029L24 0V14.0058Z" fill="#2CAEE7"/>
<path d="M24 14.0054L12 21.0117L0 14.0088L12 7.00586" fill="#FB716C"/>
<path d="M48 27.7466L36 34.4794L24 27.4765L36 21.0137" fill="#1F8ED6"/>
<path d="M11.8149 48.1024L0 41.3695L11.8149 34.3633V48.1024Z" fill="#F64743"/>
<path d="M12 21.0117V7.00586L24 14.0088V27.4745" fill="#F96560"/>
<path d="M24 27.4766V14.0059L12 21.0121V34.4779" fill="#B71D1D"/>
<path d="M24 27.4766L12 21.0137L24 14.0059V27.4766Z" fill="#B21A1A"/>
<path d="M48 41.4838L36 34.4809L48 27.748V41.4838Z" fill="#10161A" fill-opacity="0.2"/>
<path d="M36 48.2181V34.479L24 41.2119V54.9526L36 48.2198V48.2181ZM48 41.4852V27.7461L36 34.479V48.2181L48 41.4852Z" fill="#007233"/>
<path d="M48 41.4838L36 34.4809L48 27.748V41.4838Z" fill="#00682C"/>
<path d="M48 27.7466V14.0059L36 21.0121V34.4779" fill="#0759BA"/>
<path d="M48 27.7466L36 21.0137L48 14.0059V27.7466Z" fill="#0860BF"/>
<path opacity="0.78" d="M0 14.0059L12 20.7421L24 14.0092L12.2743 21.147L12 34.4238L11.7257 21.1437L0 14.0059Z" fill="#FEBCB7"/>
<path opacity="0.78" d="M24 14.0059L36 20.7421L48 14.0092L36.2743 21.147L36 34.4779L35.7257 21.147" fill="#4EDCF8"/>
<path opacity="0.78" d="M12 34.4785L24 40.9447L36 34.4785L24.2743 41.3463L24 54.942L23.7257 41.3482L12 34.4802V34.4785Z" fill="#00F3C9"/>
</g>
<defs>
<clipPath id="clip0_228_817">
<rect width="48" height="55" fill="white"/>
</clipPath>
</defs>
</svg>
