<svg width="45" height="45" viewBox="0 0 45 45" fill="none" xmlns="http://www.w3.org/2000/svg">
<path d="M37.4977 19.2068C38.0321 19.4072 38.5805 19.0627 38.8371 18.5353C39.0938 18.0045 39.0692 17.3259 38.6086 16.9111C38.6086 16.9111 32.0942 11.6412 31.4543 11.2123C30.8145 10.7869 29.7668 10.7166 29.2606 11.4724C28.684 12.3267 28.8563 13.0123 29.9285 13.7927C30.9973 14.5697 37.4977 19.2068 37.4977 19.2068Z" fill="white"/>
<path d="M37.2022 19.9934C37.1354 19.9687 37.0686 19.9336 37.0089 19.8914C37.0089 19.8914 30.5015 15.2543 29.4292 14.4738C28.0018 13.4367 27.7101 12.266 28.5573 11.0039C28.9616 10.3992 29.6366 10.0547 30.4065 10.0547C30.9409 10.0547 31.4788 10.2164 31.9218 10.5117C32.5757 10.9477 38.4714 15.7148 39.1745 16.2844C39.8776 16.9172 40.0464 17.9684 39.5964 18.9C39.2413 19.6312 38.5417 20.1059 37.8175 20.1059C37.6065 20.1059 37.3991 20.0672 37.2022 19.9934ZM29.9565 11.9391C29.721 12.2906 29.5804 12.498 30.4206 13.1098C31.3944 13.8164 36.8753 17.7223 37.8421 18.4148C37.9018 18.3938 38.0073 18.3129 38.0776 18.1652C38.1796 17.9578 38.2007 17.673 38.0776 17.5641C35.469 15.4547 31.4296 12.2098 30.9831 11.9109C30.8214 11.802 30.6034 11.7352 30.403 11.7352C30.0936 11.7352 29.9917 11.8898 29.9565 11.9391Z" fill="#2F2F2F"/>
<path d="M22.9604 24.1211H27.7874V25.8824H22.9604V24.1211Z" fill="white"/>
<path d="M22.9605 27.4855H27.7875C27.9979 27.4855 28.2062 27.4441 28.4005 27.3634C28.5948 27.2828 28.7713 27.1647 28.9198 27.0158C29.0684 26.8669 29.1862 26.6901 29.2664 26.4956C29.3465 26.3012 29.3876 26.0928 29.3871 25.8824V24.1211C29.3871 23.2352 28.6699 22.5215 27.7875 22.5215H22.9605C22.0746 22.5215 21.3574 23.2387 21.3574 24.1211V25.8824C21.3574 26.7684 22.0746 27.4855 22.9605 27.4855Z" fill="#2F2F2F"/>
<path d="M24.9082 26.6035H25.5551V36.6652H24.9082V26.6035Z" fill="white"/>
<path d="M24.9083 37.7055H25.5552C26.1317 37.7055 26.5958 37.2414 26.5958 36.6648V26.6031C26.5958 26.3271 26.4862 26.0624 26.291 25.8673C26.0959 25.6721 25.8312 25.5625 25.5552 25.5625H24.9083C24.3317 25.5625 23.8677 26.0266 23.8677 26.6031V36.6648C23.8677 36.9408 23.9773 37.2055 24.1725 37.4007C24.3676 37.5958 24.6323 37.7055 24.9083 37.7055Z" fill="#2F2F2F"/>
<path d="M25.1648 43.457C25.2756 43.457 25.3853 43.4352 25.4877 43.3928C25.5901 43.3504 25.6831 43.2883 25.7614 43.2099C25.8398 43.1316 25.9019 43.0385 25.9443 42.9362C25.9867 42.8338 26.0085 42.7241 26.0085 42.6133V36.9883C26.0085 36.7645 25.9196 36.5499 25.7614 36.3917C25.6032 36.2334 25.3886 36.1445 25.1648 36.1445C24.941 36.1445 24.7264 36.2334 24.5682 36.3917C24.4099 36.5499 24.321 36.7645 24.321 36.9883V42.6133C24.3246 43.0773 24.7007 43.457 25.1648 43.457Z" fill="#2F2F2F"/>
<path d="M26.3376 26.9171L27.0366 26.5469L32.8015 37.4298L32.1026 37.8L26.3376 26.9171Z" fill="white"/>
<path d="M32.0942 38.8412C32.263 38.8412 32.4282 38.799 32.5829 38.7182L33.2825 38.349C33.526 38.2196 33.7083 37.9989 33.7893 37.7353C33.8704 37.4717 33.8436 37.1867 33.715 36.9428L27.9599 26.0584C27.6892 25.5522 27.0599 25.3588 26.5571 25.626L25.8575 25.9987C25.6114 26.1252 25.4286 26.3467 25.3478 26.6104C25.2669 26.874 25.2915 27.1588 25.4216 27.4014L31.1802 38.2893C31.3103 38.5354 31.5282 38.7147 31.7919 38.799C31.8903 38.8272 31.9923 38.8412 32.0942 38.8412Z" fill="#2F2F2F"/>
<path d="M32.5618 38.0039L35.7786 44.0895Z" fill="white"/>
<path d="M35.7784 44.9333C35.9238 44.9334 36.0667 44.8958 36.1933 44.8243C36.3199 44.7528 36.4258 44.6498 36.5009 44.5252C36.5759 44.4007 36.6174 44.2589 36.6214 44.1135C36.6254 43.9682 36.5918 43.8243 36.5237 43.6958L33.307 37.6103C33.2019 37.4132 33.0233 37.2656 32.8099 37.1997C32.5965 37.1339 32.3657 37.1551 32.1679 37.2587C31.9702 37.3632 31.8222 37.5418 31.7562 37.7554C31.6903 37.969 31.7119 38.2001 31.8163 38.3978L35.0331 44.4833C35.1843 44.7681 35.4761 44.9333 35.7784 44.9333Z" fill="#2F2F2F"/>
<path d="M17.0918 37.0483L23.4832 26.5215L24.1596 26.9318L17.7682 37.4589L17.0918 37.0483Z" fill="white"/>
<path d="M17.7681 38.497C17.8525 38.497 17.9333 38.4864 18.0142 38.4689C18.2814 38.4021 18.5134 38.2333 18.6575 37.9978L25.0525 27.472C25.1966 27.2329 25.2388 26.9552 25.172 26.6845C25.1052 26.4173 24.9365 26.1853 24.7009 26.0411L24.0224 25.6298C23.5337 25.331 22.8939 25.4892 22.595 25.9779L16.2001 36.5036C15.9013 36.9923 16.0595 37.6322 16.5482 37.931L17.2232 38.3423C17.3919 38.4443 17.5782 38.497 17.7681 38.497Z" fill="#2F2F2F"/>
<path d="M17.2899 37.627L13.718 43.5121Z" fill="white"/>
<path d="M13.7145 44.3526C13.9993 44.3526 14.277 44.2085 14.4352 43.9483L18.0071 38.0631C18.0648 37.9688 18.1032 37.864 18.1203 37.7547C18.1374 37.6454 18.1327 37.5339 18.1066 37.4264C18.0805 37.319 18.0334 37.2177 17.9681 37.1285C17.9027 37.0393 17.8204 36.9638 17.7258 36.9065C17.3286 36.6639 16.8118 36.7905 16.5692 37.1878L12.9973 43.0694C12.9397 43.1638 12.9012 43.2686 12.8841 43.3778C12.867 43.4871 12.8717 43.5987 12.8978 43.7061C12.9239 43.8136 12.971 43.9148 13.0364 44.004C13.1017 44.0932 13.184 44.1687 13.2786 44.226C13.4157 44.3139 13.5669 44.3526 13.7145 44.3526Z" fill="#2F2F2F"/>
<path d="M33.7992 26.2785C35.4199 26.8586 37.0441 25.7969 37.7894 24.1973C38.5312 22.5941 38.4292 20.5445 37.023 19.3246L23.3824 9.44922L18.0457 19.3492L33.7992 26.2785Z" fill="#2F2F2F"/>
<path d="M33.4161 27.1436L17.6661 20.2143C17.5466 20.1616 17.4394 20.0847 17.3512 19.9885C17.2629 19.8923 17.1955 19.7789 17.1532 19.6554C17.111 19.5319 17.0947 19.4009 17.1055 19.2708C17.1164 19.1407 17.154 19.0143 17.2161 18.8994L22.5528 8.99593C22.6829 8.75687 22.9079 8.5846 23.175 8.52132C23.4387 8.46156 23.72 8.51781 23.9414 8.67952L37.5786 18.5549L37.6418 18.6076C39.5051 20.2213 39.4875 22.7772 38.6473 24.5912C37.8598 26.2858 36.3164 27.3826 34.7098 27.3826C34.2914 27.3862 33.8801 27.3123 33.4161 27.1436ZM23.7024 10.8487L19.3641 18.8959L34.1157 25.3893C35.1493 25.7619 36.3481 25.0483 36.9282 23.7967C37.4661 22.6366 37.5153 21.0334 36.4289 20.0631L23.7024 10.8487Z" fill="#2F2F2F"/>
<path d="M39.0094 26.5355C39.6598 26.7711 40.3102 26.3422 40.609 25.7023C40.9078 25.059 40.8656 24.2363 40.2996 23.7477L34.8328 19.7891L32.6953 23.7582L39.0094 26.5355Z" fill="#2F2F2F"/>
<path d="M38.8582 26.8831L32.5406 24.1058C32.4422 24.0636 32.3684 23.9828 32.3332 23.8808C32.298 23.7824 32.3086 23.6699 32.3578 23.5785L34.4953 19.6058C34.5207 19.5581 34.5561 19.5165 34.599 19.4837C34.642 19.4509 34.6915 19.4277 34.7441 19.4157C34.7968 19.4037 34.8515 19.4031 34.9044 19.4141C34.9573 19.4251 35.0072 19.4473 35.0508 19.4792L40.5457 23.4589C41.291 24.1058 41.284 25.1324 40.95 25.8566C40.6371 26.5386 40.0148 26.9781 39.3715 26.9781C39.2062 26.9816 39.041 26.9535 38.8582 26.8831ZM33.2227 23.5749L39.1395 26.18C39.5543 26.3312 40.0324 26.0429 40.2645 25.5402C40.4824 25.0691 40.5 24.4222 40.0781 24.0531L34.9594 20.3476L33.2227 23.5749Z" fill="#2F2F2F"/>
<path d="M30.3329 25.0176C32.1786 25.6785 34.0278 24.4727 34.8716 22.648C35.7153 20.8234 35.5993 18.4926 33.9962 17.1039L18.4782 5.85742L12.4067 17.1285L30.3329 25.0176Z" fill="#6E44FF"/>
<path d="M29.9708 26.029C29.9462 26.022 29.9251 26.0115 29.9005 26.0009L11.9708 18.1118C11.6965 17.9923 11.4856 17.7638 11.3872 17.479C11.2887 17.1943 11.3133 16.8814 11.4575 16.6177L17.529 5.34309C17.6766 5.06888 17.9333 4.87552 18.2356 4.8052C18.538 4.73841 18.8544 4.80169 19.1075 4.9845L34.629 16.2275C34.6536 16.245 34.6817 16.2661 34.7028 16.2872C36.8227 18.1259 36.8051 21.0333 35.8489 23.097C34.9524 25.0271 33.1946 26.2751 31.37 26.2751C30.8989 26.2751 30.4243 26.1908 29.9708 26.029ZM18.8438 7.44895L13.9079 16.6107L30.7301 24.0111C31.9008 24.4083 33.2438 23.5962 33.8977 22.19C34.4883 20.9103 34.5622 19.0435 33.3282 17.9396L18.8438 7.44895Z" fill="#2F2F2F"/>
<path d="M9.97726 8.78218C8.15265 12.7162 9.05265 17.0052 11.9777 18.3587C14.9062 19.7158 18.7558 17.624 20.5769 13.69C22.398 9.75601 21.5015 5.47046 18.5765 4.11343C15.648 2.75992 11.7984 4.8482 9.97726 8.78218Z" fill="#2F2F2F"/>
<path d="M11.5417 19.3004C8.10343 17.7043 6.97843 12.793 9.03859 8.34922C10.6101 4.95312 13.6792 2.66797 16.671 2.66797C17.4972 2.66797 18.2847 2.84023 19.0159 3.17773C22.4542 4.77031 23.5757 9.68164 21.5191 14.1289C19.9405 17.525 16.8749 19.8066 13.8831 19.8066C13.0605 19.8066 12.2695 19.6379 11.5417 19.3004ZM10.9159 9.21758C9.33742 12.6277 10.0089 16.3051 12.4136 17.4195C12.8671 17.6305 13.3628 17.7359 13.8866 17.7359C16.0839 17.7359 18.3972 15.9359 19.6417 13.2535C21.2202 9.84336 20.5487 6.16602 18.1476 5.05156C17.6941 4.84062 17.1984 4.73516 16.6745 4.73516C14.4702 4.73516 12.1569 6.53516 10.9159 9.21758Z" fill="#2F2F2F"/>
<path d="M11.4962 19.3211L6.78525 16.9586C6.65772 16.8941 6.54422 16.8049 6.4513 16.6963C6.35838 16.5877 6.28788 16.4618 6.24385 16.3258C6.15596 16.0481 6.18057 15.7528 6.31416 15.4961L13.8728 1.07504C14.0134 0.800819 14.2665 0.603944 14.5618 0.530116C14.8606 0.452773 15.1771 0.509023 15.4302 0.681288L19.1849 3.21957C19.3974 3.36181 19.5518 3.57554 19.6202 3.82195C19.6886 4.06837 19.6663 4.33113 19.5575 4.56254L12.9552 18.8114C12.8321 19.075 12.6106 19.2789 12.3329 19.3739C12.2169 19.4161 12.0974 19.4336 11.9778 19.4336C11.8126 19.4371 11.6474 19.3985 11.4962 19.3211ZM15.2192 3.14223L8.7294 15.5243L11.4681 16.8989L17.2161 4.49223L15.2192 3.14223Z" fill="#2F2F2F"/>
<path d="M5.87824 6.433C3.98332 10.5252 4.91496 14.9865 7.95949 16.3963C11.004 17.806 15.0083 15.6299 16.9032 11.5377C18.7982 7.44901 17.8665 2.98769 14.8255 1.57792C11.7775 0.164639 7.77316 2.33729 5.87824 6.433Z" fill="#6E44FF"/>
<path d="M7.50597 17.3738C3.92707 15.7145 2.75988 10.6027 4.90089 5.97969C6.53566 2.44297 9.72785 0.0664062 12.8392 0.0664062C13.697 0.0664062 14.5161 0.245703 15.2755 0.597266C17.0614 1.42695 18.3025 3.10742 18.7665 5.3293C19.206 7.43516 18.8896 9.80117 17.8771 11.9879C16.2423 15.5246 13.0536 17.9012 9.9423 17.9012C9.08449 17.9012 8.26535 17.7219 7.50597 17.3738ZM6.85558 6.8832C5.21379 10.427 5.90988 14.2555 8.40949 15.4156C8.88058 15.6336 9.39738 15.7461 9.93879 15.7461C12.2275 15.7461 14.6321 13.8723 15.9224 11.0809C16.745 9.3125 17.0052 7.42461 16.6571 5.76875C16.3372 4.22891 15.5216 3.08633 14.3685 2.54844C13.8876 2.32819 13.3645 2.21542 12.8357 2.21797C10.5505 2.22148 8.14582 4.09531 6.85558 6.8832Z" fill="#2F2F2F"/>
<path fill-rule="evenodd" clip-rule="evenodd" d="M9.14764 7.55078H9.0703C8.11757 7.60352 7.85038 9.57227 7.74491 10.2473C7.55858 11.4531 7.69218 12.8102 8.56053 13.7383C8.86639 14.0652 9.4746 14.3887 9.89999 14.0934C10.4801 13.6961 9.96327 13.1406 9.73124 12.7223C9.11249 11.5867 9.21093 10.1734 9.6328 8.98867C9.80858 8.5 9.85428 7.57539 9.14764 7.55078Z" fill="#BBDDF5"/>
<path d="M37.4661 16.0878C37.3571 16.6643 37.4977 16.9702 37.125 17.4659C36.9211 17.7401 36.6856 18.0003 36.3938 18.1796C36.4747 18.2815 36.5836 18.3448 36.6821 18.4362C36.9387 18.6647 37.2094 18.939 37.5293 19.0725C38.0461 19.2905 38.6051 19.2308 38.8758 18.6683C39.02 18.3694 39.0692 17.9124 39.0305 17.5819C38.9708 17.0757 38.3344 16.6292 37.9477 16.3585C37.8633 16.2917 37.561 16.0632 37.4661 16.0878Z" fill="#2F2F2F"/>
<path d="M37.3816 19.4174C37.0477 19.2767 36.7699 19.0271 36.5273 18.8056L36.4254 18.7142C36.3973 18.6896 36.3656 18.665 36.3375 18.6439C36.2637 18.5842 36.1758 18.5138 36.0949 18.4154C36.0281 18.331 36 18.222 36.0176 18.1131C36.0387 18.0076 36.1019 17.9127 36.1934 17.8564C36.4535 17.6982 36.6644 17.4416 36.8156 17.2377C36.9984 16.9951 37.009 16.8369 37.0266 16.5521C37.0371 16.3939 37.0477 16.2217 37.0863 16.0213C37.1144 15.8771 37.2269 15.7576 37.3711 15.7224C37.575 15.6732 37.7965 15.7822 38.1621 16.0459C38.5945 16.3517 39.3223 16.8615 39.4031 17.5365C39.4453 17.8951 39.4031 18.433 39.2133 18.8302C38.9883 19.2978 38.5699 19.5685 38.0602 19.5685C37.8422 19.5615 37.6137 19.5123 37.3816 19.4174ZM37.4273 17.6912C37.3113 17.8459 37.1637 18.0287 36.9879 18.1939L37.0406 18.2396C37.248 18.4295 37.4625 18.6228 37.6769 18.7142C38.0637 18.876 38.3801 18.8162 38.5312 18.4927C38.6332 18.2783 38.6859 17.9021 38.6508 17.6174C38.6156 17.308 38.1164 16.9318 37.7824 16.6963C37.7613 16.9986 37.7156 17.3115 37.4273 17.6912Z" fill="#2F2F2F"/>
</svg>
