<svg width="839" height="240" viewBox="0 0 839 240" fill="none" xmlns="http://www.w3.org/2000/svg">
<path d="M23.584 23.168C22.352 23.168 21.248 22.968 20.272 22.568C19.296 22.168 18.512 21.576 17.92 20.792C17.344 20.008 17.04 19.064 17.008 17.96H21.376C21.44 18.584 21.656 19.064 22.024 19.4C22.392 19.72 22.872 19.88 23.464 19.88C24.072 19.88 24.552 19.744 24.904 19.472C25.256 19.184 25.432 18.792 25.432 18.296C25.432 17.88 25.288 17.536 25 17.264C24.728 16.992 24.384 16.768 23.968 16.592C23.568 16.416 22.992 16.216 22.24 15.992C21.152 15.656 20.264 15.32 19.576 14.984C18.888 14.648 18.296 14.152 17.8 13.496C17.304 12.84 17.056 11.984 17.056 10.928C17.056 9.36 17.624 8.136 18.76 7.256C19.896 6.36 21.376 5.912 23.2 5.912C25.056 5.912 26.552 6.36 27.688 7.256C28.824 8.136 29.432 9.368 29.512 10.952H25.072C25.04 10.408 24.84 9.984 24.472 9.68C24.104 9.36 23.632 9.2 23.056 9.2C22.56 9.2 22.16 9.336 21.856 9.608C21.552 9.864 21.4 10.24 21.4 10.736C21.4 11.28 21.656 11.704 22.168 12.008C22.68 12.312 23.48 12.64 24.568 12.992C25.656 13.36 26.536 13.712 27.208 14.048C27.896 14.384 28.488 14.872 28.984 15.512C29.48 16.152 29.728 16.976 29.728 17.984C29.728 18.944 29.48 19.816 28.984 20.6C28.504 21.384 27.8 22.008 26.872 22.472C25.944 22.936 24.848 23.168 23.584 23.168ZM44.8776 16.088C44.8776 16.472 44.8536 16.872 44.8056 17.288H35.5176C35.5816 18.12 35.8456 18.76 36.3096 19.208C36.7896 19.64 37.3736 19.856 38.0616 19.856C39.0856 19.856 39.7976 19.424 40.1976 18.56H44.5656C44.3416 19.44 43.9336 20.232 43.3416 20.936C42.7656 21.64 42.0376 22.192 41.1576 22.592C40.2776 22.992 39.2936 23.192 38.2056 23.192C36.8936 23.192 35.7256 22.912 34.7016 22.352C33.6776 21.792 32.8776 20.992 32.3016 19.952C31.7256 18.912 31.4376 17.696 31.4376 16.304C31.4376 14.912 31.7176 13.696 32.2776 12.656C32.8536 11.616 33.6536 10.816 34.6776 10.256C35.7016 9.696 36.8776 9.416 38.2056 9.416C39.5016 9.416 40.6536 9.688 41.6616 10.232C42.6696 10.776 43.4536 11.552 44.0136 12.56C44.5896 13.568 44.8776 14.744 44.8776 16.088ZM40.6776 15.008C40.6776 14.304 40.4376 13.744 39.9576 13.328C39.4776 12.912 38.8776 12.704 38.1576 12.704C37.4696 12.704 36.8856 12.904 36.4056 13.304C35.9416 13.704 35.6536 14.272 35.5416 15.008H40.6776ZM46.2267 16.304C46.2267 14.912 46.5067 13.696 47.0667 12.656C47.6427 11.616 48.4347 10.816 49.4427 10.256C50.4667 9.696 51.6347 9.416 52.9467 9.416C54.6267 9.416 56.0267 9.856 57.1467 10.736C58.2827 11.616 59.0267 12.856 59.3787 14.456H55.0107C54.6427 13.432 53.9307 12.92 52.8747 12.92C52.1227 12.92 51.5227 13.216 51.0747 13.808C50.6267 14.384 50.4027 15.216 50.4027 16.304C50.4027 17.392 50.6267 18.232 51.0747 18.824C51.5227 19.4 52.1227 19.688 52.8747 19.688C53.9307 19.688 54.6427 19.176 55.0107 18.152H59.3787C59.0267 19.72 58.2827 20.952 57.1467 21.848C56.0107 22.744 54.6107 23.192 52.9467 23.192C51.6347 23.192 50.4667 22.912 49.4427 22.352C48.4347 21.792 47.6427 20.992 47.0667 19.952C46.5067 18.912 46.2267 17.696 46.2267 16.304ZM67.6699 23.192C66.3579 23.192 65.1739 22.912 64.1179 22.352C63.0779 21.792 62.2539 20.992 61.6459 19.952C61.0539 18.912 60.7579 17.696 60.7579 16.304C60.7579 14.928 61.0619 13.72 61.6699 12.68C62.2779 11.624 63.1099 10.816 64.1659 10.256C65.2219 9.696 66.4059 9.416 67.7179 9.416C69.0299 9.416 70.2139 9.696 71.2699 10.256C72.3259 10.816 73.1579 11.624 73.7659 12.68C74.3739 13.72 74.6779 14.928 74.6779 16.304C74.6779 17.68 74.3659 18.896 73.7419 19.952C73.1339 20.992 72.2939 21.792 71.2219 22.352C70.1659 22.912 68.9819 23.192 67.6699 23.192ZM67.6699 19.64C68.4539 19.64 69.1179 19.352 69.6619 18.776C70.2219 18.2 70.5019 17.376 70.5019 16.304C70.5019 15.232 70.2299 14.408 69.6859 13.832C69.1579 13.256 68.5019 12.968 67.7179 12.968C66.9179 12.968 66.2539 13.256 65.7259 13.832C65.1979 14.392 64.9339 15.216 64.9339 16.304C64.9339 17.376 65.1899 18.2 65.7019 18.776C66.2299 19.352 66.8859 19.64 67.6699 19.64ZM85.0152 9.464C86.5832 9.464 87.8312 9.976 88.7592 11C89.7032 12.008 90.1752 13.4 90.1752 15.176V23H86.0952V15.728C86.0952 14.832 85.8632 14.136 85.3992 13.64C84.9352 13.144 84.3112 12.896 83.5272 12.896C82.7432 12.896 82.1192 13.144 81.6552 13.64C81.1912 14.136 80.9592 14.832 80.9592 15.728V23H76.8552V9.608H80.9592V11.384C81.3752 10.792 81.9352 10.328 82.6392 9.992C83.3432 9.64 84.1352 9.464 85.0152 9.464ZM92.2111 16.28C92.2111 14.904 92.4671 13.696 92.9791 12.656C93.5071 11.616 94.2191 10.816 95.1151 10.256C96.0111 9.696 97.0111 9.416 98.1151 9.416C98.9951 9.416 99.7951 9.6 100.515 9.968C101.251 10.336 101.827 10.832 102.243 11.456V5.24H106.347V23H102.243V21.08C101.859 21.72 101.307 22.232 100.587 22.616C99.8831 23 99.0591 23.192 98.1151 23.192C97.0111 23.192 96.0111 22.912 95.1151 22.352C94.2191 21.776 93.5071 20.968 92.9791 19.928C92.4671 18.872 92.2111 17.656 92.2111 16.28ZM102.243 16.304C102.243 15.28 101.955 14.472 101.379 13.88C100.819 13.288 100.131 12.992 99.3151 12.992C98.4991 12.992 97.8031 13.288 97.2271 13.88C96.6671 14.456 96.3871 15.256 96.3871 16.28C96.3871 17.304 96.6671 18.12 97.2271 18.728C97.8031 19.32 98.4991 19.616 99.3151 19.616C100.131 19.616 100.819 19.32 101.379 18.728C101.955 18.136 102.243 17.328 102.243 16.304ZM108.5 16.28C108.5 14.904 108.756 13.696 109.268 12.656C109.796 11.616 110.508 10.816 111.404 10.256C112.3 9.696 113.3 9.416 114.404 9.416C115.348 9.416 116.172 9.608 116.876 9.992C117.596 10.376 118.148 10.88 118.532 11.504V9.608H122.636V23H118.532V21.104C118.132 21.728 117.572 22.232 116.852 22.616C116.148 23 115.324 23.192 114.38 23.192C113.292 23.192 112.3 22.912 111.404 22.352C110.508 21.776 109.796 20.968 109.268 19.928C108.756 18.872 108.5 17.656 108.5 16.28ZM118.532 16.304C118.532 15.28 118.244 14.472 117.668 13.88C117.108 13.288 116.42 12.992 115.604 12.992C114.788 12.992 114.092 13.288 113.516 13.88C112.956 14.456 112.676 15.256 112.676 16.28C112.676 17.304 112.956 18.12 113.516 18.728C114.092 19.32 114.788 19.616 115.604 19.616C116.42 19.616 117.108 19.32 117.668 18.728C118.244 18.136 118.532 17.328 118.532 16.304ZM129.709 11.84C130.189 11.104 130.789 10.528 131.509 10.112C132.229 9.68 133.029 9.464 133.909 9.464V13.808H132.781C131.757 13.808 130.989 14.032 130.477 14.48C129.965 14.912 129.709 15.68 129.709 16.784V23H125.605V9.608H129.709V11.84ZM149.551 9.608L141.151 29.36H136.735L139.807 22.544L134.359 9.608H138.943L142.039 17.984L145.111 9.608H149.551Z" fill="black"/>
<g filter="url(#filter0_d_265_4672)">
<rect x="283" y="40" width="266" height="176" fill="#81D4A3"/>
<path d="M549 40H805C810.523 40 815 44.4772 815 50V206C815 211.523 810.523 216 805 216H549V40Z" fill="#EACB8E"/>
<path d="M16 50C16 44.4772 20.4772 40 26 40H283V216H26C20.4772 216 16 211.523 16 206V50Z" fill="#F48C8C"/>
<path d="M53.888 158.624C53.888 156.992 54.264 155.528 55.016 154.232C55.784 152.936 56.816 151.928 58.112 151.208C59.424 150.472 60.856 150.104 62.408 150.104C64.184 150.104 65.76 150.544 67.136 151.424C68.528 152.288 69.536 153.52 70.16 155.12H66.872C66.44 154.24 65.84 153.584 65.072 153.152C64.304 152.72 63.416 152.504 62.408 152.504C61.304 152.504 60.32 152.752 59.456 153.248C58.592 153.744 57.912 154.456 57.416 155.384C56.936 156.312 56.696 157.392 56.696 158.624C56.696 159.856 56.936 160.936 57.416 161.864C57.912 162.792 58.592 163.512 59.456 164.024C60.32 164.52 61.304 164.768 62.408 164.768C63.416 164.768 64.304 164.552 65.072 164.12C65.84 163.688 66.44 163.032 66.872 162.152H70.16C69.536 163.752 68.528 164.984 67.136 165.848C65.76 166.712 64.184 167.144 62.408 167.144C60.84 167.144 59.408 166.784 58.112 166.064C56.816 165.328 55.784 164.312 55.016 163.016C54.264 161.72 53.888 160.256 53.888 158.624ZM79.0985 167.216C77.8505 167.216 76.7225 166.936 75.7145 166.376C74.7065 165.8 73.9145 165 73.3385 163.976C72.7625 162.936 72.4745 161.736 72.4745 160.376C72.4745 159.032 72.7705 157.84 73.3625 156.8C73.9545 155.76 74.7625 154.96 75.7865 154.4C76.8105 153.84 77.9545 153.56 79.2185 153.56C80.4825 153.56 81.6265 153.84 82.6505 154.4C83.6745 154.96 84.4825 155.76 85.0745 156.8C85.6665 157.84 85.9625 159.032 85.9625 160.376C85.9625 161.72 85.6585 162.912 85.0505 163.952C84.4425 164.992 83.6105 165.8 82.5545 166.376C81.5145 166.936 80.3625 167.216 79.0985 167.216ZM79.0985 164.84C79.8025 164.84 80.4585 164.672 81.0665 164.336C81.6905 164 82.1945 163.496 82.5785 162.824C82.9625 162.152 83.1545 161.336 83.1545 160.376C83.1545 159.416 82.9705 158.608 82.6025 157.952C82.2345 157.28 81.7465 156.776 81.1385 156.44C80.5305 156.104 79.8745 155.936 79.1705 155.936C78.4665 155.936 77.8105 156.104 77.2025 156.44C76.6105 156.776 76.1385 157.28 75.7865 157.952C75.4345 158.608 75.2585 159.416 75.2585 160.376C75.2585 161.8 75.6185 162.904 76.3385 163.688C77.0745 164.456 77.9945 164.84 79.0985 164.84ZM91.4032 155.696C91.8032 155.024 92.3312 154.504 92.9872 154.136C93.6592 153.752 94.4512 153.56 95.3632 153.56V156.392H94.6672C93.5952 156.392 92.7792 156.664 92.2192 157.208C91.6752 157.752 91.4032 158.696 91.4032 160.04V167H88.6672V153.776H91.4032V155.696ZM96.9661 160.328C96.9661 159 97.2381 157.824 97.7821 156.8C98.3421 155.776 99.0941 154.984 100.038 154.424C100.998 153.848 102.054 153.56 103.206 153.56C104.246 153.56 105.15 153.768 105.918 154.184C106.702 154.584 107.326 155.088 107.79 155.696V153.776H110.55V167H107.79V165.032C107.326 165.656 106.694 166.176 105.894 166.592C105.094 167.008 104.182 167.216 103.158 167.216C102.022 167.216 100.982 166.928 100.038 166.352C99.0941 165.76 98.3421 164.944 97.7821 163.904C97.2381 162.848 96.9661 161.656 96.9661 160.328ZM107.79 160.376C107.79 159.464 107.598 158.672 107.214 158C106.846 157.328 106.358 156.816 105.75 156.464C105.142 156.112 104.486 155.936 103.782 155.936C103.078 155.936 102.422 156.112 101.814 156.464C101.206 156.8 100.71 157.304 100.326 157.976C99.9581 158.632 99.7741 159.416 99.7741 160.328C99.7741 161.24 99.9581 162.04 100.326 162.728C100.71 163.416 101.206 163.944 101.814 164.312C102.438 164.664 103.094 164.84 103.782 164.84C104.486 164.84 105.142 164.664 105.75 164.312C106.358 163.96 106.846 163.448 107.214 162.776C107.598 162.088 107.79 161.288 107.79 160.376ZM116.88 149.24V167H114.144V149.24H116.88ZM63.71 176.185V188H61.772V182.832H56.213V188H54.275V176.185H56.213V181.251H61.772V176.185H63.71ZM68.1993 177.749V181.217H72.2793V182.798H68.1993V186.419H72.7893V188H66.2613V176.168H72.7893V177.749H68.1993ZM80.5994 182.101L84.2714 188H82.0954L79.4264 183.716L76.9274 188H74.7684L78.4404 182.101L74.7514 176.185H76.9274L79.6134 180.503L82.1294 176.185H84.2884L80.5994 182.101ZM87.181 188.119C86.8297 188.119 86.535 188 86.297 187.762C86.059 187.524 85.94 187.229 85.94 186.878C85.94 186.527 86.059 186.232 86.297 185.994C86.535 185.756 86.8297 185.637 87.181 185.637C87.521 185.637 87.81 185.756 88.048 185.994C88.286 186.232 88.405 186.527 88.405 186.878C88.405 187.229 88.286 187.524 88.048 187.762C87.81 188 87.521 188.119 87.181 188.119ZM87.181 180.979C86.8297 180.979 86.535 180.86 86.297 180.622C86.059 180.384 85.94 180.089 85.94 179.738C85.94 179.387 86.059 179.092 86.297 178.854C86.535 178.616 86.8297 178.497 87.181 178.497C87.521 178.497 87.81 178.616 88.048 178.854C88.286 179.092 88.405 179.387 88.405 179.738C88.405 180.089 88.286 180.384 88.048 180.622C87.81 180.86 87.521 180.979 87.181 180.979ZM104.893 180.214L104.264 183.155H106.508V184.855H103.907L103.227 188H101.374L102.054 184.855H98.722L98.042 188H96.189L96.869 184.855H94.234V183.155H97.226L97.855 180.214H95.237V178.514H98.212L98.875 175.42H100.728L100.065 178.514H103.397L104.06 175.42H105.913L105.25 178.514H107.511V180.214H104.893ZM103.04 180.214H99.708L99.079 183.155H102.411L103.04 180.214ZM116.76 176.185V177.766H111.745V181.251H115.655V182.832H111.745V188H109.807V176.185H116.76ZM118.063 185.416V183.954L123.775 175.76H126.121V183.733H127.702V185.416H126.121V188H124.217V185.416H118.063ZM124.302 177.732L120.29 183.733H124.302V177.732ZM131.399 181.523C130.22 180.934 129.631 180.004 129.631 178.735C129.631 178.123 129.784 177.562 130.09 177.052C130.396 176.542 130.855 176.14 131.467 175.845C132.079 175.539 132.827 175.386 133.711 175.386C134.584 175.386 135.326 175.539 135.938 175.845C136.561 176.14 137.026 176.542 137.332 177.052C137.638 177.562 137.791 178.123 137.791 178.735C137.791 179.37 137.627 179.931 137.298 180.418C136.981 180.894 136.556 181.262 136.023 181.523C136.669 181.761 137.179 182.152 137.553 182.696C137.927 183.229 138.114 183.858 138.114 184.583C138.114 185.32 137.927 185.971 137.553 186.538C137.179 187.105 136.658 187.541 135.989 187.847C135.32 188.153 134.561 188.306 133.711 188.306C132.861 188.306 132.102 188.153 131.433 187.847C130.776 187.541 130.26 187.105 129.886 186.538C129.512 185.971 129.325 185.32 129.325 184.583C129.325 183.846 129.512 183.212 129.886 182.679C130.26 182.146 130.764 181.761 131.399 181.523ZM135.938 178.973C135.938 178.338 135.74 177.851 135.343 177.511C134.946 177.171 134.402 177.001 133.711 177.001C133.031 177.001 132.493 177.171 132.096 177.511C131.699 177.851 131.501 178.344 131.501 178.99C131.501 179.557 131.705 180.021 132.113 180.384C132.532 180.735 133.065 180.911 133.711 180.911C134.357 180.911 134.89 180.73 135.309 180.367C135.728 180.004 135.938 179.54 135.938 178.973ZM133.711 182.373C132.963 182.373 132.351 182.56 131.875 182.934C131.41 183.297 131.178 183.824 131.178 184.515C131.178 185.161 131.405 185.688 131.858 186.096C132.311 186.493 132.929 186.691 133.711 186.691C134.482 186.691 135.088 186.487 135.53 186.079C135.983 185.671 136.21 185.15 136.21 184.515C136.21 183.835 135.978 183.308 135.513 182.934C135.06 182.56 134.459 182.373 133.711 182.373ZM139.758 182.067C139.758 180.911 140.024 179.874 140.557 178.956C141.101 178.038 141.832 177.324 142.75 176.814C143.679 176.293 144.694 176.032 145.793 176.032C147.051 176.032 148.167 176.344 149.142 176.967C150.128 177.579 150.842 178.452 151.284 179.585H148.955C148.649 178.962 148.224 178.497 147.68 178.191C147.136 177.885 146.507 177.732 145.793 177.732C145.011 177.732 144.314 177.908 143.702 178.259C143.09 178.61 142.608 179.115 142.257 179.772C141.917 180.429 141.747 181.194 141.747 182.067C141.747 182.94 141.917 183.705 142.257 184.362C142.608 185.019 143.09 185.529 143.702 185.892C144.314 186.243 145.011 186.419 145.793 186.419C146.507 186.419 147.136 186.266 147.68 185.96C148.224 185.654 148.649 185.189 148.955 184.566H151.284C150.842 185.699 150.128 186.572 149.142 187.184C148.167 187.796 147.051 188.102 145.793 188.102C144.682 188.102 143.668 187.847 142.75 187.337C141.832 186.816 141.101 186.096 140.557 185.178C140.024 184.26 139.758 183.223 139.758 182.067ZM155.388 181.523C154.21 180.934 153.62 180.004 153.62 178.735C153.62 178.123 153.773 177.562 154.079 177.052C154.385 176.542 154.844 176.14 155.456 175.845C156.068 175.539 156.816 175.386 157.7 175.386C158.573 175.386 159.315 175.539 159.927 175.845C160.551 176.14 161.015 176.542 161.321 177.052C161.627 177.562 161.78 178.123 161.78 178.735C161.78 179.37 161.616 179.931 161.287 180.418C160.97 180.894 160.545 181.262 160.012 181.523C160.658 181.761 161.168 182.152 161.542 182.696C161.916 183.229 162.103 183.858 162.103 184.583C162.103 185.32 161.916 185.971 161.542 186.538C161.168 187.105 160.647 187.541 159.978 187.847C159.31 188.153 158.55 188.306 157.7 188.306C156.85 188.306 156.091 188.153 155.422 187.847C154.765 187.541 154.249 187.105 153.875 186.538C153.501 185.971 153.314 185.32 153.314 184.583C153.314 183.846 153.501 183.212 153.875 182.679C154.249 182.146 154.754 181.761 155.388 181.523ZM159.927 178.973C159.927 178.338 159.729 177.851 159.332 177.511C158.936 177.171 158.392 177.001 157.7 177.001C157.02 177.001 156.482 177.171 156.085 177.511C155.689 177.851 155.49 178.344 155.49 178.99C155.49 179.557 155.694 180.021 156.102 180.384C156.522 180.735 157.054 180.911 157.7 180.911C158.346 180.911 158.879 180.73 159.298 180.367C159.718 180.004 159.927 179.54 159.927 178.973ZM157.7 182.373C156.952 182.373 156.34 182.56 155.864 182.934C155.4 183.297 155.167 183.824 155.167 184.515C155.167 185.161 155.394 185.688 155.847 186.096C156.301 186.493 156.918 186.691 157.7 186.691C158.471 186.691 159.077 186.487 159.519 186.079C159.973 185.671 160.199 185.15 160.199 184.515C160.199 183.835 159.967 183.308 159.502 182.934C159.049 182.56 158.448 182.373 157.7 182.373ZM163.747 182.067C163.747 180.911 164.013 179.874 164.546 178.956C165.09 178.038 165.821 177.324 166.739 176.814C167.668 176.293 168.683 176.032 169.782 176.032C171.04 176.032 172.156 176.344 173.131 176.967C174.117 177.579 174.831 178.452 175.273 179.585H172.944C172.638 178.962 172.213 178.497 171.669 178.191C171.125 177.885 170.496 177.732 169.782 177.732C169 177.732 168.303 177.908 167.691 178.259C167.079 178.61 166.597 179.115 166.246 179.772C165.906 180.429 165.736 181.194 165.736 182.067C165.736 182.94 165.906 183.705 166.246 184.362C166.597 185.019 167.079 185.529 167.691 185.892C168.303 186.243 169 186.419 169.782 186.419C170.496 186.419 171.125 186.266 171.669 185.96C172.213 185.654 172.638 185.189 172.944 184.566H175.273C174.831 185.699 174.117 186.572 173.131 187.184C172.156 187.796 171.04 188.102 169.782 188.102C168.671 188.102 167.657 187.847 166.739 187.337C165.821 186.816 165.09 186.096 164.546 185.178C164.013 184.26 163.747 183.223 163.747 182.067Z" fill="white"/>
<path d="M311.296 167.168C310.176 167.168 309.168 166.976 308.272 166.592C307.376 166.192 306.672 165.632 306.16 164.912C305.648 164.192 305.392 163.352 305.392 162.392H308.32C308.384 163.112 308.664 163.704 309.16 164.168C309.672 164.632 310.384 164.864 311.296 164.864C312.24 164.864 312.976 164.64 313.504 164.192C314.032 163.728 314.296 163.136 314.296 162.416C314.296 161.856 314.128 161.4 313.792 161.048C313.472 160.696 313.064 160.424 312.568 160.232C312.088 160.04 311.416 159.832 310.552 159.608C309.464 159.32 308.576 159.032 307.888 158.744C307.216 158.44 306.64 157.976 306.16 157.352C305.68 156.728 305.44 155.896 305.44 154.856C305.44 153.896 305.68 153.056 306.16 152.336C306.64 151.616 307.312 151.064 308.176 150.68C309.04 150.296 310.04 150.104 311.176 150.104C312.792 150.104 314.112 150.512 315.136 151.328C316.176 152.128 316.752 153.232 316.864 154.64H313.84C313.792 154.032 313.504 153.512 312.976 153.08C312.448 152.648 311.752 152.432 310.888 152.432C310.104 152.432 309.464 152.632 308.968 153.032C308.472 153.432 308.224 154.008 308.224 154.76C308.224 155.272 308.376 155.696 308.68 156.032C309 156.352 309.4 156.608 309.88 156.8C310.36 156.992 311.016 157.2 311.848 157.424C312.952 157.728 313.848 158.032 314.536 158.336C315.24 158.64 315.832 159.112 316.312 159.752C316.808 160.376 317.056 161.216 317.056 162.272C317.056 163.12 316.824 163.92 316.36 164.672C315.912 165.424 315.248 166.032 314.368 166.496C313.504 166.944 312.48 167.168 311.296 167.168ZM332.404 160.064C332.404 160.56 332.372 161.008 332.308 161.408H322.204C322.284 162.464 322.676 163.312 323.38 163.952C324.084 164.592 324.948 164.912 325.972 164.912C327.444 164.912 328.484 164.296 329.092 163.064H332.044C331.644 164.28 330.916 165.28 329.86 166.064C328.82 166.832 327.524 167.216 325.972 167.216C324.708 167.216 323.572 166.936 322.564 166.376C321.572 165.8 320.788 165 320.212 163.976C319.652 162.936 319.372 161.736 319.372 160.376C319.372 159.016 319.644 157.824 320.188 156.8C320.748 155.76 321.524 154.96 322.516 154.4C323.524 153.84 324.676 153.56 325.972 153.56C327.22 153.56 328.332 153.832 329.308 154.376C330.284 154.92 331.044 155.688 331.588 156.68C332.132 157.656 332.404 158.784 332.404 160.064ZM329.548 159.2C329.532 158.192 329.172 157.384 328.468 156.776C327.764 156.168 326.892 155.864 325.852 155.864C324.908 155.864 324.1 156.168 323.428 156.776C322.756 157.368 322.356 158.176 322.228 159.2H329.548ZM334.185 160.328C334.185 159 334.457 157.824 335.001 156.8C335.561 155.776 336.313 154.984 337.257 154.424C338.217 153.848 339.273 153.56 340.425 153.56C341.465 153.56 342.369 153.768 343.137 154.184C343.921 154.584 344.545 155.088 345.009 155.696V153.776H347.769V167H345.009V165.032C344.545 165.656 343.913 166.176 343.113 166.592C342.313 167.008 341.401 167.216 340.377 167.216C339.241 167.216 338.201 166.928 337.257 166.352C336.313 165.76 335.561 164.944 335.001 163.904C334.457 162.848 334.185 161.656 334.185 160.328ZM345.009 160.376C345.009 159.464 344.817 158.672 344.433 158C344.065 157.328 343.577 156.816 342.969 156.464C342.361 156.112 341.705 155.936 341.001 155.936C340.297 155.936 339.641 156.112 339.033 156.464C338.425 156.8 337.929 157.304 337.545 157.976C337.177 158.632 336.993 159.416 336.993 160.328C336.993 161.24 337.177 162.04 337.545 162.728C337.929 163.416 338.425 163.944 339.033 164.312C339.657 164.664 340.313 164.84 341.001 164.84C341.705 164.84 342.361 164.664 342.969 164.312C343.577 163.96 344.065 163.448 344.433 162.776C344.817 162.088 345.009 161.288 345.009 160.376ZM356.907 156.008H354.459V167H351.699V156.008H350.139V153.776H351.699V152.84C351.699 151.32 352.099 150.216 352.899 149.528C353.715 148.824 354.987 148.472 356.715 148.472V150.752C355.883 150.752 355.299 150.912 354.963 151.232C354.627 151.536 354.459 152.072 354.459 152.84V153.776H356.907V156.008ZM365.067 167.216C363.819 167.216 362.691 166.936 361.683 166.376C360.675 165.8 359.883 165 359.307 163.976C358.731 162.936 358.443 161.736 358.443 160.376C358.443 159.032 358.739 157.84 359.331 156.8C359.923 155.76 360.731 154.96 361.755 154.4C362.779 153.84 363.923 153.56 365.187 153.56C366.451 153.56 367.595 153.84 368.619 154.4C369.643 154.96 370.451 155.76 371.043 156.8C371.635 157.84 371.931 159.032 371.931 160.376C371.931 161.72 371.627 162.912 371.019 163.952C370.411 164.992 369.579 165.8 368.523 166.376C367.483 166.936 366.331 167.216 365.067 167.216ZM365.067 164.84C365.771 164.84 366.427 164.672 367.035 164.336C367.659 164 368.163 163.496 368.547 162.824C368.931 162.152 369.123 161.336 369.123 160.376C369.123 159.416 368.939 158.608 368.571 157.952C368.203 157.28 367.715 156.776 367.107 156.44C366.499 156.104 365.843 155.936 365.139 155.936C364.435 155.936 363.779 156.104 363.171 156.44C362.579 156.776 362.107 157.28 361.755 157.952C361.403 158.608 361.227 159.416 361.227 160.376C361.227 161.8 361.587 162.904 362.307 163.688C363.043 164.456 363.963 164.84 365.067 164.84ZM373.724 160.328C373.724 159 373.996 157.824 374.54 156.8C375.1 155.776 375.852 154.984 376.796 154.424C377.756 153.848 378.812 153.56 379.964 153.56C381.004 153.56 381.908 153.768 382.676 154.184C383.46 154.584 384.084 155.088 384.548 155.696V153.776H387.308V167H384.548V165.032C384.084 165.656 383.452 166.176 382.652 166.592C381.852 167.008 380.94 167.216 379.916 167.216C378.78 167.216 377.74 166.928 376.796 166.352C375.852 165.76 375.1 164.944 374.54 163.904C373.996 162.848 373.724 161.656 373.724 160.328ZM384.548 160.376C384.548 159.464 384.356 158.672 383.972 158C383.604 157.328 383.116 156.816 382.508 156.464C381.9 156.112 381.244 155.936 380.54 155.936C379.836 155.936 379.18 156.112 378.572 156.464C377.964 156.8 377.468 157.304 377.084 157.976C376.716 158.632 376.532 159.416 376.532 160.328C376.532 161.24 376.716 162.04 377.084 162.728C377.468 163.416 377.964 163.944 378.572 164.312C379.196 164.664 379.852 164.84 380.54 164.84C381.244 164.84 381.9 164.664 382.508 164.312C383.116 163.96 383.604 163.448 383.972 162.776C384.356 162.088 384.548 161.288 384.548 160.376ZM406.91 153.56C407.95 153.56 408.878 153.776 409.694 154.208C410.526 154.64 411.174 155.28 411.638 156.128C412.118 156.976 412.358 158 412.358 159.2V167H409.646V159.608C409.646 158.424 409.35 157.52 408.758 156.896C408.166 156.256 407.358 155.936 406.334 155.936C405.31 155.936 404.494 156.256 403.886 156.896C403.294 157.52 402.998 158.424 402.998 159.608V167H400.286V159.608C400.286 158.424 399.99 157.52 399.398 156.896C398.806 156.256 397.998 155.936 396.974 155.936C395.95 155.936 395.134 156.256 394.526 156.896C393.934 157.52 393.638 158.424 393.638 159.608V167H390.902V153.776H393.638V155.288C394.086 154.744 394.654 154.32 395.342 154.016C396.03 153.712 396.766 153.56 397.55 153.56C398.606 153.56 399.55 153.784 400.382 154.232C401.214 154.68 401.854 155.328 402.302 156.176C402.702 155.376 403.326 154.744 404.174 154.28C405.022 153.8 405.934 153.56 406.91 153.56ZM314.71 176.185V188H312.772V182.832H307.213V188H305.275V176.185H307.213V181.251H312.772V176.185H314.71ZM319.199 177.749V181.217H323.279V182.798H319.199V186.419H323.789V188H317.261V176.168H323.789V177.749H319.199ZM331.599 182.101L335.271 188H333.095L330.426 183.716L327.927 188H325.768L329.44 182.101L325.751 176.185H327.927L330.613 180.503L333.129 176.185H335.288L331.599 182.101ZM338.181 188.119C337.83 188.119 337.535 188 337.297 187.762C337.059 187.524 336.94 187.229 336.94 186.878C336.94 186.527 337.059 186.232 337.297 185.994C337.535 185.756 337.83 185.637 338.181 185.637C338.521 185.637 338.81 185.756 339.048 185.994C339.286 186.232 339.405 186.527 339.405 186.878C339.405 187.229 339.286 187.524 339.048 187.762C338.81 188 338.521 188.119 338.181 188.119ZM338.181 180.979C337.83 180.979 337.535 180.86 337.297 180.622C337.059 180.384 336.94 180.089 336.94 179.738C336.94 179.387 337.059 179.092 337.297 178.854C337.535 178.616 337.83 178.497 338.181 178.497C338.521 178.497 338.81 178.616 339.048 178.854C339.286 179.092 339.405 179.387 339.405 179.738C339.405 180.089 339.286 180.384 339.048 180.622C338.81 180.86 338.521 180.979 338.181 180.979ZM355.893 180.214L355.264 183.155H357.508V184.855H354.907L354.227 188H352.374L353.054 184.855H349.722L349.042 188H347.189L347.869 184.855H345.234V183.155H348.226L348.855 180.214H346.237V178.514H349.212L349.875 175.42H351.728L351.065 178.514H354.397L355.06 175.42H356.913L356.25 178.514H358.511V180.214H355.893ZM354.04 180.214H350.708L350.079 183.155H353.411L354.04 180.214ZM362.966 184.634C363.08 185.201 363.323 185.631 363.697 185.926C364.071 186.221 364.576 186.368 365.21 186.368C366.015 186.368 366.604 186.051 366.978 185.416C367.352 184.781 367.539 183.699 367.539 182.169C367.267 182.554 366.882 182.855 366.383 183.07C365.896 183.274 365.363 183.376 364.785 183.376C364.049 183.376 363.38 183.229 362.779 182.934C362.179 182.628 361.703 182.18 361.351 181.591C361.011 180.99 360.841 180.265 360.841 179.415C360.841 178.168 361.204 177.177 361.929 176.44C362.666 175.692 363.675 175.318 364.955 175.318C366.497 175.318 367.59 175.834 368.236 176.865C368.894 177.885 369.222 179.455 369.222 181.574C369.222 183.036 369.098 184.232 368.848 185.161C368.61 186.09 368.191 186.793 367.59 187.269C366.99 187.745 366.157 187.983 365.091 187.983C363.879 187.983 362.944 187.666 362.286 187.031C361.629 186.396 361.261 185.597 361.181 184.634H362.966ZM365.125 181.744C365.805 181.744 366.338 181.534 366.723 181.115C367.12 180.684 367.318 180.118 367.318 179.415C367.318 178.633 367.109 178.027 366.689 177.596C366.281 177.154 365.72 176.933 365.006 176.933C364.292 176.933 363.726 177.16 363.306 177.613C362.898 178.055 362.694 178.639 362.694 179.364C362.694 180.055 362.893 180.628 363.289 181.081C363.697 181.523 364.309 181.744 365.125 181.744ZM371.309 178.667C371.377 177.613 371.78 176.791 372.516 176.202C373.264 175.613 374.216 175.318 375.372 175.318C376.166 175.318 376.851 175.46 377.429 175.743C378.007 176.026 378.444 176.412 378.738 176.899C379.033 177.386 379.18 177.936 379.18 178.548C379.18 179.251 378.993 179.851 378.619 180.35C378.245 180.849 377.798 181.183 377.276 181.353V181.421C377.945 181.625 378.466 181.999 378.84 182.543C379.214 183.076 379.401 183.761 379.401 184.6C379.401 185.269 379.248 185.864 378.942 186.385C378.636 186.906 378.183 187.32 377.582 187.626C376.982 187.921 376.262 188.068 375.423 188.068C374.199 188.068 373.191 187.756 372.397 187.133C371.615 186.498 371.196 185.592 371.139 184.413H373.009C373.055 185.014 373.287 185.507 373.706 185.892C374.126 186.266 374.692 186.453 375.406 186.453C376.098 186.453 376.63 186.266 377.004 185.892C377.378 185.507 377.565 185.014 377.565 184.413C377.565 183.62 377.31 183.059 376.8 182.73C376.302 182.39 375.531 182.22 374.488 182.22H374.046V180.622H374.505C375.423 180.611 376.12 180.458 376.596 180.163C377.084 179.868 377.327 179.404 377.327 178.769C377.327 178.225 377.152 177.794 376.8 177.477C376.449 177.148 375.95 176.984 375.304 176.984C374.67 176.984 374.177 177.148 373.825 177.477C373.474 177.794 373.264 178.191 373.196 178.667H371.309ZM383.63 177.749V181.217H387.71V182.798H383.63V186.419H388.22V188H381.692V176.168H388.22V177.749H383.63ZM392.766 184.634C392.879 185.201 393.123 185.631 393.497 185.926C393.871 186.221 394.375 186.368 395.01 186.368C395.815 186.368 396.404 186.051 396.778 185.416C397.152 184.781 397.339 183.699 397.339 182.169C397.067 182.554 396.682 182.855 396.183 183.07C395.696 183.274 395.163 183.376 394.585 183.376C393.848 183.376 393.18 183.229 392.579 182.934C391.978 182.628 391.502 182.18 391.151 181.591C390.811 180.99 390.641 180.265 390.641 179.415C390.641 178.168 391.004 177.177 391.729 176.44C392.466 175.692 393.474 175.318 394.755 175.318C396.296 175.318 397.39 175.834 398.036 176.865C398.693 177.885 399.022 179.455 399.022 181.574C399.022 183.036 398.897 184.232 398.648 185.161C398.41 186.09 397.991 186.793 397.39 187.269C396.789 187.745 395.956 187.983 394.891 187.983C393.678 187.983 392.743 187.666 392.086 187.031C391.429 186.396 391.06 185.597 390.981 184.634H392.766ZM394.925 181.744C395.605 181.744 396.138 181.534 396.523 181.115C396.92 180.684 397.118 180.118 397.118 179.415C397.118 178.633 396.908 178.027 396.489 177.596C396.081 177.154 395.52 176.933 394.806 176.933C394.092 176.933 393.525 177.16 393.106 177.613C392.698 178.055 392.494 178.639 392.494 179.364C392.494 180.055 392.692 180.628 393.089 181.081C393.497 181.523 394.109 181.744 394.925 181.744ZM407.722 181.931C408.357 182.044 408.895 182.379 409.337 182.934C409.779 183.489 410 184.118 410 184.821C410 185.422 409.841 185.966 409.524 186.453C409.218 186.929 408.77 187.309 408.181 187.592C407.592 187.864 406.906 188 406.124 188H401.398V176.185H405.903C406.708 176.185 407.399 176.321 407.977 176.593C408.555 176.865 408.991 177.233 409.286 177.698C409.581 178.151 409.728 178.661 409.728 179.228C409.728 179.908 409.547 180.475 409.184 180.928C408.821 181.381 408.334 181.716 407.722 181.931ZM403.336 181.149H405.733C406.368 181.149 406.861 181.007 407.212 180.724C407.575 180.429 407.756 180.01 407.756 179.466C407.756 178.933 407.575 178.52 407.212 178.225C406.861 177.919 406.368 177.766 405.733 177.766H403.336V181.149ZM405.954 186.419C406.611 186.419 407.127 186.26 407.501 185.943C407.875 185.626 408.062 185.184 408.062 184.617C408.062 184.039 407.864 183.58 407.467 183.24C407.07 182.9 406.543 182.73 405.886 182.73H403.336V186.419H405.954ZM414.044 177.749V181.217H418.124V182.798H414.044V186.419H418.634V188H412.106V176.168H418.634V177.749H414.044Z" fill="#002F5F"/>
<path d="M577.296 167.168C576.176 167.168 575.168 166.976 574.272 166.592C573.376 166.192 572.672 165.632 572.16 164.912C571.648 164.192 571.392 163.352 571.392 162.392H574.32C574.384 163.112 574.664 163.704 575.16 164.168C575.672 164.632 576.384 164.864 577.296 164.864C578.24 164.864 578.976 164.64 579.504 164.192C580.032 163.728 580.296 163.136 580.296 162.416C580.296 161.856 580.128 161.4 579.792 161.048C579.472 160.696 579.064 160.424 578.568 160.232C578.088 160.04 577.416 159.832 576.552 159.608C575.464 159.32 574.576 159.032 573.888 158.744C573.216 158.44 572.64 157.976 572.16 157.352C571.68 156.728 571.44 155.896 571.44 154.856C571.44 153.896 571.68 153.056 572.16 152.336C572.64 151.616 573.312 151.064 574.176 150.68C575.04 150.296 576.04 150.104 577.176 150.104C578.792 150.104 580.112 150.512 581.136 151.328C582.176 152.128 582.752 153.232 582.864 154.64H579.84C579.792 154.032 579.504 153.512 578.976 153.08C578.448 152.648 577.752 152.432 576.888 152.432C576.104 152.432 575.464 152.632 574.968 153.032C574.472 153.432 574.224 154.008 574.224 154.76C574.224 155.272 574.376 155.696 574.68 156.032C575 156.352 575.4 156.608 575.88 156.8C576.36 156.992 577.016 157.2 577.848 157.424C578.952 157.728 579.848 158.032 580.536 158.336C581.24 158.64 581.832 159.112 582.312 159.752C582.808 160.376 583.056 161.216 583.056 162.272C583.056 163.12 582.824 163.92 582.36 164.672C581.912 165.424 581.248 166.032 580.368 166.496C579.504 166.944 578.48 167.168 577.296 167.168ZM598.404 160.064C598.404 160.56 598.372 161.008 598.308 161.408H588.204C588.284 162.464 588.676 163.312 589.38 163.952C590.084 164.592 590.948 164.912 591.972 164.912C593.444 164.912 594.484 164.296 595.092 163.064H598.044C597.644 164.28 596.916 165.28 595.86 166.064C594.82 166.832 593.524 167.216 591.972 167.216C590.708 167.216 589.572 166.936 588.564 166.376C587.572 165.8 586.788 165 586.212 163.976C585.652 162.936 585.372 161.736 585.372 160.376C585.372 159.016 585.644 157.824 586.188 156.8C586.748 155.76 587.524 154.96 588.516 154.4C589.524 153.84 590.676 153.56 591.972 153.56C593.22 153.56 594.332 153.832 595.308 154.376C596.284 154.92 597.044 155.688 597.588 156.68C598.132 157.656 598.404 158.784 598.404 160.064ZM595.548 159.2C595.532 158.192 595.172 157.384 594.468 156.776C593.764 156.168 592.892 155.864 591.852 155.864C590.908 155.864 590.1 156.168 589.428 156.776C588.756 157.368 588.356 158.176 588.228 159.2H595.548ZM600.185 160.328C600.185 159 600.457 157.824 601.001 156.8C601.561 155.776 602.313 154.984 603.257 154.424C604.217 153.848 605.273 153.56 606.425 153.56C607.465 153.56 608.369 153.768 609.137 154.184C609.921 154.584 610.545 155.088 611.009 155.696V153.776H613.769V167H611.009V165.032C610.545 165.656 609.913 166.176 609.113 166.592C608.313 167.008 607.401 167.216 606.377 167.216C605.241 167.216 604.201 166.928 603.257 166.352C602.313 165.76 601.561 164.944 601.001 163.904C600.457 162.848 600.185 161.656 600.185 160.328ZM611.009 160.376C611.009 159.464 610.817 158.672 610.433 158C610.065 157.328 609.577 156.816 608.969 156.464C608.361 156.112 607.705 155.936 607.001 155.936C606.297 155.936 605.641 156.112 605.033 156.464C604.425 156.8 603.929 157.304 603.545 157.976C603.177 158.632 602.993 159.416 602.993 160.328C602.993 161.24 603.177 162.04 603.545 162.728C603.929 163.416 604.425 163.944 605.033 164.312C605.657 164.664 606.313 164.84 607.001 164.84C607.705 164.84 608.361 164.664 608.969 164.312C609.577 163.96 610.065 163.448 610.433 162.776C610.817 162.088 611.009 161.288 611.009 160.376ZM622.907 156.008H620.459V167H617.699V156.008H616.139V153.776H617.699V152.84C617.699 151.32 618.099 150.216 618.899 149.528C619.715 148.824 620.987 148.472 622.715 148.472V150.752C621.883 150.752 621.299 150.912 620.963 151.232C620.627 151.536 620.459 152.072 620.459 152.84V153.776H622.907V156.008ZM631.067 167.216C629.819 167.216 628.691 166.936 627.683 166.376C626.675 165.8 625.883 165 625.307 163.976C624.731 162.936 624.443 161.736 624.443 160.376C624.443 159.032 624.739 157.84 625.331 156.8C625.923 155.76 626.731 154.96 627.755 154.4C628.779 153.84 629.923 153.56 631.187 153.56C632.451 153.56 633.595 153.84 634.619 154.4C635.643 154.96 636.451 155.76 637.043 156.8C637.635 157.84 637.931 159.032 637.931 160.376C637.931 161.72 637.627 162.912 637.019 163.952C636.411 164.992 635.579 165.8 634.523 166.376C633.483 166.936 632.331 167.216 631.067 167.216ZM631.067 164.84C631.771 164.84 632.427 164.672 633.035 164.336C633.659 164 634.163 163.496 634.547 162.824C634.931 162.152 635.123 161.336 635.123 160.376C635.123 159.416 634.939 158.608 634.571 157.952C634.203 157.28 633.715 156.776 633.107 156.44C632.499 156.104 631.843 155.936 631.139 155.936C630.435 155.936 629.779 156.104 629.171 156.44C628.579 156.776 628.107 157.28 627.755 157.952C627.403 158.608 627.227 159.416 627.227 160.376C627.227 161.8 627.587 162.904 628.307 163.688C629.043 164.456 629.963 164.84 631.067 164.84ZM639.724 160.328C639.724 159 639.996 157.824 640.54 156.8C641.1 155.776 641.852 154.984 642.796 154.424C643.756 153.848 644.812 153.56 645.964 153.56C647.004 153.56 647.908 153.768 648.676 154.184C649.46 154.584 650.084 155.088 650.548 155.696V153.776H653.308V167H650.548V165.032C650.084 165.656 649.452 166.176 648.652 166.592C647.852 167.008 646.94 167.216 645.916 167.216C644.78 167.216 643.74 166.928 642.796 166.352C641.852 165.76 641.1 164.944 640.54 163.904C639.996 162.848 639.724 161.656 639.724 160.328ZM650.548 160.376C650.548 159.464 650.356 158.672 649.972 158C649.604 157.328 649.116 156.816 648.508 156.464C647.9 156.112 647.244 155.936 646.54 155.936C645.836 155.936 645.18 156.112 644.572 156.464C643.964 156.8 643.468 157.304 643.084 157.976C642.716 158.632 642.532 159.416 642.532 160.328C642.532 161.24 642.716 162.04 643.084 162.728C643.468 163.416 643.964 163.944 644.572 164.312C645.196 164.664 645.852 164.84 646.54 164.84C647.244 164.84 647.9 164.664 648.508 164.312C649.116 163.96 649.604 163.448 649.972 162.776C650.356 162.088 650.548 161.288 650.548 160.376ZM672.91 153.56C673.95 153.56 674.878 153.776 675.694 154.208C676.526 154.64 677.174 155.28 677.638 156.128C678.118 156.976 678.358 158 678.358 159.2V167H675.646V159.608C675.646 158.424 675.35 157.52 674.758 156.896C674.166 156.256 673.358 155.936 672.334 155.936C671.31 155.936 670.494 156.256 669.886 156.896C669.294 157.52 668.998 158.424 668.998 159.608V167H666.286V159.608C666.286 158.424 665.99 157.52 665.398 156.896C664.806 156.256 663.998 155.936 662.974 155.936C661.95 155.936 661.134 156.256 660.526 156.896C659.934 157.52 659.638 158.424 659.638 159.608V167H656.902V153.776H659.638V155.288C660.086 154.744 660.654 154.32 661.342 154.016C662.03 153.712 662.766 153.56 663.55 153.56C664.606 153.56 665.55 153.784 666.382 154.232C667.214 154.68 667.854 155.328 668.302 156.176C668.702 155.376 669.326 154.744 670.174 154.28C671.022 153.8 671.934 153.56 672.91 153.56ZM580.71 176.185V188H578.772V182.832H573.213V188H571.275V176.185H573.213V181.251H578.772V176.185H580.71ZM585.199 177.749V181.217H589.279V182.798H585.199V186.419H589.789V188H583.261V176.168H589.789V177.749H585.199ZM597.599 182.101L601.271 188H599.095L596.426 183.716L593.927 188H591.768L595.44 182.101L591.751 176.185H593.927L596.613 180.503L599.129 176.185H601.288L597.599 182.101ZM604.181 188.119C603.83 188.119 603.535 188 603.297 187.762C603.059 187.524 602.94 187.229 602.94 186.878C602.94 186.527 603.059 186.232 603.297 185.994C603.535 185.756 603.83 185.637 604.181 185.637C604.521 185.637 604.81 185.756 605.048 185.994C605.286 186.232 605.405 186.527 605.405 186.878C605.405 187.229 605.286 187.524 605.048 187.762C604.81 188 604.521 188.119 604.181 188.119ZM604.181 180.979C603.83 180.979 603.535 180.86 603.297 180.622C603.059 180.384 602.94 180.089 602.94 179.738C602.94 179.387 603.059 179.092 603.297 178.854C603.535 178.616 603.83 178.497 604.181 178.497C604.521 178.497 604.81 178.616 605.048 178.854C605.286 179.092 605.405 179.387 605.405 179.738C605.405 180.089 605.286 180.384 605.048 180.622C604.81 180.86 604.521 180.979 604.181 180.979ZM621.893 180.214L621.264 183.155H623.508V184.855H620.907L620.227 188H618.374L619.054 184.855H615.722L615.042 188H613.189L613.869 184.855H611.234V183.155H614.226L614.855 180.214H612.237V178.514H615.212L615.875 175.42H617.728L617.065 178.514H620.397L621.06 175.42H622.913L622.25 178.514H624.511V180.214H621.893ZM620.04 180.214H616.708L616.079 183.155H619.411L620.04 180.214ZM628.966 184.634C629.08 185.201 629.323 185.631 629.697 185.926C630.071 186.221 630.576 186.368 631.21 186.368C632.015 186.368 632.604 186.051 632.978 185.416C633.352 184.781 633.539 183.699 633.539 182.169C633.267 182.554 632.882 182.855 632.383 183.07C631.896 183.274 631.363 183.376 630.785 183.376C630.049 183.376 629.38 183.229 628.779 182.934C628.179 182.628 627.703 182.18 627.351 181.591C627.011 180.99 626.841 180.265 626.841 179.415C626.841 178.168 627.204 177.177 627.929 176.44C628.666 175.692 629.675 175.318 630.955 175.318C632.497 175.318 633.59 175.834 634.236 176.865C634.894 177.885 635.222 179.455 635.222 181.574C635.222 183.036 635.098 184.232 634.848 185.161C634.61 186.09 634.191 186.793 633.59 187.269C632.99 187.745 632.157 187.983 631.091 187.983C629.879 187.983 628.944 187.666 628.286 187.031C627.629 186.396 627.261 185.597 627.181 184.634H628.966ZM631.125 181.744C631.805 181.744 632.338 181.534 632.723 181.115C633.12 180.684 633.318 180.118 633.318 179.415C633.318 178.633 633.109 178.027 632.689 177.596C632.281 177.154 631.72 176.933 631.006 176.933C630.292 176.933 629.726 177.16 629.306 177.613C628.898 178.055 628.694 178.639 628.694 179.364C628.694 180.055 628.893 180.628 629.289 181.081C629.697 181.523 630.309 181.744 631.125 181.744ZM637.309 178.667C637.377 177.613 637.78 176.791 638.516 176.202C639.264 175.613 640.216 175.318 641.372 175.318C642.166 175.318 642.851 175.46 643.429 175.743C644.007 176.026 644.444 176.412 644.738 176.899C645.033 177.386 645.18 177.936 645.18 178.548C645.18 179.251 644.993 179.851 644.619 180.35C644.245 180.849 643.798 181.183 643.276 181.353V181.421C643.945 181.625 644.466 181.999 644.84 182.543C645.214 183.076 645.401 183.761 645.401 184.6C645.401 185.269 645.248 185.864 644.942 186.385C644.636 186.906 644.183 187.32 643.582 187.626C642.982 187.921 642.262 188.068 641.423 188.068C640.199 188.068 639.191 187.756 638.397 187.133C637.615 186.498 637.196 185.592 637.139 184.413H639.009C639.055 185.014 639.287 185.507 639.706 185.892C640.126 186.266 640.692 186.453 641.406 186.453C642.098 186.453 642.63 186.266 643.004 185.892C643.378 185.507 643.565 185.014 643.565 184.413C643.565 183.62 643.31 183.059 642.8 182.73C642.302 182.39 641.531 182.22 640.488 182.22H640.046V180.622H640.505C641.423 180.611 642.12 180.458 642.596 180.163C643.084 179.868 643.327 179.404 643.327 178.769C643.327 178.225 643.152 177.794 642.8 177.477C642.449 177.148 641.95 176.984 641.304 176.984C640.67 176.984 640.177 177.148 639.825 177.477C639.474 177.794 639.264 178.191 639.196 178.667H637.309ZM649.63 177.749V181.217H653.71V182.798H649.63V186.419H654.22V188H647.692V176.168H654.22V177.749H649.63ZM658.766 184.634C658.879 185.201 659.123 185.631 659.497 185.926C659.871 186.221 660.375 186.368 661.01 186.368C661.815 186.368 662.404 186.051 662.778 185.416C663.152 184.781 663.339 183.699 663.339 182.169C663.067 182.554 662.682 182.855 662.183 183.07C661.696 183.274 661.163 183.376 660.585 183.376C659.848 183.376 659.18 183.229 658.579 182.934C657.978 182.628 657.502 182.18 657.151 181.591C656.811 180.99 656.641 180.265 656.641 179.415C656.641 178.168 657.004 177.177 657.729 176.44C658.466 175.692 659.474 175.318 660.755 175.318C662.296 175.318 663.39 175.834 664.036 176.865C664.693 177.885 665.022 179.455 665.022 181.574C665.022 183.036 664.897 184.232 664.648 185.161C664.41 186.09 663.991 186.793 663.39 187.269C662.789 187.745 661.956 187.983 660.891 187.983C659.678 187.983 658.743 187.666 658.086 187.031C657.429 186.396 657.06 185.597 656.981 184.634H658.766ZM660.925 181.744C661.605 181.744 662.138 181.534 662.523 181.115C662.92 180.684 663.118 180.118 663.118 179.415C663.118 178.633 662.908 178.027 662.489 177.596C662.081 177.154 661.52 176.933 660.806 176.933C660.092 176.933 659.525 177.16 659.106 177.613C658.698 178.055 658.494 178.639 658.494 179.364C658.494 180.055 658.692 180.628 659.089 181.081C659.497 181.523 660.109 181.744 660.925 181.744ZM673.722 181.931C674.357 182.044 674.895 182.379 675.337 182.934C675.779 183.489 676 184.118 676 184.821C676 185.422 675.841 185.966 675.524 186.453C675.218 186.929 674.77 187.309 674.181 187.592C673.592 187.864 672.906 188 672.124 188H667.398V176.185H671.903C672.708 176.185 673.399 176.321 673.977 176.593C674.555 176.865 674.991 177.233 675.286 177.698C675.581 178.151 675.728 178.661 675.728 179.228C675.728 179.908 675.547 180.475 675.184 180.928C674.821 181.381 674.334 181.716 673.722 181.931ZM669.336 181.149H671.733C672.368 181.149 672.861 181.007 673.212 180.724C673.575 180.429 673.756 180.01 673.756 179.466C673.756 178.933 673.575 178.52 673.212 178.225C672.861 177.919 672.368 177.766 671.733 177.766H669.336V181.149ZM671.954 186.419C672.611 186.419 673.127 186.26 673.501 185.943C673.875 185.626 674.062 185.184 674.062 184.617C674.062 184.039 673.864 183.58 673.467 183.24C673.07 182.9 672.543 182.73 671.886 182.73H669.336V186.419H671.954ZM680.044 177.749V181.217H684.124V182.798H680.044V186.419H684.634V188H678.106V176.168H684.634V177.749H680.044Z" fill="#002F5F"/>
</g>
<defs>
<filter id="filter0_d_265_4672" x="0" y="24" width="839" height="216" filterUnits="userSpaceOnUse" color-interpolation-filters="sRGB">
<feFlood flood-opacity="0" result="BackgroundImageFix"/>
<feColorMatrix in="SourceAlpha" type="matrix" values="0 0 0 0 0 0 0 0 0 0 0 0 0 0 0 0 0 0 127 0" result="hardAlpha"/>
<feOffset dx="4" dy="4"/>
<feGaussianBlur stdDeviation="10"/>
<feComposite in2="hardAlpha" operator="out"/>
<feColorMatrix type="matrix" values="0 0 0 0 0 0 0 0 0 0 0 0 0 0 0 0 0 0 0.25 0"/>
<feBlend mode="normal" in2="BackgroundImageFix" result="effect1_dropShadow_265_4672"/>
<feBlend mode="normal" in="SourceGraphic" in2="effect1_dropShadow_265_4672" result="shape"/>
</filter>
</defs>
</svg>
