<svg width="42" height="42" viewBox="0 0 42 42" fill="none" xmlns="http://www.w3.org/2000/svg">
<path fill-rule="evenodd" clip-rule="evenodd" d="M21 42C32.5977 42 42 32.5977 42 21C42 9.40234 32.5977 0 21 0C9.40234 0 0 9.40234 0 21C0 32.5977 9.40234 42 21 42ZM34.0605 19.9395L24.5146 10.3936C23.9287 9.80762 22.9795 9.80762 22.3936 10.3936C22.0479 10.7393 21.9062 11.2119 21.9688 11.6621C22.0117 11.9736 22.1533 12.2744 22.3936 12.5146L29.3789 19.5H9C8.17188 19.5 7.5 20.1719 7.5 21C7.5 21.8281 8.17188 22.5 9 22.5H29.3789L22.3936 29.4854C22.0703 29.8086 21.9258 30.2422 21.959 30.6641C21.9854 31.0078 22.1309 31.3438 22.3936 31.6064C22.9795 32.1924 23.9287 32.1924 24.5146 31.6064L34.0605 22.0605C34.6465 21.4746 34.6465 20.5254 34.0605 19.9395Z" fill="#1976D2"/>
</svg>
