<svg width="1273" height="1064" viewBox="0 0 1273 1064" fill="none" xmlns="http://www.w3.org/2000/svg">
<g filter="url(#filter0_d_331_376)">
<path d="M534.046 1036.5V1043V1049.5H709.676C822.808 1049.5 921.055 1021.22 1003.9 979.973C1087.06 939.029 1151.2 879.387 1195.66 801.103C1240.1 722.841 1261.96 630.808 1261.96 525.246C1261.96 482.713 1258.72 442.34 1251.7 406.937L1251.12 403.997L1248.5 402.531C1204.82 378.036 1163.88 359.555 1133 346.916C1168.15 352.382 1201.46 358.748 1232.82 365.884L1243.48 368.311L1240.52 357.784C1229.78 319.654 1214.83 283.829 1196.13 250.78C1151.67 172.035 1087.55 111.948 1004.42 69.6316C921.266 27.3023 822.945 6.5 710.137 6.5H710.125L710.114 6.50004L73.0762 8.79501C73.0722 8.79501 73.0683 8.79501 73.0644 8.79501C63.7347 8.79604 56.3837 10.0196 49.6643 13.1236C43.0247 16.1907 37.5351 20.8564 31.6122 26.7541C17.9113 40.3964 9.75334 59.6539 11.2755 80.9257C12.5 98.9389 18.2703 115.724 28.6828 128.14C39.2204 140.706 54.2794 148.48 73.0762 148.48H73.1636L73.251 148.477L158.443 146.184C224.761 146.185 290.968 146.758 357.15 147.332L357.335 147.333C423.475 147.907 489.591 148.48 555.712 148.48C586.327 148.48 613.101 171.447 615.146 201.178L615.147 201.193L615.148 201.208C616.383 218.014 609.8 234.065 598.653 245.192C588.234 255.129 573.694 261.705 558.017 261.705C510.267 261.705 462.524 262.279 414.827 262.853L414.807 262.853C367.09 263.427 319.419 264 271.754 264C252.528 264 234.742 271.559 221.993 284.254L221.946 284.301L221.9 284.349C209.778 296.922 201.64 314.566 201.64 333.842C201.64 362.464 220.553 387.123 245.233 397.655L245.305 397.686L245.379 397.715C250.734 399.848 256.159 400.93 262.074 400.93H406.819C438.289 400.93 463.932 426.505 463.932 457.773V465.576C463.932 496.844 438.289 522.418 406.819 522.418H154.207C143.58 522.418 132.377 523.844 121.958 528.992C116.252 531.526 113.723 537.033 112.291 540.324C111.955 541.095 111.676 541.764 111.419 542.377C110.989 543.407 110.624 544.28 110.169 545.218C109.499 546.6 108.986 547.331 108.594 547.721C107.482 548.829 106.32 549.96 105.135 551.114C100.543 555.586 95.5855 560.413 91.67 565.645C86.5448 572.492 82.7208 580.583 82.7101 590.84C82.2222 629.67 116.377 661.185 155.129 661.185C213.888 661.185 275.298 661.299 336.716 661.414H336.739L336.818 661.414C398.215 661.529 459.618 661.644 518.373 661.644C533.268 661.644 544.721 667.558 552.838 677.087C561.075 686.757 566.125 700.478 567.205 716.178L567.206 716.193L567.207 716.208C567.873 725.27 567.607 736.631 565.271 745.522C564.101 749.975 562.538 753.307 560.745 755.437C559.114 757.373 557.36 758.28 555.109 758.346C548.18 758.454 544.565 758.07 542.689 757.821C542.569 757.805 542.413 757.782 542.232 757.756C541.549 757.657 540.522 757.509 539.848 757.486C539.287 757.466 537.959 757.455 536.497 758.1C534.78 758.858 533.768 760.101 533.21 761.061C532.778 761.804 532.526 762.554 532.469 762.715C532.436 762.809 532.408 762.887 532.384 762.957C532.322 763.135 532.279 763.257 532.211 763.433C532.06 763.823 531.787 764.463 531.201 765.441C530.126 767.235 527.952 770.245 523.448 774.911C507.791 775.163 483.494 775.706 459.234 776.247L459.224 776.248C433.512 776.822 407.844 777.395 392.432 777.624L391.081 777.644C329.76 778.555 268.946 779.459 208.14 779.459C188.914 779.459 171.128 787.018 158.379 799.713L158.332 799.76L158.286 799.808C146.127 812.419 138.535 829.56 138.029 848.207L138.028 848.253L138.027 848.298C137.515 887.547 171.617 919.143 209.984 919.143C232.984 919.143 256.179 919.626 279.453 920.109C316.196 920.873 353.135 921.641 389.81 920.522L533.943 922.815L533.995 922.815H534.046C565.517 922.815 591.16 948.39 591.16 979.658C591.16 995.349 584.952 1009.74 574.682 1019.99C564.263 1029.92 549.723 1036.5 534.046 1036.5Z" stroke="black" stroke-width="13"/>
<path d="M72.6139 139.651C37.8543 139.651 9.5 111.415 9.5 76.809C9.5 42.2031 37.8543 13.9668 72.6139 13.9668C107.373 13.9668 135.728 42.2031 135.728 76.809C135.728 111.417 107.832 139.651 72.6139 139.651Z" fill="#F42D60" stroke="black"/>
<path d="M558.018 266.294C523.259 266.294 494.904 238.058 494.904 203.452C494.904 168.846 523.259 140.609 558.018 140.609C592.778 140.609 621.132 168.846 621.132 203.452C621.132 238.058 592.778 266.294 558.018 266.294Z" fill="#FF5902" stroke="black"/>
<path d="M263.456 393.015C228.697 393.015 200.342 364.778 200.342 330.172C200.342 295.566 228.697 267.33 263.456 267.33C298.216 267.33 326.57 295.566 326.57 330.172C326.57 364.781 298.675 393.015 263.456 393.015Z" fill="#FFCA01" stroke="black"/>
<path d="M410.966 527.493C373.902 527.493 343.703 497.421 343.703 460.52C343.703 423.619 373.902 393.547 410.966 393.547C448.03 393.547 478.227 423.618 478.229 460.518C477.769 497.425 447.565 527.493 410.966 527.493Z" fill="#3D77FD" stroke="black"/>
<path d="M152.362 654.177C117.602 654.177 89.2482 625.94 89.2482 591.334C89.2482 556.728 117.602 528.492 152.362 528.492C187.122 528.492 215.476 556.728 215.476 591.334C215.476 625.94 187.122 654.177 152.362 654.177Z" fill="#39D489" stroke="black"/>
<path d="M517.911 780.854C483.152 780.854 454.797 752.618 454.797 718.012C454.797 683.406 483.152 655.17 517.911 655.17C552.671 655.17 581.025 683.406 581.025 718.012C581.025 752.621 553.13 780.854 517.911 780.854Z" fill="#FF8700" stroke="black"/>
<path d="M203.992 911.688C169.232 911.688 140.878 883.452 140.878 848.846C140.878 814.24 169.232 786.004 203.992 786.004C238.751 786.004 267.105 814.24 267.105 848.846C267.105 883.452 238.751 911.688 203.992 911.688Z" fill="#3BD9EA" stroke="black"/>
<path d="M534.047 1042.02C499.288 1042.02 470.933 1013.78 470.933 979.174C470.933 944.568 499.288 916.332 534.047 916.332C568.807 916.332 597.161 944.568 597.161 979.174C597.161 1014.24 568.809 1042.02 534.047 1042.02Z" fill="#D342D3" stroke="black"/>
</g>
<defs>
<filter id="filter0_d_331_376" x="0.59375" y="0" width="1271.87" height="1064" filterUnits="userSpaceOnUse" color-interpolation-filters="sRGB">
<feFlood flood-opacity="0" result="BackgroundImageFix"/>
<feColorMatrix in="SourceAlpha" type="matrix" values="0 0 0 0 0 0 0 0 0 0 0 0 0 0 0 0 0 0 127 0" result="hardAlpha"/>
<feOffset dy="4"/>
<feGaussianBlur stdDeviation="2"/>
<feComposite in2="hardAlpha" operator="out"/>
<feColorMatrix type="matrix" values="0 0 0 0 0 0 0 0 0 0 0 0 0 0 0 0 0 0 0.25 0"/>
<feBlend mode="normal" in2="BackgroundImageFix" result="effect1_dropShadow_331_376"/>
<feBlend mode="normal" in="SourceGraphic" in2="effect1_dropShadow_331_376" result="shape"/>
</filter>
</defs>
</svg>
