<svg width="48" height="42" viewBox="0 0 48 42" fill="none" xmlns="http://www.w3.org/2000/svg">
<g clip-path="url(#clip0_228_843)">
<path d="M47.0368 20.5577C44.5757 18.2036 32.2697 16.7338 28.3866 16.3062C28.576 15.86 28.7365 15.4021 28.8671 14.9355C29.4183 14.6948 29.9831 14.4862 30.5586 14.3107C30.6306 14.5222 30.9698 15.3323 31.1629 15.7167C38.9711 15.9312 39.372 9.93992 39.6896 8.29856C40.0001 6.69378 39.9844 5.14314 42.6626 2.30824C38.6726 1.15072 32.9344 4.10248 31.0125 8.49586C30.2903 8.22632 29.5663 8.02733 28.8505 7.90432C28.3373 5.84389 25.6656 0.103516 18.6548 0.103516C9.77814 0.103702 0.103516 7.39434 0.103516 19.7354C0.103516 30.1096 7.21783 39.201 11.2373 39.201C12.9928 39.201 14.5028 37.8925 14.8573 36.7193C15.1545 37.5238 16.0665 40.0242 16.366 40.6608C16.8085 41.6021 18.8558 42.4167 19.7516 41.4397C20.9035 42.0768 23.0171 42.4608 24.1691 40.7616C26.3875 41.2288 28.3487 39.9119 28.3916 38.3403C29.4803 38.2825 30.0143 36.7607 29.7765 35.5489C29.6012 34.6566 27.7294 31.4553 26.9993 30.3502C28.4445 31.5206 32.1056 31.852 32.5504 30.351C34.8806 32.1719 38.5123 31.2162 38.8003 29.7352C41.632 30.4677 44.8796 28.859 44.3466 26.9105C48.8953 26.5975 48.3131 21.7789 47.0368 20.5577Z" fill="#543729"/>
<path d="M34.3708 10.2807C35.3507 8.3453 36.5818 6.23223 38.1367 4.92501C36.4252 5.61157 34.7355 7.66453 33.7363 9.85861C33.2374 9.54225 32.7207 9.25474 32.1887 8.99751C33.5824 6.03586 36.8209 3.56234 40.3899 3.36914C37.9993 5.52757 38.8481 10.0137 36.8825 12.3889C36.32 11.8263 35.0286 10.741 34.3708 10.2807ZM32.8256 13.432C32.8266 13.3579 32.8545 12.7867 32.9066 12.5259C32.7697 12.4938 31.9175 12.3278 31.4734 12.3383C31.4411 12.8936 31.7077 13.8385 31.9715 14.4073C33.7875 14.3694 35.0992 13.8281 35.8714 13.3302C35.214 13.0252 34.0924 12.7542 33.2396 12.592C33.1444 12.788 32.9102 13.2873 32.8256 13.432Z" fill="#00ACEE"/>
<path d="M26.0776 28.7434L26.0795 28.7522C25.8494 28.259 25.6049 27.6602 25.313 26.8771C26.4496 28.5245 30.0123 27.6748 29.8254 26.1988C31.5691 27.5051 35.1584 25.9811 34.3424 24.1496C36.0892 24.9599 38.0829 23.3295 37.6357 22.6191C40.6137 23.1908 43.4675 23.7609 44.3634 23.9892C43.7682 24.9552 42.4128 25.6375 40.3696 25.1633C41.4738 26.6604 39.3303 28.4567 36.3447 27.4674C37.0019 28.9372 34.3437 30.2607 31.3225 28.7285C31.361 30.1991 27.5744 30.3684 26.0776 28.7434ZM31.985 21.3111C35.4414 21.5754 41.1571 22.0884 44.6956 22.5814C44.4721 21.4351 43.8614 21.1075 41.9405 20.5938C39.8746 20.8131 34.6332 21.3257 31.985 21.3111Z" fill="#2BAF2B"/>
<path d="M29.8252 26.1981C31.569 27.5044 35.1583 25.9805 34.3423 24.1489C36.089 24.9592 38.0827 23.3289 37.6355 22.6184C34.1148 21.9427 30.4205 21.2643 29.5824 21.1458C30.0905 21.1727 30.9333 21.2302 31.9848 21.3106C34.6331 21.3252 39.8745 20.8126 41.9403 20.5933C38.5953 19.7488 31.7657 18.5166 27.0491 18.2129C26.8305 18.531 26.4285 19.0703 25.7287 19.6435C23.6653 23.9902 19.9263 26.8796 15.7893 26.8796C14.5837 26.8796 13.2348 26.6771 11.723 26.1961C10.7803 27.2016 6.76029 27.9636 3.49854 26.3697C6.08585 32.4009 12.0858 36.4269 18.7273 36.4269C24.3208 36.4269 26.801 30.7405 26.2582 29.2359C26.1266 28.8706 25.6046 27.6595 25.3127 26.8765C26.4495 28.5238 30.012 27.6741 29.8252 26.1981Z" fill="#FFCC2F"/>
<path d="M26.4355 14.7533C26.9292 14.4858 28.636 13.4559 30.2624 13.0688C30.2365 12.8889 30.2174 12.7082 30.2052 12.5269C29.1384 12.7811 27.1267 13.6394 25.9741 12.4567C28.406 13.1873 29.6202 11.8058 31.4079 11.8058C32.4729 11.8058 33.9927 12.1018 35.1907 12.5702C34.2271 11.6839 31.0672 9.00933 27.1548 9C26.2812 10.0543 25.3372 12.3382 26.4354 14.7531" fill="#CECECE"/>
<path d="M11.7231 26.1972C13.2349 26.6782 14.5837 26.8808 15.7894 26.8808C19.9264 26.8808 23.6651 23.9912 25.7287 19.6446C24.2025 20.913 21.5499 21.9983 17.4075 21.9983C21.0973 21.1652 24.2737 19.3346 25.8896 16.6589C24.7537 14.8591 23.5217 10.8773 26.6415 7.72951C26.1615 6.19455 23.8258 2.14258 18.6547 2.14258C9.63037 2.14258 2.15137 9.66039 2.15137 19.7355C2.15137 22.1206 2.63493 24.3574 3.49874 26.3708C6.7603 27.9647 10.7803 27.2028 11.7231 26.1972Z" fill="#EF5734"/>
<path d="M14.4307 10.8549C14.4307 13.1466 16.2969 15.0045 18.5988 15.0045C20.9009 15.0045 22.7673 13.1466 22.7673 10.8549C22.7673 8.56297 20.9009 6.70508 18.5988 6.70508C16.2969 6.70508 14.4307 8.56316 14.4307 10.8549Z" fill="#FFCC2F"/>
<path d="M16.1032 10.8558C16.1032 12.2278 17.2207 13.3402 18.5987 13.3402C19.977 13.3402 21.0943 12.2276 21.0943 10.8556C21.0943 9.48363 19.9772 8.37109 18.5987 8.37109C17.2205 8.37109 16.103 9.48363 16.103 10.8556" fill="#543729"/>
<path d="M18.5988 10.6537C19.4019 10.6537 20.053 10.2507 20.053 9.75362C20.053 9.25651 19.4019 8.85352 18.5988 8.85352C17.7956 8.85352 17.1445 9.25651 17.1445 9.75362C17.1445 10.2507 17.7956 10.6537 18.5988 10.6537Z" fill="white"/>
</g>
<defs>
<clipPath id="clip0_228_843">
<rect width="48" height="42" fill="white"/>
</clipPath>
</defs>
</svg>
