<svg width="44" height="44" viewBox="0 0 44 44" fill="none" xmlns="http://www.w3.org/2000/svg">
<g clip-path="url(#clip0_318_360)">
<path d="M20.6153 19.2309C21.3792 19.996 22.6198 19.996 23.3849 19.2309L31.0018 11.6152C31.3685 11.2477 31.5745 10.7497 31.5745 10.2304C31.5745 9.71122 31.3685 9.2132 31.0018 8.84567L23.3849 1.23C23.2031 1.0481 22.9872 0.90381 22.7496 0.805365C22.512 0.70692 22.2573 0.65625 22.0001 0.65625C21.7429 0.65625 21.4882 0.70692 21.2506 0.805365C21.013 0.90381 20.7972 1.0481 20.6153 1.23L12.9984 8.84567C12.8166 9.02749 12.6723 9.24337 12.5738 9.48098C12.4754 9.71858 12.4247 9.97325 12.4247 10.2304C12.4247 10.4876 12.4754 10.7423 12.5738 10.9799C12.6723 11.2175 12.8166 11.4334 12.9984 11.6152L20.6153 19.2309ZM32.3866 31.0009C33.1504 31.766 34.391 31.766 35.1561 31.0009L42.773 23.3852C43.1398 23.0177 43.3457 22.5197 43.3457 22.0004C43.3457 21.4812 43.1398 20.9832 42.773 20.6157L35.1561 13C34.9743 12.8181 34.7584 12.6738 34.5208 12.5754C34.2832 12.4769 34.0285 12.4262 33.7713 12.4262C33.5141 12.4262 33.2595 12.4769 33.0219 12.5754C32.7843 12.6738 32.5684 12.8181 32.3866 13L24.7697 20.6157C24.5878 20.7975 24.4435 21.0134 24.345 21.251C24.2466 21.4886 24.1959 21.7433 24.1959 22.0004C24.1959 22.2576 24.2466 22.5123 24.345 22.7499C24.4435 22.9875 24.5878 23.2034 24.7697 23.3852L32.3866 31.0009ZM31.0006 32.3869L23.3849 24.77C23.2031 24.5881 22.9872 24.4438 22.7496 24.3454C22.512 24.2469 22.2573 24.1963 22.0001 24.1963C21.7429 24.1963 21.4882 24.2469 21.2506 24.3454C21.013 24.4438 20.7972 24.5881 20.6153 24.77L12.9997 32.3869C12.8177 32.5685 12.6733 32.7843 12.5747 33.0218C12.4762 33.2593 12.4255 33.5139 12.4255 33.7711C12.4255 34.0282 12.4762 34.2828 12.5747 34.5203C12.6733 34.7578 12.8177 34.9736 12.9997 35.1552L20.6153 42.7721C21.3804 43.536 22.6198 43.536 23.3849 42.7721L31.0006 35.1552C31.1826 34.9736 31.327 34.7578 31.4255 34.5203C31.524 34.2828 31.5747 34.0282 31.5747 33.7711C31.5747 33.5139 31.524 33.2593 31.4255 33.0218C31.327 32.7843 31.1826 32.5685 31.0006 32.3869ZM19.2306 20.6169L11.6149 13C11.4331 12.8181 11.2172 12.6738 10.9796 12.5754C10.742 12.4769 10.4873 12.4262 10.2301 12.4262C9.97292 12.4262 9.71825 12.4769 9.48065 12.5754C9.24304 12.6738 9.02716 12.8181 8.84533 13L1.22967 20.6169C1.04766 20.7985 0.903269 21.0143 0.804749 21.2518C0.706229 21.4893 0.655518 21.7439 0.655518 22.0011C0.655518 22.2582 0.706229 22.5128 0.804749 22.7503C0.903269 22.9878 1.04766 23.2036 1.22967 23.3852L8.84533 31.0021C9.61045 31.766 10.8498 31.766 11.6149 31.0021L19.2306 23.3852C19.4126 23.2036 19.557 22.9878 19.6555 22.7503C19.754 22.5128 19.8047 22.2582 19.8047 22.0011C19.8047 21.7439 19.754 21.4893 19.6555 21.2518C19.557 21.0143 19.4126 20.7985 19.2306 20.6169Z" fill="#6E44FF"/>
<path d="M22 28.1109C25.3751 28.1109 28.1111 25.3749 28.1111 21.9998C28.1111 18.6247 25.3751 15.8887 22 15.8887C18.625 15.8887 15.8889 18.6247 15.8889 21.9998C15.8889 25.3749 18.625 28.1109 22 28.1109Z" fill="#BBDDF5"/>
<path d="M19.2303 20.6173L15.3021 16.6879C14.0984 18.197 13.4433 20.0705 13.4443 22.0009C13.4443 24.0102 14.1422 25.8545 15.3021 27.3139L19.2303 23.3856C19.4123 23.204 19.5567 22.9883 19.6553 22.7507C19.7538 22.5132 19.8045 22.2586 19.8045 22.0015C19.8045 21.7443 19.7538 21.4897 19.6553 21.2522C19.5567 21.0147 19.4123 20.799 19.2303 20.6173ZM27.3141 28.6986L23.3847 24.7692C23.017 24.4027 22.519 24.197 21.9999 24.197C21.4808 24.197 20.9828 24.4027 20.6151 24.7692L16.6857 28.6986C18.1952 29.9025 20.0691 30.5576 21.9999 30.5564C23.9307 30.5576 25.8046 29.9025 27.3141 28.6986ZM24.7694 23.3856L28.6989 27.3151C29.9018 25.8051 30.5564 23.9314 30.5554 22.0009C30.5568 20.0704 29.9017 18.1969 28.6977 16.6879L24.7682 20.6173C24.4017 20.9848 24.196 21.4827 24.1962 22.0017C24.1964 22.5208 24.4026 23.0185 24.7694 23.3856ZM23.3847 19.2313L27.3141 15.3031C25.8046 14.0993 23.9307 13.4442 21.9999 13.4453C20.0694 13.444 18.1959 14.0991 16.6869 15.3031L20.6163 19.2313C20.798 19.4133 21.0137 19.5577 21.2512 19.6562C21.4888 19.7548 21.7434 19.8055 22.0005 19.8055C22.2576 19.8055 22.5123 19.7548 22.7498 19.6562C22.9873 19.5577 23.203 19.4133 23.3847 19.2313Z" fill="#2F2F2F"/>
</g>
<defs>
<clipPath id="clip0_318_360">
<rect width="44" height="44" fill="white"/>
</clipPath>
</defs>
</svg>
